  0
SECTION
  2
HEADER
  9
$ACADVER
  1
AC1014
  9
$HANDSEED
  5
FFFF
  9
$MEASUREMENT
 70
     1
  0
ENDSEC
  0
SECTION
  2
TABLES
  0
TABLE
  2
VPORT
  5
8
330
0
100
AcDbSymbolTable
 70
     4
  0
VPORT
  5
2E
330
8
100
AcDbSymbolTableRecord
100
AcDbViewportTableRecord
  2
*ACTIVE
 70
     0
 10
0.0
 20
0.0
 11
1.0
 21
1.0
 12
210.0
 22
148.5
 13
0.0
 23
0.0
 14
10.0
 24
10.0
 15
10.0
 25
10.0
 16
0.0
 26
0.0
 36
1.0
 17
0.0
 27
0.0
 37
0.0
 40
341.0
 41
1.24
 42
50.0
 43
0.0
 44
0.0
 50
0.0
 51
0.0
 71
     0
 72
   100
 73
     1
 74
     3
 75
     0
 76
     0
 77
     0
 78
     0
  0
ENDTAB
  0
TABLE
  2
LTYPE
  5
5
330
0
100
AcDbSymbolTable
 70
     1
  0
LTYPE
  5
14
330
5
100
AcDbSymbolTableRecord
100
AcDbLinetypeTableRecord
  2
BYBLOCK
 70
     0
  3

 72
    65
 73
     0
 40
0.0
  0
LTYPE
  5
15
330
5
100
AcDbSymbolTableRecord
100
AcDbLinetypeTableRecord
  2
BYLAYER
 70
     0
  3

 72
    65
 73
     0
 40
0.0
  0
LTYPE
  5
16
330
5
100
AcDbSymbolTableRecord
100
AcDbLinetypeTableRecord
  2
CONTINUOUS
 70
     0
  3
Solid line
 72
    65
 73
     0
 40
0.0
  0
ENDTAB
  0
TABLE
  2
LAYER
  5
2
100
AcDbSymbolTable
 70
2
  0
LAYER
  5
50
100
AcDbSymbolTableRecord
100
AcDbLayerTableRecord
  2
0
 70
0
  6
CONTINUOUS
  0
LAYER
  5
51
100
AcDbSymbolTableRecord
100
AcDbLayerTableRecord
  2
Layer_1
 70
0
  6
CONTINUOUS
  0
ENDTAB
  0
TABLE
  2
STYLE
  5
3
330
0
100
AcDbSymbolTable
 70
     1
  0
STYLE
  5
11
330
3
100
AcDbSymbolTableRecord
100
AcDbTextStyleTableRecord
  2
STANDARD
 70
     0
 40
0.0
 41
1.0
 50
0.0
 71
     0
 42
2.5
  3
txt
  4

  0
ENDTAB
  0
TABLE
  2
VIEW
  5
6
330
0
100
AcDbSymbolTable
 70
     0
  0
ENDTAB
  0
TABLE
  2
UCS
  5
7
330
0
100
AcDbSymbolTable
 70
     0
  0
ENDTAB
  0
TABLE
  2
APPID
  5
9
330
0
100
AcDbSymbolTable
 70
     2
  0
APPID
  5
12
330
9
100
AcDbSymbolTableRecord
100
AcDbRegAppTableRecord
  2
ACAD
 70
     0
  0
ENDTAB
  0
TABLE
  2
DIMSTYLE
  5
A
330
0
100
AcDbSymbolTable
 70
     1
  0
DIMSTYLE
105
27
330
A
100
AcDbSymbolTableRecord
100
AcDbDimStyleTableRecord
  2
ISO-25
 70
     0
  3

  4

  5

  6

  7

 40
1.0
 41
2.5
 42
0.625
 43
3.75
 44
1.25
 45
0.0
 46
0.0
 47
0.0
 48
0.0
140
2.5
141
2.5
142
0.0
143
0.03937007874016
144
1.0
145
0.0
146
1.0
147
0.625
 71
     0
 72
     0
 73
     0
 74
     0
 75
     0
 76
     0
 77
     1
 78
     8
170
     0
171
     3
172
     1
173
     0
174
     0
175
     0
176
     0
177
     0
178
     0
270
     2
271
     2
272
     2
273
     2
274
     3
340
11
275
     0
280
     0
281
     0
282
     0
283
     0
284
     8
285
     0
286
     0
287
     3
288
     0
  0
ENDTAB
  0
TABLE
  2
BLOCK_RECORD
  5
1
330
0
100
AcDbSymbolTable
 70
     1
  0
BLOCK_RECORD
  5
1F
330
1
100
AcDbSymbolTableRecord
100
AcDbBlockTableRecord
  2
*MODEL_SPACE
  0
BLOCK_RECORD
  5
1B
330
1
100
AcDbSymbolTableRecord
100
AcDbBlockTableRecord
  2
*PAPER_SPACE
  0
ENDTAB
  0
ENDSEC
  0
SECTION
  2
BLOCKS
  0
BLOCK
  5
20
330
1F
100
AcDbEntity
  8
0
100
AcDbBlockBegin
  2
*MODEL_SPACE
 70
     0
 10
0.0
 20
0.0
 30
0.0
  3
*MODEL_SPACE
  1

  0
ENDBLK
  5
21
330
1F
100
AcDbEntity
  8
0
100
AcDbBlockEnd
  0
BLOCK
  5
1C
330
1B
100
AcDbEntity
 67
     1
  8
0
100
AcDbBlockBegin
  2
*PAPER_SPACE
  1

  0
ENDBLK
  5
1D
330
1B
100
AcDbEntity
 67
     1
  8
0
100
AcDbBlockEnd
  0
ENDSEC
  0
SECTION
  2
ENTITIES
  0
SPLINE
  5
100
100
AcDbEntity
  8
Layer_1
 62
1
100
AcDbSpline
 70
8
 71
3
 72
8
 73
4
 74
0
 40
0
 40
0
 40
0
 40
0
 40
1
 40
1
 40
1
 40
1
 10
62.820807
 20
560.995661
 30
0.0
 10
63.334841
 20
560.995661
 30
0.0
 10
63.591858
 20
560.738649
 30
0.0
 10
63.591858
 20
560.224624
 30
0.0
  0
SPLINE
  5
101
100
AcDbEntity
  8
Layer_1
 62
1
100
AcDbSpline
 70
8
 71
3
 72
8
 73
4
 74
0
 40
0
 40
0
 40
0
 40
0
 40
1
 40
1
 40
1
 40
1
 10
63.591858
 20
560.224624
 30
0.0
 10
63.591858
 20
559.710591
 30
0.0
 10
63.848868
 20
559.453574
 30
0.0
 10
64.362889
 20
559.453574
 30
0.0
  0
SPLINE
  5
102
100
AcDbEntity
  8
Layer_1
 62
1
100
AcDbSpline
 70
8
 71
3
 72
8
 73
4
 74
0
 40
0
 40
0
 40
0
 40
0
 40
1
 40
1
 40
1
 40
1
 10
64.362889
 20
559.453574
 30
0.0
 10
64.876923
 20
559.453574
 30
0.0
 10
65.133940
 20
559.710591
 30
0.0
 10
65.133940
 20
560.224624
 30
0.0
  0
LWPOLYLINE
  5
103
100
AcDbEntity
  8
Layer_1
 62
1
100
AcDbPolyline
 90
2
 70
0
 10
58.927103
 20
560.995661
 30
0.0
 10
62.820807
 20
560.995661
 30
0.0
  0
SPLINE
  5
104
100
AcDbEntity
  8
Layer_1
 62
1
100
AcDbSpline
 70
8
 71
3
 72
8
 73
4
 74
0
 40
0
 40
0
 40
0
 40
0
 40
1
 40
1
 40
1
 40
1
 10
65.133940
 20
564.773728
 30
0.0
 10
65.133940
 20
565.287737
 30
0.0
 10
64.876923
 20
565.544742
 30
0.0
 10
64.362889
 20
565.544742
 30
0.0
  0
SPLINE
  5
105
100
AcDbEntity
  8
Layer_1
 62
1
100
AcDbSpline
 70
8
 71
3
 72
8
 73
4
 74
0
 40
0
 40
0
 40
0
 40
0
 40
1
 40
1
 40
1
 40
1
 10
64.362889
 20
565.544742
 30
0.0
 10
63.848868
 20
565.544742
 30
0.0
 10
63.591858
 20
565.287737
 30
0.0
 10
63.591858
 20
564.773728
 30
0.0
  0
SPLINE
  5
106
100
AcDbEntity
  8
Layer_1
 62
1
100
AcDbSpline
 70
8
 71
3
 72
8
 73
4
 74
0
 40
0
 40
0
 40
0
 40
0
 40
1
 40
1
 40
1
 40
1
 10
63.591858
 20
564.773728
 30
0.0
 10
63.591858
 20
564.259711
 30
0.0
 10
63.334841
 20
564.002702
 30
0.0
 10
62.820807
 20
564.002702
 30
0.0
  0
LWPOLYLINE
  5
107
100
AcDbEntity
  8
Layer_1
 62
1
100
AcDbPolyline
 90
2
 70
0
 10
65.133940
 20
560.224624
 30
0.0
 10
65.133940
 20
564.773728
 30
0.0
  0
SPLINE
  5
108
100
AcDbEntity
  8
Layer_1
 62
1
100
AcDbSpline
 70
8
 71
3
 72
8
 73
4
 74
0
 40
0
 40
0
 40
0
 40
0
 40
1
 40
1
 40
1
 40
1
 10
58.927103
 20
567.896401
 30
0.0
 10
58.927103
 20
568.410435
 30
0.0
 10
59.184120
 20
568.667452
 30
0.0
 10
59.698156
 20
568.667452
 30
0.0
  0
SPLINE
  5
109
100
AcDbEntity
  8
Layer_1
 62
1
100
AcDbSpline
 70
8
 71
3
 72
8
 73
4
 74
0
 40
0
 40
0
 40
0
 40
0
 40
1
 40
1
 40
1
 40
1
 10
59.698156
 20
568.667452
 30
0.0
 10
60.212156
 20
568.667452
 30
0.0
 10
60.469156
 20
568.924461
 30
0.0
 10
60.469156
 20
569.438480
 30
0.0
  0
SPLINE
  5
10a
100
AcDbEntity
  8
Layer_1
 62
1
100
AcDbSpline
 70
8
 71
3
 72
8
 73
4
 74
0
 40
0
 40
0
 40
0
 40
0
 40
1
 40
1
 40
1
 40
1
 10
60.469156
 20
569.438480
 30
0.0
 10
60.469156
 20
569.952512
 30
0.0
 10
60.212156
 20
570.209528
 30
0.0
 10
59.698156
 20
570.209528
 30
0.0
  0
LWPOLYLINE
  5
10b
100
AcDbEntity
  8
Layer_1
 62
1
100
AcDbPolyline
 90
3
 70
0
 10
62.820807
 20
564.002702
 30
0.0
 10
58.927103
 20
564.002702
 30
0.0
 10
58.927103
 20
567.896401
 30
0.0
  0
SPLINE
  5
10c
100
AcDbEntity
  8
Layer_1
 62
1
100
AcDbSpline
 70
8
 71
3
 72
8
 73
4
 74
0
 40
0
 40
0
 40
0
 40
0
 40
1
 40
1
 40
1
 40
1
 10
55.149036
 20
570.209528
 30
0.0
 10
54.635002
 20
570.209528
 30
0.0
 10
54.377985
 20
569.952512
 30
0.0
 10
54.377985
 20
569.438480
 30
0.0
  0
SPLINE
  5
10d
100
AcDbEntity
  8
Layer_1
 62
1
100
AcDbSpline
 70
8
 71
3
 72
8
 73
4
 74
0
 40
0
 40
0
 40
0
 40
0
 40
1
 40
1
 40
1
 40
1
 10
54.377985
 20
569.438480
 30
0.0
 10
54.377985
 20
568.924461
 30
0.0
 10
54.635002
 20
568.667452
 30
0.0
 10
55.149036
 20
568.667452
 30
0.0
  0
SPLINE
  5
10e
100
AcDbEntity
  8
Layer_1
 62
1
100
AcDbSpline
 70
8
 71
3
 72
8
 73
4
 74
0
 40
0
 40
0
 40
0
 40
0
 40
1
 40
1
 40
1
 40
1
 10
55.149036
 20
568.667452
 30
0.0
 10
55.663055
 20
568.667452
 30
0.0
 10
55.920064
 20
568.410435
 30
0.0
 10
55.920064
 20
567.896401
 30
0.0
  0
LWPOLYLINE
  5
10f
100
AcDbEntity
  8
Layer_1
 62
1
100
AcDbPolyline
 90
2
 70
0
 10
59.698156
 20
570.209528
 30
0.0
 10
55.149036
 20
570.209528
 30
0.0
  0
SPLINE
  5
110
100
AcDbEntity
  8
Layer_1
 62
1
100
AcDbSpline
 70
8
 71
3
 72
8
 73
4
 74
0
 40
0
 40
0
 40
0
 40
0
 40
1
 40
1
 40
1
 40
1
 10
52.026323
 20
564.002702
 30
0.0
 10
51.512329
 20
564.002702
 30
0.0
 10
51.255332
 20
564.259711
 30
0.0
 10
51.255332
 20
564.773728
 30
0.0
  0
SPLINE
  5
111
100
AcDbEntity
  8
Layer_1
 62
1
100
AcDbSpline
 70
8
 71
3
 72
8
 73
4
 74
0
 40
0
 40
0
 40
0
 40
0
 40
1
 40
1
 40
1
 40
1
 10
51.255332
 20
564.773728
 30
0.0
 10
51.255332
 20
565.287737
 30
0.0
 10
50.998315
 20
565.544742
 30
0.0
 10
50.484281
 20
565.544742
 30
0.0
  0
SPLINE
  5
112
100
AcDbEntity
  8
Layer_1
 62
1
100
AcDbSpline
 70
8
 71
3
 72
8
 73
4
 74
0
 40
0
 40
0
 40
0
 40
0
 40
1
 40
1
 40
1
 40
1
 10
50.484281
 20
565.544742
 30
0.0
 10
49.970260
 20
565.544742
 30
0.0
 10
49.713250
 20
565.287737
 30
0.0
 10
49.713250
 20
564.773728
 30
0.0
  0
LWPOLYLINE
  5
113
100
AcDbEntity
  8
Layer_1
 62
1
100
AcDbPolyline
 90
3
 70
0
 10
55.920064
 20
567.896401
 30
0.0
 10
55.920064
 20
564.002702
 30
0.0
 10
52.026323
 20
564.002702
 30
0.0
  0
SPLINE
  5
114
100
AcDbEntity
  8
Layer_1
 62
1
100
AcDbSpline
 70
8
 71
3
 72
8
 73
4
 74
0
 40
0
 40
0
 40
0
 40
0
 40
1
 40
1
 40
1
 40
1
 10
49.713250
 20
560.224624
 30
0.0
 10
49.713250
 20
559.710591
 30
0.0
 10
49.970260
 20
559.453574
 30
0.0
 10
50.484281
 20
559.453574
 30
0.0
  0
SPLINE
  5
115
100
AcDbEntity
  8
Layer_1
 62
1
100
AcDbSpline
 70
8
 71
3
 72
8
 73
4
 74
0
 40
0
 40
0
 40
0
 40
0
 40
1
 40
1
 40
1
 40
1
 10
50.484281
 20
559.453574
 30
0.0
 10
50.998315
 20
559.453574
 30
0.0
 10
51.255332
 20
559.710591
 30
0.0
 10
51.255332
 20
560.224624
 30
0.0
  0
SPLINE
  5
116
100
AcDbEntity
  8
Layer_1
 62
1
100
AcDbSpline
 70
8
 71
3
 72
8
 73
4
 74
0
 40
0
 40
0
 40
0
 40
0
 40
1
 40
1
 40
1
 40
1
 10
51.255332
 20
560.224624
 30
0.0
 10
51.255332
 20
560.738649
 30
0.0
 10
51.512329
 20
560.995661
 30
0.0
 10
52.026323
 20
560.995661
 30
0.0
  0
LWPOLYLINE
  5
117
100
AcDbEntity
  8
Layer_1
 62
1
100
AcDbPolyline
 90
2
 70
0
 10
49.713250
 20
564.773728
 30
0.0
 10
49.713250
 20
560.224624
 30
0.0
  0
SPLINE
  5
118
100
AcDbEntity
  8
Layer_1
 62
1
100
AcDbSpline
 70
8
 71
3
 72
8
 73
4
 74
0
 40
0
 40
0
 40
0
 40
0
 40
1
 40
1
 40
1
 40
1
 10
55.920064
 20
557.101954
 30
0.0
 10
55.920064
 20
556.587939
 30
0.0
 10
55.663055
 20
556.330931
 30
0.0
 10
55.149036
 20
556.330931
 30
0.0
  0
SPLINE
  5
119
100
AcDbEntity
  8
Layer_1
 62
1
100
AcDbSpline
 70
8
 71
3
 72
8
 73
4
 74
0
 40
0
 40
0
 40
0
 40
0
 40
1
 40
1
 40
1
 40
1
 10
55.149036
 20
556.330931
 30
0.0
 10
54.635002
 20
556.330931
 30
0.0
 10
54.377985
 20
556.073922
 30
0.0
 10
54.377985
 20
555.559903
 30
0.0
  0
SPLINE
  5
11a
100
AcDbEntity
  8
Layer_1
 62
1
100
AcDbSpline
 70
8
 71
3
 72
8
 73
4
 74
0
 40
0
 40
0
 40
0
 40
0
 40
1
 40
1
 40
1
 40
1
 10
54.377985
 20
555.559903
 30
0.0
 10
54.377985
 20
555.045871
 30
0.0
 10
54.635002
 20
554.788855
 30
0.0
 10
55.149036
 20
554.788855
 30
0.0
  0
LWPOLYLINE
  5
11b
100
AcDbEntity
  8
Layer_1
 62
1
100
AcDbPolyline
 90
3
 70
0
 10
52.026323
 20
560.995661
 30
0.0
 10
55.920064
 20
560.995661
 30
0.0
 10
55.920064
 20
557.101954
 30
0.0
  0
SPLINE
  5
11c
100
AcDbEntity
  8
Layer_1
 62
1
100
AcDbSpline
 70
8
 71
3
 72
8
 73
4
 74
0
 40
0
 40
0
 40
0
 40
0
 40
1
 40
1
 40
1
 40
1
 10
59.698156
 20
554.788855
 30
0.0
 10
60.212156
 20
554.788855
 30
0.0
 10
60.469156
 20
555.045871
 30
0.0
 10
60.469156
 20
555.559903
 30
0.0
  0
SPLINE
  5
11d
100
AcDbEntity
  8
Layer_1
 62
1
100
AcDbSpline
 70
8
 71
3
 72
8
 73
4
 74
0
 40
0
 40
0
 40
0
 40
0
 40
1
 40
1
 40
1
 40
1
 10
60.469156
 20
555.559903
 30
0.0
 10
60.469156
 20
556.073922
 30
0.0
 10
60.212156
 20
556.330931
 30
0.0
 10
59.698156
 20
556.330931
 30
0.0
  0
SPLINE
  5
11e
100
AcDbEntity
  8
Layer_1
 62
1
100
AcDbSpline
 70
8
 71
3
 72
8
 73
4
 74
0
 40
0
 40
0
 40
0
 40
0
 40
1
 40
1
 40
1
 40
1
 10
59.698156
 20
556.330931
 30
0.0
 10
59.184120
 20
556.330931
 30
0.0
 10
58.927103
 20
556.587939
 30
0.0
 10
58.927103
 20
557.101954
 30
0.0
  0
LWPOLYLINE
  5
11f
100
AcDbEntity
  8
Layer_1
 62
1
100
AcDbPolyline
 90
2
 70
0
 10
55.149036
 20
554.788855
 30
0.0
 10
59.698156
 20
554.788855
 30
0.0
  0
SPLINE
  5
120
100
AcDbEntity
  8
Layer_1
 62
1
100
AcDbSpline
 70
8
 71
3
 72
8
 73
4
 74
0
 40
0
 40
0
 40
0
 40
0
 40
1
 40
1
 40
1
 40
1
 10
136.135810
 20
567.048272
 30
0.0
 10
135.621799
 20
567.048272
 30
0.0
 10
135.364793
 20
566.791267
 30
0.0
 10
135.364793
 20
566.277255
 30
0.0
  0
SPLINE
  5
121
100
AcDbEntity
  8
Layer_1
 62
1
100
AcDbSpline
 70
8
 71
3
 72
8
 73
4
 74
0
 40
0
 40
0
 40
0
 40
0
 40
1
 40
1
 40
1
 40
1
 10
136.906855
 20
566.277255
 30
0.0
 10
136.906855
 20
566.791267
 30
0.0
 10
136.649840
 20
567.048272
 30
0.0
 10
136.135810
 20
567.048272
 30
0.0
  0
SPLINE
  5
122
100
AcDbEntity
  8
Layer_1
 62
1
100
AcDbSpline
 70
8
 71
3
 72
8
 73
4
 74
0
 40
0
 40
0
 40
0
 40
0
 40
1
 40
1
 40
1
 40
1
 10
137.677895
 20
565.506199
 30
0.0
 10
137.163868
 20
565.506199
 30
0.0
 10
136.906855
 20
565.763218
 30
0.0
 10
136.906855
 20
566.277255
 30
0.0
  0
LWPOLYLINE
  5
123
100
AcDbEntity
  8
Layer_1
 62
1
100
AcDbPolyline
 90
2
 70
0
 10
58.927103
 20
557.101954
 30
0.0
 10
58.927103
 20
560.995661
 30
0.0
  0
LWPOLYLINE
  5
124
100
AcDbEntity
  8
Layer_1
 62
1
100
AcDbPolyline
 90
2
 70
0
 10
143.075141
 20
565.506199
 30
0.0
 10
137.677895
 20
565.506199
 30
0.0
  0
LWPOLYLINE
  5
125
100
AcDbEntity
  8
Layer_1
 62
1
100
AcDbPolyline
 90
2
 70
0
 10
143.075141
 20
577.919927
 30
0.0
 10
143.075141
 20
565.506199
 30
0.0
  0
LWPOLYLINE
  5
126
100
AcDbEntity
  8
Layer_1
 62
1
100
AcDbPolyline
 90
2
 70
0
 10
129.157990
 20
577.919927
 30
0.0
 10
143.075141
 20
577.919927
 30
0.0
  0
SPLINE
  5
127
100
AcDbEntity
  8
Layer_1
 62
1
100
AcDbSpline
 70
8
 71
3
 72
8
 73
4
 74
0
 40
0
 40
0
 40
0
 40
0
 40
1
 40
1
 40
1
 40
1
 10
129.929029
 20
573.255090
 30
0.0
 10
129.415003
 20
573.255090
 30
0.0
 10
129.157990
 20
573.512128
 30
0.0
 10
129.157990
 20
574.026206
 30
0.0
  0
SPLINE
  5
128
100
AcDbEntity
  8
Layer_1
 62
1
100
AcDbSpline
 70
8
 71
3
 72
8
 73
4
 74
0
 40
0
 40
0
 40
0
 40
0
 40
1
 40
1
 40
1
 40
1
 10
130.700024
 20
572.484059
 30
0.0
 10
130.700024
 20
572.998091
 30
0.0
 10
130.443026
 20
573.255107
 30
0.0
 10
129.929029
 20
573.255107
 30
0.0
  0
SPLINE
  5
129
100
AcDbEntity
  8
Layer_1
 62
1
100
AcDbSpline
 70
8
 71
3
 72
8
 73
4
 74
0
 40
0
 40
0
 40
0
 40
0
 40
1
 40
1
 40
1
 40
1
 10
129.929029
 20
571.713028
 30
0.0
 10
130.443026
 20
571.713028
 30
0.0
 10
130.700024
 20
571.970038
 30
0.0
 10
130.700024
 20
572.484059
 30
0.0
  0
LWPOLYLINE
  5
12a
100
AcDbEntity
  8
Layer_1
 62
1
100
AcDbPolyline
 90
2
 70
0
 10
129.157990
 20
574.026206
 30
0.0
 10
129.157990
 20
577.919927
 30
0.0
  0
SPLINE
  5
12b
100
AcDbEntity
  8
Layer_1
 62
1
100
AcDbSpline
 70
8
 71
3
 72
8
 73
4
 74
0
 40
0
 40
0
 40
0
 40
0
 40
1
 40
1
 40
1
 40
1
 10
124.608869
 20
572.484059
 30
0.0
 10
124.608869
 20
571.970038
 30
0.0
 10
124.865881
 20
571.713028
 30
0.0
 10
125.379903
 20
571.713028
 30
0.0
  0
SPLINE
  5
12c
100
AcDbEntity
  8
Layer_1
 62
1
100
AcDbSpline
 70
8
 71
3
 72
8
 73
4
 74
0
 40
0
 40
0
 40
0
 40
0
 40
1
 40
1
 40
1
 40
1
 10
125.379903
 20
573.255107
 30
0.0
 10
124.865881
 20
573.255107
 30
0.0
 10
124.608869
 20
572.998091
 30
0.0
 10
124.608869
 20
572.484059
 30
0.0
  0
SPLINE
  5
12d
100
AcDbEntity
  8
Layer_1
 62
1
100
AcDbSpline
 70
8
 71
3
 72
8
 73
4
 74
0
 40
0
 40
0
 40
0
 40
0
 40
1
 40
1
 40
1
 40
1
 10
126.150951
 20
574.026206
 30
0.0
 10
126.150951
 20
573.512128
 30
0.0
 10
125.893935
 20
573.255090
 30
0.0
 10
125.379903
 20
573.255090
 30
0.0
  0
LWPOLYLINE
  5
12e
100
AcDbEntity
  8
Layer_1
 62
1
100
AcDbPolyline
 90
2
 70
0
 10
125.379903
 20
571.713028
 30
0.0
 10
129.929029
 20
571.713028
 30
0.0
  0
LWPOLYLINE
  5
12f
100
AcDbEntity
  8
Layer_1
 62
1
100
AcDbPolyline
 90
2
 70
0
 10
126.150951
 20
577.919927
 30
0.0
 10
126.150951
 20
574.026206
 30
0.0
  0
LWPOLYLINE
  5
130
100
AcDbEntity
  8
Layer_1
 62
1
100
AcDbPolyline
 90
2
 70
0
 10
112.233809
 20
577.919927
 30
0.0
 10
126.150951
 20
577.919927
 30
0.0
  0
LWPOLYLINE
  5
131
100
AcDbEntity
  8
Layer_1
 62
1
100
AcDbPolyline
 90
2
 70
0
 10
112.233809
 20
565.506199
 30
0.0
 10
112.233809
 20
577.919927
 30
0.0
  0
SPLINE
  5
132
100
AcDbEntity
  8
Layer_1
 62
1
100
AcDbSpline
 70
8
 71
3
 72
8
 73
4
 74
0
 40
0
 40
0
 40
0
 40
0
 40
1
 40
1
 40
1
 40
1
 10
118.402046
 20
566.277255
 30
0.0
 10
118.402046
 20
565.763218
 30
0.0
 10
118.145030
 20
565.506199
 30
0.0
 10
117.630998
 20
565.506199
 30
0.0
  0
SPLINE
  5
133
100
AcDbEntity
  8
Layer_1
 62
1
100
AcDbSpline
 70
8
 71
3
 72
8
 73
4
 74
0
 40
0
 40
0
 40
0
 40
0
 40
1
 40
1
 40
1
 40
1
 10
119.173046
 20
567.048272
 30
0.0
 10
118.659046
 20
567.048272
 30
0.0
 10
118.402046
 20
566.791267
 30
0.0
 10
118.402046
 20
566.277255
 30
0.0
  0
SPLINE
  5
134
100
AcDbEntity
  8
Layer_1
 62
1
100
AcDbSpline
 70
8
 71
3
 72
8
 73
4
 74
0
 40
0
 40
0
 40
0
 40
0
 40
1
 40
1
 40
1
 40
1
 10
119.944123
 20
566.277255
 30
0.0
 10
119.944123
 20
566.791267
 30
0.0
 10
119.687097
 20
567.048272
 30
0.0
 10
119.173046
 20
567.048272
 30
0.0
  0
LWPOLYLINE
  5
135
100
AcDbEntity
  8
Layer_1
 62
1
100
AcDbPolyline
 90
2
 70
0
 10
117.630998
 20
565.506199
 30
0.0
 10
112.233809
 20
565.506199
 30
0.0
  0
LWPOLYLINE
  5
136
100
AcDbEntity
  8
Layer_1
 62
1
100
AcDbPolyline
 90
2
 70
0
 10
119.944123
 20
562.499155
 30
0.0
 10
119.944123
 20
566.277255
 30
0.0
  0
LWPOLYLINE
  5
137
100
AcDbEntity
  8
Layer_1
 62
1
100
AcDbPolyline
 90
2
 70
0
 10
135.364793
 20
562.499155
 30
0.0
 10
119.944123
 20
562.499155
 30
0.0
  0
SPLINE
  5
138
100
AcDbEntity
  8
Layer_1
 62
1
100
AcDbSpline
 70
8
 71
3
 72
8
 73
4
 74
0
 40
0
 40
0
 40
0
 40
0
 40
1
 40
1
 40
1
 40
1
 10
173.158294
 20
567.048272
 30
0.0
 10
173.672320
 20
567.048272
 30
0.0
 10
173.929334
 20
566.791267
 30
0.0
 10
173.929334
 20
566.277255
 30
0.0
  0
SPLINE
  5
139
100
AcDbEntity
  8
Layer_1
 62
1
100
AcDbSpline
 70
8
 71
3
 72
8
 73
4
 74
0
 40
0
 40
0
 40
0
 40
0
 40
1
 40
1
 40
1
 40
1
 10
172.387297
 20
566.277255
 30
0.0
 10
172.387297
 20
566.791267
 30
0.0
 10
172.644296
 20
567.048272
 30
0.0
 10
173.158294
 20
567.048272
 30
0.0
  0
LWPOLYLINE
  5
13a
100
AcDbEntity
  8
Layer_1
 62
1
100
AcDbPolyline
 90
2
 70
0
 10
135.364793
 20
566.277255
 30
0.0
 10
135.364793
 20
562.499155
 30
0.0
  0
LWPOLYLINE
  5
13b
100
AcDbEntity
  8
Layer_1
 62
1
100
AcDbPolyline
 90
2
 70
0
 10
172.387297
 20
562.499155
 30
0.0
 10
172.387297
 20
566.277255
 30
0.0
  0
LWPOLYLINE
  5
13c
100
AcDbEntity
  8
Layer_1
 62
1
100
AcDbPolyline
 90
2
 70
0
 10
166.180479
 20
562.499155
 30
0.0
 10
172.387297
 20
562.499155
 30
0.0
  0
SPLINE
  5
13d
100
AcDbEntity
  8
Layer_1
 62
1
100
AcDbSpline
 70
8
 71
3
 72
8
 73
4
 74
0
 40
0
 40
0
 40
0
 40
0
 40
1
 40
1
 40
1
 40
1
 10
166.951508
 20
570.170946
 30
0.0
 10
166.437489
 20
570.170946
 30
0.0
 10
166.180479
 20
569.913946
 30
0.0
 10
166.180479
 20
569.399948
 30
0.0
  0
SPLINE
  5
13e
100
AcDbEntity
  8
Layer_1
 62
1
100
AcDbSpline
 70
8
 71
3
 72
8
 73
4
 74
0
 40
0
 40
0
 40
0
 40
0
 40
1
 40
1
 40
1
 40
1
 10
167.722516
 20
570.941977
 30
0.0
 10
167.722516
 20
570.427956
 30
0.0
 10
167.465513
 20
570.170946
 30
0.0
 10
166.951508
 20
570.170946
 30
0.0
  0
SPLINE
  5
13f
100
AcDbEntity
  8
Layer_1
 62
1
100
AcDbSpline
 70
8
 71
3
 72
8
 73
4
 74
0
 40
0
 40
0
 40
0
 40
0
 40
1
 40
1
 40
1
 40
1
 10
166.951508
 20
571.713028
 30
0.0
 10
167.465513
 20
571.713028
 30
0.0
 10
167.722516
 20
571.456011
 30
0.0
 10
167.722516
 20
570.941977
 30
0.0
  0
LWPOLYLINE
  5
140
100
AcDbEntity
  8
Layer_1
 62
1
100
AcDbPolyline
 90
2
 70
0
 10
166.180479
 20
569.399948
 30
0.0
 10
166.180479
 20
562.499155
 30
0.0
  0
SPLINE
  5
141
100
AcDbEntity
  8
Layer_1
 62
1
100
AcDbSpline
 70
8
 71
3
 72
8
 73
4
 74
0
 40
0
 40
0
 40
0
 40
0
 40
1
 40
1
 40
1
 40
1
 10
161.631353
 20
570.941977
 30
0.0
 10
161.631353
 20
571.456011
 30
0.0
 10
161.888365
 20
571.713028
 30
0.0
 10
162.402387
 20
571.713028
 30
0.0
  0
SPLINE
  5
142
100
AcDbEntity
  8
Layer_1
 62
1
100
AcDbSpline
 70
8
 71
3
 72
8
 73
4
 74
0
 40
0
 40
0
 40
0
 40
0
 40
1
 40
1
 40
1
 40
1
 10
162.402387
 20
570.170946
 30
0.0
 10
161.888365
 20
570.170946
 30
0.0
 10
161.631353
 20
570.427956
 30
0.0
 10
161.631353
 20
570.941977
 30
0.0
  0
SPLINE
  5
143
100
AcDbEntity
  8
Layer_1
 62
1
100
AcDbSpline
 70
8
 71
3
 72
8
 73
4
 74
0
 40
0
 40
0
 40
0
 40
0
 40
1
 40
1
 40
1
 40
1
 10
163.173444
 20
569.399948
 30
0.0
 10
163.173444
 20
569.913946
 30
0.0
 10
162.916425
 20
570.170946
 30
0.0
 10
162.402387
 20
570.170946
 30
0.0
  0
LWPOLYLINE
  5
144
100
AcDbEntity
  8
Layer_1
 62
1
100
AcDbPolyline
 90
2
 70
0
 10
162.402387
 20
571.713028
 30
0.0
 10
166.951508
 20
571.713028
 30
0.0
  0
LWPOLYLINE
  5
145
100
AcDbEntity
  8
Layer_1
 62
1
100
AcDbPolyline
 90
2
 70
0
 10
163.173444
 20
562.499155
 30
0.0
 10
163.173444
 20
569.399948
 30
0.0
  0
LWPOLYLINE
  5
146
100
AcDbEntity
  8
Layer_1
 62
1
100
AcDbPolyline
 90
2
 70
0
 10
156.966607
 20
562.499155
 30
0.0
 10
163.173444
 20
562.499155
 30
0.0
  0
SPLINE
  5
147
100
AcDbEntity
  8
Layer_1
 62
1
100
AcDbSpline
 70
8
 71
3
 72
8
 73
4
 74
0
 40
0
 40
0
 40
0
 40
0
 40
1
 40
1
 40
1
 40
1
 10
156.195553
 20
567.048272
 30
0.0
 10
156.709589
 20
567.048272
 30
0.0
 10
156.966607
 20
566.791267
 30
0.0
 10
156.966607
 20
566.277255
 30
0.0
  0
SPLINE
  5
148
100
AcDbEntity
  8
Layer_1
 62
1
100
AcDbSpline
 70
8
 71
3
 72
8
 73
4
 74
0
 40
0
 40
0
 40
0
 40
0
 40
1
 40
1
 40
1
 40
1
 10
155.424530
 20
566.277255
 30
0.0
 10
155.424530
 20
566.791267
 30
0.0
 10
155.681538
 20
567.048272
 30
0.0
 10
156.195553
 20
567.048272
 30
0.0
  0
SPLINE
  5
149
100
AcDbEntity
  8
Layer_1
 62
1
100
AcDbSpline
 70
8
 71
3
 72
8
 73
4
 74
0
 40
0
 40
0
 40
0
 40
0
 40
1
 40
1
 40
1
 40
1
 10
154.653496
 20
565.506199
 30
0.0
 10
155.167519
 20
565.506199
 30
0.0
 10
155.424530
 20
565.763218
 30
0.0
 10
155.424530
 20
566.277255
 30
0.0
  0
LWPOLYLINE
  5
14a
100
AcDbEntity
  8
Layer_1
 62
1
100
AcDbPolyline
 90
2
 70
0
 10
156.966607
 20
566.277255
 30
0.0
 10
156.966607
 20
562.499155
 30
0.0
  0
LWPOLYLINE
  5
14b
100
AcDbEntity
  8
Layer_1
 62
1
100
AcDbPolyline
 90
2
 70
0
 10
149.256287
 20
565.506199
 30
0.0
 10
154.653496
 20
565.506199
 30
0.0
  0
LWPOLYLINE
  5
14c
100
AcDbEntity
  8
Layer_1
 62
1
100
AcDbPolyline
 90
2
 70
0
 10
149.256287
 20
577.919927
 30
0.0
 10
149.256287
 20
565.506199
 30
0.0
  0
LWPOLYLINE
  5
14d
100
AcDbEntity
  8
Layer_1
 62
1
100
AcDbPolyline
 90
2
 70
0
 10
180.097630
 20
577.919927
 30
0.0
 10
149.256287
 20
577.919927
 30
0.0
  0
LWPOLYLINE
  5
14e
100
AcDbEntity
  8
Layer_1
 62
1
100
AcDbPolyline
 90
2
 70
0
 10
180.097630
 20
565.506199
 30
0.0
 10
180.097630
 20
577.919927
 30
0.0
  0
SPLINE
  5
14f
100
AcDbEntity
  8
Layer_1
 62
1
100
AcDbSpline
 70
8
 71
3
 72
8
 73
4
 74
0
 40
0
 40
0
 40
0
 40
0
 40
1
 40
1
 40
1
 40
1
 10
173.929334
 20
566.277255
 30
0.0
 10
173.929334
 20
565.763218
 30
0.0
 10
174.186347
 20
565.506199
 30
0.0
 10
174.700373
 20
565.506199
 30
0.0
  0
SPLINE
  5
150
100
AcDbEntity
  8
Layer_1
 62
1
100
AcDbSpline
 70
8
 71
3
 72
8
 73
4
 74
0
 40
0
 40
0
 40
0
 40
0
 40
1
 40
1
 40
1
 40
1
 10
99.637686
 20
555.559903
 30
0.0
 10
99.637686
 20
555.045871
 30
0.0
 10
99.894703
 20
554.788855
 30
0.0
 10
100.408737
 20
554.788855
 30
0.0
  0
SPLINE
  5
151
100
AcDbEntity
  8
Layer_1
 62
1
100
AcDbSpline
 70
8
 71
3
 72
8
 73
4
 74
0
 40
0
 40
0
 40
0
 40
0
 40
1
 40
1
 40
1
 40
1
 10
100.408737
 20
556.330931
 30
0.0
 10
99.894703
 20
556.330931
 30
0.0
 10
99.637686
 20
556.073922
 30
0.0
 10
99.637686
 20
555.559903
 30
0.0
  0
SPLINE
  5
152
100
AcDbEntity
  8
Layer_1
 62
1
100
AcDbSpline
 70
8
 71
3
 72
8
 73
4
 74
0
 40
0
 40
0
 40
0
 40
0
 40
1
 40
1
 40
1
 40
1
 10
101.179768
 20
557.101954
 30
0.0
 10
101.179768
 20
556.587939
 30
0.0
 10
100.922758
 20
556.330931
 30
0.0
 10
100.408737
 20
556.330931
 30
0.0
  0
LWPOLYLINE
  5
153
100
AcDbEntity
  8
Layer_1
 62
1
100
AcDbPolyline
 90
2
 70
0
 10
174.700373
 20
565.506199
 30
0.0
 10
180.097630
 20
565.506199
 30
0.0
  0
LWPOLYLINE
  5
154
100
AcDbEntity
  8
Layer_1
 62
1
100
AcDbPolyline
 90
2
 70
0
 10
101.179768
 20
560.995661
 30
0.0
 10
101.179768
 20
557.101954
 30
0.0
  0
SPLINE
  5
155
100
AcDbEntity
  8
Layer_1
 62
1
100
AcDbSpline
 70
8
 71
3
 72
8
 73
4
 74
0
 40
0
 40
0
 40
0
 40
0
 40
1
 40
1
 40
1
 40
1
 10
96.515036
 20
560.224624
 30
0.0
 10
96.515036
 20
560.738649
 30
0.0
 10
96.772035
 20
560.995661
 30
0.0
 10
97.286033
 20
560.995661
 30
0.0
  0
SPLINE
  5
156
100
AcDbEntity
  8
Layer_1
 62
1
100
AcDbSpline
 70
8
 71
3
 72
8
 73
4
 74
0
 40
0
 40
0
 40
0
 40
0
 40
1
 40
1
 40
1
 40
1
 10
95.743988
 20
559.453574
 30
0.0
 10
96.258020
 20
559.453574
 30
0.0
 10
96.515036
 20
559.710591
 30
0.0
 10
96.515036
 20
560.224624
 30
0.0
  0
SPLINE
  5
157
100
AcDbEntity
  8
Layer_1
 62
1
100
AcDbSpline
 70
8
 71
3
 72
8
 73
4
 74
0
 40
0
 40
0
 40
0
 40
0
 40
1
 40
1
 40
1
 40
1
 10
94.972971
 20
560.224624
 30
0.0
 10
94.972971
 20
559.710591
 30
0.0
 10
95.229976
 20
559.453574
 30
0.0
 10
95.743988
 20
559.453574
 30
0.0
  0
LWPOLYLINE
  5
158
100
AcDbEntity
  8
Layer_1
 62
1
100
AcDbPolyline
 90
2
 70
0
 10
97.286033
 20
560.995661
 30
0.0
 10
101.179768
 20
560.995661
 30
0.0
  0
SPLINE
  5
159
100
AcDbEntity
  8
Layer_1
 62
1
100
AcDbSpline
 70
8
 71
3
 72
8
 73
4
 74
0
 40
0
 40
0
 40
0
 40
0
 40
1
 40
1
 40
1
 40
1
 10
95.743988
 20
565.544742
 30
0.0
 10
95.229976
 20
565.544742
 30
0.0
 10
94.972971
 20
565.287737
 30
0.0
 10
94.972971
 20
564.773728
 30
0.0
  0
SPLINE
  5
15a
100
AcDbEntity
  8
Layer_1
 62
1
100
AcDbSpline
 70
8
 71
3
 72
8
 73
4
 74
0
 40
0
 40
0
 40
0
 40
0
 40
1
 40
1
 40
1
 40
1
 10
96.515036
 20
564.773728
 30
0.0
 10
96.515036
 20
565.287737
 30
0.0
 10
96.258020
 20
565.544742
 30
0.0
 10
95.743988
 20
565.544742
 30
0.0
  0
SPLINE
  5
15b
100
AcDbEntity
  8
Layer_1
 62
1
100
AcDbSpline
 70
8
 71
3
 72
8
 73
4
 74
0
 40
0
 40
0
 40
0
 40
0
 40
1
 40
1
 40
1
 40
1
 10
97.286033
 20
564.002702
 30
0.0
 10
96.772035
 20
564.002702
 30
0.0
 10
96.515036
 20
564.259711
 30
0.0
 10
96.515036
 20
564.773728
 30
0.0
  0
LWPOLYLINE
  5
15c
100
AcDbEntity
  8
Layer_1
 62
1
100
AcDbPolyline
 90
2
 70
0
 10
94.972971
 20
564.773728
 30
0.0
 10
94.972971
 20
560.224624
 30
0.0
  0
LWPOLYLINE
  5
15d
100
AcDbEntity
  8
Layer_1
 62
1
100
AcDbPolyline
 90
2
 70
0
 10
101.179768
 20
564.002702
 30
0.0
 10
97.286033
 20
564.002702
 30
0.0
  0
SPLINE
  5
15e
100
AcDbEntity
  8
Layer_1
 62
1
100
AcDbSpline
 70
8
 71
3
 72
8
 73
4
 74
0
 40
0
 40
0
 40
0
 40
0
 40
1
 40
1
 40
1
 40
1
 10
100.408737
 20
568.667452
 30
0.0
 10
100.922758
 20
568.667452
 30
0.0
 10
101.179768
 20
568.410435
 30
0.0
 10
101.179768
 20
567.896401
 30
0.0
  0
SPLINE
  5
15f
100
AcDbEntity
  8
Layer_1
 62
1
100
AcDbSpline
 70
8
 71
3
 72
8
 73
4
 74
0
 40
0
 40
0
 40
0
 40
0
 40
1
 40
1
 40
1
 40
1
 10
99.637686
 20
569.438480
 30
0.0
 10
99.637686
 20
568.924461
 30
0.0
 10
99.894703
 20
568.667452
 30
0.0
 10
100.408737
 20
568.667452
 30
0.0
  0
SPLINE
  5
160
100
AcDbEntity
  8
Layer_1
 62
1
100
AcDbSpline
 70
8
 71
3
 72
8
 73
4
 74
0
 40
0
 40
0
 40
0
 40
0
 40
1
 40
1
 40
1
 40
1
 10
100.408737
 20
570.209528
 30
0.0
 10
99.894703
 20
570.209528
 30
0.0
 10
99.637686
 20
569.952512
 30
0.0
 10
99.637686
 20
569.438480
 30
0.0
  0
LWPOLYLINE
  5
161
100
AcDbEntity
  8
Layer_1
 62
1
100
AcDbPolyline
 90
2
 70
0
 10
101.179768
 20
567.896401
 30
0.0
 10
101.179768
 20
564.002702
 30
0.0
  0
LWPOLYLINE
  5
162
100
AcDbEntity
  8
Layer_1
 62
1
100
AcDbPolyline
 90
2
 70
0
 10
104.186801
 20
570.209528
 30
0.0
 10
100.408737
 20
570.209528
 30
0.0
  0
LWPOLYLINE
  5
163
100
AcDbEntity
  8
Layer_1
 62
1
100
AcDbPolyline
 90
2
 70
0
 10
104.186801
 20
577.919927
 30
0.0
 10
104.186801
 20
570.209528
 30
0.0
  0
LWPOLYLINE
  5
164
100
AcDbEntity
  8
Layer_1
 62
1
100
AcDbPolyline
 90
2
 70
0
 10
42.002922
 20
577.919927
 30
0.0
 10
104.186801
 20
577.919927
 30
0.0
  0
LWPOLYLINE
  5
165
100
AcDbEntity
  8
Layer_1
 62
1
100
AcDbPolyline
 90
2
 70
0
 10
42.002922
 20
547.078516
 30
0.0
 10
42.002922
 20
577.919927
 30
0.0
  0
LWPOLYLINE
  5
166
100
AcDbEntity
  8
Layer_1
 62
1
100
AcDbPolyline
 90
2
 70
0
 10
104.186801
 20
547.078516
 30
0.0
 10
42.002922
 20
547.078516
 30
0.0
  0
LWPOLYLINE
  5
167
100
AcDbEntity
  8
Layer_1
 62
1
100
AcDbPolyline
 90
2
 70
0
 10
104.186801
 20
554.788855
 30
0.0
 10
104.186801
 20
547.078516
 30
0.0
  0
LWPOLYLINE
  5
168
100
AcDbEntity
  8
Layer_1
 62
1
100
AcDbPolyline
 90
2
 70
0
 10
100.408737
 20
554.788855
 30
0.0
 10
104.186801
 20
554.788855
 30
0.0
  0
SPLINE
  5
169
100
AcDbEntity
  8
Layer_1
 62
1
100
AcDbSpline
 70
8
 71
3
 72
8
 73
4
 74
0
 40
0
 40
0
 40
0
 40
0
 40
1
 40
1
 40
1
 40
1
 10
171.410647
 20
539.029778
 30
0.0
 10
171.410647
 20
539.029778
 30
0.0
 10
171.410647
 20
542.923513
 30
0.0
 10
171.410647
 20
542.923513
 30
0.0
  0
SPLINE
  5
16a
100
AcDbEntity
  8
Layer_1
 62
1
100
AcDbSpline
 70
8
 71
3
 72
8
 73
4
 74
0
 40
0
 40
0
 40
0
 40
0
 40
1
 40
1
 40
1
 40
1
 10
171.410647
 20
542.923513
 30
0.0
 10
171.410641
 20
543.349336
 30
0.0
 10
171.065444
 20
543.694531
 30
0.0
 10
170.639621
 20
543.694536
 30
0.0
  0
SPLINE
  5
16b
100
AcDbEntity
  8
Layer_1
 62
1
100
AcDbSpline
 70
8
 71
3
 72
8
 73
4
 74
0
 40
0
 40
0
 40
0
 40
0
 40
1
 40
1
 40
1
 40
1
 10
170.639621
 20
543.694536
 30
0.0
 10
170.354878
 20
543.694523
 30
0.0
 10
170.093198
 20
543.851101
 30
0.0
 10
169.958604
 20
544.102026
 30
0.0
  0
SPLINE
  5
16c
100
AcDbEntity
  8
Layer_1
 62
1
100
AcDbSpline
 70
8
 71
3
 72
8
 73
4
 74
0
 40
0
 40
0
 40
0
 40
0
 40
1
 40
1
 40
1
 40
1
 10
169.958604
 20
544.102026
 30
0.0
 10
169.824010
 20
544.352952
 30
0.0
 10
169.838313
 20
544.657563
 30
0.0
 10
169.995827
 20
544.894773
 30
0.0
  0
SPLINE
  5
16d
100
AcDbEntity
  8
Layer_1
 62
1
100
AcDbSpline
 70
8
 71
3
 72
8
 73
4
 74
0
 40
0
 40
0
 40
0
 40
0
 40
1
 40
1
 40
1
 40
1
 10
169.995827
 20
544.894773
 30
0.0
 10
170.153341
 20
545.131983
 30
0.0
 10
170.428541
 20
545.263351
 30
0.0
 10
170.712031
 20
545.236657
 30
0.0
  0
LWPOLYLINE
  5
16e
100
AcDbEntity
  8
Layer_1
 62
1
100
AcDbPolyline
 90
3
 70
0
 10
112.233809
 20
551.443447
 30
0.0
 10
112.233809
 20
539.029778
 30
0.0
 10
171.410647
 20
539.029778
 30
0.0
  0
SPLINE
  5
16f
100
AcDbEntity
  8
Layer_1
 62
1
100
AcDbSpline
 70
8
 71
3
 72
8
 73
4
 74
0
 40
0
 40
0
 40
0
 40
0
 40
1
 40
1
 40
1
 40
1
 10
165.203827
 20
554.450448
 30
0.0
 10
165.203827
 20
554.450448
 30
0.0
 10
165.203827
 20
550.672393
 30
0.0
 10
165.203827
 20
550.672393
 30
0.0
  0
SPLINE
  5
170
100
AcDbEntity
  8
Layer_1
 62
1
100
AcDbSpline
 70
8
 71
3
 72
8
 73
4
 74
0
 40
0
 40
0
 40
0
 40
0
 40
1
 40
1
 40
1
 40
1
 10
165.203827
 20
550.672393
 30
0.0
 10
165.202914
 20
550.247204
 30
0.0
 10
164.857974
 20
549.903005
 30
0.0
 10
164.432784
 20
549.903005
 30
0.0
  0
SPLINE
  5
171
100
AcDbEntity
  8
Layer_1
 62
1
100
AcDbSpline
 70
8
 71
3
 72
8
 73
4
 74
0
 40
0
 40
0
 40
0
 40
0
 40
1
 40
1
 40
1
 40
1
 10
164.432784
 20
549.903005
 30
0.0
 10
164.007595
 20
549.903005
 30
0.0
 10
163.662655
 20
550.247204
 30
0.0
 10
163.661742
 20
550.672393
 30
0.0
  0
SPLINE
  5
172
100
AcDbEntity
  8
Layer_1
 62
1
100
AcDbSpline
 70
8
 71
3
 72
8
 73
4
 74
0
 40
0
 40
0
 40
0
 40
0
 40
1
 40
1
 40
1
 40
1
 10
163.661742
 20
550.672393
 30
0.0
 10
163.661747
 20
550.876888
 30
0.0
 10
163.580515
 20
551.073010
 30
0.0
 10
163.435916
 20
551.217611
 30
0.0
  0
SPLINE
  5
173
100
AcDbEntity
  8
Layer_1
 62
1
100
AcDbSpline
 70
8
 71
3
 72
8
 73
4
 74
0
 40
0
 40
0
 40
0
 40
0
 40
1
 40
1
 40
1
 40
1
 10
163.435916
 20
551.217611
 30
0.0
 10
163.291318
 20
551.362212
 30
0.0
 10
163.095198
 20
551.443448
 30
0.0
 10
162.890702
 20
551.443447
 30
0.0
  0
LWPOLYLINE
  5
174
100
AcDbEntity
  8
Layer_1
 62
1
100
AcDbPolyline
 90
4
 70
0
 10
170.712031
 20
545.236657
 30
0.0
 10
174.417694
 20
545.236598
 30
0.0
 10
174.417694
 20
554.450448
 30
0.0
 10
165.203827
 20
554.450448
 30
0.0
  0
SPLINE
  5
175
100
AcDbEntity
  8
Layer_1
 62
1
100
AcDbSpline
 70
8
 71
3
 72
8
 73
4
 74
0
 40
0
 40
0
 40
0
 40
0
 40
1
 40
1
 40
1
 40
1
 10
137.677895
 20
551.443447
 30
0.0
 10
137.473399
 20
551.443448
 30
0.0
 10
137.277280
 20
551.362212
 30
0.0
 10
137.132681
 20
551.217611
 30
0.0
  0
SPLINE
  5
176
100
AcDbEntity
  8
Layer_1
 62
1
100
AcDbSpline
 70
8
 71
3
 72
8
 73
4
 74
0
 40
0
 40
0
 40
0
 40
0
 40
1
 40
1
 40
1
 40
1
 10
137.132681
 20
551.217611
 30
0.0
 10
136.988082
 20
551.073010
 30
0.0
 10
136.906850
 20
550.876888
 30
0.0
 10
136.906855
 20
550.672393
 30
0.0
  0
SPLINE
  5
177
100
AcDbEntity
  8
Layer_1
 62
1
100
AcDbSpline
 70
8
 71
3
 72
8
 73
4
 74
0
 40
0
 40
0
 40
0
 40
0
 40
1
 40
1
 40
1
 40
1
 10
136.906855
 20
550.672393
 30
0.0
 10
136.907628
 20
550.396416
 30
0.0
 10
136.760839
 20
550.141072
 30
0.0
 10
136.521964
 20
550.002860
 30
0.0
  0
SPLINE
  5
178
100
AcDbEntity
  8
Layer_1
 62
1
100
AcDbSpline
 70
8
 71
3
 72
8
 73
4
 74
0
 40
0
 40
0
 40
0
 40
0
 40
1
 40
1
 40
1
 40
1
 10
136.521964
 20
550.002860
 30
0.0
 10
136.283089
 20
549.864648
 30
0.0
 10
135.988559
 20
549.864648
 30
0.0
 10
135.749684
 20
550.002860
 30
0.0
  0
SPLINE
  5
179
100
AcDbEntity
  8
Layer_1
 62
1
100
AcDbSpline
 70
8
 71
3
 72
8
 73
4
 74
0
 40
0
 40
0
 40
0
 40
0
 40
1
 40
1
 40
1
 40
1
 10
135.749684
 20
550.002860
 30
0.0
 10
135.510809
 20
550.141072
 30
0.0
 10
135.364021
 20
550.396416
 30
0.0
 10
135.364793
 20
550.672393
 30
0.0
  0
LWPOLYLINE
  5
17a
100
AcDbEntity
  8
Layer_1
 62
1
100
AcDbPolyline
 90
2
 70
0
 10
162.890702
 20
551.443447
 30
0.0
 10
137.677895
 20
551.443447
 30
0.0
  0
SPLINE
  5
17b
100
AcDbEntity
  8
Layer_1
 62
1
100
AcDbSpline
 70
8
 71
3
 72
8
 73
4
 74
0
 40
0
 40
0
 40
0
 40
0
 40
1
 40
1
 40
1
 40
1
 10
129.157990
 20
554.450448
 30
0.0
 10
129.157990
 20
554.450448
 30
0.0
 10
129.157990
 20
547.549706
 30
0.0
 10
129.157990
 20
547.549706
 30
0.0
  0
SPLINE
  5
17c
100
AcDbEntity
  8
Layer_1
 62
1
100
AcDbSpline
 70
8
 71
3
 72
8
 73
4
 74
0
 40
0
 40
0
 40
0
 40
0
 40
1
 40
1
 40
1
 40
1
 10
129.157990
 20
547.549706
 30
0.0
 10
129.157990
 20
547.345214
 30
0.0
 10
129.239224
 20
547.149097
 30
0.0
 10
129.383822
 20
547.004500
 30
0.0
  0
SPLINE
  5
17d
100
AcDbEntity
  8
Layer_1
 62
1
100
AcDbSpline
 70
8
 71
3
 72
8
 73
4
 74
0
 40
0
 40
0
 40
0
 40
0
 40
1
 40
1
 40
1
 40
1
 10
129.383822
 20
547.004500
 30
0.0
 10
129.528420
 20
546.859903
 30
0.0
 10
129.724537
 20
546.778670
 30
0.0
 10
129.929029
 20
546.778672
 30
0.0
  0
SPLINE
  5
17e
100
AcDbEntity
  8
Layer_1
 62
1
100
AcDbSpline
 70
8
 71
3
 72
8
 73
4
 74
0
 40
0
 40
0
 40
0
 40
0
 40
1
 40
1
 40
1
 40
1
 10
129.929029
 20
546.778672
 30
0.0
 10
130.354340
 20
546.777935
 30
0.0
 10
130.698731
 20
546.432946
 30
0.0
 10
130.698731
 20
546.007635
 30
0.0
  0
SPLINE
  5
17f
100
AcDbEntity
  8
Layer_1
 62
1
100
AcDbSpline
 70
8
 71
3
 72
8
 73
4
 74
0
 40
0
 40
0
 40
0
 40
0
 40
1
 40
1
 40
1
 40
1
 10
130.698731
 20
546.007635
 30
0.0
 10
130.698731
 20
545.582324
 30
0.0
 10
130.354340
 20
545.237335
 30
0.0
 10
129.929029
 20
545.236598
 30
0.0
  0
LWPOLYLINE
  5
180
100
AcDbEntity
  8
Layer_1
 62
1
100
AcDbPolyline
 90
3
 70
0
 10
135.364793
 20
550.672393
 30
0.0
 10
135.364793
 20
554.450448
 30
0.0
 10
129.157990
 20
554.450448
 30
0.0
  0
SPLINE
  5
181
100
AcDbEntity
  8
Layer_1
 62
1
100
AcDbSpline
 70
8
 71
3
 72
8
 73
4
 74
0
 40
0
 40
0
 40
0
 40
0
 40
1
 40
1
 40
1
 40
1
 10
125.379903
 20
545.236598
 30
0.0
 10
125.104120
 20
545.236120
 30
0.0
 10
124.849081
 20
545.382975
 30
0.0
 10
124.711052
 20
545.621730
 30
0.0
  0
SPLINE
  5
182
100
AcDbEntity
  8
Layer_1
 62
1
100
AcDbSpline
 70
8
 71
3
 72
8
 73
4
 74
0
 40
0
 40
0
 40
0
 40
0
 40
1
 40
1
 40
1
 40
1
 10
124.711052
 20
545.621730
 30
0.0
 10
124.573022
 20
545.860486
 30
0.0
 10
124.573022
 20
546.154784
 30
0.0
 10
124.711052
 20
546.393539
 30
0.0
  0
SPLINE
  5
183
100
AcDbEntity
  8
Layer_1
 62
1
100
AcDbSpline
 70
8
 71
3
 72
8
 73
4
 74
0
 40
0
 40
0
 40
0
 40
0
 40
1
 40
1
 40
1
 40
1
 10
124.711052
 20
546.393539
 30
0.0
 10
124.849081
 20
546.632295
 30
0.0
 10
125.104120
 20
546.779149
 30
0.0
 10
125.379903
 20
546.778672
 30
0.0
  0
SPLINE
  5
184
100
AcDbEntity
  8
Layer_1
 62
1
100
AcDbSpline
 70
8
 71
3
 72
8
 73
4
 74
0
 40
0
 40
0
 40
0
 40
0
 40
1
 40
1
 40
1
 40
1
 10
125.379903
 20
546.778672
 30
0.0
 10
125.584397
 20
546.778668
 30
0.0
 10
125.780516
 20
546.859900
 30
0.0
 10
125.925116
 20
547.004497
 30
0.0
  0
SPLINE
  5
185
100
AcDbEntity
  8
Layer_1
 62
1
100
AcDbSpline
 70
8
 71
3
 72
8
 73
4
 74
0
 40
0
 40
0
 40
0
 40
0
 40
1
 40
1
 40
1
 40
1
 10
125.925116
 20
547.004497
 30
0.0
 10
126.069716
 20
547.149095
 30
0.0
 10
126.150951
 20
547.345212
 30
0.0
 10
126.150951
 20
547.549706
 30
0.0
  0
LWPOLYLINE
  5
186
100
AcDbEntity
  8
Layer_1
 62
1
100
AcDbPolyline
 90
2
 70
0
 10
129.929029
 20
545.236598
 30
0.0
 10
125.379903
 20
545.236598
 30
0.0
  0
SPLINE
  5
187
100
AcDbEntity
  8
Layer_1
 62
1
100
AcDbSpline
 70
8
 71
3
 72
8
 73
4
 74
0
 40
0
 40
0
 40
0
 40
0
 40
1
 40
1
 40
1
 40
1
 10
119.944123
 20
550.672393
 30
0.0
 10
119.943062
 20
550.247311
 30
0.0
 10
119.598168
 20
549.903276
 30
0.0
 10
119.173085
 20
549.903276
 30
0.0
  0
SPLINE
  5
188
100
AcDbEntity
  8
Layer_1
 62
1
100
AcDbSpline
 70
8
 71
3
 72
8
 73
4
 74
0
 40
0
 40
0
 40
0
 40
0
 40
1
 40
1
 40
1
 40
1
 10
119.173085
 20
549.903276
 30
0.0
 10
118.748002
 20
549.903276
 30
0.0
 10
118.403107
 20
550.247311
 30
0.0
 10
118.402046
 20
550.672393
 30
0.0
  0
SPLINE
  5
189
100
AcDbEntity
  8
Layer_1
 62
1
100
AcDbSpline
 70
8
 71
3
 72
8
 73
4
 74
0
 40
0
 40
0
 40
0
 40
0
 40
1
 40
1
 40
1
 40
1
 10
118.402046
 20
550.672393
 30
0.0
 10
118.402052
 20
550.876890
 30
0.0
 10
118.320818
 20
551.073012
 30
0.0
 10
118.176218
 20
551.217614
 30
0.0
  0
SPLINE
  5
18a
100
AcDbEntity
  8
Layer_1
 62
1
100
AcDbSpline
 70
8
 71
3
 72
8
 73
4
 74
0
 40
0
 40
0
 40
0
 40
0
 40
1
 40
1
 40
1
 40
1
 10
118.176218
 20
551.217614
 30
0.0
 10
118.031617
 20
551.362215
 30
0.0
 10
117.835495
 20
551.443450
 30
0.0
 10
117.630998
 20
551.443447
 30
0.0
  0
LWPOLYLINE
  5
18b
100
AcDbEntity
  8
Layer_1
 62
1
100
AcDbPolyline
 90
4
 70
0
 10
126.150951
 20
547.549706
 30
0.0
 10
126.150951
 20
554.450448
 30
0.0
 10
119.944123
 20
554.450448
 30
0.0
 10
119.944123
 20
550.672393
 30
0.0
  0
LWPOLYLINE
  5
18c
100
AcDbEntity
  8
Layer_1
 62
1
100
AcDbPolyline
 90
2
 70
0
 10
117.630998
 20
551.443447
 30
0.0
 10
112.233809
 20
551.443447
 30
0.0
  0
ENDSEC
  0
SECTION
  2
OBJECTS
  0
DICTIONARY
  5
C
330
0
100
AcDbDictionary
  3
ACAD_GROUP
350
D
  3
ACAD_MLINESTYLE
350
17
  0
DICTIONARY
  5
D
330
C
100
AcDbDictionary
  0
DICTIONARY
  5
1A
330
C
100
AcDbDictionary
  0
DICTIONARY
  5
17
330
C
100
AcDbDictionary
  3
STANDARD
350
18
  0
DICTIONARY
  5
19
330
C
100
AcDbDictionary
  0
ENDSEC
  0
EOF
