  0
SECTION
  2
HEADER
  9
$ACADVER
  1
AC1014
  9
$HANDSEED
  5
FFFF
  9
$MEASUREMENT
 70
     1
  0
ENDSEC
  0
SECTION
  2
TABLES
  0
TABLE
  2
VPORT
  5
8
330
0
100
AcDbSymbolTable
 70
     4
  0
VPORT
  5
2E
330
8
100
AcDbSymbolTableRecord
100
AcDbViewportTableRecord
  2
*ACTIVE
 70
     0
 10
0.0
 20
0.0
 11
1.0
 21
1.0
 12
210.0
 22
148.5
 13
0.0
 23
0.0
 14
10.0
 24
10.0
 15
10.0
 25
10.0
 16
0.0
 26
0.0
 36
1.0
 17
0.0
 27
0.0
 37
0.0
 40
341.0
 41
1.24
 42
50.0
 43
0.0
 44
0.0
 50
0.0
 51
0.0
 71
     0
 72
   100
 73
     1
 74
     3
 75
     0
 76
     0
 77
     0
 78
     0
  0
ENDTAB
  0
TABLE
  2
LTYPE
  5
5
330
0
100
AcDbSymbolTable
 70
     1
  0
LTYPE
  5
14
330
5
100
AcDbSymbolTableRecord
100
AcDbLinetypeTableRecord
  2
BYBLOCK
 70
     0
  3

 72
    65
 73
     0
 40
0.0
  0
LTYPE
  5
15
330
5
100
AcDbSymbolTableRecord
100
AcDbLinetypeTableRecord
  2
BYLAYER
 70
     0
  3

 72
    65
 73
     0
 40
0.0
  0
LTYPE
  5
16
330
5
100
AcDbSymbolTableRecord
100
AcDbLinetypeTableRecord
  2
CONTINUOUS
 70
     0
  3
Solid line
 72
    65
 73
     0
 40
0.0
  0
ENDTAB
  0
TABLE
  2
LAYER
  5
2
100
AcDbSymbolTable
 70
2
  0
LAYER
  5
50
100
AcDbSymbolTableRecord
100
AcDbLayerTableRecord
  2
0
 70
0
  6
CONTINUOUS
  0
LAYER
  5
51
100
AcDbSymbolTableRecord
100
AcDbLayerTableRecord
  2
Layer_1
 70
0
  6
CONTINUOUS
  0
ENDTAB
  0
TABLE
  2
STYLE
  5
3
330
0
100
AcDbSymbolTable
 70
     1
  0
STYLE
  5
11
330
3
100
AcDbSymbolTableRecord
100
AcDbTextStyleTableRecord
  2
STANDARD
 70
     0
 40
0.0
 41
1.0
 50
0.0
 71
     0
 42
2.5
  3
txt
  4

  0
ENDTAB
  0
TABLE
  2
VIEW
  5
6
330
0
100
AcDbSymbolTable
 70
     0
  0
ENDTAB
  0
TABLE
  2
UCS
  5
7
330
0
100
AcDbSymbolTable
 70
     0
  0
ENDTAB
  0
TABLE
  2
APPID
  5
9
330
0
100
AcDbSymbolTable
 70
     2
  0
APPID
  5
12
330
9
100
AcDbSymbolTableRecord
100
AcDbRegAppTableRecord
  2
ACAD
 70
     0
  0
ENDTAB
  0
TABLE
  2
DIMSTYLE
  5
A
330
0
100
AcDbSymbolTable
 70
     1
  0
DIMSTYLE
105
27
330
A
100
AcDbSymbolTableRecord
100
AcDbDimStyleTableRecord
  2
ISO-25
 70
     0
  3

  4

  5

  6

  7

 40
1.0
 41
2.5
 42
0.625
 43
3.75
 44
1.25
 45
0.0
 46
0.0
 47
0.0
 48
0.0
140
2.5
141
2.5
142
0.0
143
0.03937007874016
144
1.0
145
0.0
146
1.0
147
0.625
 71
     0
 72
     0
 73
     0
 74
     0
 75
     0
 76
     0
 77
     1
 78
     8
170
     0
171
     3
172
     1
173
     0
174
     0
175
     0
176
     0
177
     0
178
     0
270
     2
271
     2
272
     2
273
     2
274
     3
340
11
275
     0
280
     0
281
     0
282
     0
283
     0
284
     8
285
     0
286
     0
287
     3
288
     0
  0
ENDTAB
  0
TABLE
  2
BLOCK_RECORD
  5
1
330
0
100
AcDbSymbolTable
 70
     1
  0
BLOCK_RECORD
  5
1F
330
1
100
AcDbSymbolTableRecord
100
AcDbBlockTableRecord
  2
*MODEL_SPACE
  0
BLOCK_RECORD
  5
1B
330
1
100
AcDbSymbolTableRecord
100
AcDbBlockTableRecord
  2
*PAPER_SPACE
  0
ENDTAB
  0
ENDSEC
  0
SECTION
  2
BLOCKS
  0
BLOCK
  5
20
330
1F
100
AcDbEntity
  8
0
100
AcDbBlockBegin
  2
*MODEL_SPACE
 70
     0
 10
0.0
 20
0.0
 30
0.0
  3
*MODEL_SPACE
  1

  0
ENDBLK
  5
21
330
1F
100
AcDbEntity
  8
0
100
AcDbBlockEnd
  0
BLOCK
  5
1C
330
1B
100
AcDbEntity
 67
     1
  8
0
100
AcDbBlockBegin
  2
*PAPER_SPACE
  1

  0
ENDBLK
  5
1D
330
1B
100
AcDbEntity
 67
     1
  8
0
100
AcDbBlockEnd
  0
ENDSEC
  0
SECTION
  2
ENTITIES
  0
SPLINE
  5
100
100
AcDbEntity
  8
Layer_1
 62
1
100
AcDbSpline
 70
8
 71
3
 72
8
 73
4
 74
0
 40
0
 40
0
 40
0
 40
0
 40
1
 40
1
 40
1
 40
1
 10
-24.586654
 20
317.118716
 30
0.0
 10
-24.586654
 20
317.118716
 30
0.0
 10
-24.586654
 20
247.889664
 30
0.0
 10
-24.586654
 20
247.889664
 30
0.0
  0
SPLINE
  5
101
100
AcDbEntity
  8
Layer_1
 62
1
100
AcDbSpline
 70
8
 71
3
 72
8
 73
4
 74
0
 40
0
 40
0
 40
0
 40
0
 40
1
 40
1
 40
1
 40
1
 10
-24.586654
 20
247.889664
 30
0.0
 10
-24.586658
 20
239.838574
 30
0.0
 10
-18.415273
 20
233.131515
 30
0.0
 10
-10.391993
 20
232.462912
 30
0.0
  0
SPLINE
  5
102
100
AcDbEntity
  8
Layer_1
 62
1
100
AcDbSpline
 70
8
 71
3
 72
8
 73
4
 74
0
 40
0
 40
0
 40
0
 40
0
 40
1
 40
1
 40
1
 40
1
 10
72.682444
 20
225.540057
 30
0.0
 10
81.071745
 20
224.840947
 30
0.0
 10
88.481891
 20
230.974130
 30
0.0
 10
89.363169
 20
239.346255
 30
0.0
  0
SPLINE
  5
103
100
AcDbEntity
  8
Layer_1
 62
1
100
AcDbSpline
 70
8
 71
3
 72
8
 73
4
 74
0
 40
0
 40
0
 40
0
 40
0
 40
1
 40
1
 40
1
 40
1
 10
89.363169
 20
239.346255
 30
0.0
 10
89.363169
 20
239.346255
 30
0.0
 10
103.208946
 20
370.881174
 30
0.0
 10
103.208946
 20
370.881174
 30
0.0
  0
SPLINE
  5
104
100
AcDbEntity
  8
Layer_1
 62
1
100
AcDbSpline
 70
8
 71
3
 72
8
 73
4
 74
0
 40
0
 40
0
 40
0
 40
0
 40
1
 40
1
 40
1
 40
1
 10
103.208946
 20
370.881174
 30
0.0
 10
103.817069
 20
376.658452
 30
0.0
 10
101.139501
 20
382.289899
 30
0.0
 10
96.274802
 20
385.465030
 30
0.0
  0
SPLINE
  5
105
100
AcDbEntity
  8
Layer_1
 62
1
100
AcDbSpline
 70
8
 71
3
 72
8
 73
4
 74
0
 40
0
 40
0
 40
0
 40
0
 40
1
 40
1
 40
1
 40
1
 10
96.274802
 20
385.465030
 30
0.0
 10
91.410103
 20
388.640161
 30
0.0
 10
85.177239
 20
388.824447
 30
0.0
 10
80.133444
 20
385.942279
 30
0.0
  0
LWPOLYLINE
  5
106
100
AcDbEntity
  8
Layer_1
 62
1
100
AcDbPolyline
 90
2
 70
0
 10
-10.391993
 20
232.462912
 30
0.0
 10
72.682444
 20
225.540057
 30
0.0
  0
SPLINE
  5
107
100
AcDbEntity
  8
Layer_1
 62
1
100
AcDbSpline
 70
8
 71
3
 72
8
 73
4
 74
0
 40
0
 40
0
 40
0
 40
0
 40
1
 40
1
 40
1
 40
1
 10
-16.786769
 20
330.559300
 30
0.0
 10
-21.610018
 20
327.803161
 30
0.0
 10
-24.586650
 20
322.673896
 30
0.0
 10
-24.586654
 20
317.118716
 30
0.0
  0
LWPOLYLINE
  5
108
100
AcDbEntity
  8
Layer_1
 62
1
100
AcDbPolyline
 90
2
 70
0
 10
80.133444
 20
385.942279
 30
0.0
 10
-16.786769
 20
330.559300
 30
0.0
  0
SPLINE
  5
109
100
AcDbEntity
  8
Layer_1
 62
1
100
AcDbSpline
 70
8
 71
3
 72
8
 73
4
 74
0
 40
0
 40
0
 40
0
 40
0
 40
1
 40
1
 40
1
 40
1
 10
4.410494
 20
312.915679
 30
0.0
 10
4.600806
 20
313.297884
 30
0.0
 10
4.445669
 20
313.762011
 30
0.0
 10
4.063780
 20
313.952955
 30
0.0
  0
SPLINE
  5
10a
100
AcDbEntity
  8
Layer_1
 62
1
100
AcDbSpline
 70
8
 71
3
 72
8
 73
4
 74
0
 40
0
 40
0
 40
0
 40
0
 40
1
 40
1
 40
1
 40
1
 10
4.063780
 20
313.952955
 30
0.0
 10
3.681891
 20
314.143900
 30
0.0
 10
3.217509
 20
313.989534
 30
0.0
 10
3.025931
 20
313.607962
 30
0.0
  0
SPLINE
  5
10b
100
AcDbEntity
  8
Layer_1
 62
1
100
AcDbSpline
 70
8
 71
3
 72
8
 73
4
 74
0
 40
0
 40
0
 40
0
 40
0
 40
1
 40
1
 40
1
 40
1
 10
3.025931
 20
313.607962
 30
0.0
 10
2.834651
 20
313.225692
 30
0.0
 10
2.369963
 20
313.070493
 30
0.0
 10
1.987353
 20
313.261091
 30
0.0
  0
SPLINE
  5
10c
100
AcDbEntity
  8
Layer_1
 62
1
100
AcDbSpline
 70
8
 71
3
 72
8
 73
4
 74
0
 40
0
 40
0
 40
0
 40
0
 40
1
 40
1
 40
1
 40
1
 10
1.987353
 20
313.261091
 30
0.0
 10
1.987353
 20
313.261091
 30
0.0
 10
-7.706259
 20
318.104216
 30
0.0
 10
-7.706259
 20
318.104216
 30
0.0
  0
SPLINE
  5
10d
100
AcDbEntity
  8
Layer_1
 62
1
100
AcDbSpline
 70
8
 71
3
 72
8
 73
4
 74
0
 40
0
 40
0
 40
0
 40
0
 40
1
 40
1
 40
1
 40
1
 10
-7.706259
 20
318.104216
 30
0.0
 10
-7.890862
 20
318.196447
 30
0.0
 10
-8.031245
 20
318.358260
 30
0.0
 10
-8.096503
 20
318.554031
 30
0.0
  0
SPLINE
  5
10e
100
AcDbEntity
  8
Layer_1
 62
1
100
AcDbSpline
 70
8
 71
3
 72
8
 73
4
 74
0
 40
0
 40
0
 40
0
 40
0
 40
1
 40
1
 40
1
 40
1
 10
-8.096503
 20
318.554031
 30
0.0
 10
-8.161760
 20
318.749802
 30
0.0
 10
-8.146542
 20
318.963482
 30
0.0
 10
-8.054198
 20
319.148029
 30
0.0
  0
SPLINE
  5
10f
100
AcDbEntity
  8
Layer_1
 62
1
100
AcDbSpline
 70
8
 71
3
 72
8
 73
4
 74
0
 40
0
 40
0
 40
0
 40
0
 40
1
 40
1
 40
1
 40
1
 10
-8.054198
 20
319.148029
 30
0.0
 10
-7.930348
 20
319.395294
 30
0.0
 10
-7.948193
 20
319.689913
 30
0.0
 10
-8.100982
 20
319.920421
 30
0.0
  0
SPLINE
  5
110
100
AcDbEntity
  8
Layer_1
 62
1
100
AcDbSpline
 70
8
 71
3
 72
8
 73
4
 74
0
 40
0
 40
0
 40
0
 40
0
 40
1
 40
1
 40
1
 40
1
 10
-8.100982
 20
319.920421
 30
0.0
 10
-8.253771
 20
320.150929
 30
0.0
 10
-8.518170
 20
320.282124
 30
0.0
 10
-8.794147
 20
320.264369
 30
0.0
  0
SPLINE
  5
111
100
AcDbEntity
  8
Layer_1
 62
1
100
AcDbSpline
 70
8
 71
3
 72
8
 73
4
 74
0
 40
0
 40
0
 40
0
 40
0
 40
1
 40
1
 40
1
 40
1
 10
-8.794147
 20
320.264369
 30
0.0
 10
-9.070124
 20
320.246614
 30
0.0
 10
-9.315532
 20
320.082621
 30
0.0
 10
-9.437524
 20
319.834434
 30
0.0
  0
SPLINE
  5
112
100
AcDbEntity
  8
Layer_1
 62
1
100
AcDbSpline
 70
8
 71
3
 72
8
 73
4
 74
0
 40
0
 40
0
 40
0
 40
0
 40
1
 40
1
 40
1
 40
1
 10
-9.437524
 20
319.834434
 30
0.0
 10
-9.437524
 20
319.834434
 30
0.0
 10
-11.476451
 20
315.753473
 30
0.0
 10
-11.476451
 20
315.753473
 30
0.0
  0
SPLINE
  5
113
100
AcDbEntity
  8
Layer_1
 62
1
100
AcDbSpline
 70
8
 71
3
 72
8
 73
4
 74
0
 40
0
 40
0
 40
0
 40
0
 40
1
 40
1
 40
1
 40
1
 10
-11.476451
 20
315.753473
 30
0.0
 10
-11.600570
 20
315.506158
 30
0.0
 10
-11.583171
 20
315.211387
 30
0.0
 10
-11.430820
 20
314.980391
 30
0.0
  0
SPLINE
  5
114
100
AcDbEntity
  8
Layer_1
 62
1
100
AcDbSpline
 70
8
 71
3
 72
8
 73
4
 74
0
 40
0
 40
0
 40
0
 40
0
 40
1
 40
1
 40
1
 40
1
 10
-11.430820
 20
314.980391
 30
0.0
 10
-11.278468
 20
314.749394
 30
0.0
 10
-11.014358
 20
314.617339
 30
0.0
 10
-10.738150
 20
314.634056
 30
0.0
  0
SPLINE
  5
115
100
AcDbEntity
  8
Layer_1
 62
1
100
AcDbSpline
 70
8
 71
3
 72
8
 73
4
 74
0
 40
0
 40
0
 40
0
 40
0
 40
1
 40
1
 40
1
 40
1
 10
-10.738150
 20
314.634056
 30
0.0
 10
-10.461942
 20
314.650773
 30
0.0
 10
-10.215686
 20
314.813717
 30
0.0
 10
-10.092305
 20
315.061402
 30
0.0
  0
SPLINE
  5
116
100
AcDbEntity
  8
Layer_1
 62
1
100
AcDbSpline
 70
8
 71
3
 72
8
 73
4
 74
0
 40
0
 40
0
 40
0
 40
0
 40
1
 40
1
 40
1
 40
1
 10
-10.092305
 20
315.061402
 30
0.0
 10
-10.000597
 20
315.244677
 30
0.0
 10
-9.839631
 20
315.383849
 30
0.0
 10
-9.645030
 20
315.448119
 30
0.0
  0
SPLINE
  5
117
100
AcDbEntity
  8
Layer_1
 62
1
100
AcDbSpline
 70
8
 71
3
 72
8
 73
4
 74
0
 40
0
 40
0
 40
0
 40
0
 40
1
 40
1
 40
1
 40
1
 10
-9.645030
 20
315.448119
 30
0.0
 10
-9.450428
 20
315.512389
 30
0.0
 10
-9.238238
 20
315.496457
 30
0.0
 10
-9.055415
 20
315.403849
 30
0.0
  0
SPLINE
  5
118
100
AcDbEntity
  8
Layer_1
 62
1
100
AcDbSpline
 70
8
 71
3
 72
8
 73
4
 74
0
 40
0
 40
0
 40
0
 40
0
 40
1
 40
1
 40
1
 40
1
 10
-9.055415
 20
315.403849
 30
0.0
 10
-9.055415
 20
315.403849
 30
0.0
 10
0.638194
 20
310.560724
 30
0.0
 10
0.638194
 20
310.560724
 30
0.0
  0
SPLINE
  5
119
100
AcDbEntity
  8
Layer_1
 62
1
100
AcDbSpline
 70
8
 71
3
 72
8
 73
4
 74
0
 40
0
 40
0
 40
0
 40
0
 40
1
 40
1
 40
1
 40
1
 10
0.638194
 20
310.560724
 30
0.0
 10
1.020439
 20
310.369750
 30
0.0
 10
1.175629
 20
309.905160
 30
0.0
 10
0.984901
 20
309.522792
 30
0.0
  0
SPLINE
  5
11a
100
AcDbEntity
  8
Layer_1
 62
1
100
AcDbSpline
 70
8
 71
3
 72
8
 73
4
 74
0
 40
0
 40
0
 40
0
 40
0
 40
1
 40
1
 40
1
 40
1
 10
0.984901
 20
309.522792
 30
0.0
 10
0.795374
 20
309.140710
 30
0.0
 10
0.950658
 20
308.677309
 30
0.0
 10
1.332136
 20
308.486569
 30
0.0
  0
SPLINE
  5
11b
100
AcDbEntity
  8
Layer_1
 62
1
100
AcDbSpline
 70
8
 71
3
 72
8
 73
4
 74
0
 40
0
 40
0
 40
0
 40
0
 40
1
 40
1
 40
1
 40
1
 10
1.332136
 20
308.486569
 30
0.0
 10
1.713614
 20
308.295828
 30
0.0
 10
2.177506
 20
308.449640
 30
0.0
 10
2.369458
 20
308.830510
 30
0.0
  0
LWPOLYLINE
  5
11c
100
AcDbEntity
  8
Layer_1
 62
1
100
AcDbPolyline
 90
2
 70
0
 10
2.369458
 20
308.830510
 30
0.0
 10
4.410494
 20
312.915679
 30
0.0
  0
SPLINE
  5
11d
100
AcDbEntity
  8
Layer_1
 62
1
100
AcDbSpline
 70
8
 71
3
 72
8
 73
4
 74
0
 40
0
 40
0
 40
0
 40
0
 40
1
 40
1
 40
1
 40
1
 10
76.340095
 20
242.336092
 30
0.0
 10
76.529818
 20
242.718208
 30
0.0
 10
76.374566
 20
243.181794
 30
0.0
 10
75.992979
 20
243.372581
 30
0.0
  0
SPLINE
  5
11e
100
AcDbEntity
  8
Layer_1
 62
1
100
AcDbSpline
 70
8
 71
3
 72
8
 73
4
 74
0
 40
0
 40
0
 40
0
 40
0
 40
1
 40
1
 40
1
 40
1
 10
75.992979
 20
243.372581
 30
0.0
 10
75.611393
 20
243.563368
 30
0.0
 10
75.147377
 20
243.409408
 30
0.0
 10
74.955527
 20
243.028355
 30
0.0
  0
SPLINE
  5
11f
100
AcDbEntity
  8
Layer_1
 62
1
100
AcDbSpline
 70
8
 71
3
 72
8
 73
4
 74
0
 40
0
 40
0
 40
0
 40
0
 40
1
 40
1
 40
1
 40
1
 10
74.955527
 20
243.028355
 30
0.0
 10
74.764242
 20
242.646096
 30
0.0
 10
74.299562
 20
242.490904
 30
0.0
 10
73.916958
 20
242.681498
 30
0.0
  0
SPLINE
  5
120
100
AcDbEntity
  8
Layer_1
 62
1
100
AcDbSpline
 70
8
 71
3
 72
8
 73
4
 74
0
 40
0
 40
0
 40
0
 40
0
 40
1
 40
1
 40
1
 40
1
 10
73.916958
 20
242.681498
 30
0.0
 10
73.916958
 20
242.681498
 30
0.0
 10
64.223327
 20
247.524606
 30
0.0
 10
64.223327
 20
247.524606
 30
0.0
  0
SPLINE
  5
121
100
AcDbEntity
  8
Layer_1
 62
1
100
AcDbSpline
 70
8
 71
3
 72
8
 73
4
 74
0
 40
0
 40
0
 40
0
 40
0
 40
1
 40
1
 40
1
 40
1
 10
64.223327
 20
247.524606
 30
0.0
 10
64.038725
 20
247.616839
 30
0.0
 10
63.898344
 20
247.778652
 30
0.0
 10
63.833088
 20
247.974423
 30
0.0
  0
SPLINE
  5
122
100
AcDbEntity
  8
Layer_1
 62
1
100
AcDbSpline
 70
8
 71
3
 72
8
 73
4
 74
0
 40
0
 40
0
 40
0
 40
0
 40
1
 40
1
 40
1
 40
1
 10
63.833088
 20
247.974423
 30
0.0
 10
63.767832
 20
248.170194
 30
0.0
 10
63.783051
 20
248.383873
 30
0.0
 10
63.875395
 20
248.568419
 30
0.0
  0
SPLINE
  5
123
100
AcDbEntity
  8
Layer_1
 62
1
100
AcDbSpline
 70
8
 71
3
 72
8
 73
4
 74
0
 40
0
 40
0
 40
0
 40
0
 40
1
 40
1
 40
1
 40
1
 10
63.875395
 20
248.568419
 30
0.0
 10
63.998775
 20
248.815625
 30
0.0
 10
63.980669
 20
249.109915
 30
0.0
 10
63.827915
 20
249.340132
 30
0.0
  0
SPLINE
  5
124
100
AcDbEntity
  8
Layer_1
 62
1
100
AcDbSpline
 70
8
 71
3
 72
8
 73
4
 74
0
 40
0
 40
0
 40
0
 40
0
 40
1
 40
1
 40
1
 40
1
 10
63.827915
 20
249.340132
 30
0.0
 10
63.675162
 20
249.570349
 30
0.0
 10
63.411043
 20
249.701404
 30
0.0
 10
63.135319
 20
249.683797
 30
0.0
  0
SPLINE
  5
125
100
AcDbEntity
  8
Layer_1
 62
1
100
AcDbSpline
 70
8
 71
3
 72
8
 73
4
 74
0
 40
0
 40
0
 40
0
 40
0
 40
1
 40
1
 40
1
 40
1
 10
63.135319
 20
249.683797
 30
0.0
 10
62.859596
 20
249.666189
 30
0.0
 10
62.614293
 20
249.502603
 30
0.0
 10
62.492063
 20
249.254826
 30
0.0
  0
LWPOLYLINE
  5
126
100
AcDbEntity
  8
Layer_1
 62
1
100
AcDbPolyline
 90
2
 70
0
 10
74.299058
 20
238.250897
 30
0.0
 10
76.340095
 20
242.336092
 30
0.0
  0
SPLINE
  5
127
100
AcDbEntity
  8
Layer_1
 62
1
100
AcDbSpline
 70
8
 71
3
 72
8
 73
4
 74
0
 40
0
 40
0
 40
0
 40
0
 40
1
 40
1
 40
1
 40
1
 10
60.453135
 20
245.173882
 30
0.0
 10
60.328791
 20
244.926539
 30
0.0
 10
60.346065
 20
244.631611
 30
0.0
 10
60.498433
 20
244.400475
 30
0.0
  0
SPLINE
  5
128
100
AcDbEntity
  8
Layer_1
 62
1
100
AcDbSpline
 70
8
 71
3
 72
8
 73
4
 74
0
 40
0
 40
0
 40
0
 40
0
 40
1
 40
1
 40
1
 40
1
 10
60.498433
 20
244.400475
 30
0.0
 10
60.650800
 20
244.169339
 30
0.0
 10
60.915044
 20
244.037217
 30
0.0
 10
61.191373
 20
244.054003
 30
0.0
  0
SPLINE
  5
129
100
AcDbEntity
  8
Layer_1
 62
1
100
AcDbSpline
 70
8
 71
3
 72
8
 73
4
 74
0
 40
0
 40
0
 40
0
 40
0
 40
1
 40
1
 40
1
 40
1
 10
61.191373
 20
244.054003
 30
0.0
 10
61.467702
 20
244.070789
 30
0.0
 10
61.714010
 20
244.233925
 30
0.0
 10
61.837279
 20
244.481805
 30
0.0
  0
SPLINE
  5
12a
100
AcDbEntity
  8
Layer_1
 62
1
100
AcDbSpline
 70
8
 71
3
 72
8
 73
4
 74
0
 40
0
 40
0
 40
0
 40
0
 40
1
 40
1
 40
1
 40
1
 10
61.837279
 20
244.481805
 30
0.0
 10
61.928987
 20
244.665083
 30
0.0
 10
62.089953
 20
244.804257
 30
0.0
 10
62.284555
 20
244.868529
 30
0.0
  0
SPLINE
  5
12b
100
AcDbEntity
  8
Layer_1
 62
1
100
AcDbSpline
 70
8
 71
3
 72
8
 73
4
 74
0
 40
0
 40
0
 40
0
 40
0
 40
1
 40
1
 40
1
 40
1
 10
62.284555
 20
244.868529
 30
0.0
 10
62.479158
 20
244.932800
 30
0.0
 10
62.691351
 20
244.916868
 30
0.0
 10
62.874175
 20
244.824259
 30
0.0
  0
LWPOLYLINE
  5
12c
100
AcDbEntity
  8
Layer_1
 62
1
100
AcDbPolyline
 90
2
 70
0
 10
62.492063
 20
249.254826
 30
0.0
 10
60.453135
 20
245.173882
 30
0.0
  0
SPLINE
  5
12d
100
AcDbEntity
  8
Layer_1
 62
1
100
AcDbSpline
 70
8
 71
3
 72
8
 73
4
 74
0
 40
0
 40
0
 40
0
 40
0
 40
1
 40
1
 40
1
 40
1
 10
72.567794
 20
239.981117
 30
0.0
 10
72.950051
 20
239.790143
 30
0.0
 10
73.105245
 20
239.325539
 30
0.0
 10
72.914504
 20
238.943166
 30
0.0
  0
SPLINE
  5
12e
100
AcDbEntity
  8
Layer_1
 62
1
100
AcDbSpline
 70
8
 71
3
 72
8
 73
4
 74
0
 40
0
 40
0
 40
0
 40
0
 40
1
 40
1
 40
1
 40
1
 10
72.914504
 20
238.943166
 30
0.0
 10
72.725755
 20
238.561205
 30
0.0
 10
72.881190
 20
238.098521
 30
0.0
 10
73.262263
 20
237.907987
 30
0.0
  0
SPLINE
  5
12f
100
AcDbEntity
  8
Layer_1
 62
1
100
AcDbSpline
 70
8
 71
3
 72
8
 73
4
 74
0
 40
0
 40
0
 40
0
 40
0
 40
1
 40
1
 40
1
 40
1
 10
73.262263
 20
237.907987
 30
0.0
 10
73.643337
 20
237.717452
 30
0.0
 10
74.106743
 20
237.870719
 30
0.0
 10
74.299058
 20
238.250897
 30
0.0
  0
SPLINE
  5
130
100
AcDbEntity
  8
Layer_1
 62
1
100
AcDbSpline
 70
8
 71
3
 72
8
 73
4
 74
0
 40
0
 40
0
 40
0
 40
0
 40
1
 40
1
 40
1
 40
1
 10
-11.822481
 20
247.558820
 30
0.0
 10
-11.822481
 20
247.558820
 30
0.0
 10
-7.737309
 20
245.517772
 30
0.0
 10
-7.737309
 20
245.517772
 30
0.0
  0
SPLINE
  5
131
100
AcDbEntity
  8
Layer_1
 62
1
100
AcDbSpline
 70
8
 71
3
 72
8
 73
4
 74
0
 40
0
 40
0
 40
0
 40
0
 40
1
 40
1
 40
1
 40
1
 10
-7.737309
 20
245.517772
 30
0.0
 10
-7.355236
 20
245.328338
 30
0.0
 10
-6.891917
 20
245.483643
 30
0.0
 10
-6.701200
 20
245.865077
 30
0.0
  0
SPLINE
  5
132
100
AcDbEntity
  8
Layer_1
 62
1
100
AcDbSpline
 70
8
 71
3
 72
8
 73
4
 74
0
 40
0
 40
0
 40
0
 40
0
 40
1
 40
1
 40
1
 40
1
 10
-6.701200
 20
245.865077
 30
0.0
 10
-6.510484
 20
246.246512
 30
0.0
 10
-6.664233
 20
246.710350
 30
0.0
 10
-7.045025
 20
246.902346
 30
0.0
  0
SPLINE
  5
133
100
AcDbEntity
  8
Layer_1
 62
1
100
AcDbSpline
 70
8
 71
3
 72
8
 73
4
 74
0
 40
0
 40
0
 40
0
 40
0
 40
1
 40
1
 40
1
 40
1
 10
-7.045025
 20
246.902346
 30
0.0
 10
-7.427300
 20
247.093624
 30
0.0
 10
-7.582503
 20
247.558316
 30
0.0
 10
-7.391902
 20
247.940929
 30
0.0
  0
SPLINE
  5
134
100
AcDbEntity
  8
Layer_1
 62
1
100
AcDbSpline
 70
8
 71
3
 72
8
 73
4
 74
0
 40
0
 40
0
 40
0
 40
0
 40
1
 40
1
 40
1
 40
1
 10
-7.391902
 20
247.940929
 30
0.0
 10
-7.391902
 20
247.940929
 30
0.0
 10
-2.548779
 20
257.634554
 30
0.0
 10
-2.548779
 20
257.634554
 30
0.0
  0
SPLINE
  5
135
100
AcDbEntity
  8
Layer_1
 62
1
100
AcDbSpline
 70
8
 71
3
 72
8
 73
4
 74
0
 40
0
 40
0
 40
0
 40
0
 40
1
 40
1
 40
1
 40
1
 10
-2.548779
 20
257.634554
 30
0.0
 10
-2.456548
 20
257.819156
 30
0.0
 10
-2.294735
 20
257.959537
 30
0.0
 10
-2.098965
 20
258.024793
 30
0.0
  0
SPLINE
  5
136
100
AcDbEntity
  8
Layer_1
 62
1
100
AcDbSpline
 70
8
 71
3
 72
8
 73
4
 74
0
 40
0
 40
0
 40
0
 40
0
 40
1
 40
1
 40
1
 40
1
 10
-2.098965
 20
258.024793
 30
0.0
 10
-1.903195
 20
258.090050
 30
0.0
 10
-1.689516
 20
258.074832
 30
0.0
 10
-1.504970
 20
257.982489
 30
0.0
  0
SPLINE
  5
137
100
AcDbEntity
  8
Layer_1
 62
1
100
AcDbSpline
 70
8
 71
3
 72
8
 73
4
 74
0
 40
0
 40
0
 40
0
 40
0
 40
1
 40
1
 40
1
 40
1
 10
-1.504970
 20
257.982489
 30
0.0
 10
-1.257725
 20
257.858797
 30
0.0
 10
-0.963216
 20
257.876730
 30
0.0
 10
-0.732806
 20
258.029508
 30
0.0
  0
SPLINE
  5
138
100
AcDbEntity
  8
Layer_1
 62
1
100
AcDbSpline
 70
8
 71
3
 72
8
 73
4
 74
0
 40
0
 40
0
 40
0
 40
0
 40
1
 40
1
 40
1
 40
1
 10
-0.732806
 20
258.029508
 30
0.0
 10
-0.502396
 20
258.182285
 30
0.0
 10
-0.371248
 20
258.446591
 30
0.0
 10
-0.388954
 20
258.722482
 30
0.0
  0
SPLINE
  5
139
100
AcDbEntity
  8
Layer_1
 62
1
100
AcDbSpline
 70
8
 71
3
 72
8
 73
4
 74
0
 40
0
 40
0
 40
0
 40
0
 40
1
 40
1
 40
1
 40
1
 10
-0.388954
 20
258.722482
 30
0.0
 10
-0.406660
 20
258.998374
 30
0.0
 10
-0.570517
 20
259.243747
 30
0.0
 10
-0.818567
 20
259.365818
 30
0.0
  0
SPLINE
  5
13a
100
AcDbEntity
  8
Layer_1
 62
1
100
AcDbSpline
 70
8
 71
3
 72
8
 73
4
 74
0
 40
0
 40
0
 40
0
 40
0
 40
1
 40
1
 40
1
 40
1
 10
-0.818567
 20
259.365818
 30
0.0
 10
-0.818567
 20
259.365818
 30
0.0
 10
-4.899511
 20
261.404747
 30
0.0
 10
-4.899511
 20
261.404747
 30
0.0
  0
SPLINE
  5
13b
100
AcDbEntity
  8
Layer_1
 62
1
100
AcDbSpline
 70
8
 71
3
 72
8
 73
4
 74
0
 40
0
 40
0
 40
0
 40
0
 40
1
 40
1
 40
1
 40
1
 10
-4.899511
 20
261.404747
 30
0.0
 10
-5.281598
 20
261.594983
 30
0.0
 10
-5.745568
 20
261.439891
 30
0.0
 10
-5.936452
 20
261.058127
 30
0.0
  0
SPLINE
  5
13c
100
AcDbEntity
  8
Layer_1
 62
1
100
AcDbSpline
 70
8
 71
3
 72
8
 73
4
 74
0
 40
0
 40
0
 40
0
 40
0
 40
1
 40
1
 40
1
 40
1
 10
-5.936452
 20
261.058127
 30
0.0
 10
-6.127336
 20
260.676362
 30
0.0
 10
-5.973030
 20
260.212130
 30
0.0
 10
-5.591590
 20
260.020599
 30
0.0
  0
SPLINE
  5
13d
100
AcDbEntity
  8
Layer_1
 62
1
100
AcDbSpline
 70
8
 71
3
 72
8
 73
4
 74
0
 40
0
 40
0
 40
0
 40
0
 40
1
 40
1
 40
1
 40
1
 10
-5.591590
 20
260.020599
 30
0.0
 10
-5.408313
 20
259.928891
 30
0.0
 10
-5.269139
 20
259.767924
 30
0.0
 10
-5.204869
 20
259.573320
 30
0.0
  0
SPLINE
  5
13e
100
AcDbEntity
  8
Layer_1
 62
1
100
AcDbSpline
 70
8
 71
3
 72
8
 73
4
 74
0
 40
0
 40
0
 40
0
 40
0
 40
1
 40
1
 40
1
 40
1
 10
-5.204869
 20
259.573320
 30
0.0
 10
-5.140599
 20
259.378717
 30
0.0
 10
-5.156532
 20
259.166524
 30
0.0
 10
-5.249143
 20
258.983701
 30
0.0
  0
SPLINE
  5
13f
100
AcDbEntity
  8
Layer_1
 62
1
100
AcDbSpline
 70
8
 71
3
 72
8
 73
4
 74
0
 40
0
 40
0
 40
0
 40
0
 40
1
 40
1
 40
1
 40
1
 10
-5.249143
 20
258.983701
 30
0.0
 10
-5.249143
 20
258.983701
 30
0.0
 10
-10.092262
 20
249.290084
 30
0.0
 10
-10.092262
 20
249.290084
 30
0.0
  0
SPLINE
  5
140
100
AcDbEntity
  8
Layer_1
 62
1
100
AcDbSpline
 70
8
 71
3
 72
8
 73
4
 74
0
 40
0
 40
0
 40
0
 40
0
 40
1
 40
1
 40
1
 40
1
 10
-10.092262
 20
249.290084
 30
0.0
 10
-10.283238
 20
248.907841
 30
0.0
 10
-10.747828
 20
248.752653
 30
0.0
 10
-11.130195
 20
248.943383
 30
0.0
  0
SPLINE
  5
141
100
AcDbEntity
  8
Layer_1
 62
1
100
AcDbSpline
 70
8
 71
3
 72
8
 73
4
 74
0
 40
0
 40
0
 40
0
 40
0
 40
1
 40
1
 40
1
 40
1
 10
-11.130195
 20
248.943383
 30
0.0
 10
-11.377594
 20
249.067617
 30
0.0
 10
-11.672509
 20
249.050257
 30
0.0
 10
-11.903623
 20
248.897854
 30
0.0
  0
SPLINE
  5
142
100
AcDbEntity
  8
Layer_1
 62
1
100
AcDbSpline
 70
8
 71
3
 72
8
 73
4
 74
0
 40
0
 40
0
 40
0
 40
0
 40
1
 40
1
 40
1
 40
1
 10
-11.903623
 20
248.897854
 30
0.0
 10
-12.134738
 20
248.745451
 30
0.0
 10
-12.266856
 20
248.481215
 30
0.0
 10
-12.250111
 20
248.204882
 30
0.0
  0
SPLINE
  5
143
100
AcDbEntity
  8
Layer_1
 62
1
100
AcDbSpline
 70
8
 71
3
 72
8
 73
4
 74
0
 40
0
 40
0
 40
0
 40
0
 40
1
 40
1
 40
1
 40
1
 10
-12.250111
 20
248.204882
 30
0.0
 10
-12.233366
 20
247.928549
 30
0.0
 10
-12.070307
 20
247.682200
 30
0.0
 10
-11.822481
 20
247.558820
 30
0.0
  0
LWPOLYLINE
  5
144
100
AcDbEntity
  8
Layer_1
 62
1
100
AcDbPolyline
 90
2
 70
0
 10
62.874175
 20
244.824259
 30
0.0
 10
72.567794
 20
239.981117
 30
0.0
  0
SPLINE
  5
145
100
AcDbEntity
  8
Layer_1
 62
1
100
AcDbSpline
 70
8
 71
3
 72
8
 73
4
 74
0
 40
0
 40
0
 40
0
 40
0
 40
1
 40
1
 40
1
 40
1
 10
83.611195
 20
358.985155
 30
0.0
 10
83.993192
 20
358.796173
 30
0.0
 10
84.456089
 20
358.951563
 30
0.0
 10
84.646685
 20
359.332756
 30
0.0
  0
SPLINE
  5
146
100
AcDbEntity
  8
Layer_1
 62
1
100
AcDbSpline
 70
8
 71
3
 72
8
 73
4
 74
0
 40
0
 40
0
 40
0
 40
0
 40
1
 40
1
 40
1
 40
1
 10
84.646685
 20
359.332756
 30
0.0
 10
84.837281
 20
359.713950
 30
0.0
 10
84.683853
 20
360.177501
 30
0.0
 10
84.303469
 20
360.369709
 30
0.0
  0
SPLINE
  5
147
100
AcDbEntity
  8
Layer_1
 62
1
100
AcDbSpline
 70
8
 71
3
 72
8
 73
4
 74
0
 40
0
 40
0
 40
0
 40
0
 40
1
 40
1
 40
1
 40
1
 10
84.303469
 20
360.369709
 30
0.0
 10
83.921204
 20
360.560991
 30
0.0
 10
83.766007
 20
361.025676
 30
0.0
 10
83.956604
 20
361.408283
 30
0.0
  0
LWPOLYLINE
  5
148
100
AcDbEntity
  8
Layer_1
 62
1
100
AcDbPolyline
 90
2
 70
0
 10
79.526023
 20
361.026172
 30
0.0
 10
83.611195
 20
358.985155
 30
0.0
  0
SPLINE
  5
149
100
AcDbEntity
  8
Layer_1
 62
1
100
AcDbSpline
 70
8
 71
3
 72
8
 73
4
 74
0
 40
0
 40
0
 40
0
 40
0
 40
1
 40
1
 40
1
 40
1
 10
88.799732
 20
371.101934
 30
0.0
 10
88.891968
 20
371.286532
 30
0.0
 10
89.053783
 20
371.426908
 30
0.0
 10
89.249554
 20
371.492160
 30
0.0
  0
SPLINE
  5
14a
100
AcDbEntity
  8
Layer_1
 62
1
100
AcDbSpline
 70
8
 71
3
 72
8
 73
4
 74
0
 40
0
 40
0
 40
0
 40
0
 40
1
 40
1
 40
1
 40
1
 10
89.249554
 20
371.492160
 30
0.0
 10
89.445325
 20
371.557411
 30
0.0
 10
89.659002
 20
371.542189
 30
0.0
 10
89.843545
 20
371.449843
 30
0.0
  0
SPLINE
  5
14b
100
AcDbEntity
  8
Layer_1
 62
1
100
AcDbSpline
 70
8
 71
3
 72
8
 73
4
 74
0
 40
0
 40
0
 40
0
 40
0
 40
1
 40
1
 40
1
 40
1
 10
89.843545
 20
371.449843
 30
0.0
 10
90.090660
 20
371.327229
 30
0.0
 10
90.384417
 20
371.345763
 30
0.0
 10
90.614161
 20
371.498463
 30
0.0
  0
SPLINE
  5
14c
100
AcDbEntity
  8
Layer_1
 62
1
100
AcDbSpline
 70
8
 71
3
 72
8
 73
4
 74
0
 40
0
 40
0
 40
0
 40
0
 40
1
 40
1
 40
1
 40
1
 10
90.614161
 20
371.498463
 30
0.0
 10
90.843905
 20
371.651163
 30
0.0
 10
90.974733
 20
371.914831
 30
0.0
 10
90.957363
 20
372.190146
 30
0.0
  0
SPLINE
  5
14d
100
AcDbEntity
  8
Layer_1
 62
1
100
AcDbSpline
 70
8
 71
3
 72
8
 73
4
 74
0
 40
0
 40
0
 40
0
 40
0
 40
1
 40
1
 40
1
 40
1
 10
90.957363
 20
372.190146
 30
0.0
 10
90.939993
 20
372.465461
 30
0.0
 10
90.777064
 20
372.710595
 30
0.0
 10
90.529949
 20
372.833209
 30
0.0
  0
LWPOLYLINE
  5
14e
100
AcDbEntity
  8
Layer_1
 62
1
100
AcDbPolyline
 90
2
 70
0
 10
83.956604
 20
361.408283
 30
0.0
 10
88.799732
 20
371.101934
 30
0.0
  0
SPLINE
  5
14f
100
AcDbEntity
  8
Layer_1
 62
1
100
AcDbSpline
 70
8
 71
3
 72
8
 73
4
 74
0
 40
0
 40
0
 40
0
 40
0
 40
1
 40
1
 40
1
 40
1
 10
86.448990
 20
374.872132
 30
0.0
 10
86.201729
 20
374.995816
 30
0.0
 10
85.907263
 20
374.978176
 30
0.0
 10
85.676536
 20
374.825857
 30
0.0
  0
SPLINE
  5
150
100
AcDbEntity
  8
Layer_1
 62
1
100
AcDbSpline
 70
8
 71
3
 72
8
 73
4
 74
0
 40
0
 40
0
 40
0
 40
0
 40
1
 40
1
 40
1
 40
1
 10
85.676536
 20
374.825857
 30
0.0
 10
85.445809
 20
374.673539
 30
0.0
 10
85.313883
 20
374.409688
 30
0.0
 10
85.330462
 20
374.133716
 30
0.0
  0
SPLINE
  5
151
100
AcDbEntity
  8
Layer_1
 62
1
100
AcDbSpline
 70
8
 71
3
 72
8
 73
4
 74
0
 40
0
 40
0
 40
0
 40
0
 40
1
 40
1
 40
1
 40
1
 10
85.330462
 20
374.133716
 30
0.0
 10
85.347042
 20
373.857743
 30
0.0
 10
85.509608
 20
373.611584
 30
0.0
 10
85.756911
 20
373.487984
 30
0.0
  0
SPLINE
  5
152
100
AcDbEntity
  8
Layer_1
 62
1
100
AcDbSpline
 70
8
 71
3
 72
8
 73
4
 74
0
 40
0
 40
0
 40
0
 40
0
 40
1
 40
1
 40
1
 40
1
 10
85.756911
 20
373.487984
 30
0.0
 10
85.940188
 20
373.396277
 30
0.0
 10
86.079362
 20
373.235310
 30
0.0
 10
86.143633
 20
373.040708
 30
0.0
  0
SPLINE
  5
153
100
AcDbEntity
  8
Layer_1
 62
1
100
AcDbSpline
 70
8
 71
3
 72
8
 73
4
 74
0
 40
0
 40
0
 40
0
 40
0
 40
1
 40
1
 40
1
 40
1
 10
86.143633
 20
373.040708
 30
0.0
 10
86.207904
 20
372.846105
 30
0.0
 10
86.191971
 20
372.633912
 30
0.0
 10
86.099362
 20
372.451089
 30
0.0
  0
LWPOLYLINE
  5
154
100
AcDbEntity
  8
Layer_1
 62
1
100
AcDbPolyline
 90
2
 70
0
 10
90.529949
 20
372.833209
 30
0.0
 10
86.448990
 20
374.872132
 30
0.0
  0
SPLINE
  5
155
100
AcDbEntity
  8
Layer_1
 62
1
100
AcDbSpline
 70
8
 71
3
 72
8
 73
4
 74
0
 40
0
 40
0
 40
0
 40
0
 40
1
 40
1
 40
1
 40
1
 10
81.256231
 20
362.757444
 30
0.0
 10
81.065255
 20
362.375206
 30
0.0
 10
80.600673
 20
362.220020
 30
0.0
 10
80.218308
 20
362.410742
 30
0.0
  0
SPLINE
  5
156
100
AcDbEntity
  8
Layer_1
 62
1
100
AcDbSpline
 70
8
 71
3
 72
8
 73
4
 74
0
 40
0
 40
0
 40
0
 40
0
 40
1
 40
1
 40
1
 40
1
 10
80.218308
 20
362.410742
 30
0.0
 10
79.836030
 20
362.601520
 30
0.0
 10
79.371471
 20
362.446472
 30
0.0
 10
79.180404
 20
362.064338
 30
0.0
  0
SPLINE
  5
157
100
AcDbEntity
  8
Layer_1
 62
1
100
AcDbSpline
 70
8
 71
3
 72
8
 73
4
 74
0
 40
0
 40
0
 40
0
 40
0
 40
1
 40
1
 40
1
 40
1
 10
79.180404
 20
362.064338
 30
0.0
 10
78.989337
 20
361.682204
 30
0.0
 10
79.144033
 20
361.217528
 30
0.0
 10
79.526023
 20
361.026172
 30
0.0
  0
SPLINE
  5
158
100
AcDbEntity
  8
Layer_1
 62
1
100
AcDbSpline
 70
8
 71
3
 72
8
 73
4
 74
0
 40
0
 40
0
 40
0
 40
0
 40
1
 40
1
 40
1
 40
1
 10
7.893053
 20
308.802756
 30
0.0
 10
7.893179
 20
308.934190
 30
0.0
 10
7.823132
 20
309.055695
 30
0.0
 10
7.709327
 20
309.121449
 30
0.0
  0
SPLINE
  5
159
100
AcDbEntity
  8
Layer_1
 62
1
100
AcDbSpline
 70
8
 71
3
 72
8
 73
4
 74
0
 40
0
 40
0
 40
0
 40
0
 40
1
 40
1
 40
1
 40
1
 10
7.709327
 20
309.121449
 30
0.0
 10
7.595522
 20
309.187202
 30
0.0
 10
7.455273
 20
309.187202
 30
0.0
 10
7.341468
 20
309.121449
 30
0.0
  0
SPLINE
  5
15a
100
AcDbEntity
  8
Layer_1
 62
1
100
AcDbSpline
 70
8
 71
3
 72
8
 73
4
 74
0
 40
0
 40
0
 40
0
 40
0
 40
1
 40
1
 40
1
 40
1
 10
7.341468
 20
309.121449
 30
0.0
 10
7.227664
 20
309.055695
 30
0.0
 10
7.157616
 20
308.934190
 30
0.0
 10
7.157743
 20
308.802756
 30
0.0
  0
SPLINE
  5
15b
100
AcDbEntity
  8
Layer_1
 62
1
100
AcDbSpline
 70
8
 71
3
 72
8
 73
4
 74
0
 40
0
 40
0
 40
0
 40
0
 40
1
 40
1
 40
1
 40
1
 10
7.157743
 20
308.802756
 30
0.0
 10
7.157937
 20
308.599843
 30
0.0
 10
7.322485
 20
308.435453
 30
0.0
 10
7.525398
 20
308.435453
 30
0.0
  0
SPLINE
  5
15c
100
AcDbEntity
  8
Layer_1
 62
1
100
AcDbSpline
 70
8
 71
3
 72
8
 73
4
 74
0
 40
0
 40
0
 40
0
 40
0
 40
1
 40
1
 40
1
 40
1
 10
7.525398
 20
308.435453
 30
0.0
 10
7.728310
 20
308.435453
 30
0.0
 10
7.892858
 20
308.599843
 30
0.0
 10
7.893053
 20
308.802756
 30
0.0
  0
LWPOLYLINE
  5
15d
100
AcDbEntity
  8
Layer_1
 62
1
100
AcDbPolyline
 90
2
 70
0
 10
86.099362
 20
372.451089
 30
0.0
 10
81.256231
 20
362.757444
 30
0.0
  0
SPLINE
  5
15e
100
AcDbEntity
  8
Layer_1
 62
1
100
AcDbSpline
 70
8
 71
3
 72
8
 73
4
 74
0
 40
0
 40
0
 40
0
 40
0
 40
1
 40
1
 40
1
 40
1
 10
16.213724
 20
267.290937
 30
0.0
 10
16.213724
 20
267.290937
 30
0.0
 10
18.256005
 20
271.375489
 30
0.0
 10
18.256005
 20
271.375489
 30
0.0
  0
SPLINE
  5
15f
100
AcDbEntity
  8
Layer_1
 62
1
100
AcDbSpline
 70
8
 71
3
 72
8
 73
4
 74
0
 40
0
 40
0
 40
0
 40
0
 40
1
 40
1
 40
1
 40
1
 10
18.256005
 20
271.375489
 30
0.0
 10
18.446603
 20
271.757750
 30
0.0
 10
18.291514
 20
272.222150
 30
0.0
 10
17.909465
 20
272.413172
 30
0.0
  0
SPLINE
  5
160
100
AcDbEntity
  8
Layer_1
 62
1
100
AcDbSpline
 70
8
 71
3
 72
8
 73
4
 74
0
 40
0
 40
0
 40
0
 40
0
 40
1
 40
1
 40
1
 40
1
 10
17.909465
 20
272.413172
 30
0.0
 10
17.527416
 20
272.604194
 30
0.0
 10
17.062844
 20
272.449621
 30
0.0
 10
16.871398
 20
272.067784
 30
0.0
  0
SPLINE
  5
161
100
AcDbEntity
  8
Layer_1
 62
1
100
AcDbSpline
 70
8
 71
3
 72
8
 73
4
 74
0
 40
0
 40
0
 40
0
 40
0
 40
1
 40
1
 40
1
 40
1
 10
16.871398
 20
272.067784
 30
0.0
 10
16.680228
 20
271.685441
 30
0.0
 10
16.215304
 20
271.530463
 30
0.0
 10
15.832960
 20
271.721631
 30
0.0
  0
LWPOLYLINE
  5
162
100
AcDbEntity
  8
Layer_1
 62
1
100
AcDbPolyline
 90
2
 70
1
 10
7.893053
 20
308.802756
 30
0.0
 10
7.893053
 20
308.802756
 30
0.0
  0
SPLINE
  5
163
100
AcDbEntity
  8
Layer_1
 62
1
100
AcDbSpline
 70
8
 71
3
 72
8
 73
4
 74
0
 40
0
 40
0
 40
0
 40
0
 40
1
 40
1
 40
1
 40
1
 10
8.511925
 20
279.752268
 30
0.0
 10
8.603729
 20
279.935878
 30
0.0
 10
8.764713
 20
280.075498
 30
0.0
 10
8.959460
 20
280.140413
 30
0.0
  0
SPLINE
  5
164
100
AcDbEntity
  8
Layer_1
 62
1
100
AcDbSpline
 70
8
 71
3
 72
8
 73
4
 74
0
 40
0
 40
0
 40
0
 40
0
 40
1
 40
1
 40
1
 40
1
 10
8.959460
 20
280.140413
 30
0.0
 10
9.154207
 20
280.205329
 30
0.0
 10
9.366765
 20
280.190222
 30
0.0
 10
9.550374
 20
280.098416
 30
0.0
  0
SPLINE
  5
165
100
AcDbEntity
  8
Layer_1
 62
1
100
AcDbSpline
 70
8
 71
3
 72
8
 73
4
 74
0
 40
0
 40
0
 40
0
 40
0
 40
1
 40
1
 40
1
 40
1
 10
9.550374
 20
280.098416
 30
0.0
 10
9.797749
 20
279.974422
 30
0.0
 10
10.092499
 20
279.991918
 30
0.0
 10
10.323468
 20
280.144307
 30
0.0
  0
SPLINE
  5
166
100
AcDbEntity
  8
Layer_1
 62
1
100
AcDbSpline
 70
8
 71
3
 72
8
 73
4
 74
0
 40
0
 40
0
 40
0
 40
0
 40
1
 40
1
 40
1
 40
1
 10
10.323468
 20
280.144307
 30
0.0
 10
10.554437
 20
280.296695
 30
0.0
 10
10.686485
 20
280.560792
 30
0.0
 10
10.669815
 20
280.837000
 30
0.0
  0
SPLINE
  5
167
100
AcDbEntity
  8
Layer_1
 62
1
100
AcDbSpline
 70
8
 71
3
 72
8
 73
4
 74
0
 40
0
 40
0
 40
0
 40
0
 40
1
 40
1
 40
1
 40
1
 10
10.669815
 20
280.837000
 30
0.0
 10
10.653144
 20
281.113208
 30
0.0
 10
10.490291
 20
281.359506
 30
0.0
 10
10.242671
 20
281.483009
 30
0.0
  0
SPLINE
  5
168
100
AcDbEntity
  8
Layer_1
 62
1
100
AcDbSpline
 70
8
 71
3
 72
8
 73
4
 74
0
 40
0
 40
0
 40
0
 40
0
 40
1
 40
1
 40
1
 40
1
 10
10.242671
 20
281.483009
 30
0.0
 10
10.242671
 20
281.483009
 30
0.0
 10
6.158109
 20
283.525283
 30
0.0
 10
6.158109
 20
283.525283
 30
0.0
  0
SPLINE
  5
169
100
AcDbEntity
  8
Layer_1
 62
1
100
AcDbSpline
 70
8
 71
3
 72
8
 73
4
 74
0
 40
0
 40
0
 40
0
 40
0
 40
1
 40
1
 40
1
 40
1
 10
6.158109
 20
283.525283
 30
0.0
 10
5.775922
 20
283.715426
 30
0.0
 10
5.311945
 20
283.560252
 30
0.0
 10
5.121042
 20
283.178445
 30
0.0
  0
SPLINE
  5
16a
100
AcDbEntity
  8
Layer_1
 62
1
100
AcDbSpline
 70
8
 71
3
 72
8
 73
4
 74
0
 40
0
 40
0
 40
0
 40
0
 40
1
 40
1
 40
1
 40
1
 10
5.121042
 20
283.178445
 30
0.0
 10
4.930140
 20
282.796637
 30
0.0
 10
5.084390
 20
282.332352
 30
0.0
 10
5.465817
 20
282.140691
 30
0.0
  0
SPLINE
  5
16b
100
AcDbEntity
  8
Layer_1
 62
1
100
AcDbSpline
 70
8
 71
3
 72
8
 73
4
 74
0
 40
0
 40
0
 40
0
 40
0
 40
1
 40
1
 40
1
 40
1
 10
5.465817
 20
282.140691
 30
0.0
 10
5.848162
 20
281.949520
 30
0.0
 10
6.003140
 20
281.484594
 30
0.0
 10
5.811970
 20
281.102249
 30
0.0
  0
SPLINE
  5
16c
100
AcDbEntity
  8
Layer_1
 62
1
100
AcDbSpline
 70
8
 71
3
 72
8
 73
4
 74
0
 40
0
 40
0
 40
0
 40
0
 40
1
 40
1
 40
1
 40
1
 10
5.811970
 20
281.102249
 30
0.0
 10
5.811970
 20
281.102249
 30
0.0
 10
0.965897
 20
271.410099
 30
0.0
 10
0.965897
 20
271.410099
 30
0.0
  0
SPLINE
  5
16d
100
AcDbEntity
  8
Layer_1
 62
1
100
AcDbSpline
 70
8
 71
3
 72
8
 73
4
 74
0
 40
0
 40
0
 40
0
 40
0
 40
1
 40
1
 40
1
 40
1
 10
0.965897
 20
271.410099
 30
0.0
 10
0.874092
 20
271.226488
 30
0.0
 10
0.713108
 20
271.086867
 30
0.0
 10
0.518359
 20
271.021952
 30
0.0
  0
SPLINE
  5
16e
100
AcDbEntity
  8
Layer_1
 62
1
100
AcDbSpline
 70
8
 71
3
 72
8
 73
4
 74
0
 40
0
 40
0
 40
0
 40
0
 40
1
 40
1
 40
1
 40
1
 10
0.518359
 20
271.021952
 30
0.0
 10
0.323611
 20
270.957036
 30
0.0
 10
0.111051
 20
270.972144
 30
0.0
 10
-0.072558
 20
271.063952
 30
0.0
  0
SPLINE
  5
16f
100
AcDbEntity
  8
Layer_1
 62
1
100
AcDbSpline
 70
8
 71
3
 72
8
 73
4
 74
0
 40
0
 40
0
 40
0
 40
0
 40
1
 40
1
 40
1
 40
1
 10
-0.072558
 20
271.063952
 30
0.0
 10
-0.319985
 20
271.188369
 30
0.0
 10
-0.615032
 20
271.171107
 30
0.0
 10
-0.846263
 20
271.018687
 30
0.0
  0
SPLINE
  5
170
100
AcDbEntity
  8
Layer_1
 62
1
100
AcDbSpline
 70
8
 71
3
 72
8
 73
4
 74
0
 40
0
 40
0
 40
0
 40
0
 40
1
 40
1
 40
1
 40
1
 10
-0.846263
 20
271.018687
 30
0.0
 10
-1.077493
 20
270.866267
 30
0.0
 10
-1.209667
 20
270.601918
 30
0.0
 10
-1.192864
 20
270.325481
 30
0.0
  0
SPLINE
  5
171
100
AcDbEntity
  8
Layer_1
 62
1
100
AcDbSpline
 70
8
 71
3
 72
8
 73
4
 74
0
 40
0
 40
0
 40
0
 40
0
 40
1
 40
1
 40
1
 40
1
 10
-1.192864
 20
270.325481
 30
0.0
 10
-1.176060
 20
270.049044
 30
0.0
 10
-1.012840
 20
269.802651
 30
0.0
 10
-0.764850
 20
269.679361
 30
0.0
  0
SPLINE
  5
172
100
AcDbEntity
  8
Layer_1
 62
1
100
AcDbSpline
 70
8
 71
3
 72
8
 73
4
 74
0
 40
0
 40
0
 40
0
 40
0
 40
1
 40
1
 40
1
 40
1
 10
-0.764850
 20
269.679361
 30
0.0
 10
-0.764850
 20
269.679361
 30
0.0
 10
3.319698
 20
267.637083
 30
0.0
 10
3.319698
 20
267.637083
 30
0.0
  0
SPLINE
  5
173
100
AcDbEntity
  8
Layer_1
 62
1
100
AcDbSpline
 70
8
 71
3
 72
8
 73
4
 74
0
 40
0
 40
0
 40
0
 40
0
 40
1
 40
1
 40
1
 40
1
 10
3.319698
 20
267.637083
 30
0.0
 10
3.701864
 20
267.447076
 30
0.0
 10
4.165715
 20
267.602275
 30
0.0
 10
4.356583
 20
267.984011
 30
0.0
  0
SPLINE
  5
174
100
AcDbEntity
  8
Layer_1
 62
1
100
AcDbSpline
 70
8
 71
3
 72
8
 73
4
 74
0
 40
0
 40
0
 40
0
 40
0
 40
1
 40
1
 40
1
 40
1
 10
4.356583
 20
267.984011
 30
0.0
 10
4.547451
 20
268.365747
 30
0.0
 10
4.393299
 20
268.829947
 30
0.0
 10
4.011994
 20
269.021675
 30
0.0
  0
SPLINE
  5
175
100
AcDbEntity
  8
Layer_1
 62
1
100
AcDbSpline
 70
8
 71
3
 72
8
 73
4
 74
0
 40
0
 40
0
 40
0
 40
0
 40
1
 40
1
 40
1
 40
1
 10
4.011994
 20
269.021675
 30
0.0
 10
3.828385
 20
269.113479
 30
0.0
 10
3.688765
 20
269.274461
 30
0.0
 10
3.623849
 20
269.469208
 30
0.0
  0
SPLINE
  5
176
100
AcDbEntity
  8
Layer_1
 62
1
100
AcDbSpline
 70
8
 71
3
 72
8
 73
4
 74
0
 40
0
 40
0
 40
0
 40
0
 40
1
 40
1
 40
1
 40
1
 10
3.623849
 20
269.469208
 30
0.0
 10
3.558933
 20
269.663954
 30
0.0
 10
3.574039
 20
269.876512
 30
0.0
 10
3.665843
 20
270.060121
 30
0.0
  0
LWPOLYLINE
  5
177
100
AcDbEntity
  8
Layer_1
 62
1
100
AcDbPolyline
 90
3
 70
0
 10
15.832960
 20
271.721631
 30
0.0
 10
6.763872
 20
276.256173
 30
0.0
 10
8.511925
 20
279.752268
 30
0.0
  0
SPLINE
  5
178
100
AcDbEntity
  8
Layer_1
 62
1
100
AcDbSpline
 70
8
 71
3
 72
8
 73
4
 74
0
 40
0
 40
0
 40
0
 40
0
 40
1
 40
1
 40
1
 40
1
 10
5.413894
 20
273.556219
 30
0.0
 10
5.413894
 20
273.556219
 30
0.0
 10
14.482985
 20
269.021675
 30
0.0
 10
14.482985
 20
269.021675
 30
0.0
  0
SPLINE
  5
179
100
AcDbEntity
  8
Layer_1
 62
1
100
AcDbSpline
 70
8
 71
3
 72
8
 73
4
 74
0
 40
0
 40
0
 40
0
 40
0
 40
1
 40
1
 40
1
 40
1
 10
14.482985
 20
269.021675
 30
0.0
 10
14.865329
 20
268.830505
 30
0.0
 10
15.020308
 20
268.365579
 30
0.0
 10
14.829138
 20
267.983234
 30
0.0
  0
SPLINE
  5
17a
100
AcDbEntity
  8
Layer_1
 62
1
100
AcDbSpline
 70
8
 71
3
 72
8
 73
4
 74
0
 40
0
 40
0
 40
0
 40
0
 40
1
 40
1
 40
1
 40
1
 10
14.829138
 20
267.983234
 30
0.0
 10
14.639439
 20
267.601118
 30
0.0
 10
14.794694
 20
267.137551
 30
0.0
 10
15.176268
 20
266.946763
 30
0.0
  0
SPLINE
  5
17b
100
AcDbEntity
  8
Layer_1
 62
1
100
AcDbSpline
 70
8
 71
3
 72
8
 73
4
 74
0
 40
0
 40
0
 40
0
 40
0
 40
1
 40
1
 40
1
 40
1
 10
15.176268
 20
266.946763
 30
0.0
 10
15.557842
 20
266.755975
 30
0.0
 10
16.021849
 20
266.909908
 30
0.0
 10
16.213724
 20
267.290937
 30
0.0
  0
LWPOLYLINE
  5
17c
100
AcDbEntity
  8
Layer_1
 62
1
100
AcDbPolyline
 90
2
 70
0
 10
3.665843
 20
270.060121
 30
0.0
 10
5.413894
 20
273.556219
 30
0.0
  0
SPLINE
  5
17d
100
AcDbEntity
  8
Layer_1
 62
1
100
AcDbSpline
 70
8
 71
3
 72
8
 73
4
 74
0
 40
0
 40
0
 40
0
 40
0
 40
1
 40
1
 40
1
 40
1
 10
14.379142
 20
289.755951
 30
0.0
 10
14.761424
 20
289.565187
 30
0.0
 10
15.225974
 20
289.720241
 30
0.0
 10
15.417040
 20
290.102372
 30
0.0
  0
SPLINE
  5
17e
100
AcDbEntity
  8
Layer_1
 62
1
100
AcDbSpline
 70
8
 71
3
 72
8
 73
4
 74
0
 40
0
 40
0
 40
0
 40
0
 40
1
 40
1
 40
1
 40
1
 10
15.417040
 20
290.102372
 30
0.0
 10
15.608106
 20
290.484504
 30
0.0
 10
15.453419
 20
290.949176
 30
0.0
 10
15.071439
 20
291.140544
 30
0.0
  0
SPLINE
  5
17f
100
AcDbEntity
  8
Layer_1
 62
1
100
AcDbSpline
 70
8
 71
3
 72
8
 73
4
 74
0
 40
0
 40
0
 40
0
 40
0
 40
1
 40
1
 40
1
 40
1
 10
15.071439
 20
291.140544
 30
0.0
 10
14.689094
 20
291.331716
 30
0.0
 10
14.534118
 20
291.796642
 30
0.0
 10
14.725289
 20
292.178986
 30
0.0
  0
LWPOLYLINE
  5
180
100
AcDbEntity
  8
Layer_1
 62
1
100
AcDbPolyline
 90
2
 70
0
 10
10.294593
 20
291.798227
 30
0.0
 10
14.379142
 20
289.755951
 30
0.0
  0
SPLINE
  5
181
100
AcDbEntity
  8
Layer_1
 62
1
100
AcDbSpline
 70
8
 71
3
 72
8
 73
4
 74
0
 40
0
 40
0
 40
0
 40
0
 40
1
 40
1
 40
1
 40
1
 10
22.755929
 20
299.500024
 30
0.0
 10
22.939538
 20
299.408220
 30
0.0
 10
23.079157
 20
299.247237
 30
0.0
 10
23.144073
 20
299.052491
 30
0.0
  0
SPLINE
  5
182
100
AcDbEntity
  8
Layer_1
 62
1
100
AcDbSpline
 70
8
 71
3
 72
8
 73
4
 74
0
 40
0
 40
0
 40
0
 40
0
 40
1
 40
1
 40
1
 40
1
 10
23.144073
 20
299.052491
 30
0.0
 10
23.208989
 20
298.857744
 30
0.0
 10
23.193883
 20
298.645187
 30
0.0
 10
23.102078
 20
298.461578
 30
0.0
  0
SPLINE
  5
183
100
AcDbEntity
  8
Layer_1
 62
1
100
AcDbSpline
 70
8
 71
3
 72
8
 73
4
 74
0
 40
0
 40
0
 40
0
 40
0
 40
1
 40
1
 40
1
 40
1
 10
23.102078
 20
298.461578
 30
0.0
 10
22.977456
 20
298.214127
 30
0.0
 10
22.994603
 20
297.918938
 30
0.0
 10
23.147037
 20
297.687580
 30
0.0
  0
SPLINE
  5
184
100
AcDbEntity
  8
Layer_1
 62
1
100
AcDbSpline
 70
8
 71
3
 72
8
 73
4
 74
0
 40
0
 40
0
 40
0
 40
0
 40
1
 40
1
 40
1
 40
1
 10
23.147037
 20
297.687580
 30
0.0
 10
23.299470
 20
297.456223
 30
0.0
 10
23.563940
 20
297.323987
 30
0.0
 10
23.840487
 20
297.340852
 30
0.0
  0
SPLINE
  5
185
100
AcDbEntity
  8
Layer_1
 62
1
100
AcDbSpline
 70
8
 71
3
 72
8
 73
4
 74
0
 40
0
 40
0
 40
0
 40
0
 40
1
 40
1
 40
1
 40
1
 10
23.840487
 20
297.340852
 30
0.0
 10
24.117033
 20
297.357718
 30
0.0
 10
24.363473
 20
297.521112
 30
0.0
 10
24.486663
 20
297.769279
 30
0.0
  0
LWPOLYLINE
  5
186
100
AcDbEntity
  8
Layer_1
 62
1
100
AcDbPolyline
 90
3
 70
0
 10
14.725289
 20
292.178986
 30
0.0
 10
19.259829
 20
301.248071
 30
0.0
 10
22.755929
 20
299.500024
 30
0.0
  0
SPLINE
  5
187
100
AcDbEntity
  8
Layer_1
 62
1
100
AcDbSpline
 70
8
 71
3
 72
8
 73
4
 74
0
 40
0
 40
0
 40
0
 40
0
 40
1
 40
1
 40
1
 40
1
 10
26.528943
 20
301.853828
 30
0.0
 10
26.653268
 20
302.101243
 30
0.0
 10
26.635956
 20
302.396225
 30
0.0
 10
26.483543
 20
302.627399
 30
0.0
  0
SPLINE
  5
188
100
AcDbEntity
  8
Layer_1
 62
1
100
AcDbSpline
 70
8
 71
3
 72
8
 73
4
 74
0
 40
0
 40
0
 40
0
 40
0
 40
1
 40
1
 40
1
 40
1
 10
26.483543
 20
302.627399
 30
0.0
 10
26.331131
 20
302.858573
 30
0.0
 10
26.066837
 20
302.990720
 30
0.0
 10
25.790450
 20
302.973947
 30
0.0
  0
SPLINE
  5
189
100
AcDbEntity
  8
Layer_1
 62
1
100
AcDbSpline
 70
8
 71
3
 72
8
 73
4
 74
0
 40
0
 40
0
 40
0
 40
0
 40
1
 40
1
 40
1
 40
1
 10
25.790450
 20
302.973947
 30
0.0
 10
25.514063
 20
302.957173
 30
0.0
 10
25.267690
 20
302.794034
 30
0.0
 10
25.144352
 20
302.546125
 30
0.0
  0
SPLINE
  5
18a
100
AcDbEntity
  8
Layer_1
 62
1
100
AcDbSpline
 70
8
 71
3
 72
8
 73
4
 74
0
 40
0
 40
0
 40
0
 40
0
 40
1
 40
1
 40
1
 40
1
 10
25.144352
 20
302.546125
 30
0.0
 10
25.052548
 20
302.362515
 30
0.0
 10
24.891564
 20
302.222895
 30
0.0
 10
24.696817
 20
302.157979
 30
0.0
  0
SPLINE
  5
18b
100
AcDbEntity
  8
Layer_1
 62
1
100
AcDbSpline
 70
8
 71
3
 72
8
 73
4
 74
0
 40
0
 40
0
 40
0
 40
0
 40
1
 40
1
 40
1
 40
1
 10
24.696817
 20
302.157979
 30
0.0
 10
24.502069
 20
302.093064
 30
0.0
 10
24.289510
 20
302.108171
 30
0.0
 10
24.105901
 20
302.199977
 30
0.0
  0
LWPOLYLINE
  5
18c
100
AcDbEntity
  8
Layer_1
 62
1
100
AcDbPolyline
 90
2
 70
0
 10
24.486663
 20
297.769279
 30
0.0
 10
26.528943
 20
301.853828
 30
0.0
  0
SPLINE
  5
18d
100
AcDbEntity
  8
Layer_1
 62
1
100
AcDbSpline
 70
8
 71
3
 72
8
 73
4
 74
0
 40
0
 40
0
 40
0
 40
0
 40
1
 40
1
 40
1
 40
1
 10
14.413750
 20
307.046051
 30
0.0
 10
14.031407
 20
307.237225
 30
0.0
 10
13.876433
 20
307.702153
 30
0.0
 10
14.067607
 20
308.084497
 30
0.0
  0
SPLINE
  5
18e
100
AcDbEntity
  8
Layer_1
 62
1
100
AcDbSpline
 70
8
 71
3
 72
8
 73
4
 74
0
 40
0
 40
0
 40
0
 40
0
 40
1
 40
1
 40
1
 40
1
 10
14.067607
 20
308.084497
 30
0.0
 10
14.191551
 20
308.331866
 30
0.0
 10
14.174027
 20
308.626582
 30
0.0
 10
14.021642
 20
308.857520
 30
0.0
  0
SPLINE
  5
18f
100
AcDbEntity
  8
Layer_1
 62
1
100
AcDbSpline
 70
8
 71
3
 72
8
 73
4
 74
0
 40
0
 40
0
 40
0
 40
0
 40
1
 40
1
 40
1
 40
1
 10
14.021642
 20
308.857520
 30
0.0
 10
13.869257
 20
309.088458
 30
0.0
 10
13.605189
 20
309.220492
 30
0.0
 10
13.329008
 20
309.203837
 30
0.0
  0
SPLINE
  5
190
100
AcDbEntity
  8
Layer_1
 62
1
100
AcDbSpline
 70
8
 71
3
 72
8
 73
4
 74
0
 40
0
 40
0
 40
0
 40
0
 40
1
 40
1
 40
1
 40
1
 10
13.329008
 20
309.203837
 30
0.0
 10
13.052826
 20
309.187182
 30
0.0
 10
12.806539
 20
309.024372
 30
0.0
 10
12.683011
 20
308.776795
 30
0.0
  0
LWPOLYLINE
  5
191
100
AcDbEntity
  8
Layer_1
 62
1
100
AcDbPolyline
 90
2
 70
0
 10
24.105901
 20
302.199977
 30
0.0
 10
14.413750
 20
307.046051
 30
0.0
  0
SPLINE
  5
192
100
AcDbEntity
  8
Layer_1
 62
1
100
AcDbSpline
 70
8
 71
3
 72
8
 73
4
 74
0
 40
0
 40
0
 40
0
 40
0
 40
1
 40
1
 40
1
 40
1
 10
10.640740
 20
304.692246
 30
0.0
 10
10.449663
 20
304.309916
 30
0.0
 10
10.604657
 20
303.845076
 30
0.0
 10
10.986952
 20
303.653929
 30
0.0
  0
SPLINE
  5
193
100
AcDbEntity
  8
Layer_1
 62
1
100
AcDbSpline
 70
8
 71
3
 72
8
 73
4
 74
0
 40
0
 40
0
 40
0
 40
0
 40
1
 40
1
 40
1
 40
1
 10
10.986952
 20
303.653929
 30
0.0
 10
11.369247
 20
303.462781
 30
0.0
 10
11.834115
 20
303.617689
 30
0.0
 10
12.025333
 20
303.999948
 30
0.0
  0
SPLINE
  5
194
100
AcDbEntity
  8
Layer_1
 62
1
100
AcDbSpline
 70
8
 71
3
 72
8
 73
4
 74
0
 40
0
 40
0
 40
0
 40
0
 40
1
 40
1
 40
1
 40
1
 10
12.025333
 20
303.999948
 30
0.0
 10
12.216505
 20
304.382293
 30
0.0
 10
12.681431
 20
304.537269
 30
0.0
 10
13.063776
 20
304.346098
 30
0.0
  0
LWPOLYLINE
  5
195
100
AcDbEntity
  8
Layer_1
 62
1
100
AcDbPolyline
 90
2
 70
0
 10
12.683011
 20
308.776795
 30
0.0
 10
10.640740
 20
304.692246
 30
0.0
  0
SPLINE
  5
196
100
AcDbEntity
  8
Layer_1
 62
1
100
AcDbSpline
 70
8
 71
3
 72
8
 73
4
 74
0
 40
0
 40
0
 40
0
 40
0
 40
1
 40
1
 40
1
 40
1
 10
12.025333
 20
293.528968
 30
0.0
 10
11.933529
 20
293.345359
 30
0.0
 10
11.772547
 20
293.205739
 30
0.0
 10
11.577800
 20
293.140823
 30
0.0
  0
SPLINE
  5
197
100
AcDbEntity
  8
Layer_1
 62
1
100
AcDbSpline
 70
8
 71
3
 72
8
 73
4
 74
0
 40
0
 40
0
 40
0
 40
0
 40
1
 40
1
 40
1
 40
1
 10
11.577800
 20
293.140823
 30
0.0
 10
11.383054
 20
293.075908
 30
0.0
 10
11.170496
 20
293.091014
 30
0.0
 10
10.986887
 20
293.182818
 30
0.0
  0
SPLINE
  5
198
100
AcDbEntity
  8
Layer_1
 62
1
100
AcDbSpline
 70
8
 71
3
 72
8
 73
4
 74
0
 40
0
 40
0
 40
0
 40
0
 40
1
 40
1
 40
1
 40
1
 10
10.986887
 20
293.182818
 30
0.0
 10
10.604693
 20
293.373015
 30
0.0
 10
10.140666
 20
293.217853
 30
0.0
 10
9.949749
 20
292.836017
 30
0.0
  0
SPLINE
  5
199
100
AcDbEntity
  8
Layer_1
 62
1
100
AcDbSpline
 70
8
 71
3
 72
8
 73
4
 74
0
 40
0
 40
0
 40
0
 40
0
 40
1
 40
1
 40
1
 40
1
 10
9.949749
 20
292.836017
 30
0.0
 10
9.758832
 20
292.454182
 30
0.0
 10
9.913119
 20
291.989864
 30
0.0
 10
10.294593
 20
291.798227
 30
0.0
  0
LWPOLYLINE
  5
19a
100
AcDbEntity
  8
Layer_1
 62
1
100
AcDbPolyline
 90
3
 70
0
 10
13.063776
 20
304.346098
 30
0.0
 10
16.559871
 20
302.598046
 30
0.0
 10
12.025333
 20
293.528968
 30
0.0
  0
SPLINE
  5
19b
100
AcDbEntity
  8
Layer_1
 62
1
100
AcDbSpline
 70
8
 71
3
 72
8
 73
4
 74
0
 40
0
 40
0
 40
0
 40
0
 40
1
 40
1
 40
1
 40
1
 10
36.636466
 20
275.252346
 30
0.0
 10
36.254271
 20
275.442542
 30
0.0
 10
35.790245
 20
275.287379
 30
0.0
 10
35.599329
 20
274.905543
 30
0.0
  0
SPLINE
  5
19c
100
AcDbEntity
  8
Layer_1
 62
1
100
AcDbSpline
 70
8
 71
3
 72
8
 73
4
 74
0
 40
0
 40
0
 40
0
 40
0
 40
1
 40
1
 40
1
 40
1
 10
35.599329
 20
274.905543
 30
0.0
 10
35.408412
 20
274.523708
 30
0.0
 10
35.562700
 20
274.059390
 30
0.0
 10
35.944175
 20
273.867754
 30
0.0
  0
SPLINE
  5
19d
100
AcDbEntity
  8
Layer_1
 62
1
100
AcDbSpline
 70
8
 71
3
 72
8
 73
4
 74
0
 40
0
 40
0
 40
0
 40
0
 40
1
 40
1
 40
1
 40
1
 10
35.944175
 20
273.867754
 30
0.0
 10
36.326519
 20
273.676579
 30
0.0
 10
36.481492
 20
273.211651
 30
0.0
 10
36.290318
 20
272.829307
 30
0.0
  0
LWPOLYLINE
  5
19e
100
AcDbEntity
  8
Layer_1
 62
1
100
AcDbPolyline
 90
2
 70
0
 10
40.721012
 20
273.210071
 30
0.0
 10
36.636466
 20
275.252346
 30
0.0
  0
SPLINE
  5
19f
100
AcDbEntity
  8
Layer_1
 62
1
100
AcDbSpline
 70
8
 71
3
 72
8
 73
4
 74
0
 40
0
 40
0
 40
0
 40
0
 40
1
 40
1
 40
1
 40
1
 10
31.755777
 20
263.760221
 30
0.0
 10
31.755777
 20
263.760221
 30
0.0
 10
28.259679
 20
265.508278
 30
0.0
 10
28.259679
 20
265.508278
 30
0.0
  0
SPLINE
  5
1a0
100
AcDbEntity
  8
Layer_1
 62
1
100
AcDbSpline
 70
8
 71
3
 72
8
 73
4
 74
0
 40
0
 40
0
 40
0
 40
0
 40
1
 40
1
 40
1
 40
1
 10
28.259679
 20
265.508278
 30
0.0
 10
27.877338
 20
265.699449
 30
0.0
 10
27.722361
 20
266.164371
 30
0.0
 10
27.913528
 20
266.546714
 30
0.0
  0
SPLINE
  5
1a1
100
AcDbEntity
  8
Layer_1
 62
1
100
AcDbSpline
 70
8
 71
3
 72
8
 73
4
 74
0
 40
0
 40
0
 40
0
 40
0
 40
1
 40
1
 40
1
 40
1
 10
27.913528
 20
266.546714
 30
0.0
 10
28.038155
 20
266.794166
 30
0.0
 10
28.021012
 20
267.089359
 30
0.0
 10
27.868578
 20
267.320720
 30
0.0
  0
SPLINE
  5
1a2
100
AcDbEntity
  8
Layer_1
 62
1
100
AcDbSpline
 70
8
 71
3
 72
8
 73
4
 74
0
 40
0
 40
0
 40
0
 40
0
 40
1
 40
1
 40
1
 40
1
 10
27.868578
 20
267.320720
 30
0.0
 10
27.716144
 20
267.552081
 30
0.0
 10
27.451671
 20
267.684319
 30
0.0
 10
27.175121
 20
267.667452
 30
0.0
  0
SPLINE
  5
1a3
100
AcDbEntity
  8
Layer_1
 62
1
100
AcDbSpline
 70
8
 71
3
 72
8
 73
4
 74
0
 40
0
 40
0
 40
0
 40
0
 40
1
 40
1
 40
1
 40
1
 10
27.175121
 20
267.667452
 30
0.0
 10
26.898572
 20
267.650585
 30
0.0
 10
26.652130
 20
267.487186
 30
0.0
 10
26.528943
 20
267.239014
 30
0.0
  0
SPLINE
  5
1a4
100
AcDbEntity
  8
Layer_1
 62
1
100
AcDbSpline
 70
8
 71
3
 72
8
 73
4
 74
0
 40
0
 40
0
 40
0
 40
0
 40
1
 40
1
 40
1
 40
1
 10
26.528943
 20
267.239014
 30
0.0
 10
26.528943
 20
267.239014
 30
0.0
 10
24.486663
 20
263.154468
 30
0.0
 10
24.486663
 20
263.154468
 30
0.0
  0
SPLINE
  5
1a5
100
AcDbEntity
  8
Layer_1
 62
1
100
AcDbSpline
 70
8
 71
3
 72
8
 73
4
 74
0
 40
0
 40
0
 40
0
 40
0
 40
1
 40
1
 40
1
 40
1
 10
24.486663
 20
263.154468
 30
0.0
 10
24.362995
 20
262.907133
 30
0.0
 10
24.380673
 20
262.612610
 30
0.0
 10
24.533037
 20
262.381843
 30
0.0
  0
SPLINE
  5
1a6
100
AcDbEntity
  8
Layer_1
 62
1
100
AcDbSpline
 70
8
 71
3
 72
8
 73
4
 74
0
 40
0
 40
0
 40
0
 40
0
 40
1
 40
1
 40
1
 40
1
 10
24.533037
 20
262.381843
 30
0.0
 10
24.685402
 20
262.151076
 30
0.0
 10
24.949305
 20
262.019124
 30
0.0
 10
25.225338
 20
262.035692
 30
0.0
  0
SPLINE
  5
1a7
100
AcDbEntity
  8
Layer_1
 62
1
100
AcDbSpline
 70
8
 71
3
 72
8
 73
4
 74
0
 40
0
 40
0
 40
0
 40
0
 40
1
 40
1
 40
1
 40
1
 10
25.225338
 20
262.035692
 30
0.0
 10
25.501370
 20
262.052260
 30
0.0
 10
25.747596
 20
262.214831
 30
0.0
 10
25.871264
 20
262.462166
 30
0.0
  0
SPLINE
  5
1a8
100
AcDbEntity
  8
Layer_1
 62
1
100
AcDbSpline
 70
8
 71
3
 72
8
 73
4
 74
0
 40
0
 40
0
 40
0
 40
0
 40
1
 40
1
 40
1
 40
1
 10
25.871264
 20
262.462166
 30
0.0
 10
26.062435
 20
262.844508
 30
0.0
 10
26.527358
 20
262.999484
 30
0.0
 10
26.909701
 20
262.808317
 30
0.0
  0
LWPOLYLINE
  5
1a9
100
AcDbEntity
  8
Layer_1
 62
1
100
AcDbPolyline
 90
2
 70
0
 10
36.290318
 20
272.829307
 30
0.0
 10
31.755777
 20
263.760221
 30
0.0
  0
SPLINE
  5
1aa
100
AcDbEntity
  8
Layer_1
 62
1
100
AcDbSpline
 70
8
 71
3
 72
8
 73
4
 74
0
 40
0
 40
0
 40
0
 40
0
 40
1
 40
1
 40
1
 40
1
 10
36.601854
 20
257.962243
 30
0.0
 10
36.984195
 20
257.771067
 30
0.0
 10
37.139166
 20
257.306142
 30
0.0
 10
36.947994
 20
256.923800
 30
0.0
  0
SPLINE
  5
1ab
100
AcDbEntity
  8
Layer_1
 62
1
100
AcDbSpline
 70
8
 71
3
 72
8
 73
4
 74
0
 40
0
 40
0
 40
0
 40
0
 40
1
 40
1
 40
1
 40
1
 10
36.947994
 20
256.923800
 30
0.0
 10
36.823610
 20
256.676377
 30
0.0
 10
36.840890
 20
256.381353
 30
0.0
 10
36.993308
 20
256.150142
 30
0.0
  0
SPLINE
  5
1ac
100
AcDbEntity
  8
Layer_1
 62
1
100
AcDbSpline
 70
8
 71
3
 72
8
 73
4
 74
0
 40
0
 40
0
 40
0
 40
0
 40
1
 40
1
 40
1
 40
1
 10
36.993308
 20
256.150142
 30
0.0
 10
37.145726
 20
255.918931
 30
0.0
 10
37.410055
 20
255.786765
 30
0.0
 10
37.686475
 20
255.803557
 30
0.0
  0
SPLINE
  5
1ad
100
AcDbEntity
  8
Layer_1
 62
1
100
AcDbSpline
 70
8
 71
3
 72
8
 73
4
 74
0
 40
0
 40
0
 40
0
 40
0
 40
1
 40
1
 40
1
 40
1
 10
37.686475
 20
255.803557
 30
0.0
 10
37.962894
 20
255.820349
 30
0.0
 10
38.209282
 20
255.983540
 30
0.0
 10
38.332591
 20
256.231501
 30
0.0
  0
LWPOLYLINE
  5
1ae
100
AcDbEntity
  8
Layer_1
 62
1
100
AcDbPolyline
 90
2
 70
0
 10
26.909701
 20
262.808317
 30
0.0
 10
36.601854
 20
257.962243
 30
0.0
  0
SPLINE
  5
1af
100
AcDbEntity
  8
Layer_1
 62
1
100
AcDbSpline
 70
8
 71
3
 72
8
 73
4
 74
0
 40
0
 40
0
 40
0
 40
0
 40
1
 40
1
 40
1
 40
1
 10
40.374866
 20
260.316049
 30
0.0
 10
40.565536
 20
260.698316
 30
0.0
 10
40.410465
 20
261.162779
 30
0.0
 10
40.028384
 20
261.353820
 30
0.0
  0
SPLINE
  5
1b0
100
AcDbEntity
  8
Layer_1
 62
1
100
AcDbSpline
 70
8
 71
3
 72
8
 73
4
 74
0
 40
0
 40
0
 40
0
 40
0
 40
1
 40
1
 40
1
 40
1
 10
40.028384
 20
261.353820
 30
0.0
 10
39.646303
 20
261.544862
 30
0.0
 10
39.181689
 20
261.390244
 30
0.0
 10
38.990276
 20
261.008349
 30
0.0
  0
SPLINE
  5
1b1
100
AcDbEntity
  8
Layer_1
 62
1
100
AcDbSpline
 70
8
 71
3
 72
8
 73
4
 74
0
 40
0
 40
0
 40
0
 40
0
 40
1
 40
1
 40
1
 40
1
 10
38.990276
 20
261.008349
 30
0.0
 10
38.799104
 20
260.626004
 30
0.0
 10
38.334178
 20
260.471027
 30
0.0
 10
37.951833
 20
260.662198
 30
0.0
  0
LWPOLYLINE
  5
1b2
100
AcDbEntity
  8
Layer_1
 62
1
100
AcDbPolyline
 90
2
 70
0
 10
38.332591
 20
256.231501
 30
0.0
 10
40.374866
 20
260.316049
 30
0.0
  0
SPLINE
  5
1b3
100
AcDbEntity
  8
Layer_1
 62
1
100
AcDbSpline
 70
8
 71
3
 72
8
 73
4
 74
0
 40
0
 40
0
 40
0
 40
0
 40
1
 40
1
 40
1
 40
1
 10
34.455732
 20
262.410248
 30
0.0
 10
34.455732
 20
262.410248
 30
0.0
 10
38.990276
 20
271.479329
 30
0.0
 10
38.990276
 20
271.479329
 30
0.0
  0
SPLINE
  5
1b4
100
AcDbEntity
  8
Layer_1
 62
1
100
AcDbSpline
 70
8
 71
3
 72
8
 73
4
 74
0
 40
0
 40
0
 40
0
 40
0
 40
1
 40
1
 40
1
 40
1
 10
38.990276
 20
271.479329
 30
0.0
 10
39.181447
 20
271.861673
 30
0.0
 10
39.646373
 20
272.016649
 30
0.0
 10
40.028718
 20
271.825479
 30
0.0
  0
SPLINE
  5
1b5
100
AcDbEntity
  8
Layer_1
 62
1
100
AcDbSpline
 70
8
 71
3
 72
8
 73
4
 74
0
 40
0
 40
0
 40
0
 40
0
 40
1
 40
1
 40
1
 40
1
 10
40.028718
 20
271.825479
 30
0.0
 10
40.410943
 20
271.635083
 30
0.0
 10
40.875154
 20
271.790208
 30
0.0
 10
41.066123
 20
272.172147
 30
0.0
  0
SPLINE
  5
1b6
100
AcDbEntity
  8
Layer_1
 62
1
100
AcDbSpline
 70
8
 71
3
 72
8
 73
4
 74
0
 40
0
 40
0
 40
0
 40
0
 40
1
 40
1
 40
1
 40
1
 10
41.066123
 20
272.172147
 30
0.0
 10
41.257092
 20
272.554087
 30
0.0
 10
41.102664
 20
273.018529
 30
0.0
 10
40.721012
 20
273.210071
 30
0.0
  0
SPLINE
  5
1b7
100
AcDbEntity
  8
Layer_1
 62
1
100
AcDbSpline
 70
8
 71
3
 72
8
 73
4
 74
0
 40
0
 40
0
 40
0
 40
0
 40
1
 40
1
 40
1
 40
1
 10
34.801881
 20
297.717359
 30
0.0
 10
34.801881
 20
297.717359
 30
0.0
 10
32.759608
 20
293.632810
 30
0.0
 10
32.759608
 20
293.632810
 30
0.0
  0
SPLINE
  5
1b8
100
AcDbEntity
  8
Layer_1
 62
1
100
AcDbSpline
 70
8
 71
3
 72
8
 73
4
 74
0
 40
0
 40
0
 40
0
 40
0
 40
1
 40
1
 40
1
 40
1
 10
32.759608
 20
293.632810
 30
0.0
 10
32.635513
 20
293.385422
 30
0.0
 10
32.652954
 20
293.090600
 30
0.0
 10
32.805351
 20
292.859569
 30
0.0
  0
SPLINE
  5
1b9
100
AcDbEntity
  8
Layer_1
 62
1
100
AcDbSpline
 70
8
 71
3
 72
8
 73
4
 74
0
 40
0
 40
0
 40
0
 40
0
 40
1
 40
1
 40
1
 40
1
 10
32.805351
 20
292.859569
 30
0.0
 10
32.957748
 20
292.628538
 30
0.0
 10
33.221905
 20
292.496460
 30
0.0
 10
33.498168
 20
292.513163
 30
0.0
  0
SPLINE
  5
1ba
100
AcDbEntity
  8
Layer_1
 62
1
100
AcDbSpline
 70
8
 71
3
 72
8
 73
4
 74
0
 40
0
 40
0
 40
0
 40
0
 40
1
 40
1
 40
1
 40
1
 10
33.498168
 20
292.513163
 30
0.0
 10
33.774431
 20
292.529866
 30
0.0
 10
34.020752
 20
292.692807
 30
0.0
 10
34.144204
 20
292.940515
 30
0.0
  0
SPLINE
  5
1bb
100
AcDbEntity
  8
Layer_1
 62
1
100
AcDbSpline
 70
8
 71
3
 72
8
 73
4
 74
0
 40
0
 40
0
 40
0
 40
0
 40
1
 40
1
 40
1
 40
1
 10
34.144204
 20
292.940515
 30
0.0
 10
34.335377
 20
293.322856
 30
0.0
 10
34.800301
 20
293.477830
 30
0.0
 10
35.182643
 20
293.286661
 30
0.0
  0
LWPOLYLINE
  5
1bc
100
AcDbEntity
  8
Layer_1
 62
1
100
AcDbPolyline
 90
2
 70
0
 10
37.951833
 20
260.662198
 30
0.0
 10
34.455732
 20
262.410248
 30
0.0
  0
SPLINE
  5
1bd
100
AcDbEntity
  8
Layer_1
 62
1
100
AcDbSpline
 70
8
 71
3
 72
8
 73
4
 74
0
 40
0
 40
0
 40
0
 40
0
 40
1
 40
1
 40
1
 40
1
 10
42.503671
 20
285.256024
 30
0.0
 10
42.312499
 20
284.873682
 30
0.0
 10
41.847576
 20
284.718706
 30
0.0
 10
41.465232
 20
284.909875
 30
0.0
  0
SPLINE
  5
1be
100
AcDbEntity
  8
Layer_1
 62
1
100
AcDbSpline
 70
8
 71
3
 72
8
 73
4
 74
0
 40
0
 40
0
 40
0
 40
0
 40
1
 40
1
 40
1
 40
1
 10
41.465232
 20
284.909875
 30
0.0
 10
41.082887
 20
285.101049
 30
0.0
 10
40.617959
 20
284.946074
 30
0.0
 10
40.426785
 20
284.563730
 30
0.0
  0
SPLINE
  5
1bf
100
AcDbEntity
  8
Layer_1
 62
1
100
AcDbSpline
 70
8
 71
3
 72
8
 73
4
 74
0
 40
0
 40
0
 40
0
 40
0
 40
1
 40
1
 40
1
 40
1
 10
40.426785
 20
284.563730
 30
0.0
 10
40.235611
 20
284.181385
 30
0.0
 10
40.390585
 20
283.716457
 30
0.0
 10
40.772929
 20
283.525283
 30
0.0
  0
SPLINE
  5
1c0
100
AcDbEntity
  8
Layer_1
 62
1
100
AcDbSpline
 70
8
 71
3
 72
8
 73
4
 74
0
 40
0
 40
0
 40
0
 40
0
 40
1
 40
1
 40
1
 40
1
 10
40.772929
 20
283.525283
 30
0.0
 10
40.772929
 20
283.525283
 30
0.0
 10
44.857498
 20
281.483009
 30
0.0
 10
44.857498
 20
281.483009
 30
0.0
  0
SPLINE
  5
1c1
100
AcDbEntity
  8
Layer_1
 62
1
100
AcDbSpline
 70
8
 71
3
 72
8
 73
4
 74
0
 40
0
 40
0
 40
0
 40
0
 40
1
 40
1
 40
1
 40
1
 10
44.857498
 20
281.483009
 30
0.0
 10
45.239748
 20
281.292450
 30
0.0
 10
45.704109
 20
281.447542
 30
0.0
 10
45.895121
 20
281.829566
 30
0.0
  0
SPLINE
  5
1c2
100
AcDbEntity
  8
Layer_1
 62
1
100
AcDbSpline
 70
8
 71
3
 72
8
 73
4
 74
0
 40
0
 40
0
 40
0
 40
0
 40
1
 40
1
 40
1
 40
1
 10
45.895121
 20
281.829566
 30
0.0
 10
46.086134
 20
282.211589
 30
0.0
 10
45.931594
 20
282.676134
 30
0.0
 10
45.549797
 20
282.867600
 30
0.0
  0
SPLINE
  5
1c3
100
AcDbEntity
  8
Layer_1
 62
1
100
AcDbSpline
 70
8
 71
3
 72
8
 73
4
 74
0
 40
0
 40
0
 40
0
 40
0
 40
1
 40
1
 40
1
 40
1
 10
45.549797
 20
282.867600
 30
0.0
 10
45.366188
 20
282.959404
 30
0.0
 10
45.226568
 20
283.120386
 30
0.0
 10
45.161652
 20
283.315133
 30
0.0
  0
SPLINE
  5
1c4
100
AcDbEntity
  8
Layer_1
 62
1
100
AcDbSpline
 70
8
 71
3
 72
8
 73
4
 74
0
 40
0
 40
0
 40
0
 40
0
 40
1
 40
1
 40
1
 40
1
 10
45.161652
 20
283.315133
 30
0.0
 10
45.096736
 20
283.509880
 30
0.0
 10
45.111842
 20
283.722438
 30
0.0
 10
45.203646
 20
283.906047
 30
0.0
  0
LWPOLYLINE
  5
1c5
100
AcDbEntity
  8
Layer_1
 62
1
100
AcDbPolyline
 90
3
 70
0
 10
35.182643
 20
293.286661
 30
0.0
 10
44.251742
 20
288.752120
 30
0.0
 10
42.503671
 20
285.256024
 30
0.0
  0
SPLINE
  5
1c6
100
AcDbEntity
  8
Layer_1
 62
1
100
AcDbSpline
 70
8
 71
3
 72
8
 73
4
 74
0
 40
0
 40
0
 40
0
 40
0
 40
1
 40
1
 40
1
 40
1
 10
50.049718
 20
293.598194
 30
0.0
 10
50.240890
 20
293.980536
 30
0.0
 10
50.705814
 20
294.135512
 30
0.0
 10
51.088157
 20
293.944343
 30
0.0
  0
SPLINE
  5
1c7
100
AcDbEntity
  8
Layer_1
 62
1
100
AcDbSpline
 70
8
 71
3
 72
8
 73
4
 74
0
 40
0
 40
0
 40
0
 40
0
 40
1
 40
1
 40
1
 40
1
 10
51.088157
 20
293.944343
 30
0.0
 10
51.335559
 20
293.820133
 30
0.0
 10
51.630460
 20
293.837510
 30
0.0
 10
51.861562
 20
293.989914
 30
0.0
  0
SPLINE
  5
1c8
100
AcDbEntity
  8
Layer_1
 62
1
100
AcDbSpline
 70
8
 71
3
 72
8
 73
4
 74
0
 40
0
 40
0
 40
0
 40
0
 40
1
 40
1
 40
1
 40
1
 10
51.861562
 20
293.989914
 30
0.0
 10
52.092665
 20
294.142319
 30
0.0
 10
52.224777
 20
294.406544
 30
0.0
 10
52.208039
 20
294.682869
 30
0.0
  0
SPLINE
  5
1c9
100
AcDbEntity
  8
Layer_1
 62
1
100
AcDbSpline
 70
8
 71
3
 72
8
 73
4
 74
0
 40
0
 40
0
 40
0
 40
0
 40
1
 40
1
 40
1
 40
1
 10
52.208039
 20
294.682869
 30
0.0
 10
52.191300
 20
294.959193
 30
0.0
 10
52.028260
 20
295.205540
 30
0.0
 10
51.780451
 20
295.328935
 30
0.0
  0
LWPOLYLINE
  5
1ca
100
AcDbEntity
  8
Layer_1
 62
1
100
AcDbPolyline
 90
2
 70
0
 10
45.203646
 20
283.906047
 30
0.0
 10
50.049718
 20
293.598194
 30
0.0
  0
SPLINE
  5
1cb
100
AcDbEntity
  8
Layer_1
 62
1
100
AcDbSpline
 70
8
 71
3
 72
8
 73
4
 74
0
 40
0
 40
0
 40
0
 40
0
 40
1
 40
1
 40
1
 40
1
 10
47.695908
 20
297.371210
 30
0.0
 10
47.313692
 20
297.561546
 30
0.0
 10
46.849537
 20
297.406410
 30
0.0
 10
46.658583
 20
297.024501
 30
0.0
  0
SPLINE
  5
1cc
100
AcDbEntity
  8
Layer_1
 62
1
100
AcDbSpline
 70
8
 71
3
 72
8
 73
4
 74
0
 40
0
 40
0
 40
0
 40
0
 40
1
 40
1
 40
1
 40
1
 10
46.658583
 20
297.024501
 30
0.0
 10
46.467630
 20
296.642593
 30
0.0
 10
46.622015
 20
296.178188
 30
0.0
 10
47.003614
 20
295.986617
 30
0.0
  0
SPLINE
  5
1cd
100
AcDbEntity
  8
Layer_1
 62
1
100
AcDbSpline
 70
8
 71
3
 72
8
 73
4
 74
0
 40
0
 40
0
 40
0
 40
0
 40
1
 40
1
 40
1
 40
1
 10
47.003614
 20
295.986617
 30
0.0
 10
47.385957
 20
295.795444
 30
0.0
 10
47.540931
 20
295.330518
 30
0.0
 10
47.349760
 20
294.948175
 30
0.0
  0
LWPOLYLINE
  5
1ce
100
AcDbEntity
  8
Layer_1
 62
1
100
AcDbPolyline
 90
2
 70
0
 10
51.780451
 20
295.328935
 30
0.0
 10
47.695908
 20
297.371210
 30
0.0
  0
SPLINE
  5
1cf
100
AcDbEntity
  8
Layer_1
 62
1
100
AcDbSpline
 70
8
 71
3
 72
8
 73
4
 74
0
 40
0
 40
0
 40
0
 40
0
 40
1
 40
1
 40
1
 40
1
 10
36.532620
 20
295.986617
 30
0.0
 10
36.150278
 20
296.177794
 30
0.0
 10
35.995307
 20
296.642722
 30
0.0
 10
36.186483
 20
297.025064
 30
0.0
  0
SPLINE
  5
1d0
100
AcDbEntity
  8
Layer_1
 62
1
100
AcDbSpline
 70
8
 71
3
 72
8
 73
4
 74
0
 40
0
 40
0
 40
0
 40
0
 40
1
 40
1
 40
1
 40
1
 10
36.186483
 20
297.025064
 30
0.0
 10
36.310149
 20
297.272400
 30
0.0
 10
36.292470
 20
297.566922
 30
0.0
 10
36.140104
 20
297.797688
 30
0.0
  0
SPLINE
  5
1d1
100
AcDbEntity
  8
Layer_1
 62
1
100
AcDbSpline
 70
8
 71
3
 72
8
 73
4
 74
0
 40
0
 40
0
 40
0
 40
0
 40
1
 40
1
 40
1
 40
1
 10
36.140104
 20
297.797688
 30
0.0
 10
35.987739
 20
298.028454
 30
0.0
 10
35.723835
 20
298.160405
 30
0.0
 10
35.447803
 20
298.143835
 30
0.0
  0
SPLINE
  5
1d2
100
AcDbEntity
  8
Layer_1
 62
1
100
AcDbSpline
 70
8
 71
3
 72
8
 73
4
 74
0
 40
0
 40
0
 40
0
 40
0
 40
1
 40
1
 40
1
 40
1
 10
35.447803
 20
298.143835
 30
0.0
 10
35.171771
 20
298.127266
 30
0.0
 10
34.925547
 20
297.964694
 30
0.0
 10
34.801881
 20
297.717359
 30
0.0
  0
SPLINE
  5
1d3
100
AcDbEntity
  8
Layer_1
 62
1
100
AcDbSpline
 70
8
 71
3
 72
8
 73
4
 74
0
 40
0
 40
0
 40
0
 40
0
 40
1
 40
1
 40
1
 40
1
 10
148.390252
 20
262.208527
 30
0.0
 10
148.390867
 20
262.340287
 30
0.0
 10
148.320927
 20
262.462302
 30
0.0
 10
148.206921
 20
262.528361
 30
0.0
  0
SPLINE
  5
1d4
100
AcDbEntity
  8
Layer_1
 62
1
100
AcDbSpline
 70
8
 71
3
 72
8
 73
4
 74
0
 40
0
 40
0
 40
0
 40
0
 40
1
 40
1
 40
1
 40
1
 10
148.206921
 20
262.528361
 30
0.0
 10
148.092915
 20
262.594419
 30
0.0
 10
147.952276
 20
262.594419
 30
0.0
 10
147.838269
 20
262.528361
 30
0.0
  0
SPLINE
  5
1d5
100
AcDbEntity
  8
Layer_1
 62
1
100
AcDbSpline
 70
8
 71
3
 72
8
 73
4
 74
0
 40
0
 40
0
 40
0
 40
0
 40
1
 40
1
 40
1
 40
1
 10
147.838269
 20
262.528361
 30
0.0
 10
147.724263
 20
262.462302
 30
0.0
 10
147.654323
 20
262.340287
 30
0.0
 10
147.654939
 20
262.208527
 30
0.0
  0
SPLINE
  5
1d6
100
AcDbEntity
  8
Layer_1
 62
1
100
AcDbSpline
 70
8
 71
3
 72
8
 73
4
 74
0
 40
0
 40
0
 40
0
 40
0
 40
1
 40
1
 40
1
 40
1
 10
147.654939
 20
262.208527
 30
0.0
 10
147.655883
 20
262.006146
 30
0.0
 10
147.820212
 20
261.842583
 30
0.0
 10
148.022595
 20
261.842583
 30
0.0
  0
SPLINE
  5
1d7
100
AcDbEntity
  8
Layer_1
 62
1
100
AcDbSpline
 70
8
 71
3
 72
8
 73
4
 74
0
 40
0
 40
0
 40
0
 40
0
 40
1
 40
1
 40
1
 40
1
 10
148.022595
 20
261.842583
 30
0.0
 10
148.224978
 20
261.842583
 30
0.0
 10
148.389307
 20
262.006146
 30
0.0
 10
148.390252
 20
262.208527
 30
0.0
  0
LWPOLYLINE
  5
1d8
100
AcDbEntity
  8
Layer_1
 62
1
100
AcDbPolyline
 90
3
 70
0
 10
47.349760
 20
294.948175
 30
0.0
 10
45.601718
 20
291.452077
 30
0.0
 10
36.532620
 20
295.986617
 30
0.0
  0
SPLINE
  5
1d9
100
AcDbEntity
  8
Layer_1
 62
1
100
AcDbSpline
 70
8
 71
3
 72
8
 73
4
 74
0
 40
0
 40
0
 40
0
 40
0
 40
1
 40
1
 40
1
 40
1
 10
163.870462
 20
321.622297
 30
0.0
 10
163.870865
 20
321.753916
 30
0.0
 10
163.800878
 20
321.875710
 30
0.0
 10
163.686959
 20
321.941637
 30
0.0
  0
SPLINE
  5
1da
100
AcDbEntity
  8
Layer_1
 62
1
100
AcDbSpline
 70
8
 71
3
 72
8
 73
4
 74
0
 40
0
 40
0
 40
0
 40
0
 40
1
 40
1
 40
1
 40
1
 10
163.686959
 20
321.941637
 30
0.0
 10
163.573040
 20
322.007563
 30
0.0
 10
163.432569
 20
322.007563
 30
0.0
 10
163.318650
 20
321.941637
 30
0.0
  0
SPLINE
  5
1db
100
AcDbEntity
  8
Layer_1
 62
1
100
AcDbSpline
 70
8
 71
3
 72
8
 73
4
 74
0
 40
0
 40
0
 40
0
 40
0
 40
1
 40
1
 40
1
 40
1
 10
163.318650
 20
321.941637
 30
0.0
 10
163.204731
 20
321.875710
 30
0.0
 10
163.134744
 20
321.753916
 30
0.0
 10
163.135146
 20
321.622297
 30
0.0
  0
SPLINE
  5
1dc
100
AcDbEntity
  8
Layer_1
 62
1
100
AcDbSpline
 70
8
 71
3
 72
8
 73
4
 74
0
 40
0
 40
0
 40
0
 40
0
 40
1
 40
1
 40
1
 40
1
 10
163.135146
 20
321.622297
 30
0.0
 10
163.135766
 20
321.419684
 30
0.0
 10
163.300191
 20
321.255762
 30
0.0
 10
163.502804
 20
321.255762
 30
0.0
  0
SPLINE
  5
1dd
100
AcDbEntity
  8
Layer_1
 62
1
100
AcDbSpline
 70
8
 71
3
 72
8
 73
4
 74
0
 40
0
 40
0
 40
0
 40
0
 40
1
 40
1
 40
1
 40
1
 10
163.502804
 20
321.255762
 30
0.0
 10
163.705418
 20
321.255762
 30
0.0
 10
163.869842
 20
321.419684
 30
0.0
 10
163.870462
 20
321.622297
 30
0.0
  0
LWPOLYLINE
  5
1de
100
AcDbEntity
  8
Layer_1
 62
1
100
AcDbPolyline
 90
2
 70
1
 10
148.390252
 20
262.208527
 30
0.0
 10
148.390252
 20
262.208527
 30
0.0
  0
SPLINE
  5
1df
100
AcDbEntity
  8
Layer_1
 62
1
100
AcDbSpline
 70
8
 71
3
 72
8
 73
4
 74
0
 40
0
 40
0
 40
0
 40
0
 40
1
 40
1
 40
1
 40
1
 10
182.054181
 20
300.724001
 30
0.0
 10
182.054587
 20
300.855621
 30
0.0
 10
181.984602
 20
300.977417
 30
0.0
 10
181.870682
 20
301.043345
 30
0.0
  0
SPLINE
  5
1e0
100
AcDbEntity
  8
Layer_1
 62
1
100
AcDbSpline
 70
8
 71
3
 72
8
 73
4
 74
0
 40
0
 40
0
 40
0
 40
0
 40
1
 40
1
 40
1
 40
1
 10
181.870682
 20
301.043345
 30
0.0
 10
181.756763
 20
301.109273
 30
0.0
 10
181.616292
 20
301.109273
 30
0.0
 10
181.502372
 20
301.043345
 30
0.0
  0
SPLINE
  5
1e1
100
AcDbEntity
  8
Layer_1
 62
1
100
AcDbSpline
 70
8
 71
3
 72
8
 73
4
 74
0
 40
0
 40
0
 40
0
 40
0
 40
1
 40
1
 40
1
 40
1
 10
181.502372
 20
301.043345
 30
0.0
 10
181.388453
 20
300.977417
 30
0.0
 10
181.318468
 20
300.855621
 30
0.0
 10
181.318874
 20
300.724001
 30
0.0
  0
SPLINE
  5
1e2
100
AcDbEntity
  8
Layer_1
 62
1
100
AcDbSpline
 70
8
 71
3
 72
8
 73
4
 74
0
 40
0
 40
0
 40
0
 40
0
 40
1
 40
1
 40
1
 40
1
 10
181.318874
 20
300.724001
 30
0.0
 10
181.319499
 20
300.521394
 30
0.0
 10
181.483920
 20
300.357480
 30
0.0
 10
181.686527
 20
300.357480
 30
0.0
  0
SPLINE
  5
1e3
100
AcDbEntity
  8
Layer_1
 62
1
100
AcDbSpline
 70
8
 71
3
 72
8
 73
4
 74
0
 40
0
 40
0
 40
0
 40
0
 40
1
 40
1
 40
1
 40
1
 10
181.686527
 20
300.357480
 30
0.0
 10
181.889135
 20
300.357480
 30
0.0
 10
182.053556
 20
300.521394
 30
0.0
 10
182.054181
 20
300.724001
 30
0.0
  0
LWPOLYLINE
  5
1e4
100
AcDbEntity
  8
Layer_1
 62
1
100
AcDbPolyline
 90
2
 70
1
 10
163.870462
 20
321.622297
 30
0.0
 10
163.870462
 20
321.622297
 30
0.0
  0
SPLINE
  5
1e5
100
AcDbEntity
  8
Layer_1
 62
1
100
AcDbSpline
 70
8
 71
3
 72
8
 73
4
 74
0
 40
0
 40
0
 40
0
 40
0
 40
1
 40
1
 40
1
 40
1
 10
171.610576
 20
241.310231
 30
0.0
 10
171.610576
 20
241.441582
 30
0.0
 10
171.540501
 20
241.562955
 30
0.0
 10
171.426748
 20
241.628631
 30
0.0
  0
SPLINE
  5
1e6
100
AcDbEntity
  8
Layer_1
 62
1
100
AcDbSpline
 70
8
 71
3
 72
8
 73
4
 74
0
 40
0
 40
0
 40
0
 40
0
 40
1
 40
1
 40
1
 40
1
 10
171.426748
 20
241.628631
 30
0.0
 10
171.312994
 20
241.694307
 30
0.0
 10
171.172845
 20
241.694307
 30
0.0
 10
171.059091
 20
241.628631
 30
0.0
  0
SPLINE
  5
1e7
100
AcDbEntity
  8
Layer_1
 62
1
100
AcDbSpline
 70
8
 71
3
 72
8
 73
4
 74
0
 40
0
 40
0
 40
0
 40
0
 40
1
 40
1
 40
1
 40
1
 10
171.059091
 20
241.628631
 30
0.0
 10
170.945338
 20
241.562955
 30
0.0
 10
170.875263
 20
241.441582
 30
0.0
 10
170.875263
 20
241.310231
 30
0.0
  0
SPLINE
  5
1e8
100
AcDbEntity
  8
Layer_1
 62
1
100
AcDbSpline
 70
8
 71
3
 72
8
 73
4
 74
0
 40
0
 40
0
 40
0
 40
0
 40
1
 40
1
 40
1
 40
1
 10
170.875263
 20
241.310231
 30
0.0
 10
170.875263
 20
241.178880
 30
0.0
 10
170.945338
 20
241.057507
 30
0.0
 10
171.059091
 20
240.991831
 30
0.0
  0
SPLINE
  5
1e9
100
AcDbEntity
  8
Layer_1
 62
1
100
AcDbSpline
 70
8
 71
3
 72
8
 73
4
 74
0
 40
0
 40
0
 40
0
 40
0
 40
1
 40
1
 40
1
 40
1
 10
171.059091
 20
240.991831
 30
0.0
 10
171.172845
 20
240.926156
 30
0.0
 10
171.312994
 20
240.926156
 30
0.0
 10
171.426748
 20
240.991831
 30
0.0
  0
SPLINE
  5
1ea
100
AcDbEntity
  8
Layer_1
 62
1
100
AcDbSpline
 70
8
 71
3
 72
8
 73
4
 74
0
 40
0
 40
0
 40
0
 40
0
 40
1
 40
1
 40
1
 40
1
 10
171.426748
 20
240.991831
 30
0.0
 10
171.540501
 20
241.057507
 30
0.0
 10
171.610576
 20
241.178880
 30
0.0
 10
171.610576
 20
241.310231
 30
0.0
  0
LWPOLYLINE
  5
1eb
100
AcDbEntity
  8
Layer_1
 62
1
100
AcDbPolyline
 90
2
 70
1
 10
182.054181
 20
300.724001
 30
0.0
 10
182.054181
 20
300.724001
 30
0.0
  0
LWPOLYLINE
  5
1ec
100
AcDbEntity
  8
Layer_1
 62
1
100
AcDbPolyline
 90
2
 70
1
 10
171.610576
 20
241.310231
 30
0.0
 10
171.610576
 20
241.310231
 30
0.0
  0
SPLINE
  5
1ed
100
AcDbEntity
  8
Layer_1
 62
1
100
AcDbSpline
 70
8
 71
3
 72
8
 73
4
 74
0
 40
0
 40
0
 40
0
 40
0
 40
1
 40
1
 40
1
 40
1
 10
128.101623
 20
307.187546
 30
0.0
 10
129.824445
 20
314.078829
 30
0.0
 10
136.016272
 20
318.913260
 30
0.0
 10
143.119644
 20
318.913257
 30
0.0
  0
LWPOLYLINE
  5
1ee
100
AcDbEntity
  8
Layer_1
 62
1
100
AcDbPolyline
 90
4
 70
0
 10
115.552838
 20
334.393473
 30
0.0
 10
115.552838
 20
287.952821
 30
0.0
 10
123.292941
 20
287.952821
 30
0.0
 10
128.101623
 20
307.187546
 30
0.0
  0
SPLINE
  5
1ef
100
AcDbEntity
  8
Layer_1
 62
1
100
AcDbSpline
 70
8
 71
3
 72
8
 73
4
 74
0
 40
0
 40
0
 40
0
 40
0
 40
1
 40
1
 40
1
 40
1
 10
192.953919
 20
318.913257
 30
0.0
 10
192.953919
 20
318.913257
 30
0.0
 10
192.953919
 20
324.331335
 30
0.0
 10
192.953919
 20
324.331335
 30
0.0
  0
SPLINE
  5
1f0
100
AcDbEntity
  8
Layer_1
 62
1
100
AcDbSpline
 70
8
 71
3
 72
8
 73
4
 74
0
 40
0
 40
0
 40
0
 40
0
 40
1
 40
1
 40
1
 40
1
 10
192.953919
 20
324.331335
 30
0.0
 10
192.953921
 20
324.758808
 30
0.0
 10
192.607387
 20
325.105345
 30
0.0
 10
192.179914
 20
325.105348
 30
0.0
  0
SPLINE
  5
1f1
100
AcDbEntity
  8
Layer_1
 62
1
100
AcDbSpline
 70
8
 71
3
 72
8
 73
4
 74
0
 40
0
 40
0
 40
0
 40
0
 40
1
 40
1
 40
1
 40
1
 10
192.179914
 20
325.105348
 30
0.0
 10
191.753249
 20
325.106489
 30
0.0
 10
191.407972
 20
325.452690
 30
0.0
 10
191.407972
 20
325.879356
 30
0.0
  0
SPLINE
  5
1f2
100
AcDbEntity
  8
Layer_1
 62
1
100
AcDbSpline
 70
8
 71
3
 72
8
 73
4
 74
0
 40
0
 40
0
 40
0
 40
0
 40
1
 40
1
 40
1
 40
1
 10
191.407972
 20
325.879356
 30
0.0
 10
191.407972
 20
326.306023
 30
0.0
 10
191.753249
 20
326.652224
 30
0.0
 10
192.179914
 20
326.653365
 30
0.0
  0
LWPOLYLINE
  5
1f3
100
AcDbEntity
  8
Layer_1
 62
1
100
AcDbPolyline
 90
2
 70
0
 10
143.119644
 20
318.913257
 30
0.0
 10
192.953919
 20
318.913257
 30
0.0
  0
SPLINE
  5
1f4
100
AcDbEntity
  8
Layer_1
 62
1
100
AcDbSpline
 70
8
 71
3
 72
8
 73
4
 74
0
 40
0
 40
0
 40
0
 40
0
 40
1
 40
1
 40
1
 40
1
 10
180.492344
 20
330.600818
 30
0.0
 10
180.490966
 20
330.174321
 30
0.0
 10
180.144835
 20
329.829305
 30
0.0
 10
179.718335
 20
329.829305
 30
0.0
  0
SPLINE
  5
1f5
100
AcDbEntity
  8
Layer_1
 62
1
100
AcDbSpline
 70
8
 71
3
 72
8
 73
4
 74
0
 40
0
 40
0
 40
0
 40
0
 40
1
 40
1
 40
1
 40
1
 10
179.718335
 20
329.829305
 30
0.0
 10
179.291835
 20
329.829305
 30
0.0
 10
178.945704
 20
330.174321
 30
0.0
 10
178.944326
 20
330.600818
 30
0.0
  0
SPLINE
  5
1f6
100
AcDbEntity
  8
Layer_1
 62
1
100
AcDbSpline
 70
8
 71
3
 72
8
 73
4
 74
0
 40
0
 40
0
 40
0
 40
0
 40
1
 40
1
 40
1
 40
1
 10
178.944326
 20
330.600818
 30
0.0
 10
178.944328
 20
330.806100
 30
0.0
 10
178.862781
 20
331.002974
 30
0.0
 10
178.717626
 20
331.148131
 30
0.0
  0
SPLINE
  5
1f7
100
AcDbEntity
  8
Layer_1
 62
1
100
AcDbSpline
 70
8
 71
3
 72
8
 73
4
 74
0
 40
0
 40
0
 40
0
 40
0
 40
1
 40
1
 40
1
 40
1
 10
178.717626
 20
331.148131
 30
0.0
 10
178.572470
 20
331.293287
 30
0.0
 10
178.375597
 20
331.374835
 30
0.0
 10
178.170315
 20
331.374835
 30
0.0
  0
LWPOLYLINE
  5
1f8
100
AcDbEntity
  8
Layer_1
 62
1
100
AcDbPolyline
 90
5
 70
0
 10
192.179914
 20
326.653365
 30
0.0
 10
195.972560
 20
326.653365
 30
0.0
 10
195.972560
 20
334.393473
 30
0.0
 10
180.492344
 20
334.393473
 30
0.0
 10
180.492344
 20
330.600818
 30
0.0
  0
SPLINE
  5
1f9
100
AcDbEntity
  8
Layer_1
 62
1
100
AcDbSpline
 70
8
 71
3
 72
8
 73
4
 74
0
 40
0
 40
0
 40
0
 40
0
 40
1
 40
1
 40
1
 40
1
 10
173.564954
 20
331.374835
 30
0.0
 10
173.359672
 20
331.374836
 30
0.0
 10
173.162797
 20
331.293288
 30
0.0
 10
173.017641
 20
331.148132
 30
0.0
  0
SPLINE
  5
1fa
100
AcDbEntity
  8
Layer_1
 62
1
100
AcDbSpline
 70
8
 71
3
 72
8
 73
4
 74
0
 40
0
 40
0
 40
0
 40
0
 40
1
 40
1
 40
1
 40
1
 10
173.017641
 20
331.148132
 30
0.0
 10
172.872485
 20
331.002975
 30
0.0
 10
172.790938
 20
330.806100
 30
0.0
 10
172.790939
 20
330.600818
 30
0.0
  0
SPLINE
  5
1fb
100
AcDbEntity
  8
Layer_1
 62
1
100
AcDbSpline
 70
8
 71
3
 72
8
 73
4
 74
0
 40
0
 40
0
 40
0
 40
0
 40
1
 40
1
 40
1
 40
1
 10
172.790939
 20
330.600818
 30
0.0
 10
172.790939
 20
330.324290
 30
0.0
 10
172.643413
 20
330.068767
 30
0.0
 10
172.403932
 20
329.930502
 30
0.0
  0
SPLINE
  5
1fc
100
AcDbEntity
  8
Layer_1
 62
1
100
AcDbSpline
 70
8
 71
3
 72
8
 73
4
 74
0
 40
0
 40
0
 40
0
 40
0
 40
1
 40
1
 40
1
 40
1
 10
172.403932
 20
329.930502
 30
0.0
 10
172.164451
 20
329.792238
 30
0.0
 10
171.869399
 20
329.792238
 30
0.0
 10
171.629918
 20
329.930502
 30
0.0
  0
SPLINE
  5
1fd
100
AcDbEntity
  8
Layer_1
 62
1
100
AcDbSpline
 70
8
 71
3
 72
8
 73
4
 74
0
 40
0
 40
0
 40
0
 40
0
 40
1
 40
1
 40
1
 40
1
 10
171.629918
 20
329.930502
 30
0.0
 10
171.390437
 20
330.068767
 30
0.0
 10
171.242911
 20
330.324290
 30
0.0
 10
171.242911
 20
330.600818
 30
0.0
  0
LWPOLYLINE
  5
1fe
100
AcDbEntity
  8
Layer_1
 62
1
100
AcDbPolyline
 90
2
 70
0
 10
178.170315
 20
331.374835
 30
0.0
 10
173.564954
 20
331.374835
 30
0.0
  0
SPLINE
  5
1ff
100
AcDbEntity
  8
Layer_1
 62
1
100
AcDbSpline
 70
8
 71
3
 72
8
 73
4
 74
0
 40
0
 40
0
 40
0
 40
0
 40
1
 40
1
 40
1
 40
1
 10
165.012130
 20
334.393473
 30
0.0
 10
165.012130
 20
334.393473
 30
0.0
 10
165.012130
 20
328.975399
 30
0.0
 10
165.012130
 20
328.975399
 30
0.0
  0
SPLINE
  5
200
100
AcDbEntity
  8
Layer_1
 62
1
100
AcDbSpline
 70
8
 71
3
 72
8
 73
4
 74
0
 40
0
 40
0
 40
0
 40
0
 40
1
 40
1
 40
1
 40
1
 10
165.012130
 20
328.975399
 30
0.0
 10
165.012131
 20
328.547925
 30
0.0
 10
165.358668
 20
328.201390
 30
0.0
 10
165.786141
 20
328.201390
 30
0.0
  0
SPLINE
  5
201
100
AcDbEntity
  8
Layer_1
 62
1
100
AcDbSpline
 70
8
 71
3
 72
8
 73
4
 74
0
 40
0
 40
0
 40
0
 40
0
 40
1
 40
1
 40
1
 40
1
 10
165.786141
 20
328.201390
 30
0.0
 10
166.062670
 20
328.201390
 30
0.0
 10
166.318192
 20
328.053864
 30
0.0
 10
166.456456
 20
327.814384
 30
0.0
  0
SPLINE
  5
202
100
AcDbEntity
  8
Layer_1
 62
1
100
AcDbSpline
 70
8
 71
3
 72
8
 73
4
 74
0
 40
0
 40
0
 40
0
 40
0
 40
1
 40
1
 40
1
 40
1
 10
166.456456
 20
327.814384
 30
0.0
 10
166.594720
 20
327.574903
 30
0.0
 10
166.594720
 20
327.279851
 30
0.0
 10
166.456456
 20
327.040371
 30
0.0
  0
SPLINE
  5
203
100
AcDbEntity
  8
Layer_1
 62
1
100
AcDbSpline
 70
8
 71
3
 72
8
 73
4
 74
0
 40
0
 40
0
 40
0
 40
0
 40
1
 40
1
 40
1
 40
1
 10
166.456456
 20
327.040371
 30
0.0
 10
166.318192
 20
326.800891
 30
0.0
 10
166.062670
 20
326.653365
 30
0.0
 10
165.786141
 20
326.653365
 30
0.0
  0
LWPOLYLINE
  5
204
100
AcDbEntity
  8
Layer_1
 62
1
100
AcDbPolyline
 90
3
 70
0
 10
171.242911
 20
330.600818
 30
0.0
 10
171.242911
 20
334.393473
 30
0.0
 10
165.012130
 20
334.393473
 30
0.0
  0
SPLINE
  5
205
100
AcDbEntity
  8
Layer_1
 62
1
100
AcDbSpline
 70
8
 71
3
 72
8
 73
4
 74
0
 40
0
 40
0
 40
0
 40
0
 40
1
 40
1
 40
1
 40
1
 10
161.219475
 20
326.653365
 30
0.0
 10
160.942947
 20
326.653365
 30
0.0
 10
160.687425
 20
326.800891
 30
0.0
 10
160.549161
 20
327.040371
 30
0.0
  0
SPLINE
  5
206
100
AcDbEntity
  8
Layer_1
 62
1
100
AcDbSpline
 70
8
 71
3
 72
8
 73
4
 74
0
 40
0
 40
0
 40
0
 40
0
 40
1
 40
1
 40
1
 40
1
 10
160.549161
 20
327.040371
 30
0.0
 10
160.410897
 20
327.279851
 30
0.0
 10
160.410897
 20
327.574903
 30
0.0
 10
160.549161
 20
327.814384
 30
0.0
  0
SPLINE
  5
207
100
AcDbEntity
  8
Layer_1
 62
1
100
AcDbSpline
 70
8
 71
3
 72
8
 73
4
 74
0
 40
0
 40
0
 40
0
 40
0
 40
1
 40
1
 40
1
 40
1
 10
160.549161
 20
327.814384
 30
0.0
 10
160.687425
 20
328.053864
 30
0.0
 10
160.942947
 20
328.201390
 30
0.0
 10
161.219475
 20
328.201390
 30
0.0
  0
SPLINE
  5
208
100
AcDbEntity
  8
Layer_1
 62
1
100
AcDbSpline
 70
8
 71
3
 72
8
 73
4
 74
0
 40
0
 40
0
 40
0
 40
0
 40
1
 40
1
 40
1
 40
1
 10
161.219475
 20
328.201390
 30
0.0
 10
161.646947
 20
328.201393
 30
0.0
 10
161.993480
 20
328.547927
 30
0.0
 10
161.993481
 20
328.975399
 30
0.0
  0
LWPOLYLINE
  5
209
100
AcDbEntity
  8
Layer_1
 62
1
100
AcDbPolyline
 90
2
 70
0
 10
165.786141
 20
326.653365
 30
0.0
 10
161.219475
 20
326.653365
 30
0.0
  0
SPLINE
  5
20a
100
AcDbEntity
  8
Layer_1
 62
1
100
AcDbSpline
 70
8
 71
3
 72
8
 73
4
 74
0
 40
0
 40
0
 40
0
 40
0
 40
1
 40
1
 40
1
 40
1
 10
155.762695
 20
334.393473
 30
0.0
 10
155.762695
 20
334.393473
 30
0.0
 10
155.762695
 20
330.600818
 30
0.0
 10
155.762695
 20
330.600818
 30
0.0
  0
SPLINE
  5
20b
100
AcDbEntity
  8
Layer_1
 62
1
100
AcDbSpline
 70
8
 71
3
 72
8
 73
4
 74
0
 40
0
 40
0
 40
0
 40
0
 40
1
 40
1
 40
1
 40
1
 10
155.762695
 20
330.600818
 30
0.0
 10
155.761531
 20
330.174169
 30
0.0
 10
155.415337
 20
329.828918
 30
0.0
 10
154.988686
 20
329.828918
 30
0.0
  0
SPLINE
  5
20c
100
AcDbEntity
  8
Layer_1
 62
1
100
AcDbSpline
 70
8
 71
3
 72
8
 73
4
 74
0
 40
0
 40
0
 40
0
 40
0
 40
1
 40
1
 40
1
 40
1
 10
154.988686
 20
329.828918
 30
0.0
 10
154.562036
 20
329.828918
 30
0.0
 10
154.215841
 20
330.174169
 30
0.0
 10
154.214678
 20
330.600818
 30
0.0
  0
SPLINE
  5
20d
100
AcDbEntity
  8
Layer_1
 62
1
100
AcDbSpline
 70
8
 71
3
 72
8
 73
4
 74
0
 40
0
 40
0
 40
0
 40
0
 40
1
 40
1
 40
1
 40
1
 10
154.214678
 20
330.600818
 30
0.0
 10
154.214679
 20
330.806099
 30
0.0
 10
154.133133
 20
331.002973
 30
0.0
 10
153.987978
 20
331.148130
 30
0.0
  0
SPLINE
  5
20e
100
AcDbEntity
  8
Layer_1
 62
1
100
AcDbSpline
 70
8
 71
3
 72
8
 73
4
 74
0
 40
0
 40
0
 40
0
 40
0
 40
1
 40
1
 40
1
 40
1
 10
153.987978
 20
331.148130
 30
0.0
 10
153.842823
 20
331.293286
 30
0.0
 10
153.645950
 20
331.374835
 30
0.0
 10
153.440669
 20
331.374835
 30
0.0
  0
LWPOLYLINE
  5
20f
100
AcDbEntity
  8
Layer_1
 62
1
100
AcDbPolyline
 90
3
 70
0
 10
161.993481
 20
328.975399
 30
0.0
 10
161.993481
 20
334.393473
 30
0.0
 10
155.762695
 20
334.393473
 30
0.0
  0
SPLINE
  5
210
100
AcDbEntity
  8
Layer_1
 62
1
100
AcDbSpline
 70
8
 71
3
 72
8
 73
4
 74
0
 40
0
 40
0
 40
0
 40
0
 40
1
 40
1
 40
1
 40
1
 10
133.355080
 20
331.374835
 30
0.0
 10
132.927606
 20
331.374831
 30
0.0
 10
132.581074
 20
331.028292
 30
0.0
 10
132.581077
 20
330.600818
 30
0.0
  0
SPLINE
  5
211
100
AcDbEntity
  8
Layer_1
 62
1
100
AcDbSpline
 70
8
 71
3
 72
8
 73
4
 74
0
 40
0
 40
0
 40
0
 40
0
 40
1
 40
1
 40
1
 40
1
 10
132.581077
 20
330.600818
 30
0.0
 10
132.579789
 20
330.174257
 30
0.0
 10
132.233631
 20
329.829142
 30
0.0
 10
131.807067
 20
329.829142
 30
0.0
  0
SPLINE
  5
212
100
AcDbEntity
  8
Layer_1
 62
1
100
AcDbSpline
 70
8
 71
3
 72
8
 73
4
 74
0
 40
0
 40
0
 40
0
 40
0
 40
1
 40
1
 40
1
 40
1
 10
131.807067
 20
329.829142
 30
0.0
 10
131.380504
 20
329.829142
 30
0.0
 10
131.034345
 20
330.174257
 30
0.0
 10
131.033057
 20
330.600818
 30
0.0
  0
LWPOLYLINE
  5
213
100
AcDbEntity
  8
Layer_1
 62
1
100
AcDbPolyline
 90
2
 70
0
 10
153.440669
 20
331.374835
 30
0.0
 10
133.355080
 20
331.374835
 30
0.0
  0
LWPOLYLINE
  5
214
100
AcDbEntity
  8
Layer_1
 62
1
100
AcDbPolyline
 90
3
 70
0
 10
131.033057
 20
330.600818
 30
0.0
 10
131.033057
 20
334.393473
 30
0.0
 10
115.552838
 20
334.393473
 30
0.0
  0
SPLINE
  5
215
100
AcDbEntity
  8
Layer_1
 62
1
100
AcDbSpline
 70
8
 71
3
 72
8
 73
4
 74
0
 40
0
 40
0
 40
0
 40
0
 40
1
 40
1
 40
1
 40
1
 10
186.589475
 20
303.433042
 30
0.0
 10
193.692846
 20
303.433041
 30
0.0
 10
199.884672
 20
308.267471
 30
0.0
 10
201.607493
 20
315.158753
 30
0.0
  0
LWPOLYLINE
  5
216
100
AcDbEntity
  8
Layer_1
 62
1
100
AcDbPolyline
 90
2
 70
0
 10
152.235408
 20
303.433042
 30
0.0
 10
186.589475
 20
303.433042
 30
0.0
  0
SPLINE
  5
217
100
AcDbEntity
  8
Layer_1
 62
1
100
AcDbSpline
 70
8
 71
3
 72
8
 73
4
 74
0
 40
0
 40
0
 40
0
 40
0
 40
1
 40
1
 40
1
 40
1
 10
198.676065
 20
291.745475
 30
0.0
 10
198.676335
 20
292.022183
 30
0.0
 10
198.528868
 20
292.277986
 30
0.0
 10
198.289277
 20
292.416418
 30
0.0
  0
SPLINE
  5
218
100
AcDbEntity
  8
Layer_1
 62
1
100
AcDbSpline
 70
8
 71
3
 72
8
 73
4
 74
0
 40
0
 40
0
 40
0
 40
0
 40
1
 40
1
 40
1
 40
1
 10
198.289277
 20
292.416418
 30
0.0
 10
198.049686
 20
292.554850
 30
0.0
 10
197.754419
 20
292.554850
 30
0.0
 10
197.514828
 20
292.416418
 30
0.0
  0
SPLINE
  5
219
100
AcDbEntity
  8
Layer_1
 62
1
100
AcDbSpline
 70
8
 71
3
 72
8
 73
4
 74
0
 40
0
 40
0
 40
0
 40
0
 40
1
 40
1
 40
1
 40
1
 10
197.514828
 20
292.416418
 30
0.0
 10
197.275237
 20
292.277986
 30
0.0
 10
197.127770
 20
292.022183
 30
0.0
 10
197.128040
 20
291.745475
 30
0.0
  0
SPLINE
  5
21a
100
AcDbEntity
  8
Layer_1
 62
1
100
AcDbSpline
 70
8
 71
3
 72
8
 73
4
 74
0
 40
0
 40
0
 40
0
 40
0
 40
1
 40
1
 40
1
 40
1
 10
197.128040
 20
291.745475
 30
0.0
 10
197.128039
 20
291.318002
 30
0.0
 10
196.781504
 20
290.971467
 30
0.0
 10
196.354031
 20
290.971465
 30
0.0
  0
LWPOLYLINE
  5
21b
100
AcDbEntity
  8
Layer_1
 62
1
100
AcDbPolyline
 90
6
 70
0
 10
201.607493
 20
315.158753
 30
0.0
 10
206.416168
 20
334.393473
 30
0.0
 10
214.156279
 20
334.393473
 30
0.0
 10
214.156279
 20
287.952821
 30
0.0
 10
198.676065
 20
287.952821
 30
0.0
 10
198.676065
 20
291.745475
 30
0.0
  0
SPLINE
  5
21c
100
AcDbEntity
  8
Layer_1
 62
1
100
AcDbSpline
 70
8
 71
3
 72
8
 73
4
 74
0
 40
0
 40
0
 40
0
 40
0
 40
1
 40
1
 40
1
 40
1
 10
191.748661
 20
290.971465
 30
0.0
 10
191.321191
 20
290.971471
 30
0.0
 10
190.974662
 20
291.318005
 30
0.0
 10
190.974661
 20
291.745475
 30
0.0
  0
SPLINE
  5
21d
100
AcDbEntity
  8
Layer_1
 62
1
100
AcDbSpline
 70
8
 71
3
 72
8
 73
4
 74
0
 40
0
 40
0
 40
0
 40
0
 40
1
 40
1
 40
1
 40
1
 10
190.974661
 20
291.745475
 30
0.0
 10
190.975235
 20
292.022386
 30
0.0
 10
190.827835
 20
292.278509
 30
0.0
 10
190.588118
 20
292.417130
 30
0.0
  0
SPLINE
  5
21e
100
AcDbEntity
  8
Layer_1
 62
1
100
AcDbSpline
 70
8
 71
3
 72
8
 73
4
 74
0
 40
0
 40
0
 40
0
 40
0
 40
1
 40
1
 40
1
 40
1
 10
190.588118
 20
292.417130
 30
0.0
 10
190.348401
 20
292.555752
 30
0.0
 10
190.052892
 20
292.555752
 30
0.0
 10
189.813176
 20
292.417130
 30
0.0
  0
SPLINE
  5
21f
100
AcDbEntity
  8
Layer_1
 62
1
100
AcDbSpline
 70
8
 71
3
 72
8
 73
4
 74
0
 40
0
 40
0
 40
0
 40
0
 40
1
 40
1
 40
1
 40
1
 10
189.813176
 20
292.417130
 30
0.0
 10
189.573459
 20
292.278509
 30
0.0
 10
189.426058
 20
292.022386
 30
0.0
 10
189.426633
 20
291.745475
 30
0.0
  0
LWPOLYLINE
  5
220
100
AcDbEntity
  8
Layer_1
 62
1
100
AcDbPolyline
 90
2
 70
0
 10
196.354031
 20
290.971465
 30
0.0
 10
191.748661
 20
290.971465
 30
0.0
  0
SPLINE
  5
221
100
AcDbEntity
  8
Layer_1
 62
1
100
AcDbSpline
 70
8
 71
3
 72
8
 73
4
 74
0
 40
0
 40
0
 40
0
 40
0
 40
1
 40
1
 40
1
 40
1
 10
183.195849
 20
287.952821
 30
0.0
 10
183.195849
 20
287.952821
 30
0.0
 10
183.195849
 20
293.370899
 30
0.0
 10
183.195849
 20
293.370899
 30
0.0
  0
SPLINE
  5
222
100
AcDbEntity
  8
Layer_1
 62
1
100
AcDbSpline
 70
8
 71
3
 72
8
 73
4
 74
0
 40
0
 40
0
 40
0
 40
0
 40
1
 40
1
 40
1
 40
1
 10
183.195849
 20
293.370899
 30
0.0
 10
183.195850
 20
293.798373
 30
0.0
 10
183.542386
 20
294.144909
 30
0.0
 10
183.969860
 20
294.144909
 30
0.0
  0
SPLINE
  5
223
100
AcDbEntity
  8
Layer_1
 62
1
100
AcDbSpline
 70
8
 71
3
 72
8
 73
4
 74
0
 40
0
 40
0
 40
0
 40
0
 40
1
 40
1
 40
1
 40
1
 10
183.969860
 20
294.144909
 30
0.0
 10
184.397235
 20
294.145050
 30
0.0
 10
184.743616
 20
294.491545
 30
0.0
 10
184.743616
 20
294.918920
 30
0.0
  0
SPLINE
  5
224
100
AcDbEntity
  8
Layer_1
 62
1
100
AcDbSpline
 70
8
 71
3
 72
8
 73
4
 74
0
 40
0
 40
0
 40
0
 40
0
 40
1
 40
1
 40
1
 40
1
 10
184.743616
 20
294.918920
 30
0.0
 10
184.743616
 20
295.346295
 30
0.0
 10
184.397235
 20
295.692790
 30
0.0
 10
183.969860
 20
295.692932
 30
0.0
  0
LWPOLYLINE
  5
225
100
AcDbEntity
  8
Layer_1
 62
1
100
AcDbPolyline
 90
3
 70
0
 10
189.426633
 20
291.745475
 30
0.0
 10
189.426633
 20
287.952821
 30
0.0
 10
183.195849
 20
287.952821
 30
0.0
  0
SPLINE
  5
226
100
AcDbEntity
  8
Layer_1
 62
1
100
AcDbSpline
 70
8
 71
3
 72
8
 73
4
 74
0
 40
0
 40
0
 40
0
 40
0
 40
1
 40
1
 40
1
 40
1
 10
179.403194
 20
295.692932
 30
0.0
 10
179.126606
 20
295.693023
 30
0.0
 10
178.870988
 20
295.545517
 30
0.0
 10
178.732668
 20
295.306000
 30
0.0
  0
SPLINE
  5
227
100
AcDbEntity
  8
Layer_1
 62
1
100
AcDbSpline
 70
8
 71
3
 72
8
 73
4
 74
0
 40
0
 40
0
 40
0
 40
0
 40
1
 40
1
 40
1
 40
1
 10
178.732668
 20
295.306000
 30
0.0
 10
178.594347
 20
295.066482
 30
0.0
 10
178.594347
 20
294.771358
 30
0.0
 10
178.732668
 20
294.531841
 30
0.0
  0
SPLINE
  5
228
100
AcDbEntity
  8
Layer_1
 62
1
100
AcDbSpline
 70
8
 71
3
 72
8
 73
4
 74
0
 40
0
 40
0
 40
0
 40
0
 40
1
 40
1
 40
1
 40
1
 10
178.732668
 20
294.531841
 30
0.0
 10
178.870988
 20
294.292323
 30
0.0
 10
179.126606
 20
294.144817
 30
0.0
 10
179.403194
 20
294.144909
 30
0.0
  0
SPLINE
  5
229
100
AcDbEntity
  8
Layer_1
 62
1
100
AcDbSpline
 70
8
 71
3
 72
8
 73
4
 74
0
 40
0
 40
0
 40
0
 40
0
 40
1
 40
1
 40
1
 40
1
 10
179.403194
 20
294.144909
 30
0.0
 10
179.830666
 20
294.144906
 30
0.0
 10
180.177200
 20
293.798371
 30
0.0
 10
180.177200
 20
293.370899
 30
0.0
  0
LWPOLYLINE
  5
22a
100
AcDbEntity
  8
Layer_1
 62
1
100
AcDbPolyline
 90
2
 70
0
 10
183.969860
 20
295.692932
 30
0.0
 10
179.403194
 20
295.692932
 30
0.0
  0
SPLINE
  5
22b
100
AcDbEntity
  8
Layer_1
 62
1
100
AcDbSpline
 70
8
 71
3
 72
8
 73
4
 74
0
 40
0
 40
0
 40
0
 40
0
 40
1
 40
1
 40
1
 40
1
 10
173.946419
 20
291.745475
 30
0.0
 10
173.946937
 20
292.022348
 30
0.0
 10
173.799525
 20
292.278410
 30
0.0
 10
173.559832
 20
292.416996
 30
0.0
  0
SPLINE
  5
22c
100
AcDbEntity
  8
Layer_1
 62
1
100
AcDbSpline
 70
8
 71
3
 72
8
 73
4
 74
0
 40
0
 40
0
 40
0
 40
0
 40
1
 40
1
 40
1
 40
1
 10
173.559832
 20
292.416996
 30
0.0
 10
173.320139
 20
292.555582
 30
0.0
 10
173.024676
 20
292.555582
 30
0.0
 10
172.784984
 20
292.416996
 30
0.0
  0
SPLINE
  5
22d
100
AcDbEntity
  8
Layer_1
 62
1
100
AcDbSpline
 70
8
 71
3
 72
8
 73
4
 74
0
 40
0
 40
0
 40
0
 40
0
 40
1
 40
1
 40
1
 40
1
 10
172.784984
 20
292.416996
 30
0.0
 10
172.545291
 20
292.278410
 30
0.0
 10
172.397878
 20
292.022348
 30
0.0
 10
172.398396
 20
291.745475
 30
0.0
  0
SPLINE
  5
22e
100
AcDbEntity
  8
Layer_1
 62
1
100
AcDbSpline
 70
8
 71
3
 72
8
 73
4
 74
0
 40
0
 40
0
 40
0
 40
0
 40
1
 40
1
 40
1
 40
1
 10
172.398396
 20
291.745475
 30
0.0
 10
172.398396
 20
291.540194
 30
0.0
 10
172.316848
 20
291.343321
 30
0.0
 10
172.171692
 20
291.198166
 30
0.0
  0
SPLINE
  5
22f
100
AcDbEntity
  8
Layer_1
 62
1
100
AcDbSpline
 70
8
 71
3
 72
8
 73
4
 74
0
 40
0
 40
0
 40
0
 40
0
 40
1
 40
1
 40
1
 40
1
 10
172.171692
 20
291.198166
 30
0.0
 10
172.026536
 20
291.053011
 30
0.0
 10
171.829663
 20
290.971464
 30
0.0
 10
171.624382
 20
290.971465
 30
0.0
  0
LWPOLYLINE
  5
230
100
AcDbEntity
  8
Layer_1
 62
1
100
AcDbPolyline
 90
4
 70
0
 10
180.177200
 20
293.370899
 30
0.0
 10
180.177200
 20
287.952821
 30
0.0
 10
173.946419
 20
287.952821
 30
0.0
 10
173.946419
 20
291.745475
 30
0.0
  0
SPLINE
  5
231
100
AcDbEntity
  8
Layer_1
 62
1
100
AcDbSpline
 70
8
 71
3
 72
8
 73
4
 74
0
 40
0
 40
0
 40
0
 40
0
 40
1
 40
1
 40
1
 40
1
 10
167.019018
 20
290.971465
 30
0.0
 10
166.591546
 20
290.971468
 30
0.0
 10
166.245013
 20
291.318003
 30
0.0
 10
166.245012
 20
291.745475
 30
0.0
  0
SPLINE
  5
232
100
AcDbEntity
  8
Layer_1
 62
1
100
AcDbSpline
 70
8
 71
3
 72
8
 73
4
 74
0
 40
0
 40
0
 40
0
 40
0
 40
1
 40
1
 40
1
 40
1
 10
166.245012
 20
291.745475
 30
0.0
 10
166.245596
 20
292.022392
 30
0.0
 10
166.098198
 20
292.278524
 30
0.0
 10
165.858478
 20
292.417151
 30
0.0
  0
SPLINE
  5
233
100
AcDbEntity
  8
Layer_1
 62
1
100
AcDbSpline
 70
8
 71
3
 72
8
 73
4
 74
0
 40
0
 40
0
 40
0
 40
0
 40
1
 40
1
 40
1
 40
1
 10
165.858478
 20
292.417151
 30
0.0
 10
165.618758
 20
292.555779
 30
0.0
 10
165.323241
 20
292.555779
 30
0.0
 10
165.083521
 20
292.417151
 30
0.0
  0
SPLINE
  5
234
100
AcDbEntity
  8
Layer_1
 62
1
100
AcDbSpline
 70
8
 71
3
 72
8
 73
4
 74
0
 40
0
 40
0
 40
0
 40
0
 40
1
 40
1
 40
1
 40
1
 10
165.083521
 20
292.417151
 30
0.0
 10
164.843801
 20
292.278524
 30
0.0
 10
164.696403
 20
292.022392
 30
0.0
 10
164.696987
 20
291.745475
 30
0.0
  0
LWPOLYLINE
  5
235
100
AcDbEntity
  8
Layer_1
 62
1
100
AcDbPolyline
 90
2
 70
0
 10
171.624382
 20
290.971465
 30
0.0
 10
167.019018
 20
290.971465
 30
0.0
  0
SPLINE
  5
236
100
AcDbEntity
  8
Layer_1
 62
1
100
AcDbSpline
 70
8
 71
3
 72
8
 73
4
 74
0
 40
0
 40
0
 40
0
 40
0
 40
1
 40
1
 40
1
 40
1
 10
153.009422
 20
295.692932
 30
0.0
 10
153.436612
 20
295.693334
 30
0.0
 10
153.782704
 20
296.039753
 30
0.0
 10
153.782704
 20
296.466943
 30
0.0
  0
SPLINE
  5
237
100
AcDbEntity
  8
Layer_1
 62
1
100
AcDbSpline
 70
8
 71
3
 72
8
 73
4
 74
0
 40
0
 40
0
 40
0
 40
0
 40
1
 40
1
 40
1
 40
1
 10
153.782704
 20
296.466943
 30
0.0
 10
153.782704
 20
296.894133
 30
0.0
 10
153.436612
 20
297.240552
 30
0.0
 10
153.009422
 20
297.240955
 30
0.0
  0
SPLINE
  5
238
100
AcDbEntity
  8
Layer_1
 62
1
100
AcDbSpline
 70
8
 71
3
 72
8
 73
4
 74
0
 40
0
 40
0
 40
0
 40
0
 40
1
 40
1
 40
1
 40
1
 10
153.009422
 20
297.240955
 30
0.0
 10
152.804141
 20
297.240954
 30
0.0
 10
152.607268
 20
297.322500
 30
0.0
 10
152.462112
 20
297.467656
 30
0.0
  0
SPLINE
  5
239
100
AcDbEntity
  8
Layer_1
 62
1
100
AcDbSpline
 70
8
 71
3
 72
8
 73
4
 74
0
 40
0
 40
0
 40
0
 40
0
 40
1
 40
1
 40
1
 40
1
 10
152.462112
 20
297.467656
 30
0.0
 10
152.316956
 20
297.612811
 30
0.0
 10
152.235408
 20
297.809683
 30
0.0
 10
152.235408
 20
298.014964
 30
0.0
  0
LWPOLYLINE
  5
23a
100
AcDbEntity
  8
Layer_1
 62
1
100
AcDbPolyline
 90
5
 70
0
 10
164.696987
 20
291.745475
 30
0.0
 10
164.696987
 20
287.952821
 30
0.0
 10
149.216773
 20
287.952821
 30
0.0
 10
149.216773
 20
295.692932
 30
0.0
 10
153.009422
 20
295.692932
 30
0.0
  0
SPLINE
  5
23b
100
AcDbEntity
  8
Layer_1
 62
1
100
AcDbSpline
 70
8
 71
3
 72
8
 73
4
 74
0
 40
0
 40
0
 40
0
 40
0
 40
1
 40
1
 40
1
 40
1
 10
177.473709
 20
259.499493
 30
0.0
 10
177.473709
 20
259.499493
 30
0.0
 10
143.119644
 20
259.499493
 30
0.0
 10
143.119644
 20
259.499493
 30
0.0
  0
SPLINE
  5
23c
100
AcDbEntity
  8
Layer_1
 62
1
100
AcDbSpline
 70
8
 71
3
 72
8
 73
4
 74
0
 40
0
 40
0
 40
0
 40
0
 40
1
 40
1
 40
1
 40
1
 10
143.119644
 20
259.499493
 30
0.0
 10
136.016274
 20
259.499496
 30
0.0
 10
129.824447
 20
254.665067
 30
0.0
 10
128.101623
 20
247.773786
 30
0.0
  0
LWPOLYLINE
  5
23d
100
AcDbEntity
  8
Layer_1
 62
1
100
AcDbPolyline
 90
2
 70
0
 10
152.235408
 20
298.014964
 30
0.0
 10
152.235408
 20
303.433042
 30
0.0
  0
SPLINE
  5
23e
100
AcDbEntity
  8
Layer_1
 62
1
100
AcDbSpline
 70
8
 71
3
 72
8
 73
4
 74
0
 40
0
 40
0
 40
0
 40
0
 40
1
 40
1
 40
1
 40
1
 10
131.033057
 20
274.979708
 30
0.0
 10
131.033057
 20
274.979708
 30
0.0
 10
131.033057
 20
271.187057
 30
0.0
 10
131.033057
 20
271.187057
 30
0.0
  0
SPLINE
  5
23f
100
AcDbEntity
  8
Layer_1
 62
1
100
AcDbSpline
 70
8
 71
3
 72
8
 73
4
 74
0
 40
0
 40
0
 40
0
 40
0
 40
1
 40
1
 40
1
 40
1
 10
131.033057
 20
271.187057
 30
0.0
 10
131.034345
 20
270.760495
 30
0.0
 10
131.380504
 20
270.415380
 30
0.0
 10
131.807067
 20
270.415380
 30
0.0
  0
SPLINE
  5
240
100
AcDbEntity
  8
Layer_1
 62
1
100
AcDbSpline
 70
8
 71
3
 72
8
 73
4
 74
0
 40
0
 40
0
 40
0
 40
0
 40
1
 40
1
 40
1
 40
1
 10
131.807067
 20
270.415380
 30
0.0
 10
132.233631
 20
270.415380
 30
0.0
 10
132.579789
 20
270.760495
 30
0.0
 10
132.581077
 20
271.187057
 30
0.0
  0
SPLINE
  5
241
100
AcDbEntity
  8
Layer_1
 62
1
100
AcDbSpline
 70
8
 71
3
 72
8
 73
4
 74
0
 40
0
 40
0
 40
0
 40
0
 40
1
 40
1
 40
1
 40
1
 10
132.581077
 20
271.187057
 30
0.0
 10
132.581075
 20
271.614529
 30
0.0
 10
132.927608
 20
271.961066
 30
0.0
 10
133.355080
 20
271.961071
 30
0.0
  0
SPLINE
  5
242
100
AcDbEntity
  8
Layer_1
 62
1
100
AcDbSpline
 70
8
 71
3
 72
8
 73
4
 74
0
 40
0
 40
0
 40
0
 40
0
 40
1
 40
1
 40
1
 40
1
 10
133.355080
 20
271.961071
 30
0.0
 10
133.355080
 20
271.961071
 30
0.0
 10
137.960453
 20
271.961071
 30
0.0
 10
137.960453
 20
271.961071
 30
0.0
  0
SPLINE
  5
243
100
AcDbEntity
  8
Layer_1
 62
1
100
AcDbSpline
 70
8
 71
3
 72
8
 73
4
 74
0
 40
0
 40
0
 40
0
 40
0
 40
1
 40
1
 40
1
 40
1
 10
137.960453
 20
271.961071
 30
0.0
 10
138.165733
 20
271.961070
 30
0.0
 10
138.362606
 20
271.879522
 30
0.0
 10
138.507761
 20
271.734366
 30
0.0
  0
SPLINE
  5
244
100
AcDbEntity
  8
Layer_1
 62
1
100
AcDbSpline
 70
8
 71
3
 72
8
 73
4
 74
0
 40
0
 40
0
 40
0
 40
0
 40
1
 40
1
 40
1
 40
1
 10
138.507761
 20
271.734366
 30
0.0
 10
138.652915
 20
271.589211
 30
0.0
 10
138.734462
 20
271.392338
 30
0.0
 10
138.734461
 20
271.187057
 30
0.0
  0
SPLINE
  5
245
100
AcDbEntity
  8
Layer_1
 62
1
100
AcDbSpline
 70
8
 71
3
 72
8
 73
4
 74
0
 40
0
 40
0
 40
0
 40
0
 40
1
 40
1
 40
1
 40
1
 10
138.734461
 20
271.187057
 30
0.0
 10
138.735466
 20
270.760295
 30
0.0
 10
139.081708
 20
270.414867
 30
0.0
 10
139.508471
 20
270.414867
 30
0.0
  0
SPLINE
  5
246
100
AcDbEntity
  8
Layer_1
 62
1
100
AcDbSpline
 70
8
 71
3
 72
8
 73
4
 74
0
 40
0
 40
0
 40
0
 40
0
 40
1
 40
1
 40
1
 40
1
 10
139.508471
 20
270.414867
 30
0.0
 10
139.935235
 20
270.414867
 30
0.0
 10
140.281477
 20
270.760295
 30
0.0
 10
140.282481
 20
271.187057
 30
0.0
  0
LWPOLYLINE
  5
247
100
AcDbEntity
  8
Layer_1
 62
1
100
AcDbPolyline
 90
5
 70
0
 10
128.101623
 20
247.773786
 30
0.0
 10
123.292941
 20
228.539080
 30
0.0
 10
115.552838
 20
228.539080
 30
0.0
 10
115.552838
 20
274.979708
 30
0.0
 10
131.033057
 20
274.979708
 30
0.0
  0
SPLINE
  5
248
100
AcDbEntity
  8
Layer_1
 62
1
100
AcDbSpline
 70
8
 71
3
 72
8
 73
4
 74
0
 40
0
 40
0
 40
0
 40
0
 40
1
 40
1
 40
1
 40
1
 10
146.513268
 20
274.979708
 30
0.0
 10
146.513268
 20
274.979708
 30
0.0
 10
146.513268
 20
269.561635
 30
0.0
 10
146.513268
 20
269.561635
 30
0.0
  0
SPLINE
  5
249
100
AcDbEntity
  8
Layer_1
 62
1
100
AcDbSpline
 70
8
 71
3
 72
8
 73
4
 74
0
 40
0
 40
0
 40
0
 40
0
 40
1
 40
1
 40
1
 40
1
 10
146.513268
 20
269.561635
 30
0.0
 10
146.513269
 20
269.356354
 30
0.0
 10
146.431723
 20
269.159480
 30
0.0
 10
146.286568
 20
269.014324
 30
0.0
  0
SPLINE
  5
24a
100
AcDbEntity
  8
Layer_1
 62
1
100
AcDbSpline
 70
8
 71
3
 72
8
 73
4
 74
0
 40
0
 40
0
 40
0
 40
0
 40
1
 40
1
 40
1
 40
1
 10
146.286568
 20
269.014324
 30
0.0
 10
146.141413
 20
268.869167
 30
0.0
 10
145.944540
 20
268.787619
 30
0.0
 10
145.739259
 20
268.787618
 30
0.0
  0
SPLINE
  5
24b
100
AcDbEntity
  8
Layer_1
 62
1
100
AcDbSpline
 70
8
 71
3
 72
8
 73
4
 74
0
 40
0
 40
0
 40
0
 40
0
 40
1
 40
1
 40
1
 40
1
 10
145.739259
 20
268.787618
 30
0.0
 10
145.312529
 20
268.786569
 30
0.0
 10
144.967152
 20
268.440341
 30
0.0
 10
144.967152
 20
268.013610
 30
0.0
  0
SPLINE
  5
24c
100
AcDbEntity
  8
Layer_1
 62
1
100
AcDbSpline
 70
8
 71
3
 72
8
 73
4
 74
0
 40
0
 40
0
 40
0
 40
0
 40
1
 40
1
 40
1
 40
1
 10
144.967152
 20
268.013610
 30
0.0
 10
144.967152
 20
267.586879
 30
0.0
 10
145.312529
 20
267.240651
 30
0.0
 10
145.739259
 20
267.239601
 30
0.0
  0
LWPOLYLINE
  5
24d
100
AcDbEntity
  8
Layer_1
 62
1
100
AcDbPolyline
 90
3
 70
0
 10
140.282481
 20
271.187057
 30
0.0
 10
140.282481
 20
274.979708
 30
0.0
 10
146.513268
 20
274.979708
 30
0.0
  0
SPLINE
  5
24e
100
AcDbEntity
  8
Layer_1
 62
1
100
AcDbSpline
 70
8
 71
3
 72
8
 73
4
 74
0
 40
0
 40
0
 40
0
 40
0
 40
1
 40
1
 40
1
 40
1
 10
150.305920
 20
267.239601
 30
0.0
 10
150.732649
 20
267.240651
 30
0.0
 10
151.078026
 20
267.586879
 30
0.0
 10
151.078026
 20
268.013610
 30
0.0
  0
SPLINE
  5
24f
100
AcDbEntity
  8
Layer_1
 62
1
100
AcDbSpline
 70
8
 71
3
 72
8
 73
4
 74
0
 40
0
 40
0
 40
0
 40
0
 40
1
 40
1
 40
1
 40
1
 10
151.078026
 20
268.013610
 30
0.0
 10
151.078026
 20
268.440341
 30
0.0
 10
150.732649
 20
268.786569
 30
0.0
 10
150.305920
 20
268.787618
 30
0.0
  0
SPLINE
  5
250
100
AcDbEntity
  8
Layer_1
 62
1
100
AcDbSpline
 70
8
 71
3
 72
8
 73
4
 74
0
 40
0
 40
0
 40
0
 40
0
 40
1
 40
1
 40
1
 40
1
 10
150.305920
 20
268.787618
 30
0.0
 10
149.878445
 20
268.787621
 30
0.0
 10
149.531911
 20
269.134160
 30
0.0
 10
149.531914
 20
269.561635
 30
0.0
  0
LWPOLYLINE
  5
251
100
AcDbEntity
  8
Layer_1
 62
1
100
AcDbPolyline
 90
2
 70
0
 10
145.739259
 20
267.239601
 30
0.0
 10
150.305920
 20
267.239601
 30
0.0
  0
SPLINE
  5
252
100
AcDbEntity
  8
Layer_1
 62
1
100
AcDbSpline
 70
8
 71
3
 72
8
 73
4
 74
0
 40
0
 40
0
 40
0
 40
0
 40
1
 40
1
 40
1
 40
1
 10
155.762695
 20
274.979708
 30
0.0
 10
155.762695
 20
274.979708
 30
0.0
 10
155.762695
 20
271.187057
 30
0.0
 10
155.762695
 20
271.187057
 30
0.0
  0
SPLINE
  5
253
100
AcDbEntity
  8
Layer_1
 62
1
100
AcDbSpline
 70
8
 71
3
 72
8
 73
4
 74
0
 40
0
 40
0
 40
0
 40
0
 40
1
 40
1
 40
1
 40
1
 10
155.762695
 20
271.187057
 30
0.0
 10
155.763892
 20
270.760429
 30
0.0
 10
156.110079
 20
270.415212
 30
0.0
 10
156.536709
 20
270.415212
 30
0.0
  0
SPLINE
  5
254
100
AcDbEntity
  8
Layer_1
 62
1
100
AcDbSpline
 70
8
 71
3
 72
8
 73
4
 74
0
 40
0
 40
0
 40
0
 40
0
 40
1
 40
1
 40
1
 40
1
 10
156.536709
 20
270.415212
 30
0.0
 10
156.963339
 20
270.415212
 30
0.0
 10
157.309526
 20
270.760429
 30
0.0
 10
157.310723
 20
271.187057
 30
0.0
  0
SPLINE
  5
255
100
AcDbEntity
  8
Layer_1
 62
1
100
AcDbSpline
 70
8
 71
3
 72
8
 73
4
 74
0
 40
0
 40
0
 40
0
 40
0
 40
1
 40
1
 40
1
 40
1
 10
157.310723
 20
271.187057
 30
0.0
 10
157.310722
 20
271.614529
 30
0.0
 10
157.657254
 20
271.961066
 30
0.0
 10
158.084726
 20
271.961071
 30
0.0
  0
SPLINE
  5
256
100
AcDbEntity
  8
Layer_1
 62
1
100
AcDbSpline
 70
8
 71
3
 72
8
 73
4
 74
0
 40
0
 40
0
 40
0
 40
0
 40
1
 40
1
 40
1
 40
1
 10
158.084726
 20
271.961071
 30
0.0
 10
158.084726
 20
271.961071
 30
0.0
 10
162.690102
 20
271.961071
 30
0.0
 10
162.690102
 20
271.961071
 30
0.0
  0
SPLINE
  5
257
100
AcDbEntity
  8
Layer_1
 62
1
100
AcDbSpline
 70
8
 71
3
 72
8
 73
4
 74
0
 40
0
 40
0
 40
0
 40
0
 40
1
 40
1
 40
1
 40
1
 10
162.690102
 20
271.961071
 30
0.0
 10
163.117574
 20
271.961066
 30
0.0
 10
163.464106
 20
271.614529
 30
0.0
 10
163.464105
 20
271.187057
 30
0.0
  0
SPLINE
  5
258
100
AcDbEntity
  8
Layer_1
 62
1
100
AcDbSpline
 70
8
 71
3
 72
8
 73
4
 74
0
 40
0
 40
0
 40
0
 40
0
 40
1
 40
1
 40
1
 40
1
 10
163.464105
 20
271.187057
 30
0.0
 10
163.465216
 20
270.760369
 30
0.0
 10
163.811427
 20
270.415059
 30
0.0
 10
164.238116
 20
270.415059
 30
0.0
  0
SPLINE
  5
259
100
AcDbEntity
  8
Layer_1
 62
1
100
AcDbSpline
 70
8
 71
3
 72
8
 73
4
 74
0
 40
0
 40
0
 40
0
 40
0
 40
1
 40
1
 40
1
 40
1
 10
164.238116
 20
270.415059
 30
0.0
 10
164.664805
 20
270.415059
 30
0.0
 10
165.011016
 20
270.760369
 30
0.0
 10
165.012127
 20
271.187057
 30
0.0
  0
LWPOLYLINE
  5
25a
100
AcDbEntity
  8
Layer_1
 62
1
100
AcDbPolyline
 90
3
 70
0
 10
149.531914
 20
269.561635
 30
0.0
 10
149.531914
 20
274.979708
 30
0.0
 10
155.762695
 20
274.979708
 30
0.0
  0
SPLINE
  5
25b
100
AcDbEntity
  8
Layer_1
 62
1
100
AcDbSpline
 70
8
 71
3
 72
8
 73
4
 74
0
 40
0
 40
0
 40
0
 40
0
 40
1
 40
1
 40
1
 40
1
 10
176.699689
 20
267.239601
 30
0.0
 10
176.423161
 20
267.239601
 30
0.0
 10
176.167638
 20
267.092075
 30
0.0
 10
176.029374
 20
266.852595
 30
0.0
  0
SPLINE
  5
25c
100
AcDbEntity
  8
Layer_1
 62
1
100
AcDbSpline
 70
8
 71
3
 72
8
 73
4
 74
0
 40
0
 40
0
 40
0
 40
0
 40
1
 40
1
 40
1
 40
1
 10
176.029374
 20
266.852595
 30
0.0
 10
175.891110
 20
266.613114
 30
0.0
 10
175.891110
 20
266.318062
 30
0.0
 10
176.029374
 20
266.078582
 30
0.0
  0
SPLINE
  5
25d
100
AcDbEntity
  8
Layer_1
 62
1
100
AcDbSpline
 70
8
 71
3
 72
8
 73
4
 74
0
 40
0
 40
0
 40
0
 40
0
 40
1
 40
1
 40
1
 40
1
 10
176.029374
 20
266.078582
 30
0.0
 10
176.167638
 20
265.839101
 30
0.0
 10
176.423161
 20
265.691575
 30
0.0
 10
176.699689
 20
265.691575
 30
0.0
  0
SPLINE
  5
25e
100
AcDbEntity
  8
Layer_1
 62
1
100
AcDbSpline
 70
8
 71
3
 72
8
 73
4
 74
0
 40
0
 40
0
 40
0
 40
0
 40
1
 40
1
 40
1
 40
1
 10
176.699689
 20
265.691575
 30
0.0
 10
176.904971
 20
265.691578
 30
0.0
 10
177.101845
 20
265.610032
 30
0.0
 10
177.247002
 20
265.464877
 30
0.0
  0
SPLINE
  5
25f
100
AcDbEntity
  8
Layer_1
 62
1
100
AcDbSpline
 70
8
 71
3
 72
8
 73
4
 74
0
 40
0
 40
0
 40
0
 40
0
 40
1
 40
1
 40
1
 40
1
 10
177.247002
 20
265.464877
 30
0.0
 10
177.392159
 20
265.319722
 30
0.0
 10
177.473708
 20
265.122848
 30
0.0
 10
177.473709
 20
264.917567
 30
0.0
  0
LWPOLYLINE
  5
260
100
AcDbEntity
  8
Layer_1
 62
1
100
AcDbPolyline
 90
5
 70
0
 10
165.012127
 20
271.187057
 30
0.0
 10
165.012127
 20
274.979708
 30
0.0
 10
180.492344
 20
274.979708
 30
0.0
 10
180.492344
 20
267.239601
 30
0.0
 10
176.699689
 20
267.239601
 30
0.0
  0
LWPOLYLINE
  5
261
100
AcDbEntity
  8
Layer_1
 62
1
100
AcDbPolyline
 90
2
 70
0
 10
177.473709
 20
264.917567
 30
0.0
 10
177.473709
 20
259.499493
 30
0.0
  0
SPLINE
  5
262
100
AcDbEntity
  8
Layer_1
 62
1
100
AcDbSpline
 70
8
 71
3
 72
8
 73
4
 74
0
 40
0
 40
0
 40
0
 40
0
 40
1
 40
1
 40
1
 40
1
 10
257.892908
 20
274.979708
 30
0.0
 10
257.892908
 20
274.979708
 30
0.0
 10
253.084223
 20
255.744989
 30
0.0
 10
253.084223
 20
255.744989
 30
0.0
  0
SPLINE
  5
263
100
AcDbEntity
  8
Layer_1
 62
1
100
AcDbSpline
 70
8
 71
3
 72
8
 73
4
 74
0
 40
0
 40
0
 40
0
 40
0
 40
1
 40
1
 40
1
 40
1
 10
253.084223
 20
255.744989
 30
0.0
 10
251.361454
 20
248.853893
 30
0.0
 10
245.169910
 20
244.019508
 30
0.0
 10
238.066732
 20
244.019265
 30
0.0
  0
LWPOLYLINE
  5
264
100
AcDbEntity
  8
Layer_1
 62
1
100
AcDbPolyline
 90
3
 70
0
 10
265.633002
 20
228.539080
 30
0.0
 10
265.633002
 20
274.979708
 30
0.0
 10
257.892908
 20
274.979708
 30
0.0
  0
SPLINE
  5
265
100
AcDbEntity
  8
Layer_1
 62
1
100
AcDbSpline
 70
8
 71
3
 72
8
 73
4
 74
0
 40
0
 40
0
 40
0
 40
0
 40
1
 40
1
 40
1
 40
1
 10
141.791800
 20
244.019265
 30
0.0
 10
141.791800
 20
244.019265
 30
0.0
 10
141.791800
 20
238.601183
 30
0.0
 10
141.791800
 20
238.601183
 30
0.0
  0
SPLINE
  5
266
100
AcDbEntity
  8
Layer_1
 62
1
100
AcDbSpline
 70
8
 71
3
 72
8
 73
4
 74
0
 40
0
 40
0
 40
0
 40
0
 40
1
 40
1
 40
1
 40
1
 10
141.791800
 20
238.601183
 30
0.0
 10
141.791819
 20
238.173719
 30
0.0
 10
142.138353
 20
237.827202
 30
0.0
 10
142.565817
 20
237.827205
 30
0.0
  0
SPLINE
  5
267
100
AcDbEntity
  8
Layer_1
 62
1
100
AcDbSpline
 70
8
 71
3
 72
8
 73
4
 74
0
 40
0
 40
0
 40
0
 40
0
 40
1
 40
1
 40
1
 40
1
 10
142.565817
 20
237.827205
 30
0.0
 10
142.992511
 20
237.826100
 30
0.0
 10
143.337830
 20
237.479885
 30
0.0
 10
143.337830
 20
237.053190
 30
0.0
  0
SPLINE
  5
268
100
AcDbEntity
  8
Layer_1
 62
1
100
AcDbSpline
 70
8
 71
3
 72
8
 73
4
 74
0
 40
0
 40
0
 40
0
 40
0
 40
1
 40
1
 40
1
 40
1
 10
143.337830
 20
237.053190
 30
0.0
 10
143.337830
 20
236.626494
 30
0.0
 10
142.992511
 20
236.280279
 30
0.0
 10
142.565817
 20
236.279174
 30
0.0
  0
LWPOLYLINE
  5
269
100
AcDbEntity
  8
Layer_1
 62
1
100
AcDbPolyline
 90
2
 70
0
 10
238.066732
 20
244.019265
 30
0.0
 10
141.791800
 20
244.019265
 30
0.0
  0
SPLINE
  5
26a
100
AcDbEntity
  8
Layer_1
 62
1
100
AcDbSpline
 70
8
 71
3
 72
8
 73
4
 74
0
 40
0
 40
0
 40
0
 40
0
 40
1
 40
1
 40
1
 40
1
 10
154.253373
 20
232.331706
 30
0.0
 10
154.253047
 20
232.608452
 30
0.0
 10
154.400502
 20
232.864315
 30
0.0
 10
154.640117
 20
233.002782
 30
0.0
  0
SPLINE
  5
26b
100
AcDbEntity
  8
Layer_1
 62
1
100
AcDbSpline
 70
8
 71
3
 72
8
 73
4
 74
0
 40
0
 40
0
 40
0
 40
0
 40
1
 40
1
 40
1
 40
1
 10
154.640117
 20
233.002782
 30
0.0
 10
154.879732
 20
233.141249
 30
0.0
 10
155.175043
 20
233.141249
 30
0.0
 10
155.414658
 20
233.002782
 30
0.0
  0
SPLINE
  5
26c
100
AcDbEntity
  8
Layer_1
 62
1
100
AcDbSpline
 70
8
 71
3
 72
8
 73
4
 74
0
 40
0
 40
0
 40
0
 40
0
 40
1
 40
1
 40
1
 40
1
 10
155.414658
 20
233.002782
 30
0.0
 10
155.654272
 20
232.864315
 30
0.0
 10
155.801727
 20
232.608452
 30
0.0
 10
155.801401
 20
232.331706
 30
0.0
  0
SPLINE
  5
26d
100
AcDbEntity
  8
Layer_1
 62
1
100
AcDbSpline
 70
8
 71
3
 72
8
 73
4
 74
0
 40
0
 40
0
 40
0
 40
0
 40
1
 40
1
 40
1
 40
1
 10
155.801401
 20
232.331706
 30
0.0
 10
155.801399
 20
232.126425
 30
0.0
 10
155.882945
 20
231.929551
 30
0.0
 10
156.028099
 20
231.784394
 30
0.0
  0
SPLINE
  5
26e
100
AcDbEntity
  8
Layer_1
 62
1
100
AcDbSpline
 70
8
 71
3
 72
8
 73
4
 74
0
 40
0
 40
0
 40
0
 40
0
 40
1
 40
1
 40
1
 40
1
 10
156.028099
 20
231.784394
 30
0.0
 10
156.173253
 20
231.639237
 30
0.0
 10
156.370126
 20
231.557688
 30
0.0
 10
156.575407
 20
231.557687
 30
0.0
  0
LWPOLYLINE
  5
26f
100
AcDbEntity
  8
Layer_1
 62
1
100
AcDbPolyline
 90
5
 70
0
 10
142.565817
 20
236.279174
 30
0.0
 10
138.773160
 20
236.279174
 30
0.0
 10
138.773160
 20
228.539080
 30
0.0
 10
154.253373
 20
228.539080
 30
0.0
 10
154.253373
 20
232.331706
 30
0.0
  0
SPLINE
  5
270
100
AcDbEntity
  8
Layer_1
 62
1
100
AcDbSpline
 70
8
 71
3
 72
8
 73
4
 74
0
 40
0
 40
0
 40
0
 40
0
 40
1
 40
1
 40
1
 40
1
 10
161.180777
 20
231.557687
 30
0.0
 10
161.386058
 20
231.557688
 30
0.0
 10
161.582931
 20
231.639237
 30
0.0
 10
161.728085
 20
231.784394
 30
0.0
  0
SPLINE
  5
271
100
AcDbEntity
  8
Layer_1
 62
1
100
AcDbSpline
 70
8
 71
3
 72
8
 73
4
 74
0
 40
0
 40
0
 40
0
 40
0
 40
1
 40
1
 40
1
 40
1
 10
161.728085
 20
231.784394
 30
0.0
 10
161.873240
 20
231.929551
 30
0.0
 10
161.954785
 20
232.126425
 30
0.0
 10
161.954783
 20
232.331706
 30
0.0
  0
SPLINE
  5
272
100
AcDbEntity
  8
Layer_1
 62
1
100
AcDbSpline
 70
8
 71
3
 72
8
 73
4
 74
0
 40
0
 40
0
 40
0
 40
0
 40
1
 40
1
 40
1
 40
1
 10
161.954783
 20
232.331706
 30
0.0
 10
161.954484
 20
232.608434
 30
0.0
 10
162.101945
 20
232.864269
 30
0.0
 10
162.341548
 20
233.002720
 30
0.0
  0
SPLINE
  5
273
100
AcDbEntity
  8
Layer_1
 62
1
100
AcDbSpline
 70
8
 71
3
 72
8
 73
4
 74
0
 40
0
 40
0
 40
0
 40
0
 40
1
 40
1
 40
1
 40
1
 10
162.341548
 20
233.002720
 30
0.0
 10
162.581152
 20
233.141170
 30
0.0
 10
162.876442
 20
233.141170
 30
0.0
 10
163.116046
 20
233.002720
 30
0.0
  0
SPLINE
  5
274
100
AcDbEntity
  8
Layer_1
 62
1
100
AcDbSpline
 70
8
 71
3
 72
8
 73
4
 74
0
 40
0
 40
0
 40
0
 40
0
 40
1
 40
1
 40
1
 40
1
 10
163.116046
 20
233.002720
 30
0.0
 10
163.355649
 20
232.864269
 30
0.0
 10
163.503110
 20
232.608434
 30
0.0
 10
163.502811
 20
232.331706
 30
0.0
  0
LWPOLYLINE
  5
275
100
AcDbEntity
  8
Layer_1
 62
1
100
AcDbPolyline
 90
2
 70
0
 10
156.575407
 20
231.557687
 30
0.0
 10
161.180777
 20
231.557687
 30
0.0
  0
SPLINE
  5
276
100
AcDbEntity
  8
Layer_1
 62
1
100
AcDbSpline
 70
8
 71
3
 72
8
 73
4
 74
0
 40
0
 40
0
 40
0
 40
0
 40
1
 40
1
 40
1
 40
1
 10
169.733595
 20
228.539080
 30
0.0
 10
169.733595
 20
228.539080
 30
0.0
 10
169.733595
 20
233.957126
 30
0.0
 10
169.733595
 20
233.957126
 30
0.0
  0
SPLINE
  5
277
100
AcDbEntity
  8
Layer_1
 62
1
100
AcDbSpline
 70
8
 71
3
 72
8
 73
4
 74
0
 40
0
 40
0
 40
0
 40
0
 40
1
 40
1
 40
1
 40
1
 10
169.733595
 20
233.957126
 30
0.0
 10
169.733596
 20
234.162408
 30
0.0
 10
169.652048
 20
234.359282
 30
0.0
 10
169.506891
 20
234.504438
 30
0.0
  0
SPLINE
  5
278
100
AcDbEntity
  8
Layer_1
 62
1
100
AcDbSpline
 70
8
 71
3
 72
8
 73
4
 74
0
 40
0
 40
0
 40
0
 40
0
 40
1
 40
1
 40
1
 40
1
 10
169.506891
 20
234.504438
 30
0.0
 10
169.361735
 20
234.649595
 30
0.0
 10
169.164860
 20
234.731142
 30
0.0
 10
168.959578
 20
234.731140
 30
0.0
  0
SPLINE
  5
279
100
AcDbEntity
  8
Layer_1
 62
1
100
AcDbSpline
 70
8
 71
3
 72
8
 73
4
 74
0
 40
0
 40
0
 40
0
 40
0
 40
1
 40
1
 40
1
 40
1
 10
168.959578
 20
234.731140
 30
0.0
 10
168.682609
 20
234.730479
 30
0.0
 10
168.426395
 20
234.877862
 30
0.0
 10
168.287720
 20
235.117615
 30
0.0
  0
SPLINE
  5
27a
100
AcDbEntity
  8
Layer_1
 62
1
100
AcDbSpline
 70
8
 71
3
 72
8
 73
4
 74
0
 40
0
 40
0
 40
0
 40
0
 40
1
 40
1
 40
1
 40
1
 10
168.287720
 20
235.117615
 30
0.0
 10
168.149044
 20
235.357368
 30
0.0
 10
168.149044
 20
235.652946
 30
0.0
 10
168.287720
 20
235.892699
 30
0.0
  0
SPLINE
  5
27b
100
AcDbEntity
  8
Layer_1
 62
1
100
AcDbSpline
 70
8
 71
3
 72
8
 73
4
 74
0
 40
0
 40
0
 40
0
 40
0
 40
1
 40
1
 40
1
 40
1
 10
168.287720
 20
235.892699
 30
0.0
 10
168.426395
 20
236.132452
 30
0.0
 10
168.682609
 20
236.279835
 30
0.0
 10
168.959578
 20
236.279174
 30
0.0
  0
LWPOLYLINE
  5
27c
100
AcDbEntity
  8
Layer_1
 62
1
100
AcDbPolyline
 90
3
 70
0
 10
163.502811
 20
232.331706
 30
0.0
 10
163.502811
 20
228.539080
 30
0.0
 10
169.733595
 20
228.539080
 30
0.0
  0
SPLINE
  5
27d
100
AcDbEntity
  8
Layer_1
 62
1
100
AcDbSpline
 70
8
 71
3
 72
8
 73
4
 74
0
 40
0
 40
0
 40
0
 40
0
 40
1
 40
1
 40
1
 40
1
 10
173.526252
 20
236.279174
 30
0.0
 10
173.953010
 20
236.278156
 30
0.0
 10
174.298426
 20
235.931915
 30
0.0
 10
174.298426
 20
235.505157
 30
0.0
  0
SPLINE
  5
27e
100
AcDbEntity
  8
Layer_1
 62
1
100
AcDbSpline
 70
8
 71
3
 72
8
 73
4
 74
0
 40
0
 40
0
 40
0
 40
0
 40
1
 40
1
 40
1
 40
1
 10
174.298426
 20
235.505157
 30
0.0
 10
174.298426
 20
235.078399
 30
0.0
 10
173.953010
 20
234.732158
 30
0.0
 10
173.526252
 20
234.731140
 30
0.0
  0
SPLINE
  5
27f
100
AcDbEntity
  8
Layer_1
 62
1
100
AcDbSpline
 70
8
 71
3
 72
8
 73
4
 74
0
 40
0
 40
0
 40
0
 40
0
 40
1
 40
1
 40
1
 40
1
 10
173.526252
 20
234.731140
 30
0.0
 10
173.320970
 20
234.731142
 30
0.0
 10
173.124096
 20
234.649595
 30
0.0
 10
172.978939
 20
234.504438
 30
0.0
  0
SPLINE
  5
280
100
AcDbEntity
  8
Layer_1
 62
1
100
AcDbSpline
 70
8
 71
3
 72
8
 73
4
 74
0
 40
0
 40
0
 40
0
 40
0
 40
1
 40
1
 40
1
 40
1
 10
172.978939
 20
234.504438
 30
0.0
 10
172.833782
 20
234.359282
 30
0.0
 10
172.752235
 20
234.162408
 30
0.0
 10
172.752235
 20
233.957126
 30
0.0
  0
LWPOLYLINE
  5
281
100
AcDbEntity
  8
Layer_1
 62
1
100
AcDbPolyline
 90
2
 70
0
 10
168.959578
 20
236.279174
 30
0.0
 10
173.526252
 20
236.279174
 30
0.0
  0
SPLINE
  5
282
100
AcDbEntity
  8
Layer_1
 62
1
100
AcDbSpline
 70
8
 71
3
 72
8
 73
4
 74
0
 40
0
 40
0
 40
0
 40
0
 40
1
 40
1
 40
1
 40
1
 10
178.983028
 20
232.331706
 30
0.0
 10
178.982780
 20
232.608400
 30
0.0
 10
179.130252
 20
232.864182
 30
0.0
 10
179.369834
 20
233.002600
 30
0.0
  0
SPLINE
  5
283
100
AcDbEntity
  8
Layer_1
 62
1
100
AcDbSpline
 70
8
 71
3
 72
8
 73
4
 74
0
 40
0
 40
0
 40
0
 40
0
 40
1
 40
1
 40
1
 40
1
 10
179.369834
 20
233.002600
 30
0.0
 10
179.609417
 20
233.141019
 30
0.0
 10
179.904667
 20
233.141019
 30
0.0
 10
180.144249
 20
233.002600
 30
0.0
  0
SPLINE
  5
284
100
AcDbEntity
  8
Layer_1
 62
1
100
AcDbSpline
 70
8
 71
3
 72
8
 73
4
 74
0
 40
0
 40
0
 40
0
 40
0
 40
1
 40
1
 40
1
 40
1
 10
180.144249
 20
233.002600
 30
0.0
 10
180.383832
 20
232.864182
 30
0.0
 10
180.531304
 20
232.608400
 30
0.0
 10
180.531056
 20
232.331706
 30
0.0
  0
SPLINE
  5
285
100
AcDbEntity
  8
Layer_1
 62
1
100
AcDbSpline
 70
8
 71
3
 72
8
 73
4
 74
0
 40
0
 40
0
 40
0
 40
0
 40
1
 40
1
 40
1
 40
1
 10
180.531056
 20
232.331706
 30
0.0
 10
180.531054
 20
232.126425
 30
0.0
 10
180.612599
 20
231.929551
 30
0.0
 10
180.757754
 20
231.784394
 30
0.0
  0
SPLINE
  5
286
100
AcDbEntity
  8
Layer_1
 62
1
100
AcDbSpline
 70
8
 71
3
 72
8
 73
4
 74
0
 40
0
 40
0
 40
0
 40
0
 40
1
 40
1
 40
1
 40
1
 10
180.757754
 20
231.784394
 30
0.0
 10
180.902908
 20
231.639237
 30
0.0
 10
181.099781
 20
231.557688
 30
0.0
 10
181.305062
 20
231.557687
 30
0.0
  0
SPLINE
  5
287
100
AcDbEntity
  8
Layer_1
 62
1
100
AcDbSpline
 70
8
 71
3
 72
8
 73
4
 74
0
 40
0
 40
0
 40
0
 40
0
 40
1
 40
1
 40
1
 40
1
 10
181.305062
 20
231.557687
 30
0.0
 10
181.305062
 20
231.557687
 30
0.0
 10
247.830713
 20
231.557687
 30
0.0
 10
247.830713
 20
231.557687
 30
0.0
  0
SPLINE
  5
288
100
AcDbEntity
  8
Layer_1
 62
1
100
AcDbSpline
 70
8
 71
3
 72
8
 73
4
 74
0
 40
0
 40
0
 40
0
 40
0
 40
1
 40
1
 40
1
 40
1
 10
247.830713
 20
231.557687
 30
0.0
 10
248.035996
 20
231.557684
 30
0.0
 10
248.232872
 20
231.639232
 30
0.0
 10
248.378030
 20
231.784389
 30
0.0
  0
SPLINE
  5
289
100
AcDbEntity
  8
Layer_1
 62
1
100
AcDbSpline
 70
8
 71
3
 72
8
 73
4
 74
0
 40
0
 40
0
 40
0
 40
0
 40
1
 40
1
 40
1
 40
1
 10
248.378030
 20
231.784389
 30
0.0
 10
248.523187
 20
231.929547
 30
0.0
 10
248.604735
 20
232.126423
 30
0.0
 10
248.604732
 20
232.331706
 30
0.0
  0
SPLINE
  5
28a
100
AcDbEntity
  8
Layer_1
 62
1
100
AcDbSpline
 70
8
 71
3
 72
8
 73
4
 74
0
 40
0
 40
0
 40
0
 40
0
 40
1
 40
1
 40
1
 40
1
 10
248.604732
 20
232.331706
 30
0.0
 10
248.603650
 20
232.608957
 30
0.0
 10
248.750940
 20
232.865611
 30
0.0
 10
248.990867
 20
233.004550
 30
0.0
  0
SPLINE
  5
28b
100
AcDbEntity
  8
Layer_1
 62
1
100
AcDbSpline
 70
8
 71
3
 72
8
 73
4
 74
0
 40
0
 40
0
 40
0
 40
0
 40
1
 40
1
 40
1
 40
1
 10
248.990867
 20
233.004550
 30
0.0
 10
249.230795
 20
233.143489
 30
0.0
 10
249.526710
 20
233.143489
 30
0.0
 10
249.766637
 20
233.004550
 30
0.0
  0
SPLINE
  5
28c
100
AcDbEntity
  8
Layer_1
 62
1
100
AcDbSpline
 70
8
 71
3
 72
8
 73
4
 74
0
 40
0
 40
0
 40
0
 40
0
 40
1
 40
1
 40
1
 40
1
 10
249.766637
 20
233.004550
 30
0.0
 10
250.006564
 20
232.865611
 30
0.0
 10
250.153854
 20
232.608957
 30
0.0
 10
250.152772
 20
232.331706
 30
0.0
  0
LWPOLYLINE
  5
28d
100
AcDbEntity
  8
Layer_1
 62
1
100
AcDbPolyline
 90
4
 70
0
 10
172.752235
 20
233.957126
 30
0.0
 10
172.752235
 20
228.539080
 30
0.0
 10
178.983028
 20
228.539080
 30
0.0
 10
178.983028
 20
232.331706
 30
0.0
  0
SPLINE
  5
28e
100
AcDbEntity
  8
Layer_1
 62
1
100
AcDbSpline
 70
8
 71
3
 72
8
 73
4
 74
0
 40
0
 40
0
 40
0
 40
0
 40
1
 40
1
 40
1
 40
1
 10
-0.423156
 20
264.521750
 30
0.0
 10
-0.423036
 20
264.653182
 30
0.0
 10
-0.493084
 20
264.774682
 30
0.0
 10
-0.606888
 20
264.840433
 30
0.0
  0
SPLINE
  5
28f
100
AcDbEntity
  8
Layer_1
 62
1
100
AcDbSpline
 70
8
 71
3
 72
8
 73
4
 74
0
 40
0
 40
0
 40
0
 40
0
 40
1
 40
1
 40
1
 40
1
 10
-0.606888
 20
264.840433
 30
0.0
 10
-0.720691
 20
264.906184
 30
0.0
 10
-0.860938
 20
264.906184
 30
0.0
 10
-0.974741
 20
264.840433
 30
0.0
  0
SPLINE
  5
290
100
AcDbEntity
  8
Layer_1
 62
1
100
AcDbSpline
 70
8
 71
3
 72
8
 73
4
 74
0
 40
0
 40
0
 40
0
 40
0
 40
1
 40
1
 40
1
 40
1
 10
-0.974741
 20
264.840433
 30
0.0
 10
-1.088545
 20
264.774682
 30
0.0
 10
-1.158594
 20
264.653182
 30
0.0
 10
-1.158473
 20
264.521750
 30
0.0
  0
SPLINE
  5
291
100
AcDbEntity
  8
Layer_1
 62
1
100
AcDbSpline
 70
8
 71
3
 72
8
 73
4
 74
0
 40
0
 40
0
 40
0
 40
0
 40
1
 40
1
 40
1
 40
1
 10
-1.158473
 20
264.521750
 30
0.0
 10
-1.158286
 20
264.318830
 30
0.0
 10
-0.993735
 20
264.154430
 30
0.0
 10
-0.790815
 20
264.154430
 30
0.0
  0
SPLINE
  5
292
100
AcDbEntity
  8
Layer_1
 62
1
100
AcDbSpline
 70
8
 71
3
 72
8
 73
4
 74
0
 40
0
 40
0
 40
0
 40
0
 40
1
 40
1
 40
1
 40
1
 10
-0.790815
 20
264.154430
 30
0.0
 10
-0.587894
 20
264.154430
 30
0.0
 10
-0.423343
 20
264.318830
 30
0.0
 10
-0.423156
 20
264.521750
 30
0.0
  0
LWPOLYLINE
  5
293
100
AcDbEntity
  8
Layer_1
 62
1
100
AcDbPolyline
 90
3
 70
0
 10
250.152772
 20
232.331706
 30
0.0
 10
250.152772
 20
228.539080
 30
0.0
 10
265.633002
 20
228.539080
 30
0.0
  0
SPLINE
  5
294
100
AcDbEntity
  8
Layer_1
 62
1
100
AcDbSpline
 70
8
 71
3
 72
8
 73
4
 74
0
 40
0
 40
0
 40
0
 40
0
 40
1
 40
1
 40
1
 40
1
 10
50.780826
 20
252.744058
 30
0.0
 10
50.781357
 20
252.875761
 30
0.0
 10
50.711399
 20
252.997687
 30
0.0
 10
50.597429
 20
253.063693
 30
0.0
  0
SPLINE
  5
295
100
AcDbEntity
  8
Layer_1
 62
1
100
AcDbSpline
 70
8
 71
3
 72
8
 73
4
 74
0
 40
0
 40
0
 40
0
 40
0
 40
1
 40
1
 40
1
 40
1
 10
50.597429
 20
253.063693
 30
0.0
 10
50.483459
 20
253.129698
 30
0.0
 10
50.342888
 20
253.129698
 30
0.0
 10
50.228918
 20
253.063693
 30
0.0
  0
SPLINE
  5
296
100
AcDbEntity
  8
Layer_1
 62
1
100
AcDbSpline
 70
8
 71
3
 72
8
 73
4
 74
0
 40
0
 40
0
 40
0
 40
0
 40
1
 40
1
 40
1
 40
1
 10
50.228918
 20
253.063693
 30
0.0
 10
50.114948
 20
252.997687
 30
0.0
 10
50.044990
 20
252.875761
 30
0.0
 10
50.045521
 20
252.744058
 30
0.0
  0
SPLINE
  5
297
100
AcDbEntity
  8
Layer_1
 62
1
100
AcDbSpline
 70
8
 71
3
 72
8
 73
4
 74
0
 40
0
 40
0
 40
0
 40
0
 40
1
 40
1
 40
1
 40
1
 10
50.045521
 20
252.744058
 30
0.0
 10
50.046338
 20
252.541588
 30
0.0
 10
50.210702
 20
252.377886
 30
0.0
 10
50.413174
 20
252.377886
 30
0.0
  0
SPLINE
  5
298
100
AcDbEntity
  8
Layer_1
 62
1
100
AcDbSpline
 70
8
 71
3
 72
8
 73
4
 74
0
 40
0
 40
0
 40
0
 40
0
 40
1
 40
1
 40
1
 40
1
 10
50.413174
 20
252.377886
 30
0.0
 10
50.615645
 20
252.377886
 30
0.0
 10
50.780009
 20
252.541588
 30
0.0
 10
50.780826
 20
252.744058
 30
0.0
  0
LWPOLYLINE
  5
299
100
AcDbEntity
  8
Layer_1
 62
1
100
AcDbPolyline
 90
2
 70
1
 10
-0.423156
 20
264.521750
 30
0.0
 10
-0.423156
 20
264.521750
 30
0.0
  0
SPLINE
  5
29a
100
AcDbEntity
  8
Layer_1
 62
1
100
AcDbSpline
 70
8
 71
3
 72
8
 73
4
 74
0
 40
0
 40
0
 40
0
 40
0
 40
1
 40
1
 40
1
 40
1
 10
66.021004
 20
328.177870
 30
0.0
 10
66.021493
 20
328.309531
 30
0.0
 10
65.951533
 20
328.431401
 30
0.0
 10
65.837592
 20
328.497374
 30
0.0
  0
SPLINE
  5
29b
100
AcDbEntity
  8
Layer_1
 62
1
100
AcDbSpline
 70
8
 71
3
 72
8
 73
4
 74
0
 40
0
 40
0
 40
0
 40
0
 40
1
 40
1
 40
1
 40
1
 10
65.837592
 20
328.497374
 30
0.0
 10
65.723651
 20
328.563346
 30
0.0
 10
65.583128
 20
328.563346
 30
0.0
 10
65.469187
 20
328.497374
 30
0.0
  0
SPLINE
  5
29c
100
AcDbEntity
  8
Layer_1
 62
1
100
AcDbSpline
 70
8
 71
3
 72
8
 73
4
 74
0
 40
0
 40
0
 40
0
 40
0
 40
1
 40
1
 40
1
 40
1
 10
65.469187
 20
328.497374
 30
0.0
 10
65.355245
 20
328.431401
 30
0.0
 10
65.285286
 20
328.309531
 30
0.0
 10
65.285775
 20
328.177870
 30
0.0
  0
SPLINE
  5
29d
100
AcDbEntity
  8
Layer_1
 62
1
100
AcDbSpline
 70
8
 71
3
 72
8
 73
4
 74
0
 40
0
 40
0
 40
0
 40
0
 40
1
 40
1
 40
1
 40
1
 10
65.285775
 20
328.177870
 30
0.0
 10
65.286528
 20
327.975376
 30
0.0
 10
65.450894
 20
327.811620
 30
0.0
 10
65.653389
 20
327.811620
 30
0.0
  0
SPLINE
  5
29e
100
AcDbEntity
  8
Layer_1
 62
1
100
AcDbSpline
 70
8
 71
3
 72
8
 73
4
 74
0
 40
0
 40
0
 40
0
 40
0
 40
1
 40
1
 40
1
 40
1
 10
65.653389
 20
327.811620
 30
0.0
 10
65.855885
 20
327.811620
 30
0.0
 10
66.020251
 20
327.975376
 30
0.0
 10
66.021004
 20
328.177870
 30
0.0
  0
LWPOLYLINE
  5
29f
100
AcDbEntity
  8
Layer_1
 62
1
100
AcDbPolyline
 90
2
 70
1
 10
50.780826
 20
252.744058
 30
0.0
 10
50.780826
 20
252.744058
 30
0.0
  0
LWPOLYLINE
  5
2a0
100
AcDbEntity
  8
Layer_1
 62
1
100
AcDbPolyline
 90
2
 70
1
 10
66.021004
 20
328.177870
 30
0.0
 10
66.021004
 20
328.177870
 30
0.0
  0
ENDSEC
  0
SECTION
  2
OBJECTS
  0
DICTIONARY
  5
C
330
0
100
AcDbDictionary
  3
ACAD_GROUP
350
D
  3
ACAD_MLINESTYLE
350
17
  0
DICTIONARY
  5
D
330
C
100
AcDbDictionary
  0
DICTIONARY
  5
1A
330
C
100
AcDbDictionary
  0
DICTIONARY
  5
17
330
C
100
AcDbDictionary
  3
STANDARD
350
18
  0
DICTIONARY
  5
19
330
C
100
AcDbDictionary
  0
ENDSEC
  0
EOF
