<?xml version="1.0" encoding="UTF-8" standalone="no"?>
<!-- Created with Inkscape (http://www.inkscape.org/) -->

<svg
   xmlns:dc="http://purl.org/dc/elements/1.1/"
   xmlns:cc="http://creativecommons.org/ns#"
   xmlns:rdf="http://www.w3.org/1999/02/22-rdf-syntax-ns#"
   xmlns:svg="http://www.w3.org/2000/svg"
   xmlns="http://www.w3.org/2000/svg"
   xmlns:sodipodi="http://sodipodi.sourceforge.net/DTD/sodipodi-0.dtd"
   xmlns:inkscape="http://www.inkscape.org/namespaces/inkscape"
   width="300mm"
   height="600mm"
   viewBox="0 0 1062.9921 2125.9842"
   id="svg2"
   version="1.1"
   inkscape:version="0.91 r13725"
   sodipodi:docname="AtFAB_CiBii recreate_Inkscape_table_laser_3mm_v01.svg">
  <defs
     id="defs4" />
  <sodipodi:namedview
     id="base"
     pagecolor="#000000"
     bordercolor="#666666"
     borderopacity="1.0"
     inkscape:pageopacity="0"
     inkscape:pageshadow="2"
     inkscape:zoom="2.8284271"
     inkscape:cx="587.44149"
     inkscape:cy="1131.011"
     inkscape:document-units="px"
     inkscape:current-layer="layer1"
     showgrid="true"
     inkscape:window-width="1280"
     inkscape:window-height="737"
     inkscape:window-x="0"
     inkscape:window-y="30"
     inkscape:window-maximized="1"
     showguides="true">
    <inkscape:grid
       type="xygrid"
       id="grid5085"
       units="mm"
       spacingx="3.5433072"
       spacingy="3.5433072"
       empspacing="10"
       color="#cf32ff"
       opacity="0.25490196"
       empcolor="#3f3fff"
       empopacity="0.54901961" />
  </sodipodi:namedview>
  <metadata
     id="metadata7">
    <rdf:RDF>
      <cc:Work
         rdf:about="">
        <dc:format>image/svg+xml</dc:format>
        <dc:type
           rdf:resource="http://purl.org/dc/dcmitype/StillImage" />
        <dc:title />
      </cc:Work>
    </rdf:RDF>
  </metadata>
  <g
     inkscape:label="Layer 1"
     inkscape:groupmode="layer"
     id="layer1"
     transform="translate(0,1073.622)">
    <path
       inkscape:connector-curvature="0"
       d="m -87.118066,-71.28674 0,245.29979 a 54.851163,54.851163 0 0 0 50.296043,54.66172 l 294.358243,24.5298 a 54.851163,54.851163 0 0 0 59.10493,-48.9196 l 49.05984,-466.06861 a 54.851163,54.851163 0 0 0 -81.76359,-53.36612 l -343.418078,196.2389 a 54.851163,54.851163 0 0 0 -27.637388,47.62412"
       style="fill:none;stroke:#ff0000;stroke-width:0.28812;stroke-miterlimit:4;stroke-dasharray:none;stroke-opacity:1"
       id="path3517" />
    <path
       inkscape:connector-curvature="0"
       d="m 8.3957168,-41.919081 7.2320182,-14.475011 a 2.7425038,2.7425038 0 0 0 -4.905932,-2.452969 2.7458991,2.7458991 0 0 1 -3.6800003,1.229069 L -27.305642,-74.77867 a 2.7558992,2.7558992 0 0 1 -1.232856,-3.698552 2.7359141,2.7359141 0 1 0 -4.901547,-2.432143 l -7.224544,14.460097 a 2.7416744,2.7416744 0 1 0 4.904452,2.452223 2.7292459,2.7292459 0 0 1 3.674021,-1.213396 l 34.3474346,17.160678 a 2.7426682,2.742668 0 0 1 1.228487,3.677712 2.7425048,2.7425048 0 0 0 4.9059112,2.45297"
       style="fill:none;stroke:#ff0000;stroke-width:0.28812;stroke-miterlimit:4;stroke-dasharray:none;stroke-opacity:1"
       id="path3519" />
    <path
       inkscape:connector-curvature="0"
       d="m 263.26438,208.16616 7.23202,-14.4751 a 2.7425033,2.7425033 0 0 0 -4.90595,-2.4529 2.7458991,2.7458991 0 0 1 -3.67997,1.22902 l -34.34751,-17.16062 a 2.7558992,2.7558992 0 0 1 -1.23283,-3.69855 2.7359141,2.7359141 0 1 0 -4.90157,-2.43215 l -7.22455,14.46004 a 2.7416807,2.7416807 0 1 0 4.90445,2.45224 2.7292459,2.7292459 0 0 1 3.67404,-1.21342 l 34.34747,17.16074 a 2.7426682,2.742668 0 0 1 1.2285,3.67778 2.7425048,2.7425048 0 0 0 4.9059,2.45292"
       style="fill:none;stroke:#ff0000;stroke-width:0.28812;stroke-miterlimit:4;stroke-dasharray:none;stroke-opacity:1"
       id="path3521" />
    <path
       inkscape:connector-curvature="0"
       d="m -41.890679,175.18533 14.475018,7.23206 a 2.7425336,2.7425336 0 0 0 2.452974,-4.90597 2.7458991,2.7458991 0 0 1 -1.229092,-3.68002 l 17.1606711,-34.34749 a 2.7558992,2.7558992 0 0 1 3.6985376,-1.23284 2.7359141,2.7359141 0 1 0 2.4321375,-4.90156 l -14.4600382,-7.22455 a 2.7416849,2.7416849 0 0 0 -2.45225,4.90446 2.7292459,2.7292459 0 0 1 1.213396,3.67405 l -17.160657,34.34746 a 2.7426682,2.742668 0 0 1 -3.677717,1.22847 2.7425056,2.7425057 0 1 0 -2.45298,4.90593"
       style="fill:none;stroke:#ff0000;stroke-width:0.28812;stroke-miterlimit:4;stroke-dasharray:none;stroke-opacity:1"
       id="path3523" />
    <path
       inkscape:connector-curvature="0"
       d="m 281.78512,-226.86434 14.47502,7.23195 a 2.7425038,2.7425038 0 0 0 2.45294,-4.9059 2.7458991,2.7458991 0 0 1 -1.22905,-3.67999 l 17.16069,-34.34758 a 2.7558992,2.7558992 0 0 1 3.69855,-1.23275 2.7359582,2.7359582 0 0 0 2.43214,-4.90169 l -14.46009,-7.22453 a 2.741681,2.741681 0 1 0 -2.45225,4.90446 2.7292459,2.7292459 0 0 1 1.21341,3.67404 l -17.1607,34.34756 a 2.7426682,2.742668 0 0 1 -3.67768,1.22847 2.7425158,2.7425158 0 0 0 -2.45298,4.90596"
       style="fill:none;stroke:#ff0000;stroke-width:0.28812;stroke-miterlimit:4;stroke-dasharray:none;stroke-opacity:1"
       id="path3525" />
    <path
       inkscape:connector-curvature="0"
       d="m 27.96751,-41.820741 a 1.3027156,1.3027156 0 1 0 -2.60543,0 1.3027156,1.3027156 0 0 0 2.60543,0 z"
       style="fill:none;stroke:#ff0000;stroke-width:0.28812;stroke-miterlimit:4;stroke-dasharray:none;stroke-opacity:1"
       id="path3527" />
    <path
       inkscape:connector-curvature="0"
       d="m 57.450204,105.26838 7.236429,-14.472822 a 2.7425811,2.7425811 0 0 0 -4.906088,-2.453012 2.7425588,2.7425588 0 0 1 -3.679507,1.226525 L 23.966474,73.501795 30.160365,61.114058 a 2.7425588,2.7425588 0 0 1 3.679544,-1.22651 2.7425596,2.7425595 0 1 0 2.453019,-4.906037 L 21.82007,47.745108 a 2.7425589,2.7425589 0 0 0 -2.453002,4.906035 2.7425588,2.7425588 0 0 1 1.226527,3.679519 L 3.4224681,90.672925 a 2.7425588,2.7425588 0 0 1 -3.67956411,1.226506 2.7425588,2.7425588 0 1 0 -2.45300209,4.906031 l 14.4728091,7.236418 a 2.7425638,2.7425638 0 0 0 2.453015,-4.906036 2.7425588,2.7425588 0 0 1 -1.226518,-3.679532 l 6.193881,-12.387751 32.134573,16.067283 a 2.7425588,2.7425588 0 0 1 1.226529,3.679516 2.7425588,2.7425588 0 0 0 4.906013,2.45302"
       style="fill:none;stroke:#ff0000;stroke-width:0.28812;stroke-miterlimit:4;stroke-dasharray:none;stroke-opacity:1"
       id="path3529" />
    <path
       inkscape:connector-curvature="0"
       d="m 36.476905,18.431526 14.47281,7.23641 A 2.7425588,2.7425588 0 0 0 53.402735,20.7619 2.7425588,2.7425588 0 0 1 52.17622,17.082379 l 16.06727,-32.134551 12.387753,6.1938666 a 2.7425588,2.7425588 0 0 1 1.226514,3.6795336 2.7425588,2.7425588 0 1 0 4.906009,2.4530266 l 7.236427,-14.4728098 a 2.7425627,2.7425628 0 1 0 -4.906033,-2.453023 2.7425588,2.7425588 0 0 1 -3.679551,1.22651 L 51.072344,-35.596196 a 2.7425588,2.7425588 0 0 1 -1.226493,-3.679534 2.7425654,2.7425654 0 1 0 -4.906049,-2.453023 l -7.236393,14.472809 a 2.7425609,2.7425609 0 0 0 4.90604,2.453025 2.7425588,2.7425588 0 0 1 3.679522,-1.226516 l 12.387737,6.193885 -16.067259,32.134531 a 2.7425588,2.7425588 0 0 1 -3.679534,1.226513 2.7425588,2.7425588 0 0 0 -2.45301,4.906032"
       style="fill:none;stroke:#ff0000;stroke-width:0.28812;stroke-miterlimit:4;stroke-dasharray:none;stroke-opacity:1"
       id="path3531" />
    <path
       inkscape:connector-curvature="0"
       d="m 144.28705,84.29507 -14.4728,-7.236407 a 2.7425588,2.7425588 0 0 0 -2.453,4.906037 2.7425588,2.7425588 0 0 1 1.22649,3.679534 l -16.06727,32.134556 -12.38775,-6.1939 a 2.7425588,2.7425588 0 0 1 -1.22652,-3.6795 2.7425588,2.7425588 0 1 0 -4.906007,-2.45303 l -7.236427,14.4728 a 2.7425758,2.7425758 0 0 0 4.906066,2.45304 2.7425588,2.7425588 0 0 1 3.679504,-1.22652 l 34.342274,17.17113 a 2.7425588,2.7425588 0 0 1 1.22648,3.67952 2.7425729,2.7425729 0 1 0 4.90605,2.45303 l 7.23641,-14.47281 a 2.7425588,2.7425588 0 0 0 -4.90603,-2.45303 2.7425588,2.7425588 0 0 1 -3.67952,1.22652 l -12.38776,-6.19388 16.06728,-32.134538 a 2.7425588,2.7425588 0 0 1 3.67952,-1.226516 2.7425588,2.7425588 0 0 0 2.45301,-4.906036"
       style="fill:none;stroke:#ff0000;stroke-width:0.28812;stroke-miterlimit:4;stroke-dasharray:none;stroke-opacity:1"
       id="path3533" />
    <path
       inkscape:connector-curvature="0"
       d="m 123.31375,-2.5417748 -7.2364,14.4728118 a 2.7425645,2.7425645 0 1 0 4.90605,2.453011 2.7425588,2.7425588 0 0 1 3.67951,-1.226499 l 32.1346,16.06727 -6.19395,12.387741 a 2.7425588,2.7425588 0 0 1 -3.67951,1.226514 2.7425615,2.7425615 0 1 0 -2.45304,4.906034 l 14.47288,7.236403 a 2.7425598,2.7425599 0 0 0 2.45303,-4.906031 2.7425588,2.7425588 0 0 1 -1.22652,-3.679536 L 177.34152,12.05369 a 2.7425588,2.7425588 0 0 1 3.67951,-1.226511 2.7425588,2.7425588 0 1 0 2.45301,-4.9060346 l -14.47279,-7.2364065 a 2.7425588,2.7425588 0 0 0 -2.45301,4.9060349 2.7425588,2.7425588 0 0 1 1.2265,3.6795216 L 161.58089,19.658041 129.44629,3.5907728 a 2.7425588,2.7425588 0 0 1 -1.22647,-3.67953576 2.7425713,2.7425713 0 1 0 -4.90607,-2.45301184"
       style="fill:none;stroke:#ff0000;stroke-width:0.28812;stroke-miterlimit:4;stroke-dasharray:none;stroke-opacity:1"
       id="path3535" />
    <path
       inkscape:connector-curvature="0"
       d="m 525.79223,123.27692 a 1.3027342,1.3027342 0 1 0 -2.60544,0 1.3027342,1.3027342 0 0 0 2.60544,0 z"
       style="fill:none;stroke:#ff0000;stroke-width:0.28812;stroke-miterlimit:4;stroke-dasharray:none;stroke-opacity:1"
       id="path3537" />
    <path
       inkscape:connector-curvature="0"
       d="m 580.64337,-87.244311 a 1.3027311,1.3027311 0 1 0 -2.60545,0 1.3027311,1.3027311 0 0 0 2.60545,0 z"
       style="fill:none;stroke:#ff0000;stroke-width:0.28812;stroke-miterlimit:4;stroke-dasharray:none;stroke-opacity:1"
       id="path3539" />
    <path
       inkscape:connector-curvature="0"
       d="m 645.07387,-13.195232 a 1.3027162,1.3027162 0 1 0 -2.60542,0 1.3027162,1.3027162 0 0 0 2.60542,0 z"
       style="fill:none;stroke:#ff0000;stroke-width:0.28812;stroke-miterlimit:4;stroke-dasharray:none;stroke-opacity:1"
       id="path3541" />
    <path
       inkscape:connector-curvature="0"
       d="m 608.06897,197.326 a 1.30272,1.30272 0 1 0 -2.60544,0 1.30272,1.30272 0 0 0 2.60544,0 z"
       style="fill:none;stroke:#ff0000;stroke-width:0.28812;stroke-miterlimit:4;stroke-dasharray:none;stroke-opacity:1"
       id="path3543" />
    <path
       inkscape:connector-curvature="0"
       d="m 409.43919,-132.49651 0,164.553489 27.42556,0 17.03864,-68.154534 a 54.851163,54.851163 0 0 1 53.21346,-41.547798 l 176.57814,0 0,-19.197912 a 2.7425588,2.7425588 0 0 0 -2.74254,-2.742567 2.7425588,2.7425588 0 0 1 0,-5.485098 l 13.43851,0 0,-27.42558 -54.85116,0 0,13.43854 a 2.7425643,2.7425642 0 0 1 -5.4851,0 2.7425588,2.7425588 0 0 0 -2.74256,-2.74258 l -16.31821,0 a 2.7425588,2.7425588 0 0 0 -2.74257,2.74258 2.74257,2.74257 0 0 1 -5.48514,0 l 0,-13.43854 -22.07757,0 0,19.1979 a 2.7425588,2.7425588 0 0 0 2.74256,2.74255 2.742565,2.742565 0 0 1 0,5.48513 l -16.1811,0 a 2.742565,2.742565 0 1 1 0,-5.48513 2.7425588,2.7425588 0 0 0 2.74254,-2.74255 l 0,-19.1979 -22.07759,0 0,13.43854 a 2.7425602,2.7425602 0 0 1 -5.4851,0 2.7425588,2.7425588 0 0 0 -2.74255,-2.74258 l -71.16941,0 a 2.7425588,2.7425588 0 0 0 -2.74253,2.74258 2.7425675,2.7425674 0 0 1 -5.48511,0 l 0,-13.43854 -54.85117,0"
       style="fill:none;stroke:#ff0000;stroke-width:0.28812;stroke-miterlimit:4;stroke-dasharray:none;stroke-opacity:1"
       id="path3545" />
    <path
       inkscape:connector-curvature="0"
       d="m 539.4168,-22.794196 121.72701,0 a 54.851163,54.851163 0 0 0 53.21345,-41.547795 l 17.03861,-68.154519 27.42559,0 0,164.553489 -54.85115,0 0,-13.438536 a 2.7425663,2.7425661 0 1 0 -5.48513,0 2.7425588,2.7425588 0 0 1 -2.74255,2.742554 l -16.31824,0 a 2.7425588,2.7425588 0 0 1 -2.74252,-2.742554 2.7425759,2.7425759 0 1 0 -5.48514,0 l 0,13.438536 -22.07758,0 0,-19.197912 a 2.7425588,2.7425588 0 0 1 2.74256,-2.742555 2.7425601,2.7425601 0 0 0 0,-5.4851199 l -16.1811,0 a 2.7425601,2.7425601 0 1 0 0,5.4851199 2.7425588,2.7425588 0 0 1 2.74254,2.742555 l 0,19.197912 -22.07757,0 0,-13.438536 a 2.7425648,2.7425648 0 1 0 -5.48512,0 2.7425588,2.7425588 0 0 1 -2.74257,2.742554 l -16.31822,0 a 2.7425588,2.7425588 0 0 1 -2.74254,-2.742554 2.7425711,2.7425711 0 1 0 -5.48513,0 l 0,13.438536 -54.85115,0 0,-27.4255869 13.43852,0 a 2.7425616,2.7425616 0 0 0 0,-5.48512076 2.7425588,2.7425588 0 0 1 -2.74257,-2.74255414 l 0,-19.1979132"
       style="fill:none;stroke:#ff0000;stroke-width:0.28812;stroke-miterlimit:4;stroke-dasharray:none;stroke-opacity:1"
       id="path3547" />
    <path
       inkscape:connector-curvature="0"
       d="m 628.84385,132.87586 -121.727,0 a 54.851163,54.851163 0 0 0 -53.21346,41.54778 l -17.03864,68.15447 -27.42556,0 0,-164.553407 54.85117,0 0,13.438528 a 2.7425675,2.7425674 0 0 0 5.48511,0 2.7425588,2.7425588 0 0 1 2.74253,-2.742569 l 16.31825,0 a 2.7425588,2.7425588 0 0 1 2.74255,2.742569 2.7425626,2.7425624 0 0 0 5.48511,0 l 0,-13.438528 22.07759,0 0,19.197899 a 2.7425588,2.7425588 0 0 1 -2.74255,2.742577 2.7425588,2.7425588 0 0 0 0,5.485101 l 16.18108,0 a 2.7425588,2.7425588 0 0 0 0,-5.485101 2.7425588,2.7425588 0 0 1 -2.74254,-2.742577 l 0,-19.197899 22.07757,0 0,13.438528 a 2.7425808,2.7425809 0 0 0 5.48514,0 2.7425588,2.7425588 0 0 1 2.74253,-2.742569 l 16.31826,0 a 2.7425588,2.7425588 0 0 1 2.74253,2.742569 2.7425693,2.7425693 0 0 0 5.48512,0 l 0,-13.438528 54.85116,0 0,27.425577 -13.43854,0 a 2.742565,2.742565 0 1 0 0,5.48513 2.7425588,2.7425588 0 0 1 2.74259,2.74255 l 0,19.1979"
       style="fill:none;stroke:#ff0000;stroke-width:0.28812;stroke-miterlimit:4;stroke-dasharray:none;stroke-opacity:1"
       id="path3549" />
    <path
       inkscape:connector-curvature="0"
       d="m 941.2193,242.57811 0,-164.553407 -27.42553,0 -17.03865,68.154517 a 54.851163,54.851163 0 0 1 -53.21158,41.54784 l -341.13165,0 0,19.19793 a 2.7425588,2.7425588 0 0 0 2.74258,2.74244 2.7425842,2.7425842 0 0 1 0,5.48515 l -13.43855,0 0,27.42553 54.85115,0 0,-13.43844 a 2.7425719,2.7425719 0 1 1 5.48514,0 2.7425588,2.7425588 0 0 0 2.74254,2.74259 l 16.31824,0 a 2.7425588,2.7425588 0 0 0 2.74254,-2.74259 2.7425716,2.7425716 0 1 1 5.48514,0 l 0,13.43844 22.07758,0 0,-19.1978 a 2.7425588,2.7425588 0 0 0 -2.74258,-2.74257 2.7425878,2.7425878 0 1 1 0,-5.48516 l 16.18113,0 a 2.7425878,2.7425878 0 0 1 0,5.48516 2.7425588,2.7425588 0 0 0 -2.74258,2.74257 l 0,19.1978 22.07761,0 0,-13.43844 a 2.7425711,2.7425711 0 1 1 5.48514,0 2.7425588,2.7425588 0 0 0 2.74254,2.74259 l 235.72081,0 a 2.7425588,2.7425588 0 0 0 2.74259,-2.74259 2.7426109,2.742611 0 1 1 5.48518,0 l 0,13.43844 54.85121,0"
       style="fill:none;stroke:#ff0000;stroke-width:0.28812;stroke-miterlimit:4;stroke-dasharray:none;stroke-opacity:1"
       id="path3551" />
    <path
       inkscape:connector-curvature="0"
       d="m -1.4993728,115.08046 a 1.3027268,1.3027268 0 1 0 -2.6054525,0 1.3027268,1.3027268 0 0 0 2.6054525,0 z"
       style="fill:none;stroke:#ff0000;stroke-width:0.28812;stroke-miterlimit:4;stroke-dasharray:none;stroke-opacity:1"
       id="path3553" />
    <path
       inkscape:connector-curvature="0"
       d="m 179.93206,156.81244 a 1.3027156,1.3027156 0 1 0 -2.60541,0 1.3027156,1.3027156 0 0 0 2.60541,0 z"
       style="fill:none;stroke:#ff0000;stroke-width:0.28812;stroke-miterlimit:4;stroke-dasharray:none;stroke-opacity:1"
       id="path3555" />
    <path
       inkscape:connector-curvature="0"
       d="m 233.93269,-110.47272 a 1.302579,1.302579 0 1 0 -2.60514,0 1.302579,1.302579 0 0 0 2.60514,0 z"
       style="fill:none;stroke:#ff0000;stroke-width:0.28812;stroke-miterlimit:4;stroke-dasharray:none;stroke-opacity:1"
       id="path3557" />
  </g>
</svg>
