<?xml version="1.0" encoding="UTF-8" standalone="no"?>
<!-- Created with Inkscape (http://www.inkscape.org/) -->

<svg
   xmlns:dc="http://purl.org/dc/elements/1.1/"
   xmlns:cc="http://creativecommons.org/ns#"
   xmlns:rdf="http://www.w3.org/1999/02/22-rdf-syntax-ns#"
   xmlns:svg="http://www.w3.org/2000/svg"
   xmlns="http://www.w3.org/2000/svg"
   xmlns:sodipodi="http://sodipodi.sourceforge.net/DTD/sodipodi-0.dtd"
   xmlns:inkscape="http://www.inkscape.org/namespaces/inkscape"
   width="300mm"
   height="600mm"
   viewBox="0 0 1062.9921 2125.9842"
   id="svg2"
   version="1.1"
   inkscape:version="0.91 r13725"
   sodipodi:docname="AtFAB_CiBii_recreate_Inkscape_table_v01_COREL.svg">
  <defs
     id="defs4" />
  <sodipodi:namedview
     id="base"
     pagecolor="#000000"
     bordercolor="#666666"
     borderopacity="1.0"
     inkscape:pageopacity="0"
     inkscape:pageshadow="2"
     inkscape:zoom="0.5"
     inkscape:cx="124.11101"
     inkscape:cy="1007.8152"
     inkscape:document-units="px"
     inkscape:current-layer="layer1"
     showgrid="true"
     inkscape:window-width="1280"
     inkscape:window-height="737"
     inkscape:window-x="0"
     inkscape:window-y="30"
     inkscape:window-maximized="1"
     showguides="true">
    <inkscape:grid
       type="xygrid"
       id="grid5085"
       units="mm"
       spacingx="3.5433072"
       spacingy="3.5433072"
       empspacing="10"
       color="#cf32ff"
       opacity="0.25490196"
       empcolor="#3f3fff"
       empopacity="0.54901961" />
  </sodipodi:namedview>
  <metadata
     id="metadata7">
    <rdf:RDF>
      <cc:Work
         rdf:about="">
        <dc:format>image/svg+xml</dc:format>
        <dc:type
           rdf:resource="http://purl.org/dc/dcmitype/StillImage" />
        <dc:title></dc:title>
      </cc:Work>
    </rdf:RDF>
  </metadata>
  <g
     inkscape:label="Layer 1"
     inkscape:groupmode="layer"
     id="layer1"
     transform="translate(0,1073.622)">
    <path
       inkscape:connector-curvature="0"
       d="m -302.0637,-87.513311 0,348.054871 a 77.828091,77.828091 0 0 0 71.36482,77.55928 l 417.66372,34.80525 a 77.828091,77.828091 0 0 0 83.86374,-69.41184 l 69.61081,-661.30283 a 77.828091,77.828091 0 0 0 -116.01403,-75.72096 l -487.2745,278.44256 a 77.828091,77.828091 0 0 0 -39.21456,67.573669"
       style="fill:none;stroke:#ff0000;stroke-width:0.09;stroke-miterlimit:4;stroke-dasharray:none;stroke-opacity:1"
       id="path3517" />
    <path
       inkscape:connector-curvature="0"
       d="m -166.5396,-45.843659 10.26148,-20.538535 a 3.8913274,3.8913274 0 0 0 -6.961,-3.480508 3.8961451,3.8961451 0 0 1 -5.22154,1.743922 l -48.73545,-24.349216 a 3.9103341,3.9103341 0 0 1 -1.74929,-5.247859 3.8819773,3.8819773 0 1 0 -6.9548,-3.450955 l -10.25087,20.51737 a 3.8901505,3.8901505 0 1 0 6.95891,3.479447 3.8725158,3.8725158 0 0 1 5.21305,-1.721681 l 48.73544,24.349215 a 3.8915604,3.8915601 0 0 1 1.74309,5.218291 3.8913287,3.8913287 0 0 0 6.96098,3.480509"
       style="fill:none;stroke:#ff0000;stroke-width:0.09;stroke-miterlimit:4;stroke-dasharray:none;stroke-opacity:1"
       id="path3519" />
    <path
       inkscape:connector-curvature="0"
       d="M 195.09249,309.00125 205.354,288.4626 a 3.8913267,3.8913267 0 0 0 -6.96104,-3.4804 3.8961451,3.8961451 0 0 1 -5.22152,1.74385 L 144.43593,262.3769 a 3.9103341,3.9103341 0 0 1 -1.74928,-5.24784 3.8819773,3.8819773 0 1 0 -6.9548,-3.45098 l -10.25089,20.51729 a 3.8901584,3.8901584 0 1 0 6.95891,3.47948 3.8725158,3.8725158 0 0 1 5.21307,-1.72171 l 48.73548,24.3493 a 3.8915604,3.8915601 0 0 1 1.74311,5.21839 3.8913287,3.8913287 0 0 0 6.96096,3.48042"
       style="fill:none;stroke:#ff0000;stroke-width:0.09;stroke-miterlimit:4;stroke-dasharray:none;stroke-opacity:1"
       id="path3521" />
    <path
       inkscape:connector-curvature="0"
       d="m -237.89077,262.20489 20.53855,10.26155 a 3.8913697,3.8913697 0 0 0 3.48051,-6.96108 3.8961451,3.8961451 0 0 1 -1.74395,-5.22154 l 24.34922,-48.7355 a 3.9103341,3.9103341 0 0 1 5.24783,-1.74929 3.8819773,3.8819773 0 1 0 3.45095,-6.9548 l -20.51729,-10.25089 a 3.8901622,3.8901622 0 0 0 -3.47949,6.95892 3.8725158,3.8725158 0 0 1 1.72169,5.21308 l -24.3492,48.73549 a 3.8915604,3.8915601 0 0 1 -5.2183,1.74307 3.8913298,3.8913299 0 1 0 -3.48052,6.96099"
       style="fill:none;stroke:#ff0000;stroke-width:0.09;stroke-miterlimit:4;stroke-dasharray:none;stroke-opacity:1"
       id="path3523" />
    <path
       inkscape:connector-curvature="0"
       d="m 221.3715,-308.26174 20.53853,10.2614 a 3.8913274,3.8913274 0 0 0 3.4805,-6.96098 3.8961451,3.8961451 0 0 1 -1.74391,-5.22152 l 24.34924,-48.73562 a 3.9103341,3.9103341 0 0 1 5.24784,-1.74915 3.8820357,3.8820356 0 0 0 3.45097,-6.95497 l -20.51737,-10.25087 a 3.8901551,3.8901551 0 1 0 -3.47948,6.95891 3.8725158,3.8725158 0 0 1 1.72171,5.21309 l -24.34927,48.73562 a 3.8915604,3.8915601 0 0 1 -5.21824,1.74306 3.891344,3.8913441 0 1 0 -3.48052,6.96103"
       style="fill:none;stroke:#ff0000;stroke-width:0.09;stroke-miterlimit:4;stroke-dasharray:none;stroke-opacity:1"
       id="path3525" />
    <path
       inkscape:connector-curvature="0"
       d="m -138.76927,-45.704124 a 1.8484176,1.8484176 0 1 0 -3.69683,0 1.8484176,1.8484176 0 0 0 3.69683,0 z"
       style="fill:none;stroke:#ff0000;stroke-width:0.09;stroke-miterlimit:4;stroke-dasharray:none;stroke-opacity:1"
       id="path3527" />
    <path
       inkscape:connector-curvature="0"
       d="m -96.936391,163.00004 10.26774,-20.53544 a 3.8914369,3.8914369 0 0 0 -6.961228,-3.48056 3.8914053,3.8914053 0 0 1 -5.22084,1.74029 l -45.595601,-22.79778 8.78849,-17.57691 a 3.8914053,3.8914053 0 0 1 5.22089,-1.740293 3.8914065,3.8914064 0 1 0 3.48058,-6.961153 L -147.49184,81.38049 a 3.8914057,3.8914057 0 0 0 -3.48056,6.961151 3.8914053,3.8914053 0 0 1 1.74032,5.220856 l -24.36405,48.728093 a 3.8914053,3.8914053 0 0 1 -5.22091,1.74029 3.8914053,3.8914053 0 1 0 -3.48055,6.96115 l 20.5354,10.26772 a 3.8914112,3.8914112 0 1 0 3.48058,-6.96117 3.8914053,3.8914053 0 0 1 -1.74031,-5.22087 l 8.78848,-17.57692 45.59561,22.79779 a 3.8914053,3.8914053 0 0 1 1.74032,5.22086 3.8914053,3.8914053 0 0 0 6.961119,3.4806"
       style="fill:none;stroke:#ff0000;stroke-width:0.09;stroke-miterlimit:4;stroke-dasharray:none;stroke-opacity:1"
       id="path3529" />
    <path
       inkscape:connector-curvature="0"
       d="m -126.69532,39.78757 20.53541,10.267712 a 3.8914053,3.8914053 0 0 0 3.48058,-6.961155 3.8914053,3.8914053 0 0 1 -1.7403,-5.220859 l 22.797789,-45.5955804 17.576931,8.7884516 a 3.8914053,3.8914053 0 0 1 1.740295,5.2208752 3.8914053,3.8914053 0 1 0 6.961117,3.4805892 l 10.267736,-20.5354106 a 3.8914111,3.8914112 0 1 0 -6.961151,-3.480584 3.8914053,3.8914053 0 0 1 -5.220899,1.740291 l -48.728098,-24.364042 a 3.8914053,3.8914053 0 0 1 -1.74027,-5.220877 3.8914148,3.8914148 0 1 0 -6.96117,-3.480586 l -10.26769,20.535411 a 3.8914079,3.8914079 0 0 0 6.96116,3.480585 3.8914053,3.8914053 0 0 1 5.22086,-1.740296 l 17.57691,8.788476 -22.79777,45.595555 a 3.8914053,3.8914053 0 0 1 -5.22087,1.740293 3.8914053,3.8914053 0 0 0 -3.48057,6.961151"
       style="fill:none;stroke:#ff0000;stroke-width:0.09;stroke-miterlimit:4;stroke-dasharray:none;stroke-opacity:1"
       id="path3531" />
    <path
       inkscape:connector-curvature="0"
       d="M 26.276056,133.24108 5.7406424,122.97338 a 3.8914053,3.8914053 0 0 0 -3.4805293,6.96115 3.8914053,3.8914053 0 0 1 1.7402454,5.22087 l -22.7977695,45.59559 -17.576939,-8.78848 a 3.8914053,3.8914053 0 0 1 -1.740298,-5.22085 3.8914053,3.8914053 0 1 0 -6.961114,-3.4806 l -10.267736,20.53541 a 3.8914278,3.8914278 0 0 0 6.961197,3.48059 3.8914053,3.8914053 0 0 1 5.220833,-1.74029 l 48.7281077,24.36406 a 3.8914053,3.8914053 0 0 1 1.7402582,5.22084 3.8914253,3.8914253 0 1 0 6.9611741,3.48059 l 10.2677,-20.53541 a 3.8914053,3.8914053 0 0 0 -6.961147,-3.48058 3.8914053,3.8914053 0 0 1 -5.220864,1.74029 L -5.2231636,187.5381 17.574625,141.94252 a 3.8914053,3.8914053 0 0 1 5.22085,-1.74029 3.8914053,3.8914053 0 0 0 3.480581,-6.96115"
       style="fill:none;stroke:#ff0000;stroke-width:0.09;stroke-miterlimit:4;stroke-dasharray:none;stroke-opacity:1"
       id="path3533" />
    <path
       inkscape:connector-curvature="0"
       d="M -3.4828798,10.028638 -13.750568,30.564052 a 3.8914135,3.8914135 0 1 0 6.9611766,3.480565 3.8914053,3.8914053 0 0 1 5.2208237,-1.740272 L 44.027087,55.102126 35.238532,72.679044 a 3.8914053,3.8914053 0 0 1 -5.220853,1.740295 3.8914078,3.8914078 0 0 0 -3.480593,6.961151 l 20.535487,10.267704 a 3.8914068,3.8914069 0 0 0 3.480591,-6.96115 3.8914053,3.8914053 0 0 1 -1.740307,-5.220879 L 73.176913,30.738084 a 3.8914053,3.8914053 0 0 1 5.220836,-1.740293 3.8914053,3.8914053 0 1 0 3.480555,-6.96115 L 61.342942,11.768932 a 3.8914053,3.8914053 0 0 0 -3.480579,6.961153 3.8914053,3.8914053 0 0 1 1.740283,5.220858 L 50.814197,41.527864 5.2185565,18.730085 A 3.8914053,3.8914053 0 0 1 3.4783121,13.509207 3.8914206,3.8914206 0 1 0 -3.4828798,10.028638"
       style="fill:none;stroke:#ff0000;stroke-width:0.09;stroke-miterlimit:4;stroke-dasharray:none;stroke-opacity:1"
       id="path3535" />
    <path
       inkscape:connector-curvature="0"
       d="m 567.59218,188.55226 a 1.8484442,1.8484442 0 1 0 -3.69686,0 1.8484442,1.8484442 0 0 0 3.69686,0 z"
       style="fill:none;stroke:#ff0000;stroke-width:0.09;stroke-miterlimit:4;stroke-dasharray:none;stroke-opacity:1"
       id="path3537" />
    <path
       inkscape:connector-curvature="0"
       d="m 645.42025,-110.15544 a 1.84843,1.84843 0 1 0 -3.69686,0 1.84843,1.84843 0 0 0 3.69686,0 z"
       style="fill:none;stroke:#ff0000;stroke-width:0.09;stroke-miterlimit:4;stroke-dasharray:none;stroke-opacity:1"
       id="path3539" />
    <path
       inkscape:connector-curvature="0"
       d="m 736.84039,-5.0875085 a 1.8484187,1.8484187 0 1 0 -3.69681,0 1.8484187,1.8484187 0 0 0 3.69681,0 z"
       style="fill:none;stroke:#ff0000;stroke-width:0.09;stroke-miterlimit:4;stroke-dasharray:none;stroke-opacity:1"
       id="path3541" />
    <path
       inkscape:connector-curvature="0"
       d="m 684.3343,293.62021 a 1.8484176,1.8484176 0 1 0 -3.69683,0 1.8484176,1.8484176 0 0 0 3.69683,0 z"
       style="fill:none;stroke:#ff0000;stroke-width:0.09;stroke-miterlimit:4;stroke-dasharray:none;stroke-opacity:1"
       id="path3543" />
    <path
       inkscape:connector-curvature="0"
       d="m 402.49933,-174.3636 0,233.484269 38.91401,0 24.17607,-96.704188 a 77.828091,77.828091 0 0 1 75.50435,-58.952 l 250.54599,0 0,-27.239831 a 3.8914053,3.8914053 0 0 0 -3.89136,-3.89142 3.8914053,3.8914053 0 0 1 0,-7.7828 l 19.06785,0 0,-38.91403 -77.82808,0 0,19.06788 a 3.8914132,3.891413 0 0 1 -7.7828,0 3.8914053,3.8914053 0 0 0 -3.8914,-3.89143 l -23.15385,0 a 3.8914053,3.8914053 0 0 0 -3.89141,3.89143 3.891415,3.891415 0 0 1 -7.78283,0 l 0,-19.06788 -31.32581,0 0,27.23981 a 3.8914053,3.8914053 0 0 0 3.89142,3.89142 3.8914092,3.8914092 0 0 1 0,7.7828 l -22.95929,0 a 3.8914092,3.8914092 0 1 1 0,-7.7828 3.8914053,3.8914053 0 0 0 3.89139,-3.89142 l 0,-27.23981 -31.32583,0 0,19.06788 a 3.8914075,3.8914075 0 0 1 -7.78278,0 3.8914053,3.8914053 0 0 0 -3.89139,-3.89143 l -100.98197,0 a 3.8914053,3.8914053 0 0 0 -3.89137,3.89143 3.8914146,3.8914145 0 0 1 -7.78282,0 l 0,-19.06788 -77.82809,0"
       style="fill:none;stroke:#ff0000;stroke-width:0.09;stroke-miterlimit:4;stroke-dasharray:none;stroke-opacity:1"
       id="path3545" />
    <path
       inkscape:connector-curvature="0"
       d="m 586.92404,-18.707439 172.71793,0 a 77.828091,77.828091 0 0 0 75.50436,-58.951997 l 24.17603,-96.704164 38.91405,0 0,233.484269 -77.82809,0 0,-19.067884 a 3.8914132,3.891413 0 1 0 -7.78281,0 3.8914053,3.8914053 0 0 1 -3.8914,3.891399 l -23.15386,0 a 3.8914053,3.8914053 0 0 1 -3.89136,-3.891399 3.8914202,3.8914202 0 1 0 -7.78284,0 l 0,19.067884 -31.3258,0 0,-27.239841 a 3.8914053,3.8914053 0 0 1 3.89138,-3.891399 3.8914073,3.8914073 0 0 0 0,-7.782813 l -22.95927,0 a 3.8914073,3.8914073 0 1 0 0,7.782813 3.8914053,3.8914053 0 0 1 3.89137,3.891399 l 0,27.239841 -31.32578,0 0,-19.067884 a 3.8914141,3.8914141 0 1 0 -7.78282,0 3.8914053,3.8914053 0 0 1 -3.8914,3.891399 l -23.15386,0 a 3.8914053,3.8914053 0 0 1 -3.89138,-3.891399 3.891415,3.891415 0 1 0 -7.78283,0 l 0,19.067884 -77.82808,0 0,-38.914053 19.06789,0 a 3.8914093,3.8914093 0 0 0 0,-7.782816 3.8914053,3.8914053 0 0 1 -3.89143,-3.8913986 l 0,-27.2398404"
       style="fill:none;stroke:#ff0000;stroke-width:0.09;stroke-miterlimit:4;stroke-dasharray:none;stroke-opacity:1"
       id="path3547" />
    <path
       inkscape:connector-curvature="0"
       d="m 713.8117,202.17216 -172.71794,0 a 77.828091,77.828091 0 0 0 -75.50435,58.95198 l -24.17607,96.7041 -38.91401,0 0,-233.48416 77.82809,0 0,19.06787 a 3.8914146,3.8914145 0 0 0 7.78282,0 3.8914053,3.8914053 0 0 1 3.89137,-3.89141 l 23.15389,0 a 3.8914053,3.8914053 0 0 1 3.89139,3.89141 3.891411,3.8914106 0 0 0 7.7828,0 l 0,-19.06787 31.32581,0 0,27.23982 a 3.8914053,3.8914053 0 0 1 -3.8914,3.89142 3.8914053,3.8914053 0 0 0 0,7.7828 l 22.95925,0 a 3.8914053,3.8914053 0 0 0 0,-7.7828 3.8914053,3.8914053 0 0 1 -3.89137,-3.89142 l 0,-27.23982 31.32577,0 0,19.06787 a 3.8914365,3.8914366 0 0 0 7.78287,0 3.8914053,3.8914053 0 0 1 3.89135,-3.89141 l 23.15389,0 a 3.8914053,3.8914053 0 0 1 3.89138,3.89141 3.8914205,3.8914205 0 0 0 7.78282,0 l 0,-19.06787 77.8281,0 0,38.91404 -19.0679,0 a 3.8914079,3.8914079 0 1 0 0,7.78281 3.8914053,3.8914053 0 0 1 3.89144,3.8914 l 0,27.23983"
       style="fill:none;stroke:#ff0000;stroke-width:0.09;stroke-miterlimit:4;stroke-dasharray:none;stroke-opacity:1"
       id="path3549" />
    <path
       inkscape:connector-curvature="0"
       d="m 1157.0399,357.82824 0,-233.48416 -38.9139,0 -24.1762,96.70416 a 77.828091,77.828091 0 0 1 -75.5016,58.95205 l -484.03027,0 0,27.23986 a 3.8914053,3.8914053 0 0 0 3.89142,3.89123 3.8914416,3.8914416 0 0 1 0,7.78288 l -19.06791,0 0,38.91398 77.82808,0 0,-19.06774 a 3.891425,3.8914251 0 1 1 7.78285,0 3.8914053,3.8914053 0 0 0 3.89138,3.89144 l 23.15387,0 a 3.8914053,3.8914053 0 0 0 3.8914,-3.89144 3.8914235,3.8914236 0 1 1 7.78284,0 l 0,19.06774 31.32578,0 0,-27.23968 a 3.8914053,3.8914053 0 0 0 -3.89145,-3.89141 3.8914465,3.8914465 0 1 1 0,-7.78289 l 22.95934,0 a 3.8914465,3.8914465 0 0 1 0,7.78289 3.8914053,3.8914053 0 0 0 -3.89142,3.89141 l 0,27.23968 31.32582,0 0,-19.06774 a 3.8914141,3.8914141 0 1 1 7.78282,0 3.8914053,3.8914053 0 0 0 3.89139,3.89144 l 334.46336,0 a 3.8914053,3.8914053 0 0 0 3.8914,-3.89144 3.8914794,3.8914795 0 1 1 7.7829,0 l 0,19.06774 77.8281,0"
       style="fill:none;stroke:#ff0000;stroke-width:0.09;stroke-miterlimit:4;stroke-dasharray:none;stroke-opacity:1"
       id="path3551" />
    <path
       inkscape:connector-curvature="0"
       d="m -180.5797,176.92233 a 1.8484324,1.8484324 0 1 0 -3.69686,0 1.8484324,1.8484324 0 0 0 3.69686,0 z"
       style="fill:none;stroke:#ff0000;stroke-width:0.09;stroke-miterlimit:4;stroke-dasharray:none;stroke-opacity:1"
       id="path3553" />
    <path
       inkscape:connector-curvature="0"
       d="m 76.852603,236.13568 a 1.8484176,1.8484176 0 1 0 -3.696809,0 1.8484176,1.8484176 0 0 0 3.696809,0 z"
       style="fill:none;stroke:#ff0000;stroke-width:0.09;stroke-miterlimit:4;stroke-dasharray:none;stroke-opacity:1"
       id="path3555" />
    <path
       inkscape:connector-curvature="0"
       d="m 153.4739,-143.11414 a 1.8482221,1.8482221 0 1 0 -3.69644,0 1.8482221,1.8482221 0 0 0 3.69644,0 z"
       style="fill:none;stroke:#ff0000;stroke-width:0.09;stroke-miterlimit:4;stroke-dasharray:none;stroke-opacity:1"
       id="path3557" />
  </g>
</svg>
