  0
SECTION
  2
HEADER
  9
$ACADVER
  1
AC1014
  9
$HANDSEED
  5
FFFF
  9
$MEASUREMENT
 70
     1
  0
ENDSEC
  0
SECTION
  2
TABLES
  0
TABLE
  2
VPORT
  5
8
330
0
100
AcDbSymbolTable
 70
     4
  0
VPORT
  5
2E
330
8
100
AcDbSymbolTableRecord
100
AcDbViewportTableRecord
  2
*ACTIVE
 70
     0
 10
0.0
 20
0.0
 11
1.0
 21
1.0
 12
210.0
 22
148.5
 13
0.0
 23
0.0
 14
10.0
 24
10.0
 15
10.0
 25
10.0
 16
0.0
 26
0.0
 36
1.0
 17
0.0
 27
0.0
 37
0.0
 40
341.0
 41
1.24
 42
50.0
 43
0.0
 44
0.0
 50
0.0
 51
0.0
 71
     0
 72
   100
 73
     1
 74
     3
 75
     0
 76
     0
 77
     0
 78
     0
  0
ENDTAB
  0
TABLE
  2
LTYPE
  5
5
330
0
100
AcDbSymbolTable
 70
     1
  0
LTYPE
  5
14
330
5
100
AcDbSymbolTableRecord
100
AcDbLinetypeTableRecord
  2
BYBLOCK
 70
     0
  3

 72
    65
 73
     0
 40
0.0
  0
LTYPE
  5
15
330
5
100
AcDbSymbolTableRecord
100
AcDbLinetypeTableRecord
  2
BYLAYER
 70
     0
  3

 72
    65
 73
     0
 40
0.0
  0
LTYPE
  5
16
330
5
100
AcDbSymbolTableRecord
100
AcDbLinetypeTableRecord
  2
CONTINUOUS
 70
     0
  3
Solid line
 72
    65
 73
     0
 40
0.0
  0
ENDTAB
  0
TABLE
  2
LAYER
  5
2
100
AcDbSymbolTable
 70
2
  0
LAYER
  5
50
100
AcDbSymbolTableRecord
100
AcDbLayerTableRecord
  2
0
 70
0
  6
CONTINUOUS
  0
LAYER
  5
51
100
AcDbSymbolTableRecord
100
AcDbLayerTableRecord
  2
Layer_1
 70
0
  6
CONTINUOUS
  0
ENDTAB
  0
TABLE
  2
STYLE
  5
3
330
0
100
AcDbSymbolTable
 70
     1
  0
STYLE
  5
11
330
3
100
AcDbSymbolTableRecord
100
AcDbTextStyleTableRecord
  2
STANDARD
 70
     0
 40
0.0
 41
1.0
 50
0.0
 71
     0
 42
2.5
  3
txt
  4

  0
ENDTAB
  0
TABLE
  2
VIEW
  5
6
330
0
100
AcDbSymbolTable
 70
     0
  0
ENDTAB
  0
TABLE
  2
UCS
  5
7
330
0
100
AcDbSymbolTable
 70
     0
  0
ENDTAB
  0
TABLE
  2
APPID
  5
9
330
0
100
AcDbSymbolTable
 70
     2
  0
APPID
  5
12
330
9
100
AcDbSymbolTableRecord
100
AcDbRegAppTableRecord
  2
ACAD
 70
     0
  0
ENDTAB
  0
TABLE
  2
DIMSTYLE
  5
A
330
0
100
AcDbSymbolTable
 70
     1
  0
DIMSTYLE
105
27
330
A
100
AcDbSymbolTableRecord
100
AcDbDimStyleTableRecord
  2
ISO-25
 70
     0
  3

  4

  5

  6

  7

 40
1.0
 41
2.5
 42
0.625
 43
3.75
 44
1.25
 45
0.0
 46
0.0
 47
0.0
 48
0.0
140
2.5
141
2.5
142
0.0
143
0.03937007874016
144
1.0
145
0.0
146
1.0
147
0.625
 71
     0
 72
     0
 73
     0
 74
     0
 75
     0
 76
     0
 77
     1
 78
     8
170
     0
171
     3
172
     1
173
     0
174
     0
175
     0
176
     0
177
     0
178
     0
270
     2
271
     2
272
     2
273
     2
274
     3
340
11
275
     0
280
     0
281
     0
282
     0
283
     0
284
     8
285
     0
286
     0
287
     3
288
     0
  0
ENDTAB
  0
TABLE
  2
BLOCK_RECORD
  5
1
330
0
100
AcDbSymbolTable
 70
     1
  0
BLOCK_RECORD
  5
1F
330
1
100
AcDbSymbolTableRecord
100
AcDbBlockTableRecord
  2
*MODEL_SPACE
  0
BLOCK_RECORD
  5
1B
330
1
100
AcDbSymbolTableRecord
100
AcDbBlockTableRecord
  2
*PAPER_SPACE
  0
ENDTAB
  0
ENDSEC
  0
SECTION
  2
BLOCKS
  0
BLOCK
  5
20
330
1F
100
AcDbEntity
  8
0
100
AcDbBlockBegin
  2
*MODEL_SPACE
 70
     0
 10
0.0
 20
0.0
 30
0.0
  3
*MODEL_SPACE
  1

  0
ENDBLK
  5
21
330
1F
100
AcDbEntity
  8
0
100
AcDbBlockEnd
  0
BLOCK
  5
1C
330
1B
100
AcDbEntity
 67
     1
  8
0
100
AcDbBlockBegin
  2
*PAPER_SPACE
  1

  0
ENDBLK
  5
1D
330
1B
100
AcDbEntity
 67
     1
  8
0
100
AcDbBlockEnd
  0
ENDSEC
  0
SECTION
  2
ENTITIES
  0
SPLINE
  5
100
100
AcDbEntity
  8
Layer_1
 62
1
100
AcDbSpline
 70
0
 71
3
 72
13
 73
9
 74
7
 40
0.000000
 40
0.000000
 40
0.000000
 40
0.000000
 40
107.689636
 40
307.684675
 40
415.374311
 40
461.380014
 40
506.142492
 40
552.148195
 40
552.148195
 40
552.148195
 40
552.148195
 10
-748.724690
 20
369.043145
 30
0.0
 10
-748.858689
 20
333.150713
 30
0.0
 10
-749.241545
 20
230.600905
 30
0.0
 10
-745.328214
 20
92.022694
 30
0.0
 10
-753.603081
 20
-25.620128
 30
0.0
 10
-741.619551
 20
-92.140529
 30
0.0
 10
-708.709499
 20
-128.302327
 30
0.0
 10
-678.744448
 20
-135.329807
 30
0.0
 10
-663.556712
 20
-138.891673
 30
0.0
 11
-748.724690
 21
369.043145
 31
0.0
 11
-748.724690
 21
261.353509
 31
0.0
 11
-748.724690
 21
61.358470
 31
0.0
 11
-748.724690
 21
-46.331166
 31
0.0
 11
-737.341818
 21
-90.906438
 31
0.0
 11
-707.032717
 21
-123.846351
 31
0.0
 11
-663.556712
 21
-138.891673
 31
0.0
  0
SPLINE
  5
101
100
AcDbEntity
  8
Layer_1
 62
1
100
AcDbSpline
 70
0
 71
3
 72
25
 73
21
 74
19
 40
0.000000
 40
0.000000
 40
0.000000
 40
0.000000
 40
47.895373
 40
94.403412
 40
142.298785
 40
348.039103
 40
730.128266
 40
935.868585
 40
969.832936
 40
1003.266809
 40
1037.231161
 40
1071.195512
 40
1104.629385
 40
1138.593737
 40
1312.237239
 40
1634.718028
 40
1808.361530
 40
1840.911419
 40
1872.991754
 40
1905.541643
 40
1905.541643
 40
1905.541643
 40
1905.541643
 10
-165.110092
 20
-180.428801
 30
0.0
 10
-148.894534
 20
-179.287299
 30
0.0
 10
-116.933118
 20
-177.037359
 30
0.0
 10
-77.554488
 20
-144.221367
 30
0.0
 10
-49.506856
 20
-45.980932
 30
0.0
 10
-44.131742
 20
165.877451
 30
0.0
 10
-13.894355
 20
429.345627
 30
0.0
 10
19.026138
 20
633.565087
 30
0.0
 10
17.908723
 20
725.803154
 30
0.0
 10
2.474595
 20
757.037328
 30
0.0
 10
-22.380497
 20
780.920439
 30
0.0
 10
-54.251505
 20
794.063345
 30
0.0
 10
-89.047394
 20
795.605992
 30
0.0
 10
-164.034136
 20
763.864122
 30
0.0
 10
-312.090974
 20
667.976410
 30
0.0
 10
-506.313464
 20
557.111391
 30
0.0
 10
-663.874783
 20
478.083841
 30
0.0
 10
-728.370593
 20
430.561264
 30
0.0
 10
-745.325718
 20
401.508475
 30
0.0
 10
-747.586225
 20
379.917210
 30
0.0
 10
-748.724690
 20
369.043145
 30
0.0
 11
-165.110092
 21
-180.428801
 31
0.0
 11
-117.965866
 21
-171.979619
 31
0.0
 11
-82.137878
 21
-142.325733
 31
0.0
 11
-65.025744
 21
-97.591611
 31
0.0
 11
-43.487869
 21
107.018258
 31
0.0
 11
-3.488958
 21
487.008015
 31
0.0
 11
18.048917
 21
691.617885
 31
0.0
 11
15.370405
 21
725.476454
 31
0.0
 11
1.013872
 21
755.671054
 31
0.0
 11
-23.555936
 21
779.121037
 31
0.0
 11
-54.912189
 21
792.173337
 31
0.0
 11
-88.331458
 21
793.161441
 31
0.0
 11
-120.404094
 21
781.984537
 31
0.0
 11
-271.168874
 21
695.833234
 31
0.0
 11
-551.160608
 21
535.837958
 31
0.0
 11
-701.925388
 21
449.686655
 31
0.0
 11
-726.920530
 21
428.836280
 31
0.0
 11
-743.022525
 21
401.089684
 31
0.0
 11
-748.724690
 21
369.043145
 31
0.0
  0
SPLINE
  5
102
100
AcDbEntity
  8
Layer_1
 62
1
100
AcDbSpline
 70
0
 71
3
 72
16
 73
12
 74
10
 40
0.000000
 40
0.000000
 40
0.000000
 40
0.000000
 40
7.103703
 40
20.296294
 40
27.399997
 40
29.825736
 40
32.179650
 40
34.605389
 40
37.031128
 40
39.385042
 40
41.810782
 40
41.810782
 40
41.810782
 40
41.810782
 10
-586.988017
 20
319.313909
 30
0.0
 10
-585.921078
 20
321.427046
 30
0.0
 10
-582.872682
 20
327.464582
 30
0.0
 10
-579.042463
 20
335.783821
 30
0.0
 10
-575.138668
 20
342.252616
 30
0.0
 10
-574.010005
 20
346.175486
 30
0.0
 10
-574.853563
 20
348.577480
 30
0.0
 10
-576.723935
 20
350.247249
 30
0.0
 10
-579.176243
 20
350.739106
 30
0.0
 10
-581.621049
 20
349.979896
 30
0.0
 10
-582.568393
 20
348.652362
 30
0.0
 10
-583.049182
 20
347.978620
 30
0.0
 11
-586.988017
 21
319.313909
 31
0.0
 11
-583.813072
 21
325.668617
 31
0.0
 11
-577.916747
 21
337.470219
 31
0.0
 11
-574.741802
 21
343.824927
 31
0.0
 11
-574.264239
 21
346.203193
 31
0.0
 11
-575.010358
 21
348.435729
 31
0.0
 11
-576.821891
 21
350.048973
 31
0.0
 11
-579.199407
 21
350.530255
 31
0.0
 11
-581.433107
 21
349.787629
 31
0.0
 11
-583.049182
 21
347.978620
 31
0.0
  0
LWPOLYLINE
  5
103
100
AcDbEntity
  8
Layer_1
 62
1
100
AcDbPolyline
 90
2
 70
0
 10
-663.556712
 20
-138.891673
 30
0.0
 10
-165.110092
 20
-180.428801
 30
0.0
  0
SPLINE
  5
104
100
AcDbEntity
  8
Layer_1
 62
1
100
AcDbSpline
 70
0
 71
3
 72
10
 73
6
 74
4
 40
0.000000
 40
0.000000
 40
0.000000
 40
0.000000
 40
2.428402
 40
4.784918
 40
7.213320
 40
7.213320
 40
7.213320
 40
7.213320
 10
-583.049182
 20
347.978620
 30
0.0
 10
-583.527464
 20
347.307931
 30
0.0
 10
-584.469870
 20
345.986407
 30
0.0
 10
-586.947902
 20
345.158779
 30
0.0
 10
-588.495317
 20
345.648738
 30
0.0
 10
-589.280649
 20
345.897398
 30
0.0
 11
-583.049182
 21
347.978620
 31
0.0
 11
-584.664682
 21
346.165530
 31
0.0
 11
-586.899831
 21
345.419021
 31
0.0
 11
-589.280649
 21
345.897398
 31
0.0
  0
LWPOLYLINE
  5
105
100
AcDbEntity
  8
Layer_1
 62
1
100
AcDbPolyline
 90
2
 70
0
 10
-589.280649
 20
345.897398
 30
0.0
 10
-647.442303
 20
374.956147
 30
0.0
  0
SPLINE
  5
106
100
AcDbEntity
  8
Layer_1
 62
1
100
AcDbSpline
 70
0
 71
3
 72
22
 73
18
 74
16
 40
0.000000
 40
0.000000
 40
0.000000
 40
0.000000
 40
1.222088
 40
2.434056
 40
3.656145
 40
4.878233
 40
6.090201
 40
7.312289
 40
8.932694
 40
10.529807
 40
12.150212
 40
13.770616
 40
15.367730
 40
16.988135
 40
18.608539
 40
20.205653
 40
21.826058
 40
21.826058
 40
21.826058
 40
21.826058
 10
-647.442303
 20
374.956147
 30
0.0
 10
-647.793869
 20
375.166597
 30
0.0
 10
-648.494091
 20
375.585756
 30
0.0
 10
-649.293322
 20
376.532836
 30
0.0
 10
-649.836485
 20
377.637587
 30
0.0
 10
-650.064267
 20
378.846724
 30
0.0
 10
-649.995421
 20
380.085381
 30
0.0
 10
-649.471676
 20
381.337905
 30
0.0
 10
-648.955866
 20
382.744665
 30
0.0
 10
-649.080336
 20
384.398758
 30
0.0
 10
-649.729229
 20
385.905563
 30
0.0
 10
-650.866707
 20
387.098474
 30
0.0
 10
-652.339334
 20
387.829199
 30
0.0
 10
-653.977599
 20
388.013573
 30
0.0
 10
-655.568824
 20
387.618437
 30
0.0
 10
-656.965701
 20
386.718772
 30
0.0
 10
-657.540457
 20
385.800112
 30
0.0
 10
-657.829915
 20
385.337457
 30
0.0
 11
-647.442303
 21
374.956147
 31
0.0
 11
-648.454618
 21
375.640777
 31
0.0
 11
-649.248844
 21
376.556239
 31
0.0
 11
-649.783776
 21
377.655033
 31
0.0
 11
-650.015117
 21
378.855025
 31
0.0
 11
-649.929021
 21
380.063931
 31
0.0
 11
-649.529957
 21
381.219028
 31
0.0
 11
-649.068970
 21
382.772476
 31
0.0
 11
-649.165672
 21
384.366659
 31
0.0
 11
-649.811052
 21
385.852996
 31
0.0
 11
-650.928716
 21
387.026255
 31
0.0
 11
-652.359387
 21
387.736152
 31
0.0
 11
-653.969721
 21
387.916523
 31
0.0
 11
-655.543702
 21
387.531430
 31
0.0
 11
-656.871690
 21
386.644177
 31
0.0
 11
-657.829915
 21
385.337457
 31
0.0
  0
SPLINE
  5
107
100
AcDbEntity
  8
Layer_1
 62
1
100
AcDbSpline
 70
0
 71
3
 72
16
 73
12
 74
10
 40
0.000000
 40
0.000000
 40
0.000000
 40
0.000000
 40
1.621807
 40
3.220357
 40
4.842164
 40
6.463971
 40
8.062521
 40
9.684328
 40
11.306134
 40
12.904684
 40
14.526491
 40
14.526491
 40
14.526491
 40
14.526491
 10
-670.063458
 20
360.851693
 30
0.0
 10
-670.257590
 20
360.341155
 30
0.0
 10
-670.643069
 20
359.327401
 30
0.0
 10
-670.517393
 20
357.669294
 30
0.0
 10
-669.872328
 20
356.160490
 30
0.0
 10
-668.736748
 20
354.963448
 30
0.0
 10
-667.265211
 20
354.227680
 30
0.0
 10
-665.626228
 20
354.037442
 30
0.0
 10
-664.032146
 20
354.426673
 30
0.0
 10
-662.630256
 20
355.320997
 30
0.0
 10
-662.050541
 20
356.237634
 30
0.0
 10
-661.758590
 20
356.699262
 30
0.0
 11
-670.063458
 21
360.851693
 31
0.0
 11
-670.526888
 21
359.297508
 31
0.0
 11
-670.432883
 21
357.701725
 31
0.0
 11
-669.790183
 21
356.212700
 31
0.0
 11
-668.674626
 21
355.035505
 31
0.0
 11
-667.244839
 21
354.320612
 31
0.0
 11
-665.633748
 21
354.134484
 31
0.0
 11
-664.056908
 21
354.513740
 31
0.0
 11
-662.723879
 21
355.396007
 31
0.0
 11
-661.758590
 21
356.699262
 31
0.0
  0
LWPOLYLINE
  5
108
100
AcDbEntity
  8
Layer_1
 62
1
100
AcDbPolyline
 90
2
 70
0
 10
-657.829915
 20
385.337457
 30
0.0
 10
-670.063458
 20
360.851693
 30
0.0
  0
SPLINE
  5
109
100
AcDbEntity
  8
Layer_1
 62
1
100
AcDbSpline
 70
0
 71
3
 72
13
 73
9
 74
7
 40
0.000000
 40
0.000000
 40
0.000000
 40
0.000000
 40
1.213579
 40
2.417056
 40
3.630635
 40
4.844214
 40
6.047691
 40
7.261270
 40
7.261270
 40
7.261270
 40
7.261270
 10
-661.758590
 20
356.699262
 30
0.0
 10
-661.549310
 20
357.048215
 30
0.0
 10
-661.132492
 20
357.743217
 30
0.0
 10
-660.190542
 20
358.535364
 30
0.0
 10
-659.092246
 20
359.071963
 30
0.0
 10
-657.890398
 20
359.295018
 30
0.0
 10
-656.661947
 20
359.219676
 30
0.0
 10
-655.913195
 20
358.909620
 30
0.0
 10
-655.537255
 20
358.753944
 30
0.0
 11
-661.758590
 21
356.699262
 31
0.0
 11
-661.077741
 21
357.703861
 31
0.0
 11
-660.167359
 21
358.490982
 31
0.0
 11
-659.074939
 21
359.019560
 31
0.0
 11
-657.882589
 21
359.245559
 31
0.0
 11
-656.682491
 21
359.155453
 31
0.0
 11
-655.537255
 21
358.753944
 31
0.0
  0
SPLINE
  5
10a
100
AcDbEntity
  8
Layer_1
 62
1
100
AcDbSpline
 70
0
 71
3
 72
10
 73
6
 74
4
 40
0.000000
 40
0.000000
 40
0.000000
 40
0.000000
 40
2.427296
 40
4.782650
 40
7.209947
 40
7.209947
 40
7.209947
 40
7.209947
 10
-597.375601
 20
329.695198
 30
0.0
 10
-596.704958
 20
329.217457
 30
0.0
 10
-595.383549
 20
328.276133
 30
0.0
 10
-594.556108
 20
325.799023
 30
0.0
 10
-595.046490
 20
324.252499
 30
0.0
 10
-595.295369
 20
323.467605
 30
0.0
 11
-597.375601
 21
329.695198
 31
0.0
 11
-595.562659
 21
328.081194
 31
0.0
 11
-594.816421
 21
325.847180
 31
0.0
 11
-595.295369
 21
323.467605
 31
0.0
  0
LWPOLYLINE
  5
10b
100
AcDbEntity
  8
Layer_1
 62
1
100
AcDbPolyline
 90
2
 70
0
 10
-655.537255
 20
358.753944
 30
0.0
 10
-597.375601
 20
329.695198
 30
0.0
  0
SPLINE
  5
10c
100
AcDbEntity
  8
Layer_1
 62
1
100
AcDbSpline
 70
0
 71
3
 72
13
 73
9
 74
7
 40
0.000000
 40
0.000000
 40
0.000000
 40
0.000000
 40
2.423705
 40
4.775747
 40
7.199452
 40
9.623157
 40
11.975200
 40
14.398904
 40
14.398904
 40
14.398904
 40
14.398904
 10
-595.295369
 20
323.467605
 30
0.0
 10
-595.544712
 20
322.679116
 30
0.0
 10
-596.036026
 20
321.125452
 30
0.0
 10
-595.176036
 20
318.717009
 30
0.0
 10
-593.311252
 20
317.051659
 30
0.0
 10
-590.860104
 20
316.559032
 30
0.0
 10
-588.417353
 20
317.316097
 30
0.0
 10
-587.469205
 20
318.641343
 30
0.0
 10
-586.988017
 20
319.313909
 30
0.0
 11
-595.295369
 21
323.467605
 31
0.0
 11
-595.769925
 21
321.090812
 31
0.0
 11
-595.022928
 21
318.860544
 31
0.0
 11
-593.212552
 21
317.249058
 31
0.0
 11
-590.837140
 21
316.767640
 31
0.0
 11
-588.604724
 21
317.508194
 31
0.0
 11
-586.988017
 21
319.313909
 31
0.0
  0
SPLINE
  5
10d
100
AcDbEntity
  8
Layer_1
 62
1
100
AcDbSpline
 70
0
 71
3
 72
13
 73
9
 74
7
 40
0.000000
 40
0.000000
 40
0.000000
 40
0.000000
 40
2.423853
 40
4.776031
 40
7.199883
 40
9.623736
 40
11.975914
 40
14.399767
 40
14.399767
 40
14.399767
 40
14.399767
 10
-143.164187
 20
-79.652607
 30
0.0
 10
-142.914771
 20
-78.864086
 30
0.0
 10
-142.423314
 20
-77.310361
 30
0.0
 10
-143.283278
 20
-74.901727
 30
0.0
 10
-145.148181
 20
-73.236265
 30
0.0
 10
-147.599504
 20
-72.743680
 30
0.0
 10
-150.042372
 20
-73.500948
 30
0.0
 10
-150.990446
 20
-74.826372
 30
0.0
 10
-151.471596
 20
-75.499030
 30
0.0
 11
-143.164187
 21
-79.652607
 31
0.0
 11
-142.689445
 21
-77.275702
 31
0.0
 11
-143.436409
 21
-75.045279
 31
0.0
 11
-145.246891
 21
-73.433690
 31
0.0
 11
-147.622463
 21
-72.952316
 31
0.0
 11
-149.854961
 21
-73.693053
 31
0.0
 11
-151.471596
 21
-75.499030
 31
0.0
  0
LWPOLYLINE
  5
10e
100
AcDbEntity
  8
Layer_1
 62
1
100
AcDbPolyline
 90
2
 70
0
 10
-155.410408
 20
-104.163777
 30
0.0
 10
-143.164187
 20
-79.652607
 30
0.0
  0
SPLINE
  5
10f
100
AcDbEntity
  8
Layer_1
 62
1
100
AcDbSpline
 70
0
 71
3
 72
10
 73
6
 74
4
 40
0.000000
 40
0.000000
 40
0.000000
 40
0.000000
 40
2.428367
 40
4.784850
 40
7.213217
 40
7.213217
 40
7.213217
 40
7.213217
 10
-151.471596
 20
-75.499030
 30
0.0
 10
-151.949884
 20
-76.169700
 30
0.0
 10
-152.892301
 20
-77.491186
 30
0.0
 10
-155.370300
 20
-78.318775
 30
0.0
 10
-156.917692
 20
-77.828822
 30
0.0
 10
-157.703012
 20
-77.580165
 30
0.0
 11
-151.471596
 21
-75.499030
 31
0.0
 11
-153.087105
 21
-77.312066
 31
0.0
 11
-155.322230
 21
-78.058541
 31
0.0
 11
-157.703012
 21
-77.580165
 31
0.0
  0
SPLINE
  5
110
100
AcDbEntity
  8
Layer_1
 62
1
100
AcDbSpline
 70
0
 71
3
 72
13
 73
9
 74
7
 40
0.000000
 40
0.000000
 40
0.000000
 40
0.000000
 40
1.222083
 40
2.434046
 40
3.656129
 40
4.878212
 40
6.090175
 40
7.312258
 40
7.312258
 40
7.312258
 40
7.312258
 10
-215.864796
 20
-48.521521
 30
0.0
 10
-216.216355
 20
-48.311069
 30
0.0
 10
-216.916563
 20
-47.891907
 30
0.0
 10
-217.715824
 20
-46.944796
 30
0.0
 10
-218.258808
 20
-45.840146
 30
0.0
 10
-218.487199
 20
-44.630634
 30
0.0
 10
-218.416045
 20
-43.393389
 30
0.0
 10
-218.107368
 20
-42.637939
 30
0.0
 10
-217.952388
 20
-42.258643
 30
0.0
 11
-215.864796
 21
-48.521521
 31
0.0
 11
-216.877098
 21
-47.836881
 31
0.0
 11
-217.671312
 21
-46.921415
 31
0.0
 11
-218.206231
 21
-45.822621
 31
0.0
 11
-218.437561
 21
-44.622632
 31
0.0
 11
-218.351457
 21
-43.413732
 31
0.0
 11
-217.952388
 21
-42.258643
 31
0.0
  0
SPLINE
  5
111
100
AcDbEntity
  8
Layer_1
 62
1
100
AcDbSpline
 70
0
 71
3
 72
28
 73
24
 74
22
 40
0.000000
 40
0.000000
 40
0.000000
 40
0.000000
 40
1.619086
 40
3.214937
 40
4.834023
 40
6.453109
 40
8.048959
 40
9.668046
 40
11.287132
 40
12.882982
 40
14.502069
 40
21.598424
 40
34.777371
 40
41.873726
 40
43.496294
 40
45.095573
 40
46.718141
 40
48.340708
 40
49.939988
 40
51.562555
 40
53.185123
 40
54.784402
 40
56.406969
 40
56.406969
 40
56.406969
 40
56.406969
 10
-217.952388
 20
-42.258643
 30
0.0
 10
-217.759815
 20
-41.748489
 30
0.0
 10
-217.377434
 20
-40.735502
 30
0.0
 10
-217.507211
 20
-39.080476
 30
0.0
 10
-218.155345
 20
-37.575959
 30
0.0
 10
-219.292470
 20
-36.384209
 30
0.0
 10
-220.763882
 20
-35.654103
 30
0.0
 10
-222.400380
 20
-35.469561
 30
0.0
 10
-223.991829
 20
-35.862895
 30
0.0
 10
-225.383352
 20
-36.762708
 30
0.0
 10
-227.268407
 20
-39.687643
 30
0.0
 10
-230.200816
 20
-46.353898
 30
0.0
 10
-234.284468
 20
-54.538213
 30
0.0
 10
-237.864201
 20
-60.883308
 30
0.0
 10
-239.063123
 20
-64.152631
 30
0.0
 10
-238.942973
 20
-65.808874
 30
0.0
 10
-238.296802
 20
-67.319357
 30
0.0
 10
-237.161214
 20
-68.516968
 30
0.0
 10
-235.688876
 20
-69.253146
 30
0.0
 10
-234.049093
 20
-69.443198
 30
0.0
 10
-232.454364
 20
-69.053264
 30
0.0
 10
-231.052219
 20
-68.157822
 30
0.0
 10
-230.472857
 20
-67.240356
 30
0.0
 10
-230.181082
 20
-66.778307
 30
0.0
 11
-217.952388
 21
-42.258643
 31
0.0
 11
-217.493543
 21
-40.705935
 31
0.0
 11
-217.591531
 21
-39.113096
 31
0.0
 11
-218.237235
 21
-37.628338
 31
0.0
 11
-219.354323
 21
-36.456350
 31
0.0
 11
-220.783862
 21
-35.747015
 31
0.0
 11
-222.392836
 21
-35.566336
 31
0.0
 11
-223.965755
 21
-35.950218
 31
0.0
 11
-225.293450
 21
-36.835635
 31
0.0
 11
-226.252380
 21
-38.140202
 31
0.0
 11
-229.424046
 21
-44.488335
 31
0.0
 11
-235.314284
 21
-56.277725
 31
0.0
 11
-238.485951
 21
-62.625858
 31
0.0
 11
-238.950614
 21
-64.180469
 31
0.0
 11
-238.857351
 21
-65.777027
 31
0.0
 11
-238.214840
 21
-67.266961
 31
0.0
 11
-237.098952
 21
-68.444892
 31
0.0
 11
-235.668514
 21
-69.160113
 31
0.0
 11
-234.056638
 21
-69.346069
 31
0.0
 11
-232.479183
 21
-68.966122
 31
0.0
 11
-231.145976
 21
-68.082801
 31
0.0
 11
-230.181082
 21
-66.778307
 31
0.0
  0
LWPOLYLINE
  5
112
100
AcDbEntity
  8
Layer_1
 62
1
100
AcDbPolyline
 90
2
 70
0
 10
-157.703012
 20
-77.580165
 30
0.0
 10
-215.864796
 20
-48.521521
 30
0.0
  0
SPLINE
  5
113
100
AcDbEntity
  8
Layer_1
 62
1
100
AcDbSpline
 70
0
 71
3
 72
13
 73
9
 74
7
 40
0.000000
 40
0.000000
 40
0.000000
 40
0.000000
 40
1.213591
 40
2.417078
 40
3.630669
 40
4.844261
 40
6.047748
 40
7.261339
 40
7.261339
 40
7.261339
 40
7.261339
 10
-230.181082
 20
-66.778307
 30
0.0
 10
-229.971804
 20
-66.429348
 30
0.0
 10
-229.554990
 20
-65.734336
 30
0.0
 10
-228.613035
 20
-64.942174
 30
0.0
 10
-227.514732
 20
-64.405565
 30
0.0
 10
-226.312873
 20
-64.182505
 30
0.0
 10
-225.084409
 20
-64.257847
 30
0.0
 10
-224.335652
 20
-64.567909
 30
0.0
 10
-223.959708
 20
-64.723588
 30
0.0
 11
-230.181082
 21
-66.778307
 31
0.0
 11
-229.500237
 21
-65.773691
 31
0.0
 11
-228.589852
 21
-64.986556
 31
0.0
 11
-227.497424
 21
-64.457968
 31
0.0
 11
-226.305063
 21
-64.231965
 31
0.0
 11
-225.104954
 21
-64.322071
 31
0.0
 11
-223.959708
 21
-64.723588
 31
0.0
  0
SPLINE
  5
114
100
AcDbEntity
  8
Layer_1
 62
1
100
AcDbSpline
 70
0
 71
3
 72
10
 73
6
 74
4
 40
0.000000
 40
0.000000
 40
0.000000
 40
0.000000
 40
2.427341
 40
4.782736
 40
7.210077
 40
7.210077
 40
7.210077
 40
7.210077
 10
-165.797992
 20
-93.782458
 30
0.0
 10
-165.127331
 20
-94.260201
 30
0.0
 10
-163.805886
 20
-95.201527
 30
0.0
 10
-162.978429
 20
-97.678690
 30
0.0
 10
-163.468839
 20
-99.225237
 30
0.0
 10
-163.717732
 20
-100.010143
 30
0.0
 11
-165.797992
 21
-93.782458
 31
0.0
 11
-163.985002
 21
-95.396475
 31
0.0
 11
-163.238751
 21
-97.630529
 31
0.0
 11
-163.717732
 21
-100.010143
 31
0.0
  0
LWPOLYLINE
  5
115
100
AcDbEntity
  8
Layer_1
 62
1
100
AcDbPolyline
 90
2
 70
0
 10
-223.959708
 20
-64.723588
 30
0.0
 10
-165.797992
 20
-93.782458
 30
0.0
  0
SPLINE
  5
116
100
AcDbEntity
  8
Layer_1
 62
1
100
AcDbSpline
 70
0
 71
3
 72
13
 73
9
 74
7
 40
0.000000
 40
0.000000
 40
0.000000
 40
0.000000
 40
2.421311
 40
4.771151
 40
7.192463
 40
9.613774
 40
11.963614
 40
14.384926
 40
14.384926
 40
14.384926
 40
14.384926
 10
-163.717732
 20
-100.010143
 30
0.0
 10
-163.965713
 20
-100.798165
 30
0.0
 10
-164.454355
 20
-102.350947
 30
0.0
 10
-163.593424
 20
-104.756094
 30
0.0
 10
-161.730178
 20
-106.419206
 30
0.0
 10
-159.281739
 20
-106.911922
 30
0.0
 10
-156.841067
 20
-106.157566
 30
0.0
 10
-155.892033
 20
-104.834977
 30
0.0
 10
-155.410408
 20
-104.163777
 30
0.0
 11
-163.717732
 21
-100.010143
 31
0.0
 11
-164.188742
 21
-102.385200
 31
0.0
 11
-163.440699
 21
-104.612796
 31
0.0
 11
-161.631677
 21
-106.222202
 31
0.0
 11
-159.258736
 21
-106.703763
 31
0.0
 11
-157.027838
 21
-105.965628
 31
0.0
 11
-155.410408
 21
-104.163777
 31
0.0
  0
SPLINE
  5
117
100
AcDbEntity
  8
Layer_1
 62
1
100
AcDbSpline
 70
0
 71
3
 72
13
 73
9
 74
7
 40
0.000000
 40
0.000000
 40
0.000000
 40
0.000000
 40
2.423098
 40
4.774583
 40
7.197680
 40
9.620778
 40
11.972263
 40
14.395361
 40
14.395361
 40
14.395361
 40
14.395361
 10
-647.628626
 20
-60.562504
 30
0.0
 10
-646.840252
 20
-60.811488
 30
0.0
 10
-645.286804
 20
-61.302100
 30
0.0
 10
-642.879207
 20
-60.441850
 30
0.0
 10
-641.214433
 20
-58.577452
 30
0.0
 10
-640.721779
 20
-56.126994
 30
0.0
 10
-641.478137
 20
-53.684767
 30
0.0
 10
-642.802695
 20
-52.736375
 30
0.0
 10
-643.474908
 20
-52.255067
 30
0.0
 11
-647.628626
 21
-60.562504
 31
0.0
 11
-645.252266
 21
-61.036125
 31
0.0
 11
-643.022682
 21
-60.288842
 31
0.0
 11
-641.411730
 21
-58.478804
 31
0.0
 11
-640.930271
 21
-56.104019
 31
0.0
 11
-641.670194
 21
-53.871981
 31
0.0
 11
-643.474908
 21
-52.255067
 31
0.0
  0
LWPOLYLINE
  5
118
100
AcDbEntity
  8
Layer_1
 62
1
100
AcDbPolyline
 90
2
 70
0
 10
-672.139654
 20
-48.316232
 30
0.0
 10
-647.628626
 20
-60.562504
 30
0.0
  0
SPLINE
  5
119
100
AcDbEntity
  8
Layer_1
 62
1
100
AcDbSpline
 70
0
 71
3
 72
10
 73
6
 74
4
 40
0.000000
 40
0.000000
 40
0.000000
 40
0.000000
 40
2.428423
 40
4.784957
 40
7.213380
 40
7.213380
 40
7.213380
 40
7.213380
 10
-643.474908
 20
-52.255067
 30
0.0
 10
-644.145608
 20
-51.776788
 30
0.0
 10
-645.467155
 20
-50.834391
 30
0.0
 10
-646.294807
 20
-48.356340
 30
0.0
 10
-645.804845
 20
-46.808911
 30
0.0
 10
-645.556184
 20
-46.023572
 30
0.0
 11
-643.474908
 21
-52.255067
 31
0.0
 11
-645.288031
 21
-50.639573
 31
0.0
 11
-646.034560
 21
-48.404411
 31
0.0
 11
-645.556184
 21
-46.023572
 31
0.0
  0
SPLINE
  5
11a
100
AcDbEntity
  8
Layer_1
 62
1
100
AcDbSpline
 70
0
 71
3
 72
31
 73
27
 74
25
 40
0.000000
 40
0.000000
 40
0.000000
 40
0.000000
 40
1.222079
 40
2.434038
 40
3.656118
 40
4.878197
 40
6.090156
 40
7.312235
 40
8.932560
 40
10.529597
 40
12.149921
 40
13.770245
 40
15.367282
 40
16.987606
 40
18.607931
 40
20.204968
 40
21.825292
 40
28.921648
 40
42.100594
 40
49.196950
 40
51.621785
 40
53.974831
 40
56.399666
 40
58.824501
 40
61.177547
 40
63.602382
 40
63.602382
 40
63.602382
 40
63.602382
 10
-616.497426
 20
12.138167
 30
0.0
 10
-616.286975
 20
12.489729
 30
0.0
 10
-615.867814
 20
13.189942
 30
0.0
 10
-614.920736
 20
13.989162
 30
0.0
 10
-613.815992
 20
14.532317
 30
0.0
 10
-612.606864
 20
14.760094
 30
0.0
 10
-611.368214
 20
14.691256
 30
0.0
 10
-610.115730
 20
14.167498
 30
0.0
 10
-608.708969
 20
13.651855
 30
0.0
 10
-607.054974
 20
13.776393
 30
0.0
 10
-605.548265
 20
14.425319
 30
0.0
 10
-604.355448
 20
15.562735
 30
0.0
 10
-603.624725
 20
17.035382
 30
0.0
 10
-603.440482
 20
18.673211
 30
0.0
 10
-603.834999
 20
20.265670
 30
0.0
 10
-604.736572
 20
21.657706
 30
0.0
 10
-607.664916
 20
23.539000
 30
0.0
 10
-614.320921
 20
26.488160
 30
0.0
 10
-622.557930
 20
30.489459
 30
0.0
 10
-629.032212
 20
34.361772
 30
0.0
 10
-632.951487
 20
35.490823
 30
0.0
 10
-635.352630
 20
34.647191
 30
0.0
 10
-637.021708
 20
32.777570
 30
0.0
 10
-637.513442
 20
30.326180
 30
0.0
 10
-636.754668
 20
27.882262
 30
0.0
 10
-635.427733
 20
26.935129
 30
0.0
 10
-634.754297
 20
26.454448
 30
0.0
 11
-616.497426
 21
12.138167
 31
0.0
 11
-615.812793
 21
13.150469
 31
0.0
 11
-614.897334
 21
13.944685
 31
0.0
 11
-613.798546
 21
14.479608
 31
0.0
 11
-612.598563
 21
14.710945
 31
0.0
 11
-611.389666
 21
14.624851
 31
0.0
 11
-610.234577
 21
14.225793
 31
0.0
 11
-608.681172
 21
13.764939
 31
0.0
 11
-607.087071
 21
13.861723
 31
0.0
 11
-605.600832
 21
14.507126
 31
0.0
 11
-604.427652
 21
15.624758
 31
0.0
 11
-603.717792
 21
17.055361
 31
0.0
 11
-603.537407
 21
18.665613
 31
0.0
 11
-603.922429
 21
20.239528
 31
0.0
 11
-604.809573
 21
21.567497
 31
0.0
 11
-606.116164
 21
22.525762
 31
0.0
 11
-612.464297
 21
25.697429
 31
0.0
 11
-624.253688
 21
31.587667
 31
0.0
 11
-630.601821
 21
34.759333
 31
0.0
 11
-632.979244
 21
35.236495
 31
0.0
 11
-635.210916
 21
34.490528
 31
0.0
 11
-636.823528
 21
32.679642
 31
0.0
 11
-637.304685
 21
30.303024
 31
0.0
 11
-636.562470
 21
28.070102
 31
0.0
 11
-634.754297
 21
26.454448
 31
0.0
  0
LWPOLYLINE
  5
11b
100
AcDbEntity
  8
Layer_1
 62
1
100
AcDbPolyline
 90
2
 70
0
 10
-645.556184
 20
-46.023572
 30
0.0
 10
-616.497426
 20
12.138167
 30
0.0
  0
SPLINE
  5
11c
100
AcDbEntity
  8
Layer_1
 62
1
100
AcDbSpline
 70
0
 71
3
 72
13
 73
9
 74
7
 40
0.000000
 40
0.000000
 40
0.000000
 40
0.000000
 40
1.213593
 40
2.417082
 40
3.630675
 40
4.844267
 40
6.047756
 40
7.261349
 40
7.261349
 40
7.261349
 40
7.261349
 10
-634.754297
 20
26.454448
 30
0.0
 10
-634.405339
 20
26.245168
 30
0.0
 10
-633.710327
 20
25.828350
 30
0.0
 10
-632.918168
 20
24.886391
 30
0.0
 10
-632.381563
 20
23.788083
 30
0.0
 10
-632.158509
 20
22.586221
 30
0.0
 10
-632.233859
 20
21.357757
 30
0.0
 10
-632.543925
 20
20.609000
 30
0.0
 10
-632.699607
 20
20.233056
 30
0.0
 11
-634.754297
 21
26.454448
 31
0.0
 11
-633.749683
 21
25.773597
 31
0.0
 11
-632.962551
 21
24.863208
 31
0.0
 11
-632.433967
 21
23.770776
 31
0.0
 11
-632.207969
 21
22.578412
 31
0.0
 11
-632.298083
 21
21.378301
 31
0.0
 11
-632.699607
 21
20.233056
 31
0.0
  0
SPLINE
  5
11d
100
AcDbEntity
  8
Layer_1
 62
1
100
AcDbSpline
 70
0
 71
3
 72
10
 73
6
 74
4
 40
0.000000
 40
0.000000
 40
0.000000
 40
0.000000
 40
2.427295
 40
4.782648
 40
7.209943
 40
7.209943
 40
7.209943
 40
7.209943
 10
-661.758336
 20
-37.928648
 30
0.0
 10
-662.236080
 20
-38.599289
 30
0.0
 10
-663.177409
 20
-39.920693
 30
0.0
 10
-665.654522
 20
-40.748122
 30
0.0
 10
-667.201043
 20
-40.257734
 30
0.0
 10
-667.985936
 20
-40.008852
 30
0.0
 11
-661.758336
 21
-37.928648
 31
0.0
 11
-663.372348
 21
-39.741581
 31
0.0
 11
-665.606364
 21
-40.487809
 31
0.0
 11
-667.985936
 21
-40.008852
 31
0.0
  0
LWPOLYLINE
  5
11e
100
AcDbEntity
  8
Layer_1
 62
1
100
AcDbPolyline
 90
2
 70
0
 10
-632.699607
 20
20.233056
 30
0.0
 10
-661.758336
 20
-37.928648
 30
0.0
  0
SPLINE
  5
11f
100
AcDbEntity
  8
Layer_1
 62
1
100
AcDbSpline
 70
0
 71
3
 72
16
 73
12
 74
10
 40
0.000000
 40
0.000000
 40
0.000000
 40
0.000000
 40
1.621773
 40
3.220303
 40
4.842076
 40
6.463848
 40
8.062379
 40
9.684151
 40
11.305924
 40
12.904454
 40
14.526227
 40
14.526227
 40
14.526227
 40
14.526227
 10
-667.985936
 20
-40.008852
 30
0.0
 10
-668.496551
 20
-39.814967
 30
0.0
 10
-669.510464
 20
-39.429977
 30
0.0
 10
-671.168468
 20
-39.556202
 30
0.0
 10
-672.677083
 20
-40.201587
 30
0.0
 10
-673.873961
 20
-41.337262
 30
0.0
 10
-674.609711
 20
-42.808752
 30
0.0
 10
-674.800133
 20
-44.447659
 30
0.0
 10
-674.411281
 20
-46.041784
 30
0.0
 10
-673.517466
 20
-47.443927
 30
0.0
 10
-672.601129
 20
-48.024068
 30
0.0
 10
-672.139654
 20
-48.316232
 30
0.0
 11
-667.985936
 21
-40.008852
 31
0.0
 11
-669.540296
 21
-39.546131
 31
0.0
 11
-671.136028
 21
-39.640673
 31
0.0
 11
-672.624877
 21
-40.283694
 31
0.0
 11
-673.801925
 21
-41.399357
 31
0.0
 11
-674.516814
 21
-42.829124
 31
0.0
 11
-674.703124
 21
-44.440160
 31
0.0
 11
-674.324240
 21
-46.017053
 31
0.0
 11
-673.442442
 21
-47.350369
 31
0.0
 11
-672.139654
 21
-48.316232
 31
0.0
  0
SPLINE
  5
120
100
AcDbEntity
  8
Layer_1
 62
1
100
AcDbSpline
 70
0
 71
3
 72
13
 73
9
 74
7
 40
0.000000
 40
0.000000
 40
0.000000
 40
0.000000
 40
2.421632
 40
4.771768
 40
7.193400
 40
9.615032
 40
11.965167
 40
14.386799
 40
14.386799
 40
14.386799
 40
14.386799
 10
-99.537588
 20
620.241768
 30
0.0
 10
-98.749504
 20
619.993604
 30
0.0
 10
-97.196603
 20
619.504602
 30
0.0
 10
-94.791013
 20
620.365406
 30
0.0
 10
-93.127601
 20
622.228857
 30
0.0
 10
-92.634896
 20
624.677659
 30
0.0
 10
-93.389614
 20
627.118610
 30
0.0
 10
-94.712559
 20
628.067525
 30
0.0
 10
-95.383943
 20
628.549092
 30
0.0
 11
-99.537588
 21
620.241768
 31
0.0
 11
-97.162298
 21
619.770281
 31
0.0
 11
-94.934344
 21
620.518182
 31
0.0
 11
-93.324658
 21
622.327385
 31
0.0
 11
-92.843115
 21
624.700657
 31
0.0
 11
-93.581574
 21
626.931758
 31
0.0
 11
-95.383943
 21
628.549092
 31
0.0
  0
SPLINE
  5
121
100
AcDbEntity
  8
Layer_1
 62
1
100
AcDbSpline
 70
0
 71
3
 72
19
 73
15
 74
13
 40
0.000000
 40
0.000000
 40
0.000000
 40
0.000000
 40
2.428398
 40
4.784909
 40
7.213307
 40
24.069584
 40
55.374100
 40
72.230378
 40
73.452451
 40
74.664404
 40
75.886477
 40
77.108550
 40
78.320503
 40
79.542576
 40
79.542576
 40
79.542576
 40
79.542576
 10
-95.383943
 20
628.549092
 30
0.0
 10
-96.055148
 20
629.027659
 30
0.0
 10
-97.377688
 20
629.970625
 30
0.0
 10
-98.197721
 20
632.444542
 30
0.0
 10
-96.070156
 20
639.491159
 30
0.0
 10
-87.218802
 20
653.859503
 30
0.0
 10
-77.877840
 20
673.468007
 30
0.0
 10
-71.118071
 20
688.453615
 30
0.0
 10
-67.775934
 20
693.993853
 30
0.0
 10
-66.829825
 20
694.793538
 30
0.0
 10
-65.724900
 20
695.336373
 30
0.0
 10
-64.515467
 20
695.564772
 30
0.0
 10
-63.278214
 20
695.493590
 30
0.0
 10
-62.522777
 20
695.184907
 30
0.0
 10
-62.143488
 20
695.029923
 30
0.0
 11
-95.383943
 21
628.549092
 31
0.0
 11
-97.197021
 21
630.164599
 31
0.0
 11
-97.943518
 21
632.399747
 31
0.0
 11
-97.465134
 21
634.780559
 31
0.0
 11
-89.931379
 21
649.859572
 31
0.0
 11
-75.940120
 21
677.863453
 31
0.0
 11
-68.406366
 21
692.942466
 31
0.0
 11
-67.721707
 21
693.954743
 31
0.0
 11
-66.806230
 21
694.748930
 31
0.0
 11
-65.707434
 21
695.283822
 31
0.0
 11
-64.507450
 21
695.515128
 31
0.0
 11
-63.298562
 21
695.429005
 31
0.0
 11
-62.143488
 21
695.029923
 31
0.0
  0
SPLINE
  5
122
100
AcDbEntity
  8
Layer_1
 62
1
100
AcDbSpline
 70
0
 71
3
 72
25
 73
21
 74
19
 40
0.000000
 40
0.000000
 40
0.000000
 40
0.000000
 40
2.420108
 40
4.768550
 40
7.188658
 40
9.608766
 40
11.957208
 40
14.377316
 40
21.473690
 40
34.652672
 40
41.749047
 40
43.369354
 40
44.966467
 40
46.586775
 40
48.207083
 40
49.804196
 40
51.424504
 40
53.044811
 40
54.641924
 40
56.262232
 40
56.262232
 40
56.262232
 40
56.262232
 10
-62.143488
 20
695.029923
 30
0.0
 10
-61.355702
 20
694.782319
 30
0.0
 10
-59.803460
 20
694.294443
 30
0.0
 10
-57.400263
 20
695.159185
 30
0.0
 10
-55.743035
 20
697.024822
 30
0.0
 10
-55.257365
 20
699.478518
 30
0.0
 10
-56.029169
 20
701.898795
 30
0.0
 10
-59.290368
 20
704.342332
 30
0.0
 10
-66.266591
 20
707.203340
 30
0.0
 10
-74.419339
 20
711.372421
 30
0.0
 10
-80.766188
 20
714.945407
 30
0.0
 10
-84.036631
 20
716.136862
 30
0.0
 10
-85.690263
 20
716.014525
 30
0.0
 10
-87.197961
 20
715.367794
 30
0.0
 10
-88.393296
 20
714.233265
 30
0.0
 10
-89.128421
 20
712.763038
 30
0.0
 10
-89.318997
 20
711.125710
 30
0.0
 10
-88.931181
 20
709.532879
 30
0.0
 10
-88.039077
 20
708.131486
 30
0.0
 10
-87.124086
 20
707.551059
 30
0.0
 10
-86.663293
 20
707.258753
 30
0.0
 11
-62.143488
 21
695.029923
 31
0.0
 11
-59.769338
 21
694.560522
 31
0.0
 11
-57.544239
 21
695.311596
 31
0.0
 11
-55.940241
 21
697.123809
 31
0.0
 11
-55.467372
 21
699.497270
 31
0.0
 11
-56.215196
 21
701.723463
 31
0.0
 11
-58.025064
 21
703.330107
 31
0.0
 11
-64.373222
 21
706.501766
 31
0.0
 11
-76.162658
 21
712.391991
 31
0.0
 11
-82.510816
 21
715.563650
 31
0.0
 11
-84.064162
 21
716.024643
 31
0.0
 11
-85.658419
 21
715.929175
 31
0.0
 11
-87.145651
 21
715.286104
 31
0.0
 11
-88.321402
 21
714.171202
 31
0.0
 11
-89.035657
 21
712.742703
 31
0.0
 11
-89.222136
 21
711.133162
 31
0.0
 11
-88.844262
 21
709.557532
 31
0.0
 11
-87.964089
 21
708.224841
 31
0.0
 11
-86.663293
 21
707.258753
 31
0.0
  0
SPLINE
  5
123
100
AcDbEntity
  8
Layer_1
 62
1
100
AcDbSpline
 70
0
 71
3
 72
19
 73
15
 74
13
 40
0.000000
 40
0.000000
 40
0.000000
 40
0.000000
 40
1.213588
 40
2.417072
 40
3.630659
 40
4.844247
 40
6.047731
 40
7.261319
 40
24.117592
 40
55.422099
 40
72.278372
 40
74.705640
 40
77.060967
 40
79.488235
 40
79.488235
 40
79.488235
 40
79.488235
 10
-86.663293
 20
707.258753
 30
0.0
 10
-86.314337
 20
707.049475
 30
0.0
 10
-85.619330
 20
706.632661
 30
0.0
 10
-84.827156
 20
705.690698
 30
0.0
 10
-84.290613
 20
704.592433
 30
0.0
 10
-84.067317
 20
703.390442
 30
0.0
 10
-84.143541
 20
702.162483
 30
0.0
 10
-86.598350
 20
696.182051
 30
0.0
 10
-94.470781
 20
681.760589
 30
0.0
 10
-104.564508
 20
662.524362
 30
0.0
 10
-110.742635
 20
646.823428
 30
0.0
 10
-115.092646
 20
640.886328
 30
0.0
 10
-117.561927
 20
640.055345
 30
0.0
 10
-119.109489
 20
640.546192
 30
0.0
 10
-119.894909
 20
640.795307
 30
0.0
 11
-86.663293
 21
707.258753
 31
0.0
 11
-85.658682
 21
706.577906
 31
0.0
 11
-84.871551
 21
705.667522
 31
0.0
 11
-84.342966
 21
704.575097
 31
0.0
 11
-84.116964
 21
703.382739
 31
0.0
 11
-84.207071
 21
702.182633
 31
0.0
 11
-84.608585
 21
701.037390
 31
0.0
 11
-92.142344
 21
685.958384
 31
0.0
 11
-106.133612
 21
657.954516
 31
0.0
 11
-113.667371
 21
642.875510
 31
0.0
 11
-115.281370
 21
641.062603
 31
0.0
 11
-117.515360
 21
640.316376
 31
0.0
 11
-119.894909
 21
640.795307
 31
0.0
  0
SPLINE
  5
124
100
AcDbEntity
  8
Layer_1
 62
1
100
AcDbSpline
 70
0
 71
3
 72
13
 73
9
 74
7
 40
0.000000
 40
0.000000
 40
0.000000
 40
0.000000
 40
2.428065
 40
4.784119
 40
7.212184
 40
9.640248
 40
11.996302
 40
14.424367
 40
14.424367
 40
14.424367
 40
14.424367
 10
-119.894909
 20
640.795307
 30
0.0
 10
-120.684247
 20
641.047122
 30
0.0
 10
-122.239515
 20
641.543283
 30
0.0
 10
-124.653949
 20
640.684987
 30
0.0
 10
-126.323357
 20
638.817381
 30
0.0
 10
-126.815794
 20
636.361292
 30
0.0
 10
-126.053767
 20
633.914767
 30
0.0
 10
-124.723677
 20
632.968251
 30
0.0
 10
-124.048622
 20
632.487870
 30
0.0
 11
-119.894909
 21
640.795307
 31
0.0
 11
-122.274856
 21
641.276296
 31
0.0
 11
-124.509982
 21
640.531179
 31
0.0
 11
-126.125237
 21
638.718321
 31
0.0
 11
-126.606367
 21
636.338403
 31
0.0
 11
-125.861383
 21
634.103232
 31
0.0
 11
-124.048622
 21
632.487870
 31
0.0
  0
LWPOLYLINE
  5
125
100
AcDbEntity
  8
Layer_1
 62
1
100
AcDbPolyline
 90
2
 70
0
 10
-124.048622
 20
632.487870
 30
0.0
 10
-99.537588
 20
620.241768
 30
0.0
  0
LWPOLYLINE
  5
126
100
AcDbEntity
  8
Layer_1
 62
1
100
AcDbPolyline
 90
2
 70
1
 10
-553.846436
 20
319.147386
 30
0.0
 10
-553.846436
 20
319.147386
 30
0.0
  0
SPLINE
  5
127
100
AcDbEntity
  8
Layer_1
 62
1
100
AcDbSpline
 70
0
 71
3
 72
25
 73
21
 74
19
 40
0.000000
 40
0.000000
 40
0.000000
 40
0.000000
 40
0.769792
 40
1.528567
 40
2.298358
 40
3.068150
 40
3.826925
 40
4.596717
 40
5.366508
 40
6.125283
 40
6.895075
 40
7.664866
 40
8.423641
 40
9.193433
 40
9.963225
 40
10.721999
 40
11.491791
 40
12.261583
 40
13.020357
 40
13.790149
 40
13.790149
 40
13.790149
 40
13.790149
 10
-553.846436
 20
319.147386
 30
0.0
 10
-553.872792
 20
319.405292
 30
0.0
 10
-553.925127
 20
319.917413
 30
0.0
 10
-554.331166
 20
320.594189
 30
0.0
 10
-554.925676
 20
321.097354
 30
0.0
 10
-555.661864
 20
321.364216
 30
0.0
 10
-556.443043
 20
321.364216
 30
0.0
 10
-557.178200
 20
321.097354
 30
0.0
 10
-557.776827
 20
320.594189
 30
0.0
 10
-558.167569
 20
319.917413
 30
0.0
 10
-558.303997
 20
319.147386
 30
0.0
 10
-558.167569
 20
318.377360
 30
0.0
 10
-557.776827
 20
317.700584
 30
0.0
 10
-557.178200
 20
317.197419
 30
0.0
 10
-556.443043
 20
316.930557
 30
0.0
 10
-555.661864
 20
316.930557
 30
0.0
 10
-554.925676
 20
317.197419
 30
0.0
 10
-554.331166
 20
317.700584
 30
0.0
 10
-553.925128
 20
318.377360
 30
0.0
 10
-553.872792
 20
318.889480
 30
0.0
 10
-553.846436
 20
319.147386
 30
0.0
 11
-553.846436
 21
319.147386
 31
0.0
 11
-553.980719
 21
319.905375
 31
0.0
 11
-554.360106
 21
320.562494
 31
0.0
 11
-554.949402
 21
321.057781
 31
0.0
 11
-555.672982
 21
321.320483
 31
0.0
 11
-556.431757
 21
321.320483
 31
0.0
 11
-557.155336
 21
321.057781
 31
0.0
 11
-557.744632
 21
320.562494
 31
0.0
 11
-558.124019
 21
319.905375
 31
0.0
 11
-558.258303
 21
319.147386
 31
0.0
 11
-558.124019
 21
318.389398
 31
0.0
 11
-557.744632
 21
317.732279
 31
0.0
 11
-557.155336
 21
317.236992
 31
0.0
 11
-556.431756
 21
316.974291
 31
0.0
 11
-555.672982
 21
316.974291
 31
0.0
 11
-554.949402
 21
317.236992
 31
0.0
 11
-554.360107
 21
317.732279
 31
0.0
 11
-553.980719
 21
318.389398
 31
0.0
 11
-553.846436
 21
319.147386
 31
0.0
  0
SPLINE
  5
128
100
AcDbEntity
  8
Layer_1
 62
1
100
AcDbSpline
 70
0
 71
3
 72
13
 73
9
 74
7
 40
0.000000
 40
0.000000
 40
0.000000
 40
0.000000
 40
2.425614
 40
4.779417
 40
7.205031
 40
9.630645
 40
11.984447
 40
14.410061
 40
14.410061
 40
14.410061
 40
14.410061
 10
-491.668731
 20
94.583787
 30
0.0
 10
-491.418340
 20
95.372658
 30
0.0
 10
-490.924971
 20
96.927046
 30
0.0
 10
-491.784281
 20
99.338084
 30
0.0
 10
-493.650318
 20
101.005184
 30
0.0
 10
-496.103625
 20
101.497730
 30
0.0
 10
-498.548034
 20
100.738531
 30
0.0
 10
-499.495510
 20
99.411194
 30
0.0
 10
-499.976366
 20
98.737553
 30
0.0
 11
-491.668731
 21
94.583787
 31
0.0
 11
-491.191454
 21
96.961982
 31
0.0
 11
-491.937689
 21
99.194361
 31
0.0
 11
-493.749172
 21
100.807474
 31
0.0
 11
-496.126557
 21
101.288770
 31
0.0
 11
-498.360194
 21
100.546308
 31
0.0
 11
-499.976366
 21
98.737553
 31
0.0
  0
LWPOLYLINE
  5
129
100
AcDbEntity
  8
Layer_1
 62
1
100
AcDbPolyline
 90
2
 70
0
 10
-503.922425
 20
70.076475
 30
0.0
 10
-491.668731
 20
94.583787
 30
0.0
  0
SPLINE
  5
12a
100
AcDbEntity
  8
Layer_1
 62
1
100
AcDbSpline
 70
0
 71
3
 72
10
 73
6
 74
4
 40
0.000000
 40
0.000000
 40
0.000000
 40
0.000000
 40
2.428187
 40
4.784355
 40
7.212543
 40
7.212543
 40
7.212543
 40
7.212543
 10
-499.976366
 20
98.737553
 30
0.0
 10
-500.454538
 20
98.066829
 30
0.0
 10
-501.396699
 20
96.745274
 30
0.0
 10
-503.875373
 20
95.919036
 30
0.0
 10
-505.422040
 20
96.410969
 30
0.0
 10
-506.207014
 20
96.660638
 30
0.0
 11
-499.976366
 21
98.737553
 31
0.0
 11
-501.591714
 21
96.924616
 31
0.0
 11
-503.826968
 21
96.179519
 31
0.0
 11
-506.207014
 21
96.660638
 31
0.0
  0
SPLINE
  5
12b
100
AcDbEntity
  8
Layer_1
 62
1
100
AcDbSpline
 70
0
 71
3
 72
16
 73
12
 74
10
 40
0.000000
 40
0.000000
 40
0.000000
 40
0.000000
 40
6.080285
 40
17.372242
 40
23.452527
 40
24.668235
 40
25.873882
 40
27.089590
 40
28.305298
 40
29.510945
 40
30.726653
 40
30.726653
 40
30.726653
 40
30.726653
 10
-560.621519
 20
123.867893
 30
0.0
 10
-559.719295
 20
125.682573
 30
0.0
 10
-557.141513
 20
130.867375
 30
0.0
 10
-553.523528
 20
137.804341
 30
0.0
 10
-550.992486
 20
143.454886
 30
0.0
 10
-549.504516
 20
145.889626
 30
0.0
 10
-548.564895
 20
146.685778
 30
0.0
 10
-547.465275
 20
147.225550
 30
0.0
 10
-546.262282
 20
147.452900
 30
0.0
 10
-545.031444
 20
147.382277
 30
0.0
 10
-544.279859
 20
147.075418
 30
0.0
 10
-543.902505
 20
146.921350
 30
0.0
 11
-560.621519
 21
123.867893
 31
0.0
 11
-557.902327
 21
129.306262
 31
0.0
 11
-552.852401
 21
139.406091
 31
0.0
 11
-550.133210
 21
144.844460
 31
0.0
 11
-549.451896
 21
145.851315
 31
0.0
 11
-548.541086
 21
146.641259
 31
0.0
 11
-547.447998
 21
147.173336
 31
0.0
 11
-546.254282
 21
147.403523
 31
0.0
 11
-545.051668
 21
147.318050
 31
0.0
 11
-543.902505
 21
146.921350
 31
0.0
  0
LWPOLYLINE
  5
12c
100
AcDbEntity
  8
Layer_1
 62
1
100
AcDbPolyline
 90
2
 70
0
 10
-506.207014
 20
96.660638
 30
0.0
 10
-560.621519
 20
123.867893
 30
0.0
  0
SPLINE
  5
12d
100
AcDbEntity
  8
Layer_1
 62
1
100
AcDbSpline
 70
0
 71
3
 72
16
 73
12
 74
10
 40
0.000000
 40
0.000000
 40
0.000000
 40
0.000000
 40
1.621868
 40
3.220491
 40
4.842359
 40
6.464227
 40
8.062850
 40
9.684718
 40
11.306586
 40
12.905209
 40
14.527077
 40
14.527077
 40
14.527077
 40
14.527077
 10
-543.902505
 20
146.921350
 30
0.0
 10
-543.391870
 20
146.727426
 30
0.0
 10
-542.377917
 20
146.342358
 30
0.0
 10
-540.719808
 20
146.468528
 30
0.0
 10
-539.211087
 20
147.113915
 30
0.0
 10
-538.014124
 20
148.249646
 30
0.0
 10
-537.278335
 20
149.721226
 30
0.0
 10
-537.087929
 20
151.360235
 30
0.0
 10
-537.476852
 20
152.954443
 30
0.0
 10
-538.370783
 20
154.356632
 30
0.0
 10
-539.287209
 20
154.936752
 30
0.0
 10
-539.748730
 20
155.228906
 30
0.0
 11
-543.902505
 21
146.921350
 31
0.0
 11
-542.348077
 21
146.458522
 31
0.0
 11
-540.752249
 21
146.553009
 31
0.0
 11
-539.263296
 21
147.196031
 31
0.0
 11
-538.086167
 21
148.311747
 31
0.0
 11
-537.371242
 21
149.741599
 31
0.0
 11
-537.184947
 21
151.352732
 31
0.0
 11
-537.563902
 21
152.929707
 31
0.0
 11
-538.445810
 21
154.263061
 31
0.0
 11
-539.748730
 21
155.228906
 31
0.0
  0
SPLINE
  5
12e
100
AcDbEntity
  8
Layer_1
 62
1
100
AcDbSpline
 70
0
 71
3
 72
13
 73
9
 74
7
 40
0.000000
 40
0.000000
 40
0.000000
 40
0.000000
 40
2.425029
 40
4.778291
 40
7.203320
 40
9.628349
 40
11.981612
 40
14.406640
 40
14.406640
 40
14.406640
 40
14.406640
 10
-564.256118
 20
167.482549
 30
0.0
 10
-565.044872
 20
167.732618
 30
0.0
 10
-566.599038
 20
168.225356
 30
0.0
 10
-569.009280
 20
167.365836
 30
0.0
 10
-570.675843
 20
165.500183
 30
0.0
 10
-571.168414
 20
163.047538
 30
0.0
 10
-570.409870
 20
160.603637
 30
0.0
 10
-569.083175
 20
159.655954
 30
0.0
 10
-568.409864
 20
159.174996
 30
0.0
 11
-564.256118
 21
167.482549
 31
0.0
 11
-566.633883
 21
167.958990
 31
0.0
 11
-568.865615
 21
167.212520
 31
0.0
 11
-570.478229
 21
165.401377
 31
0.0
 11
-570.959562
 21
163.024597
 31
0.0
 11
-570.217686
 21
160.791333
 31
0.0
 11
-568.409864
 21
159.174996
 31
0.0
  0
LWPOLYLINE
  5
12f
100
AcDbEntity
  8
Layer_1
 62
1
100
AcDbPolyline
 90
2
 70
0
 10
-539.748730
 20
155.228906
 30
0.0
 10
-564.256118
 20
167.482549
 30
0.0
  0
SPLINE
  5
130
100
AcDbEntity
  8
Layer_1
 62
1
100
AcDbSpline
 70
0
 71
3
 72
10
 73
6
 74
4
 40
0.000000
 40
0.000000
 40
0.000000
 40
0.000000
 40
2.428191
 40
4.784362
 40
7.212552
 40
7.212552
 40
7.212552
 40
7.212552
 10
-568.409864
 20
159.174996
 30
0.0
 10
-567.739138
 20
158.696826
 30
0.0
 10
-566.417578
 20
157.754667
 30
0.0
 10
-565.591334
 20
155.275990
 30
0.0
 10
-566.083266
 20
153.729321
 30
0.0
 10
-566.332934
 20
152.944345
 30
0.0
 11
-568.409864
 21
159.174996
 31
0.0
 11
-566.596920
 21
157.559650
 31
0.0
 11
-565.851818
 21
155.324395
 31
0.0
 11
-566.332934
 21
152.944345
 31
0.0
  0
SPLINE
  5
131
100
AcDbEntity
  8
Layer_1
 62
1
100
AcDbSpline
 70
0
 71
3
 72
13
 73
9
 74
7
 40
0.000000
 40
0.000000
 40
0.000000
 40
0.000000
 40
1.215714
 40
2.421367
 40
3.637081
 40
4.852795
 40
6.058448
 40
7.274162
 40
7.274162
 40
7.274162
 40
7.274162
 10
-595.409387
 20
94.791446
 30
0.0
 10
-595.618833
 20
94.441775
 30
0.0
 10
-596.035993
 20
93.745328
 30
0.0
 10
-596.978271
 20
92.950374
 30
0.0
 10
-598.077183
 20
92.410276
 30
0.0
 10
-599.280373
 20
92.183016
 30
0.0
 10
-600.511168
 20
92.253622
 30
0.0
 10
-601.262762
 20
92.560490
 30
0.0
 10
-601.640120
 20
92.714561
 30
0.0
 11
-595.409387
 21
94.791446
 31
0.0
 11
-596.090703
 21
93.784585
 31
0.0
 11
-597.001518
 21
92.994638
 31
0.0
 11
-598.094611
 21
92.462560
 31
0.0
 11
-599.288334
 21
92.232376
 31
0.0
 11
-600.490954
 21
92.317853
 31
0.0
 11
-601.640120
 21
92.714561
 31
0.0
  0
SPLINE
  5
132
100
AcDbEntity
  8
Layer_1
 62
1
100
AcDbSpline
 70
0
 71
3
 72
25
 73
21
 74
19
 40
0.000000
 40
0.000000
 40
0.000000
 40
0.000000
 40
1.623108
 40
3.222920
 40
4.846028
 40
6.469136
 40
8.068948
 40
9.692056
 40
11.315165
 40
12.914977
 40
14.538085
 40
21.641790
 40
34.834385
 40
41.938090
 40
44.362793
 40
46.715757
 40
49.140461
 40
51.565164
 40
53.918128
 40
56.342831
 40
56.342831
 40
56.342831
 40
56.342831
 10
-601.640120
 20
92.714561
 30
0.0
 10
-602.150936
 20
92.909210
 30
0.0
 10
-603.165236
 20
93.295713
 30
0.0
 10
-604.824773
 20
93.170758
 30
0.0
 10
-606.335025
 20
92.525665
 30
0.0
 10
-607.533224
 20
91.389378
 30
0.0
 10
-608.269631
 20
89.916542
 30
0.0
 10
-608.459591
 20
88.276548
 30
0.0
 10
-608.070083
 20
86.679946
 30
0.0
 10
-607.172174
 20
85.282350
 30
0.0
 10
-604.248724
 20
83.385218
 30
0.0
 10
-597.578327
 20
80.443392
 30
0.0
 10
-589.337702
 20
76.430462
 30
0.0
 10
-582.858969
 20
72.550429
 30
0.0
 10
-578.936641
 20
71.423212
 30
0.0
 10
-576.535996
 20
72.267416
 30
0.0
 10
-574.867233
 20
74.137072
 30
0.0
 10
-574.375312
 20
76.588214
 30
0.0
 10
-575.133303
 20
79.032127
 30
0.0
 10
-576.459655
 20
79.979899
 30
0.0
 10
-577.132789
 20
80.460901
 30
0.0
 11
-601.640120
 21
92.714561
 31
0.0
 11
-603.195242
 21
93.179402
 31
0.0
 11
-604.792332
 21
93.086123
 31
0.0
 11
-606.282766
 21
92.443406
 31
0.0
 11
-607.461090
 21
91.327147
 31
0.0
 11
-608.176544
 21
89.896230
 31
0.0
 11
-608.362549
 21
88.283815
 31
0.0
 11
-607.982454
 21
86.705839
 31
0.0
 11
-607.098816
 21
85.372204
 31
0.0
 11
-605.793866
 21
84.407017
 31
0.0
 11
-599.440121
 21
81.230140
 31
0.0
 11
-587.640309
 21
75.330226
 31
0.0
 11
-581.286564
 21
72.153349
 31
0.0
 11
-578.909034
 21
71.677388
 31
0.0
 11
-576.677663
 21
72.423996
 31
0.0
 11
-575.065327
 21
74.234951
 31
0.0
 11
-574.583965
 21
76.611394
 31
0.0
 11
-575.325501
 21
78.844455
 31
0.0
 11
-577.132789
 21
80.460901
 31
0.0
  0
LWPOLYLINE
  5
133
100
AcDbEntity
  8
Layer_1
 62
1
100
AcDbPolyline
 90
2
 70
0
 10
-566.332934
 20
152.944345
 30
0.0
 10
-595.409387
 20
94.791446
 30
0.0
  0
SPLINE
  5
134
100
AcDbEntity
  8
Layer_1
 62
1
100
AcDbSpline
 70
0
 71
3
 72
13
 73
9
 74
7
 40
0.000000
 40
0.000000
 40
0.000000
 40
0.000000
 40
1.215703
 40
2.421345
 40
3.637047
 40
4.852750
 40
6.058392
 40
7.274094
 40
7.274094
 40
7.274094
 40
7.274094
 10
-577.132789
 20
80.460901
 30
0.0
 10
-577.482456
 20
80.670346
 30
0.0
 10
-578.178896
 20
81.087503
 30
0.0
 10
-578.973844
 20
82.029770
 30
0.0
 10
-579.513940
 20
83.128671
 30
0.0
 10
-579.741207
 20
84.331848
 30
0.0
 10
-579.670612
 20
85.562631
 30
0.0
 10
-579.363756
 20
86.314221
 30
0.0
 10
-579.209690
 20
86.691578
 30
0.0
 11
-577.132789
 21
80.460901
 31
0.0
 11
-578.139640
 21
81.142212
 31
0.0
 11
-578.929580
 21
82.053017
 31
0.0
 11
-579.461658
 21
83.146098
 31
0.0
 11
-579.691848
 21
84.339809
 31
0.0
 11
-579.606382
 21
85.542418
 31
0.0
 11
-579.209690
 21
86.691578
 31
0.0
  0
SPLINE
  5
135
100
AcDbEntity
  8
Layer_1
 62
1
100
AcDbSpline
 70
0
 71
3
 72
10
 73
6
 74
4
 40
0.000000
 40
0.000000
 40
0.000000
 40
0.000000
 40
2.428188
 40
4.784357
 40
7.212545
 40
7.212545
 40
7.212545
 40
7.212545
 10
-514.306848
 20
80.460901
 30
0.0
 10
-513.636123
 20
79.982731
 30
0.0
 10
-512.314565
 20
79.040573
 30
0.0
 10
-511.488321
 20
76.561899
 30
0.0
 10
-511.980251
 20
75.015231
 30
0.0
 10
-512.229918
 20
74.230256
 30
0.0
 11
-514.306848
 21
80.460901
 31
0.0
 11
-512.493906
 21
78.845557
 31
0.0
 11
-511.748805
 21
76.610304
 31
0.0
 11
-512.229918
 21
74.230256
 31
0.0
  0
LWPOLYLINE
  5
136
100
AcDbEntity
  8
Layer_1
 62
1
100
AcDbPolyline
 90
3
 70
0
 10
-579.209690
 20
86.691578
 30
0.0
 10
-568.721409
 20
107.668168
 30
0.0
 10
-514.306848
 20
80.460901
 30
0.0
  0
SPLINE
  5
137
100
AcDbEntity
  8
Layer_1
 62
1
100
AcDbSpline
 70
0
 71
3
 72
13
 73
9
 74
7
 40
0.000000
 40
0.000000
 40
0.000000
 40
0.000000
 40
2.422781
 40
4.773976
 40
7.196757
 40
9.619538
 40
11.970733
 40
14.393514
 40
14.393514
 40
14.393514
 40
14.393514
 10
-512.229918
 20
74.230256
 30
0.0
 10
-512.478716
 20
73.441942
 30
0.0
 10
-512.968960
 20
71.888606
 30
0.0
 10
-512.108578
 20
69.481450
 30
0.0
 10
-510.244387
 20
67.816970
 30
0.0
 10
-507.794292
 20
67.324290
 30
0.0
 10
-505.352334
 20
68.080262
 30
0.0
 10
-504.403802
 20
69.404452
 30
0.0
 10
-503.922425
 20
70.076475
 30
0.0
 11
-512.229918
 21
74.230256
 31
0.0
 11
-512.703052
 21
71.854122
 31
0.0
 11
-511.955622
 21
69.624892
 31
0.0
 11
-510.145765
 21
68.014213
 31
0.0
 11
-507.771311
 21
67.532719
 31
0.0
 11
-505.539464
 21
68.272299
 31
0.0
 11
-503.922425
 21
70.076475
 31
0.0
  0
SPLINE
  5
138
100
AcDbEntity
  8
Layer_1
 62
1
100
AcDbSpline
 70
0
 71
3
 72
13
 73
9
 74
7
 40
0.000000
 40
0.000000
 40
0.000000
 40
0.000000
 40
2.426676
 40
4.781454
 40
7.208130
 40
9.634806
 40
11.989584
 40
14.416259
 40
14.416259
 40
14.416259
 40
14.416259
 10
-514.929910
 20
204.866559
 30
0.0
 10
-514.140836
 20
204.615552
 30
0.0
 10
-512.586067
 20
204.120973
 30
0.0
 10
-510.173557
 20
204.979841
 30
0.0
 10
-508.505453
 20
206.846554
 30
0.0
 10
-508.012947
 20
209.301065
 30
0.0
 10
-508.773360
 20
211.746393
 30
0.0
 10
-510.101885
 20
212.693461
 30
0.0
 10
-510.776135
 20
213.174115
 30
0.0
 11
-514.929910
 21
204.866559
 31
0.0
 11
-512.550956
 21
204.387674
 31
0.0
 11
-510.317385
 21
205.133422
 31
0.0
 11
-508.703340
 21
206.945497
 31
0.0
 11
-508.222108
 21
209.323978
 31
0.0
 11
-508.965653
 21
211.558284
 31
0.0
 11
-510.776135
 21
213.174115
 31
0.0
  0
LWPOLYLINE
  5
139
100
AcDbEntity
  8
Layer_1
 62
1
100
AcDbPolyline
 90
2
 70
0
 10
-539.437213
 20
217.120214
 30
0.0
 10
-514.929910
 20
204.866559
 30
0.0
  0
SPLINE
  5
13a
100
AcDbEntity
  8
Layer_1
 62
1
100
AcDbSpline
 70
0
 71
3
 72
10
 73
6
 74
4
 40
0.000000
 40
0.000000
 40
0.000000
 40
0.000000
 40
2.428188
 40
4.784356
 40
7.212544
 40
7.212544
 40
7.212544
 40
7.212544
 10
-510.776135
 20
213.174115
 30
0.0
 10
-511.446859
 20
213.652288
 30
0.0
 10
-512.768412
 20
214.594452
 30
0.0
 10
-513.594644
 20
217.073129
 30
0.0
 10
-513.102708
 20
218.619795
 30
0.0
 10
-512.853037
 20
219.404769
 30
0.0
 11
-510.776135
 21
213.174115
 31
0.0
 11
-512.589070
 21
214.789468
 31
0.0
 11
-513.334161
 21
217.024724
 31
0.0
 11
-512.853037
 21
219.404769
 31
0.0
  0
SPLINE
  5
13b
100
AcDbEntity
  8
Layer_1
 62
1
100
AcDbSpline
 70
0
 71
3
 72
13
 73
9
 74
7
 40
0.000000
 40
0.000000
 40
0.000000
 40
0.000000
 40
1.215703
 40
2.421345
 40
3.637047
 40
4.852750
 40
6.058392
 40
7.274094
 40
7.274094
 40
7.274094
 40
7.274094
 10
-464.669180
 20
263.330995
 30
0.0
 10
-464.319513
 20
263.121550
 30
0.0
 10
-463.623073
 20
262.704394
 30
0.0
 10
-462.828125
 20
261.762126
 30
0.0
 10
-462.288029
 20
260.663226
 30
0.0
 10
-462.060762
 20
259.460049
 30
0.0
 10
-462.131357
 20
258.229266
 30
0.0
 10
-462.438213
 20
257.477675
 30
0.0
 10
-462.592279
 20
257.100319
 30
0.0
 11
-464.669180
 21
263.330995
 31
0.0
 11
-463.662330
 21
262.649685
 31
0.0
 11
-462.872389
 21
261.738880
 31
0.0
 11
-462.340311
 21
260.645799
 31
0.0
 11
-462.110121
 21
259.452088
 31
0.0
 11
-462.195588
 21
258.249479
 31
0.0
 11
-462.592279
 21
257.100319
 31
0.0
  0
LWPOLYLINE
  5
13c
100
AcDbEntity
  8
Layer_1
 62
1
100
AcDbPolyline
 90
3
 70
0
 10
-512.853037
 20
219.404769
 30
0.0
 10
-485.645770
 20
273.819276
 30
0.0
 10
-464.669180
 20
263.330995
 30
0.0
  0
SPLINE
  5
13d
100
AcDbEntity
  8
Layer_1
 62
1
100
AcDbSpline
 70
0
 71
3
 72
16
 73
12
 74
10
 40
0.000000
 40
0.000000
 40
0.000000
 40
0.000000
 40
1.624077
 40
3.224817
 40
4.848894
 40
6.472971
 40
8.073711
 40
9.697788
 40
11.321864
 40
12.922605
 40
14.546681
 40
14.546681
 40
14.546681
 40
14.546681
 10
-462.592279
 20
257.100319
 30
0.0
 10
-462.787498
 20
256.589364
 30
0.0
 10
-463.175131
 20
255.574797
 30
0.0
 10
-463.051137
 20
253.914142
 30
0.0
 10
-462.406300
 20
252.402695
 30
0.0
 10
-461.269543
 20
251.203500
 30
0.0
 10
-459.795904
 20
250.466673
 30
0.0
 10
-458.154496
 20
250.276769
 30
0.0
 10
-456.558432
 20
250.667755
 30
0.0
 10
-455.155504
 20
251.564940
 30
0.0
 10
-454.576422
 20
252.483782
 30
0.0
 10
-454.284786
 20
252.946527
 30
0.0
 11
-462.592279
 21
257.100319
 31
0.0
 11
-463.058705
 21
255.544661
 31
0.0
 11
-462.966384
 21
253.946585
 31
0.0
 11
-462.323919
 21
252.454987
 31
0.0
 11
-461.207247
 21
251.275721
 31
0.0
 11
-459.775504
 21
250.559842
 31
0.0
 11
-458.162089
 21
250.374050
 31
0.0
 11
-456.583329
 21
250.755022
 31
0.0
 11
-455.249468
 21
251.640000
 31
0.0
 11
-454.284786
 21
252.946527
 31
0.0
  0
SPLINE
  5
13e
100
AcDbEntity
  8
Layer_1
 62
1
100
AcDbSpline
 70
0
 71
3
 72
16
 73
12
 74
10
 40
0.000000
 40
0.000000
 40
0.000000
 40
0.000000
 40
1.622636
 40
3.221995
 40
4.844632
 40
6.467268
 40
8.066627
 40
9.689263
 40
11.311899
 40
12.911258
 40
14.533894
 40
14.533894
 40
14.533894
 40
14.533894
 10
-442.031092
 20
277.453818
 30
0.0
 10
-441.836719
 20
277.964565
 30
0.0
 10
-441.450761
 20
278.978733
 30
0.0
 10
-441.576178
 20
280.637727
 30
0.0
 10
-442.221376
 20
282.147395
 30
0.0
 10
-443.357465
 20
283.345133
 30
0.0
 10
-444.829761
 20
284.081283
 30
0.0
 10
-446.469604
 20
284.271515
 30
0.0
 10
-448.064458
 20
283.881876
 30
0.0
 10
-449.466905
 20
282.986815
 30
0.0
 10
-450.046667
 20
282.069550
 30
0.0
 10
-450.338642
 20
281.607604
 30
0.0
 11
-442.031092
 21
277.453818
 31
0.0
 11
-441.567017
 21
279.008676
 31
0.0
 11
-441.660753
 21
280.605286
 31
0.0
 11
-442.303584
 21
282.095157
 31
0.0
 11
-443.419634
 21
283.273029
 31
0.0
 11
-444.850143
 21
283.988285
 31
0.0
 11
-446.462070
 21
284.174405
 31
0.0
 11
-448.039666
 21
283.794751
 31
0.0
 11
-449.373198
 21
282.911777
 31
0.0
 11
-450.338642
 21
281.607604
 31
0.0
  0
SPLINE
  5
13f
100
AcDbEntity
  8
Layer_1
 62
1
100
AcDbSpline
 70
0
 71
3
 72
22
 73
18
 74
16
 40
0.000000
 40
0.000000
 40
0.000000
 40
0.000000
 40
1.215708
 40
2.421355
 40
3.637063
 40
4.852771
 40
6.058419
 40
7.274127
 40
24.130365
 40
55.434808
 40
72.291047
 40
73.506748
 40
74.712388
 40
75.928089
 40
77.143789
 40
78.349430
 40
79.565130
 40
79.565130
 40
79.565130
 40
79.565130
 10
-450.338642
 20
281.607604
 30
0.0
 10
-450.548087
 20
281.257936
 30
0.0
 10
-450.965244
 20
280.561495
 30
0.0
 10
-451.907527
 20
279.766526
 30
0.0
 10
-453.006394
 20
279.226501
 30
0.0
 10
-454.209725
 20
278.998971
 30
0.0
 10
-455.439966
 20
279.070564
 30
0.0
 10
-461.434660
 20
281.493894
 30
0.0
 10
-475.807398
 20
289.478813
 30
0.0
 10
-495.220913
 20
299.185623
 30
0.0
 10
-510.232541
 20
305.892772
 30
0.0
 10
-515.767987
 20
309.234577
 30
0.0
 10
-516.563395
 20
310.175813
 30
0.0
 10
-517.103360
 20
311.274992
 30
0.0
 10
-517.330655
 20
312.478094
 30
0.0
 10
-517.260047
 20
313.708895
 30
0.0
 10
-516.953190
 20
314.460480
 30
0.0
 10
-516.799124
 20
314.837834
 30
0.0
 11
-450.338642
 21
281.607604
 31
0.0
 11
-451.019955
 21
280.600748
 31
0.0
 11
-451.930765
 21
279.810805
 31
0.0
 11
-453.023853
 21
279.278728
 31
0.0
 11
-454.217570
 21
279.048541
 31
0.0
 11
-455.420183
 21
279.134014
 31
0.0
 11
-456.569346
 21
279.530713
 31
0.0
 11
-471.646025
 21
287.069051
 31
0.0
 11
-499.645572
 21
301.068820
 31
0.0
 11
-514.722251
 21
308.607157
 31
0.0
 11
-515.729097
 21
309.288471
 31
0.0
 11
-516.519032
 21
310.199279
 31
0.0
 11
-517.051104
 21
311.292361
 31
0.0
 11
-517.281289
 21
312.486071
 31
0.0
 11
-517.195819
 21
313.688677
 31
0.0
 11
-516.799124
 21
314.837834
 31
0.0
  0
LWPOLYLINE
  5
140
100
AcDbEntity
  8
Layer_1
 62
1
100
AcDbPolyline
 90
2
 70
0
 10
-454.284786
 20
252.946527
 30
0.0
 10
-442.031092
 20
277.453818
 30
0.0
  0
SPLINE
  5
141
100
AcDbEntity
  8
Layer_1
 62
1
100
AcDbSpline
 70
0
 71
3
 72
16
 73
12
 74
10
 40
0.000000
 40
0.000000
 40
0.000000
 40
0.000000
 40
1.621210
 40
3.219202
 40
4.840412
 40
6.461623
 40
8.059615
 40
9.680825
 40
11.302035
 40
12.900027
 40
14.521237
 40
14.521237
 40
14.521237
 40
14.521237
 10
-516.799124
 20
314.837834
 30
0.0
 10
-516.605587
 20
315.348374
 30
0.0
 10
-516.221283
 20
316.362143
 30
0.0
 10
-516.348101
 20
318.019493
 30
0.0
 10
-516.993651
 20
319.527401
 30
0.0
 10
-518.129075
 20
320.723700
 30
0.0
 10
-519.600041
 20
321.459183
 30
0.0
 10
-521.238335
 20
321.649741
 30
0.0
 10
-522.831991
 20
321.261435
 30
0.0
 10
-524.233961
 20
320.368478
 30
0.0
 10
-524.814393
 20
319.452774
 30
0.0
 10
-525.106702
 20
318.991620
 30
0.0
 11
-516.799124
 21
314.837834
 31
0.0
 11
-516.337369
 21
316.391895
 31
0.0
 11
-516.432501
 21
317.987053
 31
0.0
 11
-517.075688
 21
319.475217
 31
0.0
 11
-518.191119
 21
320.651711
 31
0.0
 11
-519.620406
 21
321.366354
 31
0.0
 11
-521.230860
 21
321.552801
 31
0.0
 11
-522.807303
 21
321.174451
 31
0.0
 11
-524.140508
 21
320.293461
 31
0.0
 11
-525.106702
 21
318.991620
 31
0.0
  0
SPLINE
  5
142
100
AcDbEntity
  8
Layer_1
 62
1
100
AcDbSpline
 70
0
 71
3
 72
13
 73
9
 74
7
 40
0.000000
 40
0.000000
 40
0.000000
 40
0.000000
 40
2.425931
 40
4.780023
 40
7.205953
 40
9.631884
 40
11.985976
 40
14.411907
 40
14.411907
 40
14.411907
 40
14.411907
 10
-537.360312
 20
294.484330
 30
0.0
 10
-537.610896
 20
293.695401
 30
0.0
 10
-538.104644
 20
292.140905
 30
0.0
 10
-537.245486
 20
289.729420
 30
0.0
 10
-535.379257
 20
288.062009
 30
0.0
 10
-532.925593
 20
287.569466
 30
0.0
 10
-530.480908
 20
288.329024
 30
0.0
 10
-529.533556
 20
289.656718
 30
0.0
 10
-529.052762
 20
290.330541
 30
0.0
 11
-537.360312
 21
294.484330
 31
0.0
 11
-537.838095
 21
292.105914
 31
0.0
 11
-537.092025
 21
289.873174
 31
0.0
 11
-535.280375
 21
288.259772
 31
0.0
 11
-532.902666
 21
287.778487
 31
0.0
 11
-530.668829
 21
288.521269
 31
0.0
 11
-529.052762
 21
290.330541
 31
0.0
  0
LWPOLYLINE
  5
143
100
AcDbEntity
  8
Layer_1
 62
1
100
AcDbPolyline
 90
2
 70
0
 10
-525.106702
 20
318.991620
 30
0.0
 10
-537.360312
 20
294.484330
 30
0.0
  0
SPLINE
  5
144
100
AcDbEntity
  8
Layer_1
 62
1
100
AcDbSpline
 70
0
 71
3
 72
10
 73
6
 74
4
 40
0.000000
 40
0.000000
 40
0.000000
 40
0.000000
 40
2.428185
 40
4.784351
 40
7.212536
 40
7.212536
 40
7.212536
 40
7.212536
 10
-529.052762
 20
290.330541
 30
0.0
 10
-528.574589
 20
291.001263
 30
0.0
 10
-527.632425
 20
292.322815
 30
0.0
 10
-525.153751
 20
293.149046
 30
0.0
 10
-523.607087
 20
292.657112
 30
0.0
 10
-522.822114
 20
292.407442
 30
0.0
 11
-529.052762
 21
290.330541
 31
0.0
 11
-527.437410
 21
292.143473
 31
0.0
 11
-525.202156
 21
292.888564
 31
0.0
 11
-522.822114
 21
292.407442
 31
0.0
  0
SPLINE
  5
145
100
AcDbEntity
  8
Layer_1
 62
1
100
AcDbSpline
 70
0
 71
3
 72
13
 73
9
 74
7
 40
0.000000
 40
0.000000
 40
0.000000
 40
0.000000
 40
1.215702
 40
2.421344
 40
3.637046
 40
4.852748
 40
6.058390
 40
7.274092
 40
7.274092
 40
7.274092
 40
7.274092
 10
-529.052762
 20
227.504657
 30
0.0
 10
-529.262207
 20
227.154990
 30
0.0
 10
-529.679364
 20
226.458550
 30
0.0
 10
-530.621632
 20
225.663603
 30
0.0
 10
-531.720532
 20
225.123508
 30
0.0
 10
-532.923709
 20
224.896243
 30
0.0
 10
-534.154492
 20
224.966838
 30
0.0
 10
-534.906082
 20
225.273695
 30
0.0
 10
-535.283438
 20
225.427761
 30
0.0
 11
-529.052762
 21
227.504657
 31
0.0
 11
-529.734073
 21
226.497807
 31
0.0
 11
-530.644879
 21
225.707867
 31
0.0
 11
-531.737960
 21
225.175791
 31
0.0
 11
-532.931670
 21
224.945602
 31
0.0
 11
-534.134279
 21
225.031069
 31
0.0
 11
-535.283438
 21
225.427761
 31
0.0
  0
LWPOLYLINE
  5
146
100
AcDbEntity
  8
Layer_1
 62
1
100
AcDbPolyline
 90
3
 70
0
 10
-522.822114
 20
292.407442
 30
0.0
 10
-501.845524
 20
281.919130
 30
0.0
 10
-529.052762
 20
227.504657
 30
0.0
  0
SPLINE
  5
147
100
AcDbEntity
  8
Layer_1
 62
1
100
AcDbSpline
 70
0
 71
3
 72
13
 73
9
 74
7
 40
0.000000
 40
0.000000
 40
0.000000
 40
0.000000
 40
2.425712
 40
4.779603
 40
7.205314
 40
9.631026
 40
11.984917
 40
14.410628
 40
14.410628
 40
14.410628
 40
14.410628
 10
-535.283438
 20
225.427761
 30
0.0
 10
-536.072325
 20
225.678220
 30
0.0
 10
-537.626740
 20
226.171724
 30
0.0
 10
-540.037924
 20
225.312479
 30
0.0
 10
-541.705130
 20
223.446390
 30
0.0
 10
-542.197678
 20
220.992972
 30
0.0
 10
-541.438365
 20
218.548478
 30
0.0
 10
-540.110913
 20
217.601047
 30
0.0
 10
-539.437213
 20
217.120214
 30
0.0
 11
-535.283438
 21
225.427761
 31
0.0
 11
-537.661696
 21
225.905220
 31
0.0
 11
-539.894192
 21
225.159053
 31
0.0
 11
-541.507402
 21
223.347526
 31
0.0
 11
-541.988698
 21
220.970042
 31
0.0
 11
-541.246135
 21
218.736345
 31
0.0
 11
-539.437213
 21
217.120214
 31
0.0
  0
SPLINE
  5
148
100
AcDbEntity
  8
Layer_1
 62
1
100
AcDbSpline
 70
0
 71
3
 72
13
 73
9
 74
7
 40
0.000000
 40
0.000000
 40
0.000000
 40
0.000000
 40
2.425239
 40
4.778695
 40
7.203934
 40
9.629172
 40
11.982628
 40
14.407867
 40
14.407867
 40
14.407867
 40
14.407867
 10
-381.385967
 20
117.844929
 30
0.0
 10
-382.174762
 20
118.095117
 30
0.0
 10
-383.729006
 20
118.588089
 30
0.0
 10
-386.139537
 20
117.728651
 30
0.0
 10
-387.806295
 20
115.862863
 30
0.0
 10
-388.298857
 20
113.409979
 30
0.0
 10
-387.540074
 20
110.965897
 30
0.0
 10
-386.213145
 20
110.018293
 30
0.0
 10
-385.539714
 20
109.537374
 30
0.0
 11
-381.385967
 21
117.844929
 31
0.0
 11
-383.763884
 21
118.321681
 31
0.0
 11
-385.995851
 21
117.575302
 31
0.0
 11
-387.608646
 21
115.764038
 31
0.0
 11
-388.089965
 21
113.387041
 31
0.0
 11
-387.347875
 21
111.153645
 31
0.0
 11
-385.539714
 21
109.537374
 31
0.0
  0
LWPOLYLINE
  5
149
100
AcDbEntity
  8
Layer_1
 62
1
100
AcDbPolyline
 90
2
 70
0
 10
-356.878692
 20
105.591280
 30
0.0
 10
-381.385967
 20
117.844929
 30
0.0
  0
SPLINE
  5
14a
100
AcDbEntity
  8
Layer_1
 62
1
100
AcDbSpline
 70
0
 71
3
 72
13
 73
9
 74
7
 40
0.000000
 40
0.000000
 40
0.000000
 40
0.000000
 40
1.215701
 40
2.421342
 40
3.637043
 40
4.852744
 40
6.058384
 40
7.274085
 40
7.274085
 40
7.274085
 40
7.274085
 10
-385.539714
 20
109.537374
 30
0.0
 10
-385.190048
 20
109.327927
 30
0.0
 10
-384.493611
 20
108.910768
 30
0.0
 10
-383.698668
 20
107.968497
 30
0.0
 10
-383.158577
 20
106.869596
 30
0.0
 10
-382.931316
 20
105.666419
 30
0.0
 10
-383.001915
 20
104.435638
 30
0.0
 10
-383.308774
 20
103.684050
 30
0.0
 10
-383.462840
 20
103.306694
 30
0.0
 11
-385.539714
 21
109.537374
 31
0.0
 11
-384.532868
 21
108.856059
 31
0.0
 11
-383.742932
 21
107.945251
 31
0.0
 11
-383.210860
 21
106.852169
 31
0.0
 11
-382.980675
 21
105.658459
 31
0.0
 11
-383.066146
 21
104.455851
 31
0.0
 11
-383.462840
 21
103.306694
 31
0.0
  0
SPLINE
  5
14b
100
AcDbEntity
  8
Layer_1
 62
1
100
AcDbSpline
 70
0
 71
3
 72
13
 73
9
 74
7
 40
0.000000
 40
0.000000
 40
0.000000
 40
0.000000
 40
6.080293
 40
17.372266
 40
23.452560
 40
25.880732
 40
28.236887
 40
30.665059
 40
30.665059
 40
30.665059
 40
30.665059
 10
-410.670107
 20
48.892181
 30
0.0
 10
-412.486295
 20
49.791165
 30
0.0
 10
-417.675405
 20
52.359690
 30
0.0
 10
-424.568406
 20
56.072373
 30
0.0
 10
-430.679724
 20
58.569996
 30
0.0
 10
-433.632375
 20
60.815223
 30
0.0
 10
-434.466871
 20
63.275835
 30
0.0
 10
-433.973830
 20
64.824931
 30
0.0
 10
-433.723598
 20
65.611138
 30
0.0
 11
-410.670107
 21
48.892181
 31
0.0
 11
-416.108482
 21
51.611380
 31
0.0
 11
-426.208322
 21
56.661320
 31
0.0
 11
-431.646697
 21
59.380518
 31
0.0
 11
-433.459617
 21
60.995864
 31
0.0
 11
-434.204708
 21
63.231106
 31
0.0
 11
-433.723598
 21
65.611138
 31
0.0
  0
SPLINE
  5
14c
100
AcDbEntity
  8
Layer_1
 62
1
100
AcDbSpline
 70
0
 71
3
 72
37
 73
33
 74
31
 40
0.000000
 40
0.000000
 40
0.000000
 40
0.000000
 40
1.623992
 40
3.224652
 40
4.848644
 40
6.472637
 40
8.073296
 40
9.697289
 40
11.321281
 40
12.921941
 40
14.545933
 40
21.649634
 40
34.842223
 40
41.945924
 40
43.566709
 40
45.164293
 40
46.785077
 40
48.405861
 40
50.003446
 40
51.624230
 40
53.245014
 40
54.842598
 40
56.463383
 40
58.891556
 40
61.247712
 40
63.675885
 40
80.532132
 40
111.836590
 40
128.692837
 40
131.121014
 40
133.477173
 40
135.905349
 40
135.905349
 40
135.905349
 40
135.905349
 10
-433.723598
 20
65.611138
 30
0.0
 10
-433.528429
 20
66.122081
 30
0.0
 10
-433.140893
 20
67.136625
 30
0.0
 10
-433.264967
 20
68.797181
 30
0.0
 10
-433.909831
 20
70.308528
 30
0.0
 10
-435.046522
 20
71.507627
 30
0.0
 10
-436.520179
 20
72.244458
 30
0.0
 10
-438.161130
 20
72.434225
 30
0.0
 10
-439.758484
 20
72.043904
 30
0.0
 10
-441.156352
 20
71.144682
 30
0.0
 10
-443.051693
 20
68.219365
 30
0.0
 10
-445.984106
 20
61.542502
 30
0.0
 10
-450.072953
 20
53.351220
 30
0.0
 10
-453.666443
 20
47.004723
 30
0.0
 10
-454.858029
 20
43.731346
 30
0.0
 10
-454.735680
 20
42.077265
 30
0.0
 10
-454.088710
 20
40.569136
 30
0.0
 10
-452.953808
 20
39.373451
 30
0.0
 10
-451.483267
 20
38.638170
 30
0.0
 10
-449.845007
 20
38.447306
 30
0.0
 10
-448.253394
 20
38.836013
 30
0.0
 10
-446.845299
 20
39.725341
 30
0.0
 10
-445.854167
 20
41.344275
 30
0.0
 10
-444.545196
 20
43.092443
 30
0.0
 10
-442.084228
 20
43.917790
 30
0.0
 10
-435.032109
 20
41.774794
 30
0.0
 10
-420.648612
 20
32.991697
 30
0.0
 10
-401.207723
 20
23.271389
 30
0.0
 10
-385.540974
 20
17.029095
 30
0.0
 10
-379.604158
 20
12.677826
 30
0.0
 10
-378.774453
 20
10.206837
 30
0.0
 10
-379.266868
 20
8.659143
 30
0.0
 10
-379.516781
 20
7.873648
 30
0.0
 11
-433.723598
 21
65.611138
 31
0.0
 11
-433.257309
 21
67.166749
 31
0.0
 11
-433.349711
 21
68.764740
 31
0.0
 11
-433.992197
 21
70.256237
 31
0.0
 11
-435.108832
 21
71.435422
 31
0.0
 11
-436.540502
 21
72.151266
 31
0.0
 11
-438.153829
 21
72.337078
 31
0.0
 11
-439.732522
 21
71.956184
 31
0.0
 11
-441.066364
 21
71.071325
 31
0.0
 11
-442.031092
 21
69.764936
 31
0.0
 11
-445.207975
 21
63.411198
 31
0.0
 11
-451.107902
 21
51.611399
 31
0.0
 11
-454.284786
 21
45.257661
 31
0.0
 11
-454.745844
 21
43.703838
 31
0.0
 11
-454.650292
 21
42.109114
 31
0.0
 11
-454.006998
 21
40.621460
 31
0.0
 11
-452.891753
 21
39.445377
 31
0.0
 11
-451.462832
 21
38.730914
 31
0.0
 11
-449.852819
 21
38.544364
 31
0.0
 11
-448.276718
 21
38.922318
 31
0.0
 11
-446.943606
 21
39.802708
 31
0.0
 11
-445.977179
 21
41.103847
 31
0.0
 11
-444.361835
 21
42.916770
 31
0.0
 11
-442.126593
 21
43.661862
 31
0.0
 11
-439.746559
 21
43.180754
 31
0.0
 11
-424.669873
 21
35.642413
 31
0.0
 11
-396.670313
 21
21.642637
 31
0.0
 11
-381.593626
 21
14.104296
 31
0.0
 11
-379.780717
 21
12.488932
 31
0.0
 11
-379.035646
 21
10.253680
 31
0.0
 11
-379.516781
 21
7.873648
 31
0.0
  0
LWPOLYLINE
  5
14d
100
AcDbEntity
  8
Layer_1
 62
1
100
AcDbPolyline
 90
2
 70
0
 10
-383.462840
 20
103.306694
 30
0.0
 10
-410.670107
 20
48.892181
 30
0.0
  0
SPLINE
  5
14e
100
AcDbEntity
  8
Layer_1
 62
1
100
AcDbSpline
 70
0
 71
3
 72
28
 73
24
 74
22
 40
0.000000
 40
0.000000
 40
0.000000
 40
0.000000
 40
1.622712
 40
3.222143
 40
4.844855
 40
6.467567
 40
8.066998
 40
9.689710
 40
11.312422
 40
12.911853
 40
14.534565
 40
21.638266
 40
34.830855
 40
41.934556
 40
44.362616
 40
46.718667
 40
49.146726
 40
51.574786
 40
53.930837
 40
56.358896
 40
58.787082
 40
61.143249
 40
63.571435
 40
63.571435
 40
63.571435
 40
63.571435
 10
-379.516781
 20
7.873648
 30
0.0
 10
-379.711195
 20
7.362889
 30
0.0
 10
-380.097235
 20
6.348698
 30
0.0
 10
-379.971889
 20
4.689618
 30
0.0
 10
-379.326699
 20
3.179856
 30
0.0
 10
-378.190600
 20
1.982054
 30
0.0
 10
-376.718137
 20
1.245827
 30
0.0
 10
-375.078577
 20
1.055767
 30
0.0
 10
-373.482300
 20
1.444889
 30
0.0
 10
-372.084847
 20
2.342211
 30
0.0
 10
-370.186619
 20
5.264640
 30
0.0
 10
-367.246717
 20
11.935909
 30
0.0
 10
-363.229392
 20
20.175031
 30
0.0
 10
-359.356418
 20
26.656951
 30
0.0
 10
-358.219616
 20
30.578920
 30
0.0
 10
-359.062694
 20
32.984204
 30
0.0
 10
-360.934415
 20
34.656182
 30
0.0
 10
-363.389549
 20
35.147626
 30
0.0
 10
-365.835726
 20
34.387062
 30
0.0
 10
-367.265076
 20
32.377124
 30
0.0
 10
-368.682952
 20
30.389644
 30
0.0
 10
-371.162252
 20
29.562185
 30
0.0
 10
-372.708833
 20
30.054284
 30
0.0
 10
-373.493764
 20
30.304038
 30
0.0
 11
-379.516781
 21
7.873648
 31
0.0
 11
-379.980972
 21
6.318746
 31
0.0
 11
-379.887303
 21
4.722059
 31
0.0
 11
-379.244488
 21
3.232099
 31
0.0
 11
-378.128404
 21
2.054156
 31
0.0
 11
-376.697830
 21
1.338866
 31
0.0
 11
-375.085825
 21
1.152761
 31
0.0
 11
-373.508167
 21
1.532480
 31
0.0
 11
-372.174614
 21
2.415554
 31
0.0
 11
-371.209203
 21
3.719845
 31
0.0
 11
-368.032334
 21
10.073590
 31
0.0
 11
-362.132435
 21
21.873402
 31
0.0
 11
-358.955566
 21
28.227148
 31
0.0
 11
-358.474624
 21
30.607099
 31
0.0
 11
-359.219765
 21
32.842214
 31
0.0
 11
-361.032622
 21
34.457462
 31
0.0
 11
-363.412531
 21
34.938609
 31
0.0
 11
-365.647711
 21
34.193662
 31
0.0
 11
-367.263116
 21
32.380945
 31
0.0
 11
-368.878466
 21
30.568011
 31
0.0
 11
-371.113720
 21
29.822918
 31
0.0
 11
-373.493764
 21
30.304038
 31
0.0
  0
SPLINE
  5
14f
100
AcDbEntity
  8
Layer_1
 62
1
100
AcDbSpline
 70
0
 71
3
 72
16
 73
12
 74
10
 40
0.000000
 40
0.000000
 40
0.000000
 40
0.000000
 40
15.772618
 40
45.064623
 40
60.837242
 40
62.052944
 40
63.258586
 40
64.474288
 40
65.689991
 40
66.895632
 40
68.111335
 40
68.111335
 40
68.111335
 40
68.111335
 10
-394.470354
 20
40.792341
 30
0.0
 10
-392.131126
 20
45.500271
 30
0.0
 10
-385.447617
 20
58.951500
 30
0.0
 10
-376.027656
 20
76.930682
 30
0.0
 10
-369.791449
 20
91.029141
 30
0.0
 10
-366.635620
 20
96.252528
 30
0.0
 10
-365.694487
 20
97.047990
 30
0.0
 10
-364.595281
 20
97.587947
 30
0.0
 10
-363.392186
 20
97.815250
 30
0.0
 10
-362.161381
 20
97.744645
 30
0.0
 10
-361.409794
 20
97.437790
 30
0.0
 10
-361.032439
 20
97.283725
 30
0.0
 11
-394.470354
 21
40.792341
 31
0.0
 11
-387.416625
 21
54.899800
 31
0.0
 11
-374.316844
 21
81.099367
 31
0.0
 11
-367.263116
 21
95.206826
 31
0.0
 11
-366.581805
 21
96.213677
 31
0.0
 11
-365.670999
 21
97.003617
 31
0.0
 11
-364.577918
 21
97.535694
 31
0.0
 11
-363.384208
 21
97.765883
 31
0.0
 11
-362.181599
 21
97.680417
 31
0.0
 11
-361.032439
 21
97.283725
 31
0.0
  0
LWPOLYLINE
  5
150
100
AcDbEntity
  8
Layer_1
 62
1
100
AcDbPolyline
 90
2
 70
0
 10
-373.493764
 20
30.304038
 30
0.0
 10
-394.470354
 20
40.792341
 30
0.0
  0
SPLINE
  5
151
100
AcDbEntity
  8
Layer_1
 62
1
100
AcDbSpline
 70
0
 71
3
 72
13
 73
9
 74
7
 40
0.000000
 40
0.000000
 40
0.000000
 40
0.000000
 40
2.425239
 40
4.778695
 40
7.203934
 40
9.629172
 40
11.982628
 40
14.407867
 40
14.407867
 40
14.407867
 40
14.407867
 10
-361.032439
 20
97.283725
 30
0.0
 10
-360.243644
 20
97.033537
 30
0.0
 10
-358.689400
 20
96.540565
 30
0.0
 10
-356.278870
 20
97.400002
 30
0.0
 10
-354.612111
 20
99.265791
 30
0.0
 10
-354.119550
 20
101.718675
 30
0.0
 10
-354.878332
 20
104.162757
 30
0.0
 10
-356.205262
 20
105.110361
 30
0.0
 10
-356.878692
 20
105.591280
 30
0.0
 11
-361.032439
 21
97.283725
 31
0.0
 11
-358.654522
 21
96.806973
 31
0.0
 11
-356.422556
 21
97.553352
 31
0.0
 11
-354.809760
 21
99.364615
 31
0.0
 11
-354.328441
 21
101.741612
 31
0.0
 11
-355.070531
 21
103.975008
 31
0.0
 11
-356.878692
 21
105.591280
 31
0.0
  0
SPLINE
  5
152
100
AcDbEntity
  8
Layer_1
 62
1
100
AcDbSpline
 70
0
 71
3
 72
16
 73
12
 74
10
 40
0.000000
 40
0.000000
 40
0.000000
 40
0.000000
 40
1.621908
 40
3.220569
 40
4.842477
 40
6.464385
 40
8.063047
 40
9.684955
 40
11.306863
 40
12.905524
 40
14.527432
 40
14.527432
 40
14.527432
 40
14.527432
 10
-404.647118
 20
228.127710
 30
0.0
 10
-404.841063
 20
227.617068
 30
0.0
 10
-405.226173
 20
226.603103
 30
0.0
 10
-405.100036
 20
224.944948
 30
0.0
 10
-404.454654
 20
223.436181
 30
0.0
 10
-403.318902
 20
222.239180
 30
0.0
 10
-401.847283
 20
221.503375
 30
0.0
 10
-400.208230
 20
221.312980
 30
0.0
 10
-398.613988
 20
221.701942
 30
0.0
 10
-397.211786
 20
222.595932
 30
0.0
 10
-396.631684
 20
223.512401
 30
0.0
 10
-396.339540
 20
223.973944
 30
0.0
 11
-404.647118
 21
228.127710
 31
0.0
 11
-405.110004
 21
226.573258
 31
0.0
 11
-405.015550
 21
224.977389
 31
0.0
 11
-404.372533
 21
223.488391
 31
0.0
 11
-403.256797
 21
222.311226
 31
0.0
 11
-401.826909
 21
221.596286
 31
0.0
 11
-400.215734
 21
221.410003
 31
0.0
 11
-398.638727
 21
221.788995
 31
0.0
 11
-397.305364
 21
222.670959
 31
0.0
 11
-396.339540
 21
223.973944
 31
0.0
  0
LWPOLYLINE
  5
153
100
AcDbEntity
  8
Layer_1
 62
1
100
AcDbPolyline
 90
2
 70
0
 10
-392.393480
 20
252.635005
 30
0.0
 10
-404.647118
 20
228.127710
 30
0.0
  0
SPLINE
  5
154
100
AcDbEntity
  8
Layer_1
 62
1
100
AcDbSpline
 70
0
 71
3
 72
10
 73
6
 74
4
 40
0.000000
 40
0.000000
 40
0.000000
 40
0.000000
 40
2.428181
 40
4.784343
 40
7.212523
 40
7.212523
 40
7.212523
 40
7.212523
 10
-396.339540
 20
223.973944
 30
0.0
 10
-395.861364
 20
224.644662
 30
0.0
 10
-394.919194
 20
225.966206
 30
0.0
 10
-392.440522
 20
226.792425
 30
0.0
 10
-390.893862
 20
226.300486
 30
0.0
 10
-390.108892
 20
226.050814
 30
0.0
 11
-396.339540
 21
223.973944
 31
0.0
 11
-394.724181
 21
225.786863
 31
0.0
 11
-392.488928
 21
226.531943
 31
0.0
 11
-390.108892
 21
226.050814
 31
0.0
  0
SPLINE
  5
155
100
AcDbEntity
  8
Layer_1
 62
1
100
AcDbSpline
 70
0
 71
3
 72
10
 73
6
 74
4
 40
0.000000
 40
0.000000
 40
0.000000
 40
0.000000
 40
2.428185
 40
4.784351
 40
7.212535
 40
7.212535
 40
7.212535
 40
7.212535
 10
-346.182724
 20
177.866997
 30
0.0
 10
-346.660898
 20
177.196275
 30
0.0
 10
-347.603062
 20
175.874724
 30
0.0
 10
-350.081735
 20
175.048493
 30
0.0
 10
-351.628399
 20
175.540428
 30
0.0
 10
-352.413372
 20
175.790099
 30
0.0
 11
-346.182724
 21
177.866997
 31
0.0
 11
-347.798076
 21
176.054066
 31
0.0
 11
-350.033330
 21
175.308976
 31
0.0
 11
-352.413372
 21
175.790099
 31
0.0
  0
SPLINE
  5
156
100
AcDbEntity
  8
Layer_1
 62
1
100
AcDbSpline
 70
0
 71
3
 72
25
 73
21
 74
19
 40
0.000000
 40
0.000000
 40
0.000000
 40
0.000000
 40
1.621783
 40
3.220325
 40
4.842108
 40
6.463891
 40
8.062433
 40
9.684216
 40
11.305999
 40
12.904540
 40
14.526324
 40
21.630052
 40
34.822690
 40
41.926418
 40
44.351805
 40
46.705397
 40
49.130783
 40
51.556170
 40
53.909762
 40
56.335148
 40
56.335148
 40
56.335148
 40
56.335148
 10
-352.413372
 20
175.790099
 30
0.0
 10
-352.923995
 20
175.983974
 30
0.0
 10
-353.937923
 20
176.368945
 30
0.0
 10
-355.595934
 20
176.242698
 30
0.0
 10
-357.104554
 20
175.597287
 30
0.0
 10
-358.301423
 20
174.461626
 30
0.0
 10
-359.037220
 20
172.990030
 30
0.0
 10
-359.227492
 20
171.351480
 30
0.0
 10
-358.839243
 20
169.755975
 30
0.0
 10
-357.943263
 20
168.358866
 30
0.0
 10
-355.023128
 20
166.458248
 30
0.0
 10
-348.350390
 20
163.520858
 30
0.0
 10
-340.111333
 20
159.505037
 30
0.0
 10
-333.631710
 20
155.626778
 30
0.0
 10
-329.709463
 20
154.497581
 30
0.0
 10
-327.307867
 20
155.341557
 30
0.0
 10
-325.638469
 20
157.211641
 30
0.0
 10
-325.146576
 20
159.663561
 30
0.0
 10
-325.905346
 20
162.108064
 30
0.0
 10
-327.232460
 20
163.055578
 30
0.0
 10
-327.905985
 20
163.536453
 30
0.0
 11
-352.413372
 21
175.790099
 31
0.0
 11
-353.967752
 21
176.252792
 31
0.0
 11
-355.563494
 21
176.158226
 31
0.0
 11
-357.052346
 21
175.515187
 31
0.0
 11
-358.229397
 21
174.399511
 31
0.0
 11
-358.944290
 21
172.969734
 31
0.0
 11
-359.130609
 21
171.358689
 31
0.0
 11
-358.751738
 21
169.781781
 31
0.0
 11
-357.869953
 21
168.448443
 31
0.0
 11
-356.567176
 21
167.482549
 31
0.0
 11
-350.213401
 21
164.305678
 31
0.0
 11
-338.413534
 21
158.405776
 31
0.0
 11
-332.059760
 21
155.228906
 31
0.0
 11
-329.681737
 21
154.751929
 31
0.0
 11
-327.449604
 21
155.498238
 31
0.0
 11
-325.836675
 21
157.309580
 31
0.0
 11
-325.355358
 21
159.686728
 31
0.0
 11
-326.097590
 21
161.920220
 31
0.0
 11
-327.905985
 21
163.536453
 31
0.0
  0
SPLINE
  5
157
100
AcDbEntity
  8
Layer_1
 62
1
100
AcDbSpline
 70
0
 71
3
 72
19
 73
15
 74
13
 40
0.000000
 40
0.000000
 40
0.000000
 40
0.000000
 40
1.215703
 40
2.421346
 40
3.637049
 40
4.852752
 40
6.058395
 40
7.274098
 40
24.130330
 40
55.434760
 40
72.290992
 40
74.719175
 40
77.075340
 40
79.503524
 40
79.503524
 40
79.503524
 40
79.503524
 10
-327.905985
 20
163.536453
 30
0.0
 10
-328.255651
 20
163.745897
 30
0.0
 10
-328.952089
 20
164.163052
 30
0.0
 10
-329.747056
 20
165.105330
 30
0.0
 10
-330.287083
 20
166.204193
 30
0.0
 10
-330.514608
 20
167.407514
 30
0.0
 10
-330.443054
 20
168.637765
 30
0.0
 10
-328.019104
 20
174.632165
 30
0.0
 10
-320.091636
 20
189.031524
 30
0.0
 10
-310.019291
 20
208.275615
 30
0.0
 10
-303.832467
 20
223.973345
 30
0.0
 10
-299.479914
 20
229.909452
 30
0.0
 10
-297.009037
 20
230.739239
 30
0.0
 10
-295.461321
 20
230.246822
 30
0.0
 10
-294.675814
 20
229.996907
 30
0.0
 11
-327.905985
 21
163.536453
 31
0.0
 11
-328.912836
 21
164.217763
 31
0.0
 11
-329.702778
 21
165.128569
 31
0.0
 11
-330.234855
 21
166.221651
 31
0.0
 11
-330.465045
 21
167.415362
 31
0.0
 11
-330.379579
 21
168.617972
 31
0.0
 11
-329.982886
 21
169.767132
 31
0.0
 11
-322.444554
 21
184.843806
 31
0.0
 11
-308.444794
 21
212.843343
 31
0.0
 11
-300.906462
 21
227.920017
 31
0.0
 11
-299.291108
 21
229.732945
 31
0.0
 11
-297.055855
 21
230.478032
 31
0.0
 11
-294.675814
 21
229.996907
 31
0.0
  0
LWPOLYLINE
  5
158
100
AcDbEntity
  8
Layer_1
 62
1
100
AcDbPolyline
 90
3
 70
0
 10
-390.108892
 20
226.050814
 30
0.0
 10
-335.694302
 20
198.843570
 30
0.0
 10
-346.182724
 20
177.866997
 30
0.0
  0
SPLINE
  5
159
100
AcDbEntity
  8
Layer_1
 62
1
100
AcDbSpline
 70
0
 71
3
 72
16
 73
12
 74
10
 40
0.000000
 40
0.000000
 40
0.000000
 40
0.000000
 40
1.621882
 40
3.220517
 40
4.842399
 40
6.464281
 40
8.062916
 40
9.684798
 40
11.306680
 40
12.905315
 40
14.527197
 40
14.527197
 40
14.527197
 40
14.527197
 10
-294.675814
 20
229.996907
 30
0.0
 10
-294.165177
 20
229.802975
 30
0.0
 10
-293.151221
 20
229.417891
 30
0.0
 10
-291.493096
 20
229.544046
 30
0.0
 10
-289.984359
 20
230.189430
 30
0.0
 10
-288.787382
 20
231.325167
 30
0.0
 10
-288.051586
 20
232.796759
 30
0.0
 10
-287.861183
 20
234.435783
 30
0.0
 10
-288.250119
 20
236.030003
 30
0.0
 10
-289.144070
 20
237.432196
 30
0.0
 10
-290.060511
 20
238.012310
 30
0.0
 10
-290.522039
 20
238.304460
 30
0.0
 11
-294.675814
 21
229.996907
 31
0.0
 11
-293.121379
 21
229.534057
 31
0.0
 11
-291.525537
 21
229.628529
 31
0.0
 11
-290.036568
 21
230.271548
 31
0.0
 11
-288.859426
 21
231.387269
 31
0.0
 11
-288.144494
 21
232.817133
 31
0.0
 11
-287.958203
 21
234.428280
 31
0.0
 11
-288.337170
 21
236.005266
 31
0.0
 11
-289.219097
 21
237.338623
 31
0.0
 11
-290.522039
 21
238.304460
 31
0.0
  0
SPLINE
  5
15a
100
AcDbEntity
  8
Layer_1
 62
1
100
AcDbSpline
 70
0
 71
3
 72
13
 73
9
 74
7
 40
0.000000
 40
0.000000
 40
0.000000
 40
0.000000
 40
2.425029
 40
4.778291
 40
7.203320
 40
9.628349
 40
11.981612
 40
14.406640
 40
14.406640
 40
14.406640
 40
14.406640
 10
-315.029314
 20
250.558109
 30
0.0
 10
-315.818068
 20
250.808178
 30
0.0
 10
-317.372235
 20
251.300916
 30
0.0
 10
-319.782476
 20
250.441396
 30
0.0
 10
-321.449040
 20
248.575743
 30
0.0
 10
-321.941610
 20
246.123098
 30
0.0
 10
-321.183067
 20
243.679197
 30
0.0
 10
-319.856371
 20
242.731514
 30
0.0
 10
-319.183060
 20
242.250556
 30
0.0
 11
-315.029314
 21
250.558109
 31
0.0
 11
-317.407079
 21
251.034550
 31
0.0
 11
-319.638811
 21
250.288080
 31
0.0
 11
-321.251425
 21
248.476936
 31
0.0
 11
-321.732758
 21
246.100156
 31
0.0
 11
-320.990882
 21
243.866893
 31
0.0
 11
-319.183060
 21
242.250556
 31
0.0
  0
LWPOLYLINE
  5
15b
100
AcDbEntity
  8
Layer_1
 62
1
100
AcDbPolyline
 90
2
 70
0
 10
-290.522039
 20
238.304460
 30
0.0
 10
-315.029314
 20
250.558109
 30
0.0
  0
SPLINE
  5
15c
100
AcDbEntity
  8
Layer_1
 62
1
100
AcDbSpline
 70
0
 71
3
 72
10
 73
6
 74
4
 40
0.000000
 40
0.000000
 40
0.000000
 40
0.000000
 40
2.428185
 40
4.784351
 40
7.212535
 40
7.212535
 40
7.212535
 40
7.212535
 10
-319.183060
 20
242.250556
 30
0.0
 10
-318.512340
 20
241.772380
 30
0.0
 10
-317.190793
 20
240.830210
 30
0.0
 10
-316.364572
 20
238.351534
 30
0.0
 10
-316.856514
 20
236.804871
 30
0.0
 10
-317.106187
 20
236.019899
 30
0.0
 11
-319.183060
 21
242.250556
 31
0.0
 11
-317.370136
 21
240.635196
 31
0.0
 11
-316.625055
 21
238.399940
 31
0.0
 11
-317.106187
 21
236.019899
 31
0.0
  0
SPLINE
  5
15d
100
AcDbEntity
  8
Layer_1
 62
1
100
AcDbSpline
 70
0
 71
3
 72
10
 73
6
 74
4
 40
0.000000
 40
0.000000
 40
0.000000
 40
0.000000
 40
2.428192
 40
4.784364
 40
7.212556
 40
7.212556
 40
7.212556
 40
7.212556
 10
-382.009029
 20
242.250556
 30
0.0
 10
-382.679750
 20
242.728736
 30
0.0
 10
-384.001297
 20
243.670913
 30
0.0
 10
-384.827508
 20
246.149602
 30
0.0
 10
-384.335554
 20
247.696265
 30
0.0
 10
-384.085874
 20
248.481238
 30
0.0
 11
-382.009029
 21
242.250556
 31
0.0
 11
-383.821953
 21
243.865927
 31
0.0
 11
-384.567024
 21
246.101194
 31
0.0
 11
-384.085874
 21
248.481238
 31
0.0
  0
SPLINE
  5
15e
100
AcDbEntity
  8
Layer_1
 62
1
100
AcDbSpline
 70
0
 71
3
 72
16
 73
12
 74
10
 40
0.000000
 40
0.000000
 40
0.000000
 40
0.000000
 40
1.621711
 40
3.220183
 40
4.841893
 40
6.463604
 40
8.062076
 40
9.683786
 40
11.305497
 40
12.903969
 40
14.525679
 40
14.525679
 40
14.525679
 40
14.525679
 10
-384.085874
 20
248.481238
 30
0.0
 10
-383.892047
 20
248.991852
 30
0.0
 10
-383.507171
 20
250.005764
 30
0.0
 10
-383.633508
 20
251.663690
 30
0.0
 10
-384.278943
 20
253.172212
 30
0.0
 10
-385.414606
 20
254.369011
 30
0.0
 10
-386.886041
 20
255.104722
 30
0.0
 10
-388.524879
 20
255.295162
 30
0.0
 10
-390.118955
 20
254.906385
 30
0.0
 10
-391.521091
 20
254.012689
 30
0.0
 10
-392.101288
 20
253.096437
 30
0.0
 10
-392.393480
 20
252.635005
 30
0.0
 11
-384.085874
 21
248.481238
 31
0.0
 11
-383.623316
 21
250.035582
 31
0.0
 11
-383.717969
 21
251.631249
 31
0.0
 11
-384.361039
 21
253.120009
 31
0.0
 11
-385.476693
 21
254.296981
 31
0.0
 11
-386.906412
 21
255.011834
 31
0.0
 11
-388.517383
 21
255.198162
 31
0.0
 11
-390.094230
 21
254.819352
 31
0.0
 11
-391.427549
 21
253.937664
 31
0.0
 11
-392.393480
 21
252.635005
 31
0.0
  0
LWPOLYLINE
  5
15f
100
AcDbEntity
  8
Layer_1
 62
1
100
AcDbPolyline
 90
3
 70
0
 10
-317.106187
 20
236.019899
 30
0.0
 10
-327.594440
 20
215.043315
 30
0.0
 10
-382.009029
 20
242.250556
 30
0.0
  0
SPLINE
  5
160
100
AcDbEntity
  8
Layer_1
 62
1
100
AcDbSpline
 70
0
 71
3
 72
22
 73
18
 74
16
 40
0.000000
 40
0.000000
 40
0.000000
 40
0.000000
 40
0.772342
 40
1.533561
 40
2.305903
 40
3.078245
 40
3.839465
 40
4.611806
 40
5.384148
 40
6.145368
 40
6.917710
 40
8.067328
 40
9.183041
 40
10.332660
 40
11.482279
 40
12.597991
 40
13.747610
 40
13.747610
 40
13.747610
 40
13.747610
 10
289.136751
 20
39.582014
 30
0.0
 10
289.111560
 20
39.840918
 30
0.0
 10
289.061540
 20
40.354996
 30
0.0
 10
288.656417
 20
41.035512
 30
0.0
 10
288.061057
 20
41.541765
 30
0.0
 10
287.322655
 20
41.810388
 30
0.0
 10
286.538808
 20
41.810394
 30
0.0
 10
285.801460
 20
41.541748
 30
0.0
 10
285.201890
 20
41.035575
 30
0.0
 10
284.812408
 20
40.354764
 30
0.0
 10
284.656194
 20
39.456605
 30
0.0
 10
284.936660
 20
38.431177
 30
0.0
 10
285.779094
 20
37.593602
 30
0.0
 10
286.932808
 20
37.282933
 30
0.0
 10
288.074697
 20
37.593474
 30
0.0
 10
288.951909
 20
38.431680
 30
0.0
 10
289.074525
 20
39.194762
 30
0.0
 10
289.136751
 20
39.582014
 30
0.0
 11
289.136751
 21
39.582014
 31
0.0
 11
289.005526
 21
40.343126
 31
0.0
 11
288.627198
 21
41.003675
 31
0.0
 11
288.037102
 21
41.501969
 31
0.0
 11
287.311428
 21
41.766372
 31
0.0
 11
286.550208
 21
41.766372
 31
0.0
 11
285.824534
 21
41.501969
 31
0.0
 11
285.234437
 21
41.003675
 31
0.0
 11
284.856110
 21
40.343126
 31
0.0
 11
284.724884
 21
39.582014
 31
0.0
 11
285.029847
 21
38.473582
 31
0.0
 11
285.820818
 21
37.686704
 31
0.0
 11
286.930818
 21
37.387496
 31
0.0
 11
288.040817
 21
37.686704
 31
0.0
 11
288.831789
 21
38.473582
 31
0.0
 11
289.136751
 21
39.582014
 31
0.0
  0
LWPOLYLINE
  5
161
100
AcDbEntity
  8
Layer_1
 62
1
100
AcDbPolyline
 90
2
 70
1
 10
289.136751
 20
39.582014
 30
0.0
 10
289.136751
 20
39.582014
 30
0.0
  0
SPLINE
  5
162
100
AcDbEntity
  8
Layer_1
 62
1
100
AcDbSpline
 70
0
 71
3
 72
22
 73
18
 74
16
 40
0.000000
 40
0.000000
 40
0.000000
 40
0.000000
 40
0.771298
 40
1.531518
 40
2.302816
 40
3.074114
 40
3.834333
 40
4.605631
 40
5.376930
 40
6.137149
 40
6.908447
 40
8.059618
 40
9.176757
 40
10.327928
 40
11.479098
 40
12.596238
 40
13.747408
 40
13.747408
 40
13.747408
 40
13.747408
 10
382.018004
 20
396.064630
 30
0.0
 10
381.992333
 20
396.323126
 30
0.0
 10
381.941361
 20
396.836404
 30
0.0
 10
381.535859
 20
397.515388
 30
0.0
 10
380.940844
 20
398.020375
 30
0.0
 10
380.203349
 20
398.288275
 30
0.0
 10
379.420591
 20
398.288282
 30
0.0
 10
378.684147
 20
398.020356
 30
0.0
 10
378.084934
 20
397.515458
 30
0.0
 10
377.695031
 20
396.836145
 30
0.0
 10
377.537152
 20
395.938508
 30
0.0
 10
377.816013
 20
394.911780
 30
0.0
 10
378.658770
 20
394.072105
 30
0.0
 10
379.814052
 20
393.760569
 30
0.0
 10
380.957477
 20
394.071960
 30
0.0
 10
381.835104
 20
394.912344
 30
0.0
 10
381.956431
 20
395.676713
 30
0.0
 10
382.018004
 20
396.064630
 30
0.0
 11
382.018004
 21
396.064630
 31
0.0
 11
381.885520
 21
396.824465
 31
0.0
 11
381.506755
 21
397.483609
 31
0.0
 11
380.916983
 21
397.980671
 31
0.0
 11
380.192166
 21
398.244376
 31
0.0
 11
379.431946
 21
398.244376
 31
0.0
 11
378.707129
 21
397.980671
 31
0.0
 11
378.117358
 21
397.483609
 31
0.0
 11
377.738592
 21
396.824465
 31
0.0
 11
377.606108
 21
396.064630
 31
0.0
 11
377.909523
 21
394.954165
 31
0.0
 11
378.700668
 21
394.165438
 31
0.0
 11
379.812056
 21
393.865423
 31
0.0
 11
380.923445
 21
394.165438
 31
0.0
 11
381.714589
 21
394.954165
 31
0.0
 11
382.018004
 21
396.064630
 31
0.0
  0
LWPOLYLINE
  5
163
100
AcDbEntity
  8
Layer_1
 62
1
100
AcDbPolyline
 90
2
 70
1
 10
382.018004
 20
396.064630
 30
0.0
 10
382.018004
 20
396.064630
 30
0.0
  0
SPLINE
  5
164
100
AcDbEntity
  8
Layer_1
 62
1
100
AcDbSpline
 70
0
 71
3
 72
22
 73
18
 74
16
 40
0.000000
 40
0.000000
 40
0.000000
 40
0.000000
 40
0.771493
 40
1.531898
 40
2.303390
 40
3.074883
 40
3.835288
 40
4.606781
 40
5.378273
 40
6.138679
 40
6.910171
 40
8.061026
 40
9.177874
 40
10.328728
 40
11.479582
 40
12.596430
 40
13.747284
 40
13.747284
 40
13.747284
 40
13.747284
 10
491.120317
 20
270.674858
 30
0.0
 10
491.094740
 20
270.933430
 30
0.0
 10
491.043954
 20
271.446858
 30
0.0
 10
490.638531
 20
272.126133
 30
0.0
 10
490.043456
 20
272.631361
 30
0.0
 10
489.305792
 20
272.899399
 30
0.0
 10
488.522831
 20
272.899405
 30
0.0
 10
487.786219
 20
272.631342
 30
0.0
 10
487.186944
 20
272.126201
 30
0.0
 10
486.797127
 20
271.446604
 30
0.0
 10
486.639575
 20
270.548876
 30
0.0
 10
486.918746
 20
269.522413
 30
0.0
 10
487.761430
 20
268.683158
 30
0.0
 10
488.916392
 20
268.371795
 30
0.0
 10
490.059504
 20
268.683017
 30
0.0
 10
490.937040
 20
269.522966
 30
0.0
 10
491.058617
 20
270.287074
 30
0.0
 10
491.120317
 20
270.674858
 30
0.0
 11
491.120317
 21
270.674858
 31
0.0
 11
490.988080
 21
271.434933
 31
0.0
 11
490.609404
 21
272.094342
 31
0.0
 11
490.019576
 21
272.591639
 31
0.0
 11
489.294600
 21
272.855477
 31
0.0
 11
488.534195
 21
272.855477
 31
0.0
 11
487.809219
 21
272.591639
 31
0.0
 11
487.219391
 21
272.094342
 31
0.0
 11
486.840715
 21
271.434933
 31
0.0
 11
486.708478
 21
270.674858
 31
0.0
 11
487.012191
 21
269.564802
 31
0.0
 11
487.803293
 21
268.776445
 31
0.0
 11
488.914398
 21
268.476591
 31
0.0
 11
490.025502
 21
268.776445
 31
0.0
 11
490.816604
 21
269.564802
 31
0.0
 11
491.120317
 21
270.674858
 31
0.0
  0
LWPOLYLINE
  5
165
100
AcDbEntity
  8
Layer_1
 62
1
100
AcDbPolyline
 90
2
 70
1
 10
491.120317
 20
270.674858
 30
0.0
 10
491.120317
 20
270.674858
 30
0.0
  0
LWPOLYLINE
  5
166
100
AcDbEntity
  8
Layer_1
 62
1
100
AcDbPolyline
 90
2
 70
1
 10
428.458686
 20
-85.807761
 30
0.0
 10
428.458686
 20
-85.807761
 30
0.0
  0
SPLINE
  5
167
100
AcDbEntity
  8
Layer_1
 62
1
100
AcDbSpline
 70
0
 71
3
 72
22
 73
18
 74
16
 40
0.000000
 40
0.000000
 40
0.000000
 40
0.000000
 40
0.770901
 40
1.530739
 40
2.301640
 40
3.072541
 40
3.832380
 40
4.603281
 40
5.374182
 40
6.134020
 40
6.904921
 40
8.056664
 40
9.174331
 40
10.326074
 40
11.477817
 40
12.595484
 40
13.747227
 40
13.747227
 40
13.747227
 40
13.747227
 10
428.458686
 20
-85.807761
 30
0.0
 10
428.432837
 20
-85.549421
 30
0.0
 10
428.381509
 20
-85.036447
 30
0.0
 10
427.975868
 20
-84.358043
 30
0.0
 10
427.380988
 20
-83.853534
 30
0.0
 10
426.643838
 20
-83.585907
 30
0.0
 10
425.861496
 20
-83.585900
 30
0.0
 10
425.125396
 20
-83.853554
 30
0.0
 10
424.526321
 20
-84.357970
 30
0.0
 10
424.136265
 20
-85.036716
 30
0.0
 10
423.977763
 20
-85.934150
 30
0.0
 10
424.256019
 20
-86.961358
 30
0.0
 10
425.098889
 20
-87.801814
 30
0.0
 10
426.254751
 20
-88.113673
 30
0.0
 10
427.398743
 20
-87.801965
 30
0.0
 10
428.276519
 20
-86.960770
 30
0.0
 10
428.397359
 20
-86.195926
 30
0.0
 10
428.458686
 20
-85.807761
 30
0.0
 11
428.458686
 21
-85.807761
 31
0.0
 11
428.325733
 21
-85.048412
 31
0.0
 11
427.946807
 21
-84.389800
 31
0.0
 11
427.357163
 21
-83.893204
 31
0.0
 11
426.632672
 21
-83.629762
 31
0.0
 11
425.872834
 21
-83.629762
 31
0.0
 11
425.148343
 21
-83.893204
 31
0.0
 11
424.558699
 21
-84.389800
 31
0.0
 11
424.179772
 21
-85.048412
 31
0.0
 11
424.046819
 21
-85.807761
 31
0.0
 11
424.349649
 21
-86.918980
 31
0.0
 11
425.140852
 21
-87.708395
 31
0.0
 11
426.252753
 21
-88.008710
 31
0.0
 11
427.364654
 21
-87.708395
 31
0.0
 11
428.155857
 21
-86.918980
 31
0.0
 11
428.458686
 21
-85.807761
 31
0.0
  0
LWPOLYLINE
  5
168
100
AcDbEntity
  8
Layer_1
 62
1
100
AcDbPolyline
 90
4
 70
0
 10
92.112270
 20
472.691689
 30
0.0
 10
92.112270
 20
194.047779
 30
0.0
 10
138.552885
 20
194.047779
 30
0.0
 10
167.404982
 20
309.456125
 30
0.0
  0
SPLINE
  5
169
100
AcDbEntity
  8
Layer_1
 62
1
100
AcDbSpline
 70
0
 71
3
 72
10
 73
6
 74
4
 40
0.000000
 40
0.000000
 40
0.000000
 40
0.000000
 40
41.017795
 40
81.130600
 40
122.148395
 40
122.148395
 40
122.148395
 40
122.148395
 10
167.404982
 20
309.456125
 30
0.0
 10
172.494103
 20
322.323262
 30
0.0
 10
182.560061
 20
347.773646
 30
0.0
 10
216.664004
 20
374.401190
 30
0.0
 10
243.795857
 20
377.993969
 30
0.0
 10
257.513108
 20
379.810397
 30
0.0
 11
167.404982
 21
309.456125
 31
0.0
 11
185.889375
 21
346.072879
 31
0.0
 11
217.506511
 21
370.758784
 31
0.0
 11
257.513108
 21
379.810397
 31
0.0
  0
SPLINE
  5
16a
100
AcDbEntity
  8
Layer_1
 62
1
100
AcDbSpline
 70
0
 71
3
 72
13
 73
9
 74
7
 40
0.000000
 40
0.000000
 40
0.000000
 40
0.000000
 40
8.428120
 40
24.080344
 40
32.508464
 40
34.936656
 40
37.292828
 40
39.721020
 40
39.721020
 40
39.721020
 40
39.721020
 10
556.518770
 20
379.810397
 30
0.0
 10
556.531013
 20
382.619352
 30
0.0
 10
556.565995
 20
390.644939
 30
0.0
 10
556.208428
 20
401.493307
 30
0.0
 10
556.932493
 20
410.304752
 30
0.0
 10
556.127008
 20
414.736429
 30
0.0
 10
554.295019
 20
416.583406
 30
0.0
 10
552.689541
 20
416.835166
 30
0.0
 10
551.874718
 20
416.962941
 30
0.0
 11
556.518770
 21
379.810397
 31
0.0
 11
556.518770
 21
388.238517
 31
0.0
 11
556.518770
 21
403.890741
 31
0.0
 11
556.518770
 21
412.318861
 31
0.0
 11
555.884725
 21
414.662811
 31
0.0
 11
554.218665
 21
416.328882
 31
0.0
 11
551.874718
 21
416.962941
 31
0.0
  0
LWPOLYLINE
  5
16b
100
AcDbEntity
  8
Layer_1
 62
1
100
AcDbPolyline
 90
2
 70
0
 10
257.513108
 20
379.810397
 30
0.0
 10
556.518770
 20
379.810397
 30
0.0
  0
SPLINE
  5
16c
100
AcDbEntity
  8
Layer_1
 62
1
100
AcDbSpline
 70
0
 71
3
 72
13
 73
9
 74
7
 40
0.000000
 40
0.000000
 40
0.000000
 40
0.000000
 40
2.424110
 40
4.776528
 40
7.200639
 40
9.624749
 40
11.977167
 40
14.401277
 40
14.401277
 40
14.401277
 40
14.401277
 10
551.874718
 20
416.962941
 30
0.0
 10
551.057794
 20
417.092398
 30
0.0
 10
549.448105
 20
417.347484
 30
0.0
 10
547.677993
 20
419.193905
 30
0.0
 10
547.022212
 20
421.606990
 30
0.0
 10
547.677993
 20
424.020076
 30
0.0
 10
549.448105
 20
425.866497
 30
0.0
 10
551.057794
 20
426.121583
 30
0.0
 10
551.874718
 20
426.251040
 30
0.0
 11
551.874718
 21
416.962941
 31
0.0
 11
549.536109
 21
417.601078
 31
0.0
 11
547.874908
 21
419.266695
 31
0.0
 11
547.242982
 21
421.606990
 31
0.0
 11
547.874908
 21
423.947285
 31
0.0
 11
549.536109
 21
425.612903
 31
0.0
 11
551.874718
 21
426.251040
 31
0.0
  0
SPLINE
  5
16d
100
AcDbEntity
  8
Layer_1
 62
1
100
AcDbSpline
 70
0
 71
3
 72
13
 73
9
 74
7
 40
0.000000
 40
0.000000
 40
0.000000
 40
0.000000
 40
2.423226
 40
4.774831
 40
7.198058
 40
9.621285
 40
11.972889
 40
14.396116
 40
14.396116
 40
14.396116
 40
14.396116
 10
481.749298
 20
449.935761
 30
0.0
 10
481.619466
 20
449.119216
 30
0.0
 10
481.363641
 20
447.510259
 30
0.0
 10
479.517452
 20
445.741392
 30
0.0
 10
477.105246
 20
445.086094
 30
0.0
 10
474.693040
 20
445.741392
 30
0.0
 10
472.846852
 20
447.510259
 30
0.0
 10
472.591026
 20
449.119216
 30
0.0
 10
472.461195
 20
449.935761
 30
0.0
 11
481.749298
 21
449.935761
 31
0.0
 11
481.110272
 21
447.598311
 31
0.0
 11
479.444750
 21
445.938166
 31
0.0
 11
477.105246
 21
445.306701
 31
0.0
 11
474.765742
 21
445.938166
 31
0.0
 11
473.100221
 21
447.598311
 31
0.0
 11
472.461195
 21
449.935761
 31
0.0
  0
LWPOLYLINE
  5
16e
100
AcDbEntity
  8
Layer_1
 62
1
100
AcDbPolyline
 90
5
 70
0
 10
551.874718
 20
426.251040
 30
0.0
 10
574.630606
 20
426.251040
 30
0.0
 10
574.630606
 20
472.691689
 30
0.0
 10
481.749298
 20
472.691689
 30
0.0
 10
481.749298
 20
449.935761
 30
0.0
  0
SPLINE
  5
16f
100
AcDbEntity
  8
Layer_1
 62
1
100
AcDbSpline
 70
0
 71
3
 72
13
 73
9
 74
7
 40
0.000000
 40
0.000000
 40
0.000000
 40
0.000000
 40
1.215703
 40
2.421346
 40
3.637050
 40
4.852753
 40
6.058396
 40
7.274099
 40
7.274099
 40
7.274099
 40
7.274099
 10
472.461195
 20
449.935761
 30
0.0
 10
472.430239
 20
450.342180
 30
0.0
 10
472.368584
 20
451.151654
 30
0.0
 10
471.881311
 20
452.284075
 30
0.0
 10
471.139967
 20
453.258599
 30
0.0
 10
470.165451
 20
453.999954
 30
0.0
 10
469.033035
 20
454.487240
 30
0.0
 10
468.223562
 20
454.548904
 30
0.0
 10
467.817144
 20
454.579864
 30
0.0
 11
472.461195
 21
449.935761
 31
0.0
 11
472.302095
 21
451.141009
 31
0.0
 11
471.840723
 21
452.254881
 31
0.0
 11
471.100997
 21
453.219630
 31
0.0
 11
470.136256
 21
453.959366
 31
0.0
 11
469.022389
 21
454.420751
 31
0.0
 11
467.817144
 21
454.579864
 31
0.0
  0
LWPOLYLINE
  5
170
100
AcDbEntity
  8
Layer_1
 62
1
100
AcDbPolyline
 90
2
 70
0
 10
467.817144
 20
454.579864
 30
0.0
 10
440.184963
 20
454.579864
 30
0.0
  0
SPLINE
  5
171
100
AcDbEntity
  8
Layer_1
 62
1
100
AcDbSpline
 70
0
 71
3
 72
22
 73
18
 74
16
 40
0.000000
 40
0.000000
 40
0.000000
 40
0.000000
 40
1.215708
 40
2.421356
 40
3.637064
 40
4.852772
 40
6.058419
 40
7.274127
 40
8.894749
 40
10.492178
 40
12.112800
 40
13.733422
 40
15.330850
 40
16.951472
 40
18.572094
 40
20.169523
 40
21.790145
 40
21.790145
 40
21.790145
 40
21.790145
 10
440.184963
 20
454.579864
 30
0.0
 10
439.778540
 20
454.548906
 30
0.0
 10
438.969056
 20
454.487246
 30
0.0
 10
437.836684
 20
453.999967
 30
0.0
 10
436.861969
 20
453.258597
 30
0.0
 10
436.121339
 20
452.284131
 30
0.0
 10
435.631391
 20
451.151485
 30
0.0
 10
435.539616
 20
449.801144
 30
0.0
 10
435.371506
 20
448.314337
 30
0.0
 10
434.521388
 20
446.889930
 30
0.0
 10
433.268552
 20
445.830525
 30
0.0
 10
431.718849
 20
445.268736
 30
0.0
 10
430.074783
 20
445.268728
 30
0.0
 10
428.524763
 20
445.830548
 30
0.0
 10
427.273196
 20
446.889847
 30
0.0
 10
426.418363
 20
448.314645
 30
0.0
 10
426.308183
 20
449.392799
 30
0.0
 10
426.252696
 20
449.935761
 30
0.0
 11
440.184963
 21
454.579864
 31
0.0
 11
438.979712
 21
454.420757
 31
0.0
 11
437.865839
 21
453.959376
 31
0.0
 11
436.901091
 21
453.219640
 31
0.0
 11
436.161360
 21
452.254889
 31
0.0
 11
435.699985
 21
451.141014
 31
0.0
 11
435.540884
 21
449.935761
 31
0.0
 11
435.258180
 21
448.339988
 31
0.0
 11
434.459466
 21
446.956574
 31
0.0
 11
433.218837
 21
445.913858
 31
0.0
 11
431.695504
 21
445.360800
 31
0.0
 11
430.098076
 21
445.360800
 31
0.0
 11
428.574743
 21
445.913858
 31
0.0
 11
427.334114
 21
446.956574
 31
0.0
 11
426.535400
 21
448.339988
 31
0.0
 11
426.252696
 21
449.935761
 31
0.0
  0
LWPOLYLINE
  5
172
100
AcDbEntity
  8
Layer_1
 62
1
100
AcDbPolyline
 90
3
 70
0
 10
426.252696
 20
449.935761
 30
0.0
 10
426.252696
 20
472.691689
 30
0.0
 10
388.868017
 20
472.691689
 30
0.0
  0
SPLINE
  5
173
100
AcDbEntity
  8
Layer_1
 62
1
100
AcDbSpline
 70
0
 71
3
 72
22
 73
18
 74
16
 40
0.000000
 40
0.000000
 40
0.000000
 40
0.000000
 40
8.428115
 40
24.080329
 40
32.508444
 40
34.936636
 40
37.292808
 40
39.721000
 40
41.341616
 40
42.939039
 40
44.559655
 40
46.180271
 40
47.777694
 40
49.398310
 40
51.018926
 40
52.616349
 40
54.236965
 40
54.236965
 40
54.236965
 40
54.236965
 10
388.868017
 20
472.691689
 30
0.0
 10
388.855770
 20
469.882834
 30
0.0
 10
388.820778
 20
461.857535
 30
0.0
 10
389.178443
 20
451.006293
 30
0.0
 10
388.454180
 20
442.200684
 30
0.0
 10
389.259885
 20
437.762523
 30
0.0
 10
391.091444
 20
435.930697
 30
0.0
 10
393.242260
 20
435.541802
 30
0.0
 10
395.133049
 20
435.378979
 30
0.0
 10
396.558043
 20
434.517222
 30
0.0
 10
397.617284
 20
433.267539
 30
0.0
 10
398.179114
 20
431.716997
 30
0.0
 10
398.179110
 20
430.073161
 30
0.0
 10
397.617296
 20
428.523085
 30
0.0
 10
396.558000
 20
427.271539
 30
0.0
 10
395.133207
 20
426.416705
 30
0.0
 10
394.055057
 20
426.306527
 30
0.0
 10
393.512096
 20
426.251040
 30
0.0
 11
388.868017
 21
472.691689
 31
0.0
 11
388.868017
 21
464.263574
 31
0.0
 11
388.868017
 21
448.611360
 31
0.0
 11
388.868017
 21
440.183245
 31
0.0
 11
389.502075
 21
437.839299
 31
0.0
 11
391.168146
 21
436.173238
 31
0.0
 11
393.512096
 21
435.539194
 31
0.0
 11
395.107865
 21
435.256491
 31
0.0
 11
396.491273
 21
434.457780
 31
0.0
 11
397.533985
 21
433.217155
 31
0.0
 11
398.087041
 21
431.693828
 31
0.0
 11
398.087041
 21
430.096406
 31
0.0
 11
397.533985
 21
428.573079
 31
0.0
 11
396.491273
 21
427.332454
 31
0.0
 11
395.107865
 21
426.533743
 31
0.0
 11
393.512096
 21
426.251040
 31
0.0
  0
LWPOLYLINE
  5
174
100
AcDbEntity
  8
Layer_1
 62
1
100
AcDbPolyline
 90
2
 70
0
 10
393.512096
 20
426.251040
 30
0.0
 10
366.112100
 20
426.251040
 30
0.0
  0
SPLINE
  5
175
100
AcDbEntity
  8
Layer_1
 62
1
100
AcDbSpline
 70
0
 71
3
 72
19
 73
15
 74
13
 40
0.000000
 40
0.000000
 40
0.000000
 40
0.000000
 40
1.620616
 40
3.218039
 40
4.838655
 40
6.459271
 40
8.056694
 40
9.677310
 40
11.297926
 40
12.895348
 40
14.515964
 40
16.944138
 40
19.300293
 40
21.728466
 40
21.728466
 40
21.728466
 40
21.728466
 10
366.112100
 20
426.251040
 30
0.0
 10
365.569140
 20
426.306527
 30
0.0
 10
364.490989
 20
426.416705
 30
0.0
 10
363.066197
 20
427.271539
 30
0.0
 10
362.006901
 20
428.523085
 30
0.0
 10
361.445086
 20
430.073161
 30
0.0
 10
361.445085
 20
431.716997
 30
0.0
 10
362.006903
 20
433.267539
 30
0.0
 10
363.066189
 20
434.517223
 30
0.0
 10
364.491018
 20
435.378975
 30
0.0
 10
366.382528
 20
435.541822
 30
0.0
 10
368.529286
 20
435.930578
 30
0.0
 10
370.376687
 20
437.763065
 30
0.0
 10
370.628382
 20
439.368463
 30
0.0
 10
370.756124
 20
440.183245
 30
0.0
 11
366.112100
 21
426.251040
 31
0.0
 11
364.516332
 21
426.533743
 31
0.0
 11
363.132924
 21
427.332454
 31
0.0
 11
362.090212
 21
428.573079
 31
0.0
 11
361.537156
 21
430.096406
 31
0.0
 11
361.537156
 21
431.693828
 31
0.0
 11
362.090212
 21
433.217155
 31
0.0
 11
363.132924
 21
434.457780
 31
0.0
 11
364.516332
 21
435.256491
 31
0.0
 11
366.112100
 21
435.539194
 31
0.0
 11
368.456027
 21
436.173257
 31
0.0
 11
370.122075
 21
437.839315
 31
0.0
 11
370.756124
 21
440.183245
 31
0.0
  0
SPLINE
  5
176
100
AcDbEntity
  8
Layer_1
 62
1
100
AcDbSpline
 70
0
 71
3
 72
16
 73
12
 74
10
 40
0.000000
 40
0.000000
 40
0.000000
 40
0.000000
 40
5.899685
 40
16.856243
 40
22.755928
 40
25.179935
 40
27.532258
 40
29.956265
 40
32.380273
 40
34.732596
 40
37.156603
 40
37.156603
 40
37.156603
 40
37.156603
 10
333.371416
 20
472.691689
 30
0.0
 10
333.379387
 20
470.725674
 30
0.0
 10
333.402161
 20
465.108488
 30
0.0
 10
333.169377
 20
457.507220
 30
0.0
 10
333.659158
 20
451.114047
 30
0.0
 10
332.970308
 20
447.508151
 30
0.0
 10
331.144843
 20
445.739620
 30
0.0
 10
328.726144
 20
445.083504
 30
0.0
 10
326.314696
 20
445.739333
 30
0.0
 10
324.467907
 20
447.509272
 30
0.0
 10
324.212787
 20
449.118879
 30
0.0
 10
324.083313
 20
449.935761
 30
0.0
 11
333.371416
 21
472.691689
 31
0.0
 11
333.371416
 21
466.792004
 31
0.0
 11
333.371416
 21
455.835446
 31
0.0
 11
333.371416
 21
449.935761
 31
0.0
 11
332.733174
 21
447.597288
 31
0.0
 11
331.067567
 21
445.936210
 31
0.0
 11
328.727364
 21
445.304338
 31
0.0
 11
326.387162
 21
445.936210
 31
0.0
 11
324.721555
 21
447.597288
 31
0.0
 11
324.083313
 21
449.935761
 31
0.0
  0
LWPOLYLINE
  5
177
100
AcDbEntity
  8
Layer_1
 62
1
100
AcDbPolyline
 90
3
 70
0
 10
370.756124
 20
440.183245
 30
0.0
 10
370.756124
 20
472.691689
 30
0.0
 10
333.371416
 20
472.691689
 30
0.0
  0
SPLINE
  5
178
100
AcDbEntity
  8
Layer_1
 62
1
100
AcDbSpline
 70
0
 71
3
 72
13
 73
9
 74
7
 40
0.000000
 40
0.000000
 40
0.000000
 40
0.000000
 40
1.215703
 40
2.421346
 40
3.637050
 40
4.852753
 40
6.058396
 40
7.274099
 40
7.274099
 40
7.274099
 40
7.274099
 10
324.083313
 20
449.935761
 30
0.0
 10
324.052358
 20
450.342180
 30
0.0
 10
323.990703
 20
451.151654
 30
0.0
 10
323.503429
 20
452.284075
 30
0.0
 10
322.762085
 20
453.258599
 30
0.0
 10
321.787569
 20
453.999954
 30
0.0
 10
320.655154
 20
454.487240
 30
0.0
 10
319.845680
 20
454.548904
 30
0.0
 10
319.439262
 20
454.579864
 30
0.0
 11
324.083313
 21
449.935761
 31
0.0
 11
323.924213
 21
451.141009
 31
0.0
 11
323.462841
 21
452.254881
 31
0.0
 11
322.723116
 21
453.219630
 31
0.0
 11
321.758375
 21
453.959366
 31
0.0
 11
320.644508
 21
454.420751
 31
0.0
 11
319.439262
 21
454.579864
 31
0.0
  0
SPLINE
  5
179
100
AcDbEntity
  8
Layer_1
 62
1
100
AcDbSpline
 70
0
 71
3
 72
10
 73
6
 74
4
 40
0.000000
 40
0.000000
 40
0.000000
 40
0.000000
 40
2.428188
 40
4.784357
 40
7.212545
 40
7.212545
 40
7.212545
 40
7.212545
 10
198.925722
 20
454.579864
 30
0.0
 10
198.111964
 20
454.452120
 30
0.0
 10
196.508585
 20
454.200421
 30
0.0
 10
194.661103
 20
452.352905
 30
0.0
 10
194.409433
 20
450.749521
 30
0.0
 10
194.281704
 20
449.935761
 30
0.0
 11
198.925722
 21
454.579864
 31
0.0
 11
196.581783
 21
453.945790
 31
0.0
 11
194.915735
 21
452.279712
 31
0.0
 11
194.281704
 21
449.935761
 31
0.0
  0
LWPOLYLINE
  5
17a
100
AcDbEntity
  8
Layer_1
 62
1
100
AcDbPolyline
 90
2
 70
0
 10
319.439262
 20
454.579864
 30
0.0
 10
198.925722
 20
454.579864
 30
0.0
  0
LWPOLYLINE
  5
17b
100
AcDbEntity
  8
Layer_1
 62
1
100
AcDbPolyline
 90
3
 70
0
 10
184.993585
 20
449.935761
 30
0.0
 10
184.993585
 20
472.691689
 30
0.0
 10
92.112270
 20
472.691689
 30
0.0
  0
SPLINE
  5
17c
100
AcDbEntity
  8
Layer_1
 62
1
100
AcDbSpline
 70
0
 71
3
 72
13
 73
9
 74
7
 40
0.000000
 40
0.000000
 40
0.000000
 40
0.000000
 40
2.423558
 40
4.775468
 40
7.199026
 40
9.622585
 40
11.974495
 40
14.398053
 40
14.398053
 40
14.398053
 40
14.398053
 10
194.281704
 20
449.935761
 30
0.0
 10
194.152011
 20
449.119074
 30
0.0
 10
193.896459
 20
447.509844
 30
0.0
 10
192.050181
 20
445.740513
 30
0.0
 10
189.637645
 20
445.085035
 30
0.0
 10
187.225109
 20
445.740513
 30
0.0
 10
185.378831
 20
447.509844
 30
0.0
 10
185.123278
 20
449.119074
 30
0.0
 10
184.993585
 20
449.935761
 30
0.0
 11
194.281704
 21
449.935761
 31
0.0
 11
193.643006
 21
447.597878
 31
0.0
 11
191.977446
 21
445.937339
 31
0.0
 11
189.637645
 21
445.305702
 31
0.0
 11
187.297844
 21
445.937339
 31
0.0
 11
185.632283
 21
447.597878
 31
0.0
 11
184.993585
 21
449.935761
 31
0.0
  0
LWPOLYLINE
  5
17d
100
AcDbEntity
  8
Layer_1
 62
1
100
AcDbPolyline
 90
2
 70
0
 10
312.207684
 20
286.929104
 30
0.0
 10
518.332099
 20
286.929104
 30
0.0
  0
SPLINE
  5
17e
100
AcDbEntity
  8
Layer_1
 62
1
100
AcDbSpline
 70
0
 71
3
 72
10
 73
6
 74
4
 40
0.000000
 40
0.000000
 40
0.000000
 40
0.000000
 40
41.017787
 40
81.130586
 40
122.148373
 40
122.148373
 40
122.148373
 40
122.148373
 10
518.332099
 20
286.929104
 30
0.0
 10
532.049347
 20
288.745533
 30
0.0
 10
559.181195
 20
292.338315
 30
0.0
 10
593.285130
 20
318.965856
 30
0.0
 10
603.351088
 20
344.416234
 30
0.0
 10
608.440208
 20
357.283369
 30
0.0
 11
518.332099
 21
286.929104
 31
0.0
 11
558.338687
 21
295.980720
 31
0.0
 11
589.955817
 21
320.666622
 31
0.0
 11
608.440208
 21
357.283369
 31
0.0
  0
LWPOLYLINE
  5
17f
100
AcDbEntity
  8
Layer_1
 62
1
100
AcDbPolyline
 90
5
 70
0
 10
608.440208
 20
357.283369
 30
0.0
 10
637.292237
 20
472.691689
 30
0.0
 10
683.732920
 20
472.691689
 30
0.0
 10
683.732920
 20
194.047779
 30
0.0
 10
590.851639
 20
194.047779
 30
0.0
  0
SPLINE
  5
180
100
AcDbEntity
  8
Layer_1
 62
1
100
AcDbSpline
 70
0
 71
3
 72
22
 73
18
 74
16
 40
0.000000
 40
0.000000
 40
0.000000
 40
0.000000
 40
5.899684
 40
16.856239
 40
22.755922
 40
24.376539
 40
25.973963
 40
27.594580
 40
29.215197
 40
30.812620
 40
32.433237
 40
34.053854
 40
35.651278
 40
37.271895
 40
39.700079
 40
42.056245
 40
44.484429
 40
44.484429
 40
44.484429
 40
44.484429
 10
590.851639
 20
194.047779
 30
0.0
 10
590.857274
 20
196.014061
 30
0.0
 10
590.873373
 20
201.632008
 30
0.0
 10
590.708818
 20
209.225486
 30
0.0
 10
591.040616
 20
215.367962
 30
0.0
 10
590.680688
 20
218.425076
 30
0.0
 10
589.832570
 20
219.849536
 30
0.0
 10
588.579207
 20
220.908922
 30
0.0
 10
587.029618
 20
221.470713
 30
0.0
 10
585.385652
 20
221.470720
 30
0.0
 10
583.835144
 20
220.908901
 30
0.0
 10
582.585449
 20
219.849615
 30
0.0
 10
581.723701
 20
218.424785
 30
0.0
 10
581.560849
 20
216.533271
 30
0.0
 10
581.172111
 20
214.386502
 30
0.0
 10
579.339619
 20
212.539085
 30
0.0
 10
577.734214
 20
212.287388
 30
0.0
 10
576.919429
 20
212.159645
 30
0.0
 11
590.851639
 21
194.047779
 31
0.0
 11
590.851639
 21
199.947463
 31
0.0
 11
590.851639
 21
210.904018
 31
0.0
 11
590.851639
 21
216.803702
 31
0.0
 11
590.568936
 21
218.399470
 31
0.0
 11
589.770224
 21
219.782880
 31
0.0
 11
588.529599
 21
220.825592
 31
0.0
 11
587.006271
 21
221.378649
 31
0.0
 11
585.408848
 21
221.378649
 31
0.0
 11
583.885520
 21
220.825592
 31
0.0
 11
582.644895
 21
219.782880
 31
0.0
 11
581.846183
 21
218.399470
 31
0.0
 11
581.563480
 21
216.803702
 31
0.0
 11
580.929428
 21
214.459761
 31
0.0
 11
579.263369
 21
212.793699
 31
0.0
 11
576.919429
 21
212.159645
 31
0.0
  0
SPLINE
  5
181
100
AcDbEntity
  8
Layer_1
 62
1
100
AcDbSpline
 70
0
 71
3
 72
10
 73
6
 74
4
 40
0.000000
 40
0.000000
 40
0.000000
 40
0.000000
 40
2.428175
 40
4.784332
 40
7.212507
 40
7.212507
 40
7.212507
 40
7.212507
 10
549.287220
 20
212.159645
 30
0.0
 10
548.473467
 20
212.287386
 30
0.0
 10
546.870096
 20
212.539080
 30
0.0
 10
545.022615
 20
214.386574
 30
0.0
 10
544.770933
 20
215.989947
 30
0.0
 10
544.643197
 20
216.803702
 30
0.0
 11
549.287220
 21
212.159645
 31
0.0
 11
546.943292
 21
212.793708
 31
0.0
 11
545.277244
 21
214.459769
 31
0.0
 11
544.643197
 21
216.803702
 31
0.0
  0
LWPOLYLINE
  5
182
100
AcDbEntity
  8
Layer_1
 62
1
100
AcDbPolyline
 90
2
 70
0
 10
576.919429
 20
212.159645
 30
0.0
 10
549.287220
 20
212.159645
 30
0.0
  0
SPLINE
  5
183
100
AcDbEntity
  8
Layer_1
 62
1
100
AcDbSpline
 70
0
 71
3
 72
16
 73
12
 74
10
 40
0.000000
 40
0.000000
 40
0.000000
 40
0.000000
 40
1.623287
 40
3.223270
 40
4.846557
 40
6.469844
 40
8.069828
 40
9.693115
 40
11.316402
 40
12.916385
 40
14.539672
 40
14.539672
 40
14.539672
 40
14.539672
 10
544.643197
 20
216.803702
 30
0.0
 10
544.588931
 20
217.347708
 30
0.0
 10
544.481177
 20
218.427912
 30
0.0
 10
543.627303
 20
219.856624
 30
0.0
 10
542.374856
 20
220.919155
 30
0.0
 10
540.822496
 20
221.482816
 30
0.0
 10
539.175739
 20
221.482816
 30
0.0
 10
537.623379
 20
220.919155
 30
0.0
 10
536.370932
 20
219.856624
 30
0.0
 10
535.517058
 20
218.427912
 30
0.0
 10
535.409305
 20
217.347708
 30
0.0
 10
535.355038
 20
216.803702
 30
0.0
 11
544.643197
 21
216.803702
 31
0.0
 11
544.363697
 21
218.402745
 31
0.0
 11
543.566094
 21
219.789748
 31
0.0
 11
542.324630
 21
220.835610
 31
0.0
 11
540.799109
 21
221.390449
 31
0.0
 11
539.199126
 21
221.390449
 31
0.0
 11
537.673605
 21
220.835610
 31
0.0
 11
536.432141
 21
219.789748
 31
0.0
 11
535.634538
 21
218.402745
 31
0.0
 11
535.355038
 21
216.803702
 31
0.0
  0
SPLINE
  5
184
100
AcDbEntity
  8
Layer_1
 62
1
100
AcDbSpline
 70
0
 71
3
 72
16
 73
12
 74
10
 40
0.000000
 40
0.000000
 40
0.000000
 40
0.000000
 40
8.428121
 40
24.080346
 40
32.508467
 40
33.724168
 40
34.929808
 40
36.145509
 40
37.361210
 40
38.566851
 40
39.782552
 40
39.782552
 40
39.782552
 40
39.782552
 10
497.970330
 20
194.047779
 30
0.0
 10
497.963685
 20
196.856899
 30
0.0
 10
497.944700
 20
204.882955
 30
0.0
 10
498.138758
 20
215.726532
 30
0.0
 10
497.763769
 20
224.144207
 30
0.0
 10
498.064682
 20
227.772202
 30
0.0
 10
498.549767
 20
228.904532
 30
0.0
 10
499.291709
 20
229.879071
 30
0.0
 10
500.266070
 20
230.620411
 30
0.0
 10
501.398528
 20
231.107690
 30
0.0
 10
502.207995
 20
231.169349
 30
0.0
 10
502.614410
 20
231.200306
 30
0.0
 11
497.970330
 21
194.047779
 31
0.0
 11
497.970330
 21
202.475900
 31
0.0
 11
497.970330
 21
218.128125
 31
0.0
 11
497.970330
 21
226.556246
 31
0.0
 11
498.129440
 21
227.761490
 31
0.0
 11
498.590821
 21
228.875356
 31
0.0
 11
499.330553
 21
229.840097
 31
0.0
 11
500.295297
 21
230.579825
 31
0.0
 11
501.409165
 21
231.041201
 31
0.0
 11
502.614410
 21
231.200306
 31
0.0
  0
SPLINE
  5
185
100
AcDbEntity
  8
Layer_1
 62
1
100
AcDbSpline
 70
0
 71
3
 72
25
 73
21
 74
19
 40
0.000000
 40
0.000000
 40
0.000000
 40
0.000000
 40
2.427658
 40
4.783339
 40
7.210996
 40
9.638654
 40
11.994335
 40
14.421993
 40
21.525696
 40
34.718286
 40
41.821989
 40
43.442961
 40
45.040726
 40
46.661698
 40
48.282671
 40
49.880435
 40
51.501408
 40
53.122380
 40
54.720144
 40
56.341117
 40
56.341117
 40
56.341117
 40
56.341117
 10
502.614410
 20
231.200306
 30
0.0
 10
503.432855
 20
231.328245
 30
0.0
 10
505.045479
 20
231.580331
 30
0.0
 10
506.820552
 20
233.428027
 30
0.0
 10
507.478363
 20
235.843340
 30
0.0
 10
506.820288
 20
238.264797
 30
0.0
 10
505.046510
 20
240.094425
 30
0.0
 10
501.030690
 20
240.832620
 30
0.0
 10
493.500932
 20
240.266928
 30
0.0
 10
484.335493
 20
240.355562
 30
0.0
 10
477.053608
 20
240.715747
 30
0.0
 10
473.592647
 20
240.318912
 30
0.0
 10
472.167636
 20
239.469746
 30
0.0
 10
471.107823
 20
238.216576
 30
0.0
 10
470.545783
 20
236.666629
 30
0.0
 10
470.545777
 20
235.022181
 30
0.0
 10
471.107841
 20
233.471861
 30
0.0
 10
472.167570
 20
232.220179
 30
0.0
 10
473.592888
 20
231.365480
 30
0.0
 10
474.671313
 20
231.255628
 30
0.0
 10
475.214414
 20
231.200306
 30
0.0
 11
502.614410
 21
231.200306
 31
0.0
 11
504.957659
 21
231.834895
 31
0.0
 11
506.623087
 21
233.500903
 31
0.0
 11
507.256859
 21
235.844374
 31
0.0
 11
506.623087
 21
238.187845
 31
0.0
 11
504.957659
 21
239.853853
 31
0.0
 11
502.614410
 21
240.488442
 31
0.0
 11
495.510707
 21
240.488442
 31
0.0
 11
482.318116
 21
240.488442
 31
0.0
 11
475.214414
 21
240.488442
 31
0.0
 11
473.618207
 21
240.206171
 31
0.0
 11
472.234317
 21
239.407611
 31
0.0
 11
471.191183
 21
238.166876
 31
0.0
 11
470.637888
 21
236.643256
 31
0.0
 11
470.637888
 21
235.045492
 31
0.0
 11
471.191183
 21
233.521872
 31
0.0
 11
472.234317
 21
232.281137
 31
0.0
 11
473.618207
 21
231.482577
 31
0.0
 11
475.214414
 21
231.200306
 31
0.0
  0
LWPOLYLINE
  5
186
100
AcDbEntity
  8
Layer_1
 62
1
100
AcDbPolyline
 90
3
 70
0
 10
535.355038
 20
216.803702
 30
0.0
 10
535.355038
 20
194.047779
 30
0.0
 10
497.970330
 20
194.047779
 30
0.0
  0
SPLINE
  5
187
100
AcDbEntity
  8
Layer_1
 62
1
100
AcDbSpline
 70
0
 71
3
 72
10
 73
6
 74
4
 40
0.000000
 40
0.000000
 40
0.000000
 40
0.000000
 40
2.428176
 40
4.784334
 40
7.212510
 40
7.212510
 40
7.212510
 40
7.212510
 10
475.214414
 20
231.200306
 30
0.0
 10
476.028167
 20
231.072564
 30
0.0
 10
477.631539
 20
230.820870
 30
0.0
 10
479.479020
 20
228.973374
 30
0.0
 10
479.730702
 20
227.370001
 30
0.0
 10
479.858437
 20
226.556246
 30
0.0
 11
475.214414
 21
231.200306
 31
0.0
 11
477.558342
 21
230.566241
 31
0.0
 11
479.224391
 21
228.900180
 31
0.0
 11
479.858437
 21
226.556246
 31
0.0
  0
SPLINE
  5
188
100
AcDbEntity
  8
Layer_1
 62
1
100
AcDbSpline
 70
0
 71
3
 72
19
 73
15
 74
13
 40
0.000000
 40
0.000000
 40
0.000000
 40
0.000000
 40
5.899684
 40
16.856239
 40
22.755922
 40
24.378782
 40
25.978355
 40
27.601215
 40
29.224075
 40
30.823648
 40
32.446508
 40
34.069368
 40
35.668942
 40
37.291801
 40
37.291801
 40
37.291801
 40
37.291801
 10
442.473757
 20
194.047779
 30
0.0
 10
442.479278
 20
196.014048
 30
0.0
 10
442.495053
 20
201.631958
 30
0.0
 10
442.333814
 20
209.225812
 30
0.0
 10
442.658966
 20
215.368277
 30
0.0
 10
442.305967
 20
218.427693
 30
0.0
 10
441.458544
 20
219.855431
 30
0.0
 10
440.204457
 20
220.917542
 30
0.0
 10
438.652948
 20
221.480884
 30
0.0
 10
437.006509
 20
221.480891
 30
0.0
 10
435.454555
 20
220.917521
 30
0.0
 10
434.202243
 20
219.855506
 30
0.0
 10
433.348223
 20
218.427417
 30
0.0
 10
433.240086
 20
217.347541
 30
0.0
 10
433.185626
 20
216.803702
 30
0.0
 11
442.473757
 21
194.047779
 31
0.0
 11
442.473757
 21
199.947463
 31
0.0
 11
442.473757
 21
210.904018
 31
0.0
 11
442.473757
 21
216.803702
 31
0.0
 11
442.193751
 21
218.402223
 31
0.0
 11
441.395976
 21
219.788654
 31
0.0
 11
440.154648
 21
220.834014
 31
0.0
 11
438.629479
 21
221.388570
 31
0.0
 11
437.029905
 21
221.388570
 31
0.0
 11
435.504735
 21
220.834014
 31
0.0
 11
434.263408
 21
219.788654
 31
0.0
 11
433.465633
 21
218.402223
 31
0.0
 11
433.185626
 21
216.803702
 31
0.0
  0
LWPOLYLINE
  5
189
100
AcDbEntity
  8
Layer_1
 62
1
100
AcDbPolyline
 90
3
 70
0
 10
479.858437
 20
226.556246
 30
0.0
 10
479.858437
 20
194.047779
 30
0.0
 10
442.473757
 20
194.047779
 30
0.0
  0
SPLINE
  5
18a
100
AcDbEntity
  8
Layer_1
 62
1
100
AcDbSpline
 70
0
 71
3
 72
13
 73
9
 74
7
 40
0.000000
 40
0.000000
 40
0.000000
 40
0.000000
 40
1.215701
 40
2.421341
 40
3.637041
 40
4.852742
 40
6.058382
 40
7.274083
 40
7.274083
 40
7.274083
 40
7.274083
 10
433.185626
 20
216.803702
 30
0.0
 10
433.154667
 20
216.397284
 30
0.0
 10
433.093005
 20
215.587812
 30
0.0
 10
432.605722
 20
214.455398
 30
0.0
 10
431.864372
 20
213.480883
 30
0.0
 10
430.889853
 20
212.739537
 30
0.0
 10
429.757436
 20
212.252260
 30
0.0
 10
428.947964
 20
212.190602
 30
0.0
 10
428.541547
 20
212.159645
 30
0.0
 11
433.185626
 21
216.803702
 31
0.0
 11
433.026516
 21
215.598458
 31
0.0
 11
432.565135
 21
214.484593
 31
0.0
 11
431.825403
 21
213.519852
 31
0.0
 11
430.860659
 21
212.780125
 31
0.0
 11
429.746791
 21
212.318749
 31
0.0
 11
428.541547
 21
212.159645
 31
0.0
  0
SPLINE
  5
18b
100
AcDbEntity
  8
Layer_1
 62
1
100
AcDbSpline
 70
0
 71
3
 72
10
 73
6
 74
4
 40
0.000000
 40
0.000000
 40
0.000000
 40
0.000000
 40
2.428175
 40
4.784332
 40
7.212507
 40
7.212507
 40
7.212507
 40
7.212507
 10
400.909338
 20
212.159645
 30
0.0
 10
400.095585
 20
212.287386
 30
0.0
 10
398.492214
 20
212.539080
 30
0.0
 10
396.644734
 20
214.386574
 30
0.0
 10
396.393051
 20
215.989947
 30
0.0
 10
396.265315
 20
216.803702
 30
0.0
 11
400.909338
 21
212.159645
 31
0.0
 11
398.565411
 21
212.793708
 31
0.0
 11
396.899362
 21
214.459769
 31
0.0
 11
396.265315
 21
216.803702
 31
0.0
  0
LWPOLYLINE
  5
18c
100
AcDbEntity
  8
Layer_1
 62
1
100
AcDbPolyline
 90
2
 70
0
 10
428.541547
 20
212.159645
 30
0.0
 10
400.909338
 20
212.159645
 30
0.0
  0
SPLINE
  5
18d
100
AcDbEntity
  8
Layer_1
 62
1
100
AcDbSpline
 70
0
 71
3
 72
16
 73
12
 74
10
 40
0.000000
 40
0.000000
 40
0.000000
 40
0.000000
 40
1.622487
 40
3.221703
 40
4.844189
 40
6.466676
 40
8.065892
 40
9.688379
 40
11.310865
 40
12.910081
 40
14.532568
 40
14.532568
 40
14.532568
 40
14.532568
 10
396.265315
 20
216.803702
 30
0.0
 10
396.210683
 20
217.347395
 30
0.0
 10
396.102202
 20
218.426984
 30
0.0
 10
395.248042
 20
219.854522
 30
0.0
 10
393.995861
 20
220.916084
 30
0.0
 10
392.444197
 20
221.479192
 30
0.0
 10
390.798275
 20
221.479192
 30
0.0
 10
389.246610
 20
220.916084
 30
0.0
 10
387.994430
 20
219.854522
 30
0.0
 10
387.140269
 20
218.426984
 30
0.0
 10
387.031788
 20
217.347395
 30
0.0
 10
386.977156
 20
216.803702
 30
0.0
 11
396.265315
 21
216.803702
 31
0.0
 11
395.984855
 21
218.401764
 31
0.0
 11
395.186920
 21
219.787691
 31
0.0
 11
393.945708
 21
220.832609
 31
0.0
 11
392.420844
 21
221.386913
 31
0.0
 11
390.821628
 21
221.386913
 31
0.0
 11
389.296764
 21
220.832609
 31
0.0
 11
388.055551
 21
219.787691
 31
0.0
 11
387.257617
 21
218.401764
 31
0.0
 11
386.977156
 21
216.803702
 31
0.0
  0
SPLINE
  5
18e
100
AcDbEntity
  8
Layer_1
 62
1
100
AcDbSpline
 70
0
 71
3
 72
16
 73
12
 74
10
 40
0.000000
 40
0.000000
 40
0.000000
 40
0.000000
 40
5.899675
 40
16.856213
 40
22.755888
 40
25.182388
 40
27.537005
 40
29.963505
 40
32.390005
 40
34.744621
 40
37.171121
 40
37.171121
 40
37.171121
 40
37.171121
 10
294.095876
 20
240.488442
 30
0.0
 10
296.061874
 20
240.480546
 30
0.0
 10
301.679011
 20
240.457987
 30
0.0
 10
309.280669
 20
240.688579
 30
0.0
 10
315.673809
 20
240.203346
 30
0.0
 10
319.282533
 20
240.886304
 30
0.0
 10
321.054528
 20
242.712586
 30
0.0
 10
321.712013
 20
245.133722
 30
0.0
 10
321.054822
 20
247.547660
 30
0.0
 10
319.281382
 20
249.395109
 30
0.0
 10
317.669714
 20
249.648154
 30
0.0
 10
316.851764
 20
249.776579
 30
0.0
 11
294.095876
 21
240.488442
 31
0.0
 11
299.995550
 21
240.488442
 31
0.0
 11
310.952089
 21
240.488442
 31
0.0
 11
316.851764
 21
240.488442
 31
0.0
 11
319.193499
 21
241.124193
 31
0.0
 11
320.857546
 21
242.790076
 31
0.0
 11
321.490715
 21
245.132511
 31
0.0
 11
320.857546
 21
247.474945
 31
0.0
 11
319.193499
 21
249.140828
 31
0.0
 11
316.851764
 21
249.776579
 31
0.0
  0
LWPOLYLINE
  5
18f
100
AcDbEntity
  8
Layer_1
 62
1
100
AcDbPolyline
 90
4
 70
0
 10
386.977156
 20
216.803702
 30
0.0
 10
386.977156
 20
194.047779
 30
0.0
 10
294.095876
 20
194.047779
 30
0.0
 10
294.095876
 20
240.488442
 30
0.0
  0
LWPOLYLINE
  5
190
100
AcDbEntity
  8
Layer_1
 62
1
100
AcDbPolyline
 90
2
 70
0
 10
312.207684
 20
254.420636
 30
0.0
 10
312.207684
 20
286.929104
 30
0.0
  0
SPLINE
  5
191
100
AcDbEntity
  8
Layer_1
 62
1
100
AcDbSpline
 70
0
 71
3
 72
13
 73
9
 74
7
 40
0.000000
 40
0.000000
 40
0.000000
 40
0.000000
 40
1.215701
 40
2.421341
 40
3.637041
 40
4.852742
 40
6.058382
 40
7.274083
 40
7.274083
 40
7.274083
 40
7.274083
 10
316.851764
 20
249.776579
 30
0.0
 10
316.445346
 20
249.807536
 30
0.0
 10
315.635874
 20
249.869195
 30
0.0
 10
314.503458
 20
250.356472
 30
0.0
 10
313.528939
 20
251.097817
 30
0.0
 10
312.787588
 20
252.072333
 30
0.0
 10
312.300306
 20
253.204747
 30
0.0
 10
312.238644
 20
254.014218
 30
0.0
 10
312.207684
 20
254.420636
 30
0.0
 11
316.851764
 21
249.776579
 31
0.0
 11
315.646520
 21
249.935684
 31
0.0
 11
314.532652
 21
250.397059
 31
0.0
 11
313.567908
 21
251.136786
 31
0.0
 11
312.828176
 21
252.101527
 31
0.0
 11
312.366795
 21
253.215392
 31
0.0
 11
312.207684
 21
254.420636
 31
0.0
  0
LWPOLYLINE
  5
192
100
AcDbEntity
  8
Layer_1
 62
1
100
AcDbPolyline
 90
2
 70
0
 10
463.637489
 20
23.327809
 30
0.0
 10
257.513108
 20
23.327809
 30
0.0
  0
SPLINE
  5
193
100
AcDbEntity
  8
Layer_1
 62
1
100
AcDbSpline
 70
0
 71
3
 72
10
 73
6
 74
4
 40
0.000000
 40
0.000000
 40
0.000000
 40
0.000000
 40
41.017783
 40
81.130579
 40
122.148362
 40
122.148362
 40
122.148362
 40
122.148362
 10
257.513108
 20
23.327809
 30
0.0
 10
243.795861
 20
21.511384
 30
0.0
 10
216.664015
 20
17.918610
 30
0.0
 10
182.560073
 20
-8.708917
 30
0.0
 10
172.494107
 20
-34.159289
 30
0.0
 10
167.404982
 20
-47.026420
 30
0.0
 11
257.513108
 21
23.327809
 31
0.0
 11
217.506521
 21
14.276205
 31
0.0
 11
185.889386
 21
-10.409684
 31
0.0
 11
167.404982
 21
-47.026420
 31
0.0
  0
SPLINE
  5
194
100
AcDbEntity
  8
Layer_1
 62
1
100
AcDbSpline
 70
0
 71
3
 72
16
 73
12
 74
10
 40
0.000000
 40
0.000000
 40
0.000000
 40
0.000000
 40
5.899680
 40
16.856228
 40
22.755908
 40
25.179466
 40
27.531376
 40
29.954934
 40
32.378492
 40
34.730403
 40
37.153961
 40
37.153961
 40
37.153961
 40
37.153961
 10
184.993585
 20
116.209101
 30
0.0
 10
184.985600
 20
114.243085
 30
0.0
 10
184.962787
 20
108.625896
 30
0.0
 10
185.195971
 20
101.024710
 30
0.0
 10
184.705360
 20
94.631534
 30
0.0
 10
185.395287
 20
91.026154
 30
0.0
 10
187.220607
 20
89.258251
 30
0.0
 10
189.638867
 20
88.602384
 30
0.0
 10
192.049866
 20
89.257966
 30
0.0
 10
193.896539
 20
91.027270
 30
0.0
 10
194.152038
 20
92.636504
 30
0.0
 10
194.281704
 20
93.453193
 30
0.0
 11
184.993585
 21
116.209101
 31
0.0
 11
184.993585
 21
110.309421
 31
0.0
 11
184.993585
 21
99.352873
 31
0.0
 11
184.993585
 21
93.453193
 31
0.0
 11
185.632283
 21
91.115310
 31
0.0
 11
187.297844
 21
89.454771
 31
0.0
 11
189.637645
 21
88.823134
 31
0.0
 11
191.977446
 21
89.454771
 31
0.0
 11
193.643006
 21
91.115310
 31
0.0
 11
194.281704
 21
93.453193
 31
0.0
  0
SPLINE
  5
195
100
AcDbEntity
  8
Layer_1
 62
1
100
AcDbSpline
 70
0
 71
3
 72
19
 73
15
 74
13
 40
0.000000
 40
0.000000
 40
0.000000
 40
0.000000
 40
2.428183
 40
4.784346
 40
7.212529
 40
14.376442
 40
27.680853
 40
34.844766
 40
36.060466
 40
37.266106
 40
38.481807
 40
39.697508
 40
40.903148
 40
42.118848
 40
42.118848
 40
42.118848
 40
42.118848
 10
194.281704
 20
93.453193
 30
0.0
 10
194.409478
 20
94.268139
 30
0.0
 10
194.661235
 20
95.873859
 30
0.0
 10
196.508104
 20
97.704036
 30
0.0
 10
200.516250
 20
98.444241
 30
0.0
 10
208.126786
 20
97.866871
 30
0.0
 10
217.354183
 20
98.002845
 30
0.0
 10
224.568503
 20
98.270569
 30
0.0
 10
227.773928
 20
98.002769
 30
0.0
 10
228.906239
 20
97.517880
 30
0.0
 10
229.880781
 20
96.775883
 30
0.0
 10
230.622118
 20
95.801536
 30
0.0
 10
231.109396
 20
94.669074
 30
0.0
 10
231.171053
 20
93.859608
 30
0.0
 10
231.202010
 20
93.453193
 30
0.0
 11
194.281704
 21
93.453193
 31
0.0
 11
194.915741
 21
95.797136
 31
0.0
 11
196.581788
 21
97.463208
 31
0.0
 11
198.925722
 21
98.097278
 31
0.0
 11
206.089635
 21
98.097278
 31
0.0
 11
219.394045
 21
98.097278
 31
0.0
 11
226.557959
 21
98.097278
 31
0.0
 11
227.763202
 21
97.938166
 31
0.0
 11
228.877066
 21
97.476784
 31
0.0
 11
229.841806
 21
96.737051
 31
0.0
 11
230.581532
 21
95.772306
 31
0.0
 11
231.042906
 21
94.658438
 31
0.0
 11
231.202010
 21
93.453193
 31
0.0
  0
LWPOLYLINE
  5
196
100
AcDbEntity
  8
Layer_1
 62
1
100
AcDbPolyline
 90
5
 70
0
 10
167.404982
 20
-47.026420
 30
0.0
 10
138.552885
 20
-162.434679
 30
0.0
 10
92.112270
 20
-162.434679
 30
0.0
 10
92.112270
 20
116.209101
 30
0.0
 10
184.993585
 20
116.209101
 30
0.0
  0
SPLINE
  5
197
100
AcDbEntity
  8
Layer_1
 62
1
100
AcDbSpline
 70
0
 71
3
 72
13
 73
9
 74
7
 40
0.000000
 40
0.000000
 40
0.000000
 40
0.000000
 40
2.424560
 40
4.777392
 40
7.201953
 40
9.626513
 40
11.979345
 40
14.403905
 40
14.403905
 40
14.403905
 40
14.403905
 10
231.202010
 20
93.453193
 30
0.0
 10
231.331279
 20
92.636076
 30
0.0
 10
231.585994
 20
91.026016
 30
0.0
 10
233.432537
 20
89.255274
 30
0.0
 10
235.846070
 20
88.599249
 30
0.0
 10
238.259603
 20
89.255274
 30
0.0
 10
240.106145
 20
91.026016
 30
0.0
 10
240.360860
 20
92.636076
 30
0.0
 10
240.490129
 20
93.453193
 30
0.0
 11
231.202010
 21
93.453193
 31
0.0
 11
231.839702
 21
91.113997
 31
0.0
 11
233.505371
 21
89.452261
 31
0.0
 11
235.846070
 21
88.820102
 31
0.0
 11
238.186768
 21
89.452261
 31
0.0
 11
239.852437
 21
91.113997
 31
0.0
 11
240.490129
 21
93.453193
 31
0.0
  0
SPLINE
  5
198
100
AcDbEntity
  8
Layer_1
 62
1
100
AcDbSpline
 70
0
 71
3
 72
16
 73
12
 74
10
 40
0.000000
 40
0.000000
 40
0.000000
 40
0.000000
 40
8.428114
 40
24.080327
 40
32.508441
 40
33.724144
 40
34.929787
 40
36.145489
 40
37.361192
 40
38.566835
 40
39.782538
 40
39.782538
 40
39.782538
 40
39.782538
 10
277.874849
 20
116.209101
 30
0.0
 10
277.881493
 20
113.399984
 30
0.0
 10
277.900476
 20
105.373935
 30
0.0
 10
277.706440
 20
94.530365
 30
0.0
 10
278.081386
 20
86.112698
 30
0.0
 10
277.780507
 20
82.484702
 30
0.0
 10
277.295430
 20
81.352365
 30
0.0
 10
276.553494
 20
80.377819
 30
0.0
 10
275.579137
 20
79.636471
 30
0.0
 10
274.446680
 20
79.149184
 30
0.0
 10
273.637213
 20
79.087521
 30
0.0
 10
273.230797
 20
79.056561
 30
0.0
 11
277.874849
 21
116.209101
 31
0.0
 11
277.874849
 21
107.780987
 31
0.0
 11
277.874849
 21
92.128774
 31
0.0
 11
277.874849
 21
83.700660
 31
0.0
 11
277.715748
 21
82.495413
 31
0.0
 11
277.254376
 21
81.381542
 31
0.0
 11
276.514650
 21
80.416793
 31
0.0
 11
275.549909
 21
79.677058
 31
0.0
 11
274.436043
 21
79.215674
 31
0.0
 11
273.230797
 21
79.056561
 31
0.0
  0
LWPOLYLINE
  5
199
100
AcDbEntity
  8
Layer_1
 62
1
100
AcDbPolyline
 90
3
 70
0
 10
240.490129
 20
93.453193
 30
0.0
 10
240.490129
 20
116.209101
 30
0.0
 10
277.874849
 20
116.209101
 30
0.0
  0
SPLINE
  5
19a
100
AcDbEntity
  8
Layer_1
 62
1
100
AcDbSpline
 70
0
 71
3
 72
13
 73
9
 74
7
 40
0.000000
 40
0.000000
 40
0.000000
 40
0.000000
 40
2.424290
 40
4.776874
 40
7.201164
 40
9.625454
 40
11.978038
 40
14.402328
 40
14.402328
 40
14.402328
 40
14.402328
 10
273.230797
 20
79.056561
 30
0.0
 10
272.413795
 20
78.927179
 30
0.0
 10
270.803958
 20
78.672243
 30
0.0
 10
269.033593
 20
76.825774
 30
0.0
 10
268.377715
 20
74.412509
 30
0.0
 10
269.033593
 20
71.999245
 30
0.0
 10
270.803958
 20
70.152776
 30
0.0
 10
272.413795
 20
69.897840
 30
0.0
 10
273.230797
 20
69.768458
 30
0.0
 11
273.230797
 21
79.056561
 31
0.0
 11
270.891953
 21
78.418603
 31
0.0
 11
269.230538
 21
76.752965
 31
0.0
 11
268.598518
 21
74.412509
 31
0.0
 11
269.230538
 21
72.072053
 31
0.0
 11
270.891953
 21
70.406416
 31
0.0
 11
273.230797
 21
69.768458
 31
0.0
  0
SPLINE
  5
19b
100
AcDbEntity
  8
Layer_1
 62
1
100
AcDbSpline
 70
0
 71
3
 72
13
 73
9
 74
7
 40
0.000000
 40
0.000000
 40
0.000000
 40
0.000000
 40
2.424290
 40
4.776874
 40
7.201164
 40
9.625454
 40
11.978038
 40
14.402328
 40
14.402328
 40
14.402328
 40
14.402328
 10
300.630759
 20
69.768458
 30
0.0
 10
301.447761
 20
69.897840
 30
0.0
 10
303.057599
 20
70.152776
 30
0.0
 10
304.827963
 20
71.999245
 30
0.0
 10
305.483842
 20
74.412509
 30
0.0
 10
304.827963
 20
76.825774
 30
0.0
 10
303.057599
 20
78.672243
 30
0.0
 10
301.447761
 20
78.927179
 30
0.0
 10
300.630759
 20
79.056561
 30
0.0
 11
300.630759
 21
69.768458
 31
0.0
 11
302.969604
 21
70.406416
 31
0.0
 11
304.631019
 21
72.072053
 31
0.0
 11
305.263039
 21
74.412509
 31
0.0
 11
304.631019
 21
76.752965
 31
0.0
 11
302.969604
 21
78.418603
 31
0.0
 11
300.630759
 21
79.056561
 31
0.0
  0
LWPOLYLINE
  5
19c
100
AcDbEntity
  8
Layer_1
 62
1
100
AcDbPolyline
 90
2
 70
0
 10
273.230797
 20
69.768458
 30
0.0
 10
300.630759
 20
69.768458
 30
0.0
  0
SPLINE
  5
19d
100
AcDbEntity
  8
Layer_1
 62
1
100
AcDbSpline
 70
0
 71
3
 72
10
 73
6
 74
4
 40
0.000000
 40
0.000000
 40
0.000000
 40
0.000000
 40
2.428189
 40
4.784359
 40
7.212548
 40
7.212548
 40
7.212548
 40
7.212548
 10
300.630759
 20
79.056561
 30
0.0
 10
299.817001
 20
79.184304
 30
0.0
 10
298.213621
 20
79.436001
 30
0.0
 10
296.366137
 20
81.283515
 30
0.0
 10
296.114466
 20
82.886900
 30
0.0
 10
295.986736
 20
83.700660
 30
0.0
 11
300.630759
 21
79.056561
 31
0.0
 11
298.286819
 21
79.690632
 31
0.0
 11
296.620769
 21
81.356709
 31
0.0
 11
295.986736
 21
83.700660
 31
0.0
  0
SPLINE
  5
19e
100
AcDbEntity
  8
Layer_1
 62
1
100
AcDbSpline
 70
0
 71
3
 72
13
 73
9
 74
7
 40
0.000000
 40
0.000000
 40
0.000000
 40
0.000000
 40
2.423270
 40
4.774916
 40
7.198186
 40
9.621456
 40
11.973102
 40
14.396372
 40
14.396372
 40
14.396372
 40
14.396372
 10
333.371416
 20
93.453193
 30
0.0
 10
333.501236
 20
92.636631
 30
0.0
 10
333.757039
 20
91.027640
 30
0.0
 10
335.603246
 20
89.258722
 30
0.0
 10
338.015495
 20
88.603404
 30
0.0
 10
340.427745
 20
89.258722
 30
0.0
 10
342.273952
 20
91.027640
 30
0.0
 10
342.529755
 20
92.636631
 30
0.0
 10
342.659575
 20
93.453193
 30
0.0
 11
333.371416
 21
93.453193
 31
0.0
 11
334.010416
 21
91.115691
 31
0.0
 11
335.675951
 21
89.455501
 31
0.0
 11
338.015495
 21
88.824017
 31
0.0
 11
340.355039
 21
89.455501
 31
0.0
 11
342.020574
 21
91.115691
 31
0.0
 11
342.659575
 21
93.453193
 31
0.0
  0
SPLINE
  5
19f
100
AcDbEntity
  8
Layer_1
 62
1
100
AcDbSpline
 70
0
 71
3
 72
16
 73
12
 74
10
 40
0.000000
 40
0.000000
 40
0.000000
 40
0.000000
 40
2.428184
 40
4.784350
 40
7.212535
 40
14.376455
 40
27.680879
 40
34.844799
 40
37.272974
 40
39.629132
 40
42.057307
 40
42.057307
 40
42.057307
 40
42.057307
 10
342.659575
 20
93.453193
 30
0.0
 10
342.787349
 20
94.268125
 30
0.0
 10
343.039107
 20
95.873818
 30
0.0
 10
344.885973
 20
97.704207
 30
0.0
 10
348.894163
 20
98.443045
 30
0.0
 10
356.504084
 20
97.887425
 30
0.0
 10
365.735376
 20
97.887414
 30
0.0
 10
373.345297
 20
98.443058
 30
0.0
 10
377.353476
 20
97.704195
 30
0.0
 10
379.200329
 20
95.873809
 30
0.0
 10
379.452085
 20
94.268122
 30
0.0
 10
379.579858
 20
93.453193
 30
0.0
 11
342.659575
 21
93.453193
 31
0.0
 11
343.293612
 21
95.797138
 31
0.0
 11
344.959662
 21
97.463210
 31
0.0
 11
347.303598
 21
98.097278
 31
0.0
 11
354.467519
 21
98.097278
 31
0.0
 11
367.771942
 21
98.097278
 31
0.0
 11
374.935863
 21
98.097278
 31
0.0
 11
377.279787
 21
97.463200
 31
0.0
 11
378.945825
 21
95.797129
 31
0.0
 11
379.579858
 21
93.453193
 31
0.0
  0
LWPOLYLINE
  5
1a0
100
AcDbEntity
  8
Layer_1
 62
1
100
AcDbPolyline
 90
4
 70
0
 10
295.986736
 20
83.700660
 30
0.0
 10
295.986736
 20
116.209101
 30
0.0
 10
333.371416
 20
116.209101
 30
0.0
 10
333.371416
 20
93.453193
 30
0.0
  0
SPLINE
  5
1a1
100
AcDbEntity
  8
Layer_1
 62
1
100
AcDbSpline
 70
0
 71
3
 72
13
 73
9
 74
7
 40
0.000000
 40
0.000000
 40
0.000000
 40
0.000000
 40
2.426058
 40
4.780268
 40
7.206325
 40
9.632383
 40
11.986593
 40
14.412651
 40
14.412651
 40
14.412651
 40
14.412651
 10
379.579858
 20
93.453193
 30
0.0
 10
379.708499
 20
92.635435
 30
0.0
 10
379.961972
 20
91.024138
 30
0.0
 10
381.808915
 20
89.251295
 30
0.0
 10
384.223937
 20
88.594456
 30
0.0
 10
386.638959
 20
89.251295
 30
0.0
 10
388.485902
 20
91.024138
 30
0.0
 10
388.739375
 20
92.635435
 30
0.0
 10
388.868017
 20
93.453193
 30
0.0
 11
379.579858
 21
93.453193
 31
0.0
 11
380.216060
 21
91.112039
 31
0.0
 11
381.881898
 21
89.448522
 31
0.0
 11
384.223937
 21
88.815585
 31
0.0
 11
386.565976
 21
89.448522
 31
0.0
 11
388.231814
 21
91.112039
 31
0.0
 11
388.868017
 21
93.453193
 31
0.0
  0
LWPOLYLINE
  5
1a2
100
AcDbEntity
  8
Layer_1
 62
1
100
AcDbPolyline
 90
5
 70
0
 10
388.868017
 20
93.453193
 30
0.0
 10
388.868017
 20
116.209101
 30
0.0
 10
481.749298
 20
116.209101
 30
0.0
 10
481.749298
 20
69.768458
 30
0.0
 10
458.993381
 20
69.768458
 30
0.0
  0
LWPOLYLINE
  5
1a3
100
AcDbEntity
  8
Layer_1
 62
1
100
AcDbPolyline
 90
2
 70
0
 10
463.637489
 20
55.836253
 30
0.0
 10
463.637489
 20
23.327809
 30
0.0
  0
SPLINE
  5
1a4
100
AcDbEntity
  8
Layer_1
 62
1
100
AcDbSpline
 70
0
 71
3
 72
22
 73
18
 74
16
 40
0.000000
 40
0.000000
 40
0.000000
 40
0.000000
 40
1.620616
 40
3.218039
 40
4.838655
 40
6.459271
 40
8.056694
 40
9.677310
 40
11.297926
 40
12.895348
 40
14.515964
 40
15.731669
 40
16.937313
 40
18.153017
 40
19.368721
 40
20.574365
 40
21.790069
 40
21.790069
 40
21.790069
 40
21.790069
 10
458.993381
 20
69.768458
 30
0.0
 10
458.450421
 20
69.712972
 30
0.0
 10
457.372270
 20
69.602793
 30
0.0
 10
455.947478
 20
68.747963
 30
0.0
 10
454.888182
 20
67.496400
 30
0.0
 10
454.326365
 20
65.946385
 30
0.0
 10
454.326373
 20
64.302325
 30
0.0
 10
454.888159
 20
62.752628
 30
0.0
 10
455.947561
 20
61.499797
 30
0.0
 10
457.371963
 20
60.649682
 30
0.0
 10
458.858764
 20
60.481572
 30
0.0
 10
460.209101
 20
60.389799
 30
0.0
 10
461.341744
 20
59.899856
 30
0.0
 10
462.316210
 20
59.159231
 30
0.0
 10
463.057582
 20
58.184522
 30
0.0
 10
463.544864
 20
57.052156
 30
0.0
 10
463.606529
 20
56.242675
 30
0.0
 10
463.637489
 20
55.836253
 30
0.0
 11
458.993381
 21
69.768458
 31
0.0
 11
457.397613
 21
69.485755
 31
0.0
 11
456.014204
 21
68.687044
 31
0.0
 11
454.971493
 21
67.446420
 31
0.0
 11
454.418436
 21
65.923093
 31
0.0
 11
454.418436
 21
64.325670
 31
0.0
 11
454.971493
 21
62.802343
 31
0.0
 11
456.014204
 21
61.561719
 31
0.0
 11
457.397613
 21
60.763007
 31
0.0
 11
458.993381
 21
60.480305
 31
0.0
 11
460.198630
 21
60.321206
 31
0.0
 11
461.312503
 21
59.859834
 31
0.0
 11
462.277253
 21
59.120109
 31
0.0
 11
463.016991
 21
58.155368
 31
0.0
 11
463.478376
 21
57.041500
 31
0.0
 11
463.637489
 21
55.836253
 31
0.0
  0
LWPOLYLINE
  5
1a5
100
AcDbEntity
  8
Layer_1
 62
1
100
AcDbPolyline
 90
3
 70
0
 10
992.593251
 20
-162.434679
 30
0.0
 10
992.593251
 20
116.209101
 30
0.0
 10
946.152681
 20
116.209101
 30
0.0
  0
SPLINE
  5
1a6
100
AcDbEntity
  8
Layer_1
 62
1
100
AcDbSpline
 70
0
 71
3
 72
13
 73
9
 74
7
 40
0.000000
 40
0.000000
 40
0.000000
 40
0.000000
 40
30.841526
 40
88.118645
 40
118.960171
 40
159.976923
 40
200.088751
 40
241.105503
 40
241.105503
 40
241.105503
 40
241.105503
 10
946.152681
 20
116.209101
 30
0.0
 10
943.679935
 20
106.230918
 30
0.0
 10
936.614944
 20
77.721823
 30
0.0
 10
926.394625
 20
39.387472
 30
0.0
 10
917.580012
 20
-2.736588
 30
0.0
 10
901.698302
 20
-37.415494
 30
0.0
 10
868.157348
 20
-64.168716
 30
0.0
 10
840.950704
 20
-67.745319
 30
0.0
 10
827.195648
 20
-69.553567
 30
0.0
 11
946.152681
 21
116.209101
 31
0.0
 11
938.672503
 21
86.288428
 31
0.0
 11
924.780745
 21
30.721465
 31
0.0
 11
917.300567
 21
0.800792
 31
0.0
 11
898.816889
 21
-35.815156
 31
0.0
 11
867.200965
 21
-60.501023
 31
0.0
 11
827.195648
 21
-69.553567
 31
0.0
  0
SPLINE
  5
1a7
100
AcDbEntity
  8
Layer_1
 62
1
100
AcDbSpline
 70
0
 71
3
 72
13
 73
9
 74
7
 40
0.000000
 40
0.000000
 40
0.000000
 40
0.000000
 40
8.428122
 40
24.080350
 40
32.508472
 40
34.936616
 40
37.292743
 40
39.720887
 40
39.720887
 40
39.720887
 40
39.720887
 10
249.546042
 20
-69.553567
 30
0.0
 10
249.533795
 20
-72.362524
 30
0.0
 10
249.498804
 20
-80.388114
 30
0.0
 10
249.856463
 20
-91.236469
 30
0.0
 10
249.132214
 20
-100.047933
 30
0.0
 10
249.937894
 20
-104.479542
 30
0.0
 10
251.769887
 20
-106.326429
 30
0.0
 10
253.375336
 20
-106.578161
 30
0.0
 10
254.190144
 20
-106.705922
 30
0.0
 11
249.546042
 21
-69.553567
 31
0.0
 11
249.546042
 21
-77.981690
 31
0.0
 11
249.546042
 21
-93.633917
 31
0.0
 11
249.546042
 21
-102.062040
 31
0.0
 11
250.180161
 21
-104.405920
 31
0.0
 11
251.846234
 21
-106.071914
 31
0.0
 11
254.190144
 21
-106.705922
 31
0.0
  0
LWPOLYLINE
  5
1a8
100
AcDbEntity
  8
Layer_1
 62
1
100
AcDbPolyline
 90
2
 70
0
 10
827.195648
 20
-69.553567
 30
0.0
 10
249.546042
 20
-69.553567
 30
0.0
  0
SPLINE
  5
1a9
100
AcDbEntity
  8
Layer_1
 62
1
100
AcDbSpline
 70
0
 71
3
 72
13
 73
9
 74
7
 40
0.000000
 40
0.000000
 40
0.000000
 40
0.000000
 40
2.424240
 40
4.776778
 40
7.201018
 40
9.625257
 40
11.977795
 40
14.402035
 40
14.402035
 40
14.402035
 40
14.402035
 10
254.190144
 20
-106.705922
 30
0.0
 10
255.007122
 20
-106.835335
 30
0.0
 10
256.616915
 20
-107.090334
 30
0.0
 10
258.387193
 20
-108.936801
 30
0.0
 10
259.043038
 20
-111.350015
 30
0.0
 10
258.387193
 20
-113.763229
 30
0.0
 10
256.616915
 20
-115.609696
 30
0.0
 10
255.007122
 20
-115.864695
 30
0.0
 10
254.190144
 20
-115.994109
 30
0.0
 11
254.190144
 21
-106.705922
 31
0.0
 11
256.528915
 21
-107.343958
 31
0.0
 11
258.190259
 21
-109.009603
 31
0.0
 11
258.822246
 21
-111.350015
 31
0.0
 11
258.190259
 21
-113.690428
 31
0.0
 11
256.528915
 21
-115.356072
 31
0.0
 11
254.190144
 21
-115.994109
 31
0.0
  0
LWPOLYLINE
  5
1aa
100
AcDbEntity
  8
Layer_1
 62
1
100
AcDbPolyline
 90
4
 70
0
 10
254.190144
 20
-115.994109
 30
0.0
 10
231.434200
 20
-115.994109
 30
0.0
 10
231.434200
 20
-162.434679
 30
0.0
 10
324.315469
 20
-162.434679
 30
0.0
  0
SPLINE
  5
1ab
100
AcDbEntity
  8
Layer_1
 62
1
100
AcDbSpline
 70
0
 71
3
 72
25
 73
21
 74
19
 40
0.000000
 40
0.000000
 40
0.000000
 40
0.000000
 40
5.899645
 40
16.856130
 40
22.755775
 40
24.376397
 40
25.973826
 40
27.594448
 40
29.215070
 40
30.812498
 40
32.433120
 40
34.053742
 40
35.651171
 40
37.271793
 40
38.487497
 40
39.693141
 40
40.908845
 40
42.124550
 40
43.330193
 40
44.545898
 40
44.545898
 40
44.545898
 40
44.545898
 10
324.315469
 20
-162.434679
 30
0.0
 10
324.309835
 20
-160.468410
 30
0.0
 10
324.293736
 20
-154.850499
 30
0.0
 10
324.458289
 20
-147.257070
 30
0.0
 10
324.126492
 20
-141.114628
 30
0.0
 10
324.486422
 20
-138.057524
 30
0.0
 10
325.334537
 20
-136.633060
 30
0.0
 10
326.587921
 20
-135.573670
 30
0.0
 10
328.137454
 20
-135.011875
 30
0.0
 10
329.781649
 20
-135.011876
 30
0.0
 10
331.331317
 20
-135.573667
 30
0.0
 10
332.584163
 20
-136.633072
 30
0.0
 10
333.434277
 20
-138.057479
 30
0.0
 10
333.602392
 20
-139.544284
 30
0.0
 10
333.694154
 20
-140.894624
 30
0.0
 10
334.184091
 20
-142.027270
 30
0.0
 10
334.924710
 20
-143.001740
 30
0.0
 10
335.899414
 20
-143.743118
 30
0.0
 10
337.031777
 20
-144.230407
 30
0.0
 10
337.841258
 20
-144.292077
 30
0.0
 10
338.247680
 20
-144.323039
 30
0.0
 11
324.315469
 21
-162.434679
 31
0.0
 11
324.315469
 21
-156.535033
 31
0.0
 11
324.315469
 21
-145.578549
 31
0.0
 11
324.315469
 21
-139.678903
 31
0.0
 11
324.598173
 21
-138.083129
 31
0.0
 11
325.396887
 21
-136.699716
 31
0.0
 11
326.637516
 21
-135.657000
 31
0.0
 11
328.160849
 21
-135.103942
 31
0.0
 11
329.758277
 21
-135.103942
 31
0.0
 11
331.281610
 21
-135.657000
 31
0.0
 11
332.522238
 21
-136.699716
 31
0.0
 11
333.320953
 21
-138.083129
 31
0.0
 11
333.603656
 21
-139.678903
 31
0.0
 11
333.762748
 21
-140.884153
 31
0.0
 11
334.224112
 21
-141.998029
 31
0.0
 11
334.963832
 21
-142.962784
 31
0.0
 11
335.928569
 21
-143.702527
 31
0.0
 11
337.042434
 21
-144.163919
 31
0.0
 11
338.247680
 21
-144.323039
 31
0.0
  0
SPLINE
  5
1ac
100
AcDbEntity
  8
Layer_1
 62
1
100
AcDbSpline
 70
0
 71
3
 72
13
 73
9
 74
7
 40
0.000000
 40
0.000000
 40
0.000000
 40
0.000000
 40
1.215704
 40
2.421348
 40
3.637052
 40
4.852757
 40
6.058401
 40
7.274105
 40
7.274105
 40
7.274105
 40
7.274105
 10
365.879916
 20
-144.323039
 30
0.0
 10
366.286335
 20
-144.292077
 30
0.0
 10
367.095808
 20
-144.230408
 30
0.0
 10
368.228222
 20
-143.743115
 30
0.0
 10
369.202733
 20
-143.001753
 30
0.0
 10
369.944072
 20
-142.027223
 30
0.0
 10
370.431338
 20
-140.894798
 30
0.0
 10
370.492987
 20
-140.085323
 30
0.0
 10
370.523939
 20
-139.678903
 30
0.0
 11
365.879916
 21
-144.323039
 31
0.0
 11
367.085162
 21
-144.163919
 31
0.0
 11
368.199027
 21
-143.702527
 31
0.0
 11
369.163764
 21
-142.962784
 31
0.0
 11
369.903483
 21
-141.998029
 31
0.0
 11
370.364848
 21
-140.884153
 31
0.0
 11
370.523939
 21
-139.678903
 31
0.0
  0
LWPOLYLINE
  5
1ad
100
AcDbEntity
  8
Layer_1
 62
1
100
AcDbPolyline
 90
2
 70
0
 10
338.247680
 20
-144.323039
 30
0.0
 10
365.879916
 20
-144.323039
 30
0.0
  0
SPLINE
  5
1ae
100
AcDbEntity
  8
Layer_1
 62
1
100
AcDbSpline
 70
0
 71
3
 72
16
 73
12
 74
10
 40
0.000000
 40
0.000000
 40
0.000000
 40
0.000000
 40
1.622588
 40
3.221901
 40
4.844489
 40
6.467077
 40
8.066390
 40
9.688978
 40
11.311566
 40
12.910879
 40
14.533467
 40
14.533467
 40
14.533467
 40
14.533467
 10
370.523939
 20
-139.678903
 30
0.0
 10
370.578525
 20
-139.135170
 30
0.0
 10
370.686914
 20
-138.055503
 30
0.0
 10
371.541038
 20
-136.627817
 30
0.0
 10
372.793252
 20
-135.566133
 30
0.0
 10
374.345005
 20
-135.002954
 30
0.0
 10
375.991033
 20
-135.002954
 30
0.0
 10
377.542785
 20
-135.566133
 30
0.0
 10
378.794999
 20
-136.627817
 30
0.0
 10
379.649124
 20
-138.055503
 30
0.0
 10
379.757513
 20
-139.135170
 30
0.0
 10
379.812098
 20
-139.678903
 30
0.0
 11
370.523939
 21
-139.678903
 31
0.0
 11
370.804278
 21
-138.080716
 31
0.0
 11
371.602171
 21
-136.694654
 31
0.0
 11
372.843415
 21
-135.649616
 31
0.0
 11
374.368362
 21
-135.095244
 31
0.0
 11
375.967675
 21
-135.095244
 31
0.0
 11
377.492622
 21
-135.649616
 31
0.0
 11
378.733867
 21
-136.694654
 31
0.0
 11
379.531760
 21
-138.080716
 31
0.0
 11
379.812098
 21
-139.678903
 31
0.0
  0
SPLINE
  5
1af
100
AcDbEntity
  8
Layer_1
 62
1
100
AcDbSpline
 70
0
 71
3
 72
16
 73
12
 74
10
 40
0.000000
 40
0.000000
 40
0.000000
 40
0.000000
 40
8.428071
 40
24.080203
 40
32.508275
 40
33.723988
 40
34.929641
 40
36.145355
 40
37.361069
 40
38.566722
 40
39.782436
 40
39.782436
 40
39.782436
 40
39.782436
 10
417.196806
 20
-162.434679
 30
0.0
 10
417.203450
 20
-159.625576
 30
0.0
 10
417.222433
 20
-151.599568
 30
0.0
 10
417.028401
 20
-140.756053
 30
0.0
 10
417.403340
 20
-132.338425
 30
0.0
 10
417.102465
 20
-128.710435
 30
0.0
 10
416.617382
 20
-127.578089
 30
0.0
 10
415.875435
 20
-126.603537
 30
0.0
 10
414.901065
 20
-125.862188
 30
0.0
 10
413.768593
 20
-125.374906
 30
0.0
 10
412.959118
 20
-125.313252
 30
0.0
 10
412.552698
 20
-125.282296
 30
0.0
 11
417.196806
 21
-162.434679
 31
0.0
 11
417.196806
 21
-154.006607
 31
0.0
 11
417.196806
 21
-138.354475
 31
0.0
 11
417.196806
 21
-129.926404
 31
0.0
 11
417.037705
 21
-128.721146
 31
0.0
 11
416.576327
 21
-127.607266
 31
0.0
 11
415.836591
 21
-126.642512
 31
0.0
 11
414.871837
 21
-125.902776
 31
0.0
 11
413.757956
 21
-125.441397
 31
0.0
 11
412.552698
 21
-125.282296
 31
0.0
  0
SPLINE
  5
1b0
100
AcDbEntity
  8
Layer_1
 62
1
100
AcDbSpline
 70
0
 71
3
 72
25
 73
21
 74
19
 40
0.000000
 40
0.000000
 40
0.000000
 40
0.000000
 40
1.623782
 40
3.224241
 40
4.848023
 40
6.471805
 40
8.072264
 40
9.696046
 40
11.319828
 40
12.920287
 40
14.544069
 40
21.647786
 40
34.840404
 40
41.944121
 40
44.367636
 40
46.719507
 40
49.143022
 40
51.566536
 40
53.918407
 40
56.341922
 40
56.341922
 40
56.341922
 40
56.341922
 10
412.552698
 20
-125.282296
 30
0.0
 10
412.008499
 20
-125.228253
 30
0.0
 10
410.927915
 20
-125.120944
 30
0.0
 10
409.498479
 20
-124.267246
 30
0.0
 10
408.435352
 20
-123.014624
 30
0.0
 10
407.871348
 20
-121.461862
 30
0.0
 10
407.871354
 20
-119.814484
 30
0.0
 10
408.435333
 20
-118.262085
 30
0.0
 10
409.498548
 20
-117.008009
 30
0.0
 10
410.927661
 20
-116.159714
 30
0.0
 10
414.391608
 20
-115.772536
 30
0.0
 10
421.673425
 20
-116.121782
 30
0.0
 10
430.838599
 20
-116.220446
 30
0.0
 10
438.368666
 20
-115.644491
 30
0.0
 10
442.379602
 20
-116.393544
 30
0.0
 10
444.147596
 20
-118.221850
 30
0.0
 10
444.803390
 20
-120.639250
 30
0.0
 10
444.147848
 20
-123.050425
 30
0.0
 10
442.378614
 20
-124.897040
 30
0.0
 10
440.769419
 20
-125.152599
 30
0.0
 10
439.952751
 20
-125.282296
 30
0.0
 11
412.552698
 21
-125.282296
 31
0.0
 11
410.953050
 21
-125.003383
 31
0.0
 11
409.565383
 21
-124.205982
 31
0.0
 11
408.518939
 21
-122.964360
 31
0.0
 11
407.963772
 21
-121.438432
 31
0.0
 11
407.963772
 21
-119.837973
 31
0.0
 11
408.518939
 21
-118.312045
 31
0.0
 11
409.565383
 21
-117.070423
 31
0.0
 11
410.953050
 21
-116.273022
 31
0.0
 11
412.552698
 21
-115.994109
 31
0.0
 11
419.656416
 21
-115.994109
 31
0.0
 11
432.849034
 21
-115.994109
 31
0.0
 11
439.952751
 21
-115.994109
 31
0.0
 11
442.290571
 21
-116.632873
 31
0.0
 11
443.951049
 21
-118.298439
 31
0.0
 11
444.582659
 21
-120.638203
 31
0.0
 11
443.951049
 21
-122.977966
 31
0.0
 11
442.290571
 21
-124.643532
 31
0.0
 11
439.952751
 21
-125.282296
 31
0.0
  0
LWPOLYLINE
  5
1b1
100
AcDbEntity
  8
Layer_1
 62
1
100
AcDbPolyline
 90
3
 70
0
 10
379.812098
 20
-139.678903
 30
0.0
 10
379.812098
 20
-162.434679
 30
0.0
 10
417.196806
 20
-162.434679
 30
0.0
  0
SPLINE
  5
1b2
100
AcDbEntity
  8
Layer_1
 62
1
100
AcDbSpline
 70
0
 71
3
 72
13
 73
9
 74
7
 40
0.000000
 40
0.000000
 40
0.000000
 40
0.000000
 40
1.215714
 40
2.421367
 40
3.637080
 40
4.852794
 40
6.058447
 40
7.274161
 40
7.274161
 40
7.274161
 40
7.274161
 10
439.952751
 20
-125.282296
 30
0.0
 10
439.546329
 20
-125.313252
 30
0.0
 10
438.736848
 20
-125.374907
 30
0.0
 10
437.604418
 20
-125.862187
 30
0.0
 10
436.629889
 20
-126.603542
 30
0.0
 10
435.888534
 20
-127.578071
 30
0.0
 10
435.401254
 20
-128.710501
 30
0.0
 10
435.339599
 20
-129.519982
 30
0.0
 10
435.308643
 20
-129.926404
 30
0.0
 11
439.952751
 21
-125.282296
 31
0.0
 11
438.747493
 21
-125.441397
 31
0.0
 11
437.633613
 21
-125.902776
 31
0.0
 11
436.668859
 21
-126.642512
 31
0.0
 11
435.929123
 21
-127.607266
 31
0.0
 11
435.467744
 21
-128.721146
 31
0.0
 11
435.308643
 21
-129.926404
 31
0.0
  0
SPLINE
  5
1b3
100
AcDbEntity
  8
Layer_1
 62
1
100
AcDbSpline
 70
0
 71
3
 72
16
 73
12
 74
10
 40
0.000000
 40
0.000000
 40
0.000000
 40
0.000000
 40
1.622487
 40
3.221703
 40
4.844189
 40
6.466676
 40
8.065892
 40
9.688379
 40
11.310865
 40
12.910081
 40
14.532568
 40
14.532568
 40
14.532568
 40
14.532568
 10
472.693407
 20
-139.678903
 30
0.0
 10
472.748039
 20
-139.135210
 30
0.0
 10
472.856520
 20
-138.055621
 30
0.0
 10
473.710681
 20
-136.628083
 30
0.0
 10
474.962861
 20
-135.566521
 30
0.0
 10
476.514526
 20
-135.003413
 30
0.0
 10
478.160448
 20
-135.003413
 30
0.0
 10
479.712112
 20
-135.566521
 30
0.0
 10
480.964293
 20
-136.628083
 30
0.0
 10
481.818454
 20
-138.055621
 30
0.0
 10
481.926934
 20
-139.135210
 30
0.0
 10
481.981566
 20
-139.678903
 30
0.0
 11
472.693407
 21
-139.678903
 31
0.0
 11
472.973868
 21
-138.080841
 31
0.0
 11
473.771803
 21
-136.694914
 31
0.0
 11
475.013015
 21
-135.649996
 31
0.0
 11
476.537879
 21
-135.095691
 31
0.0
 11
478.137095
 21
-135.095691
 31
0.0
 11
479.661959
 21
-135.649996
 31
0.0
 11
480.903171
 21
-136.694914
 31
0.0
 11
481.701106
 21
-138.080841
 31
0.0
 11
481.981566
 21
-139.678903
 31
0.0
  0
LWPOLYLINE
  5
1b4
100
AcDbEntity
  8
Layer_1
 62
1
100
AcDbPolyline
 90
4
 70
0
 10
435.308643
 20
-129.926404
 30
0.0
 10
435.308643
 20
-162.434679
 30
0.0
 10
472.693407
 20
-162.434679
 30
0.0
 10
472.693407
 20
-139.678903
 30
0.0
  0
SPLINE
  5
1b5
100
AcDbEntity
  8
Layer_1
 62
1
100
AcDbSpline
 70
0
 71
3
 72
13
 73
9
 74
7
 40
0.000000
 40
0.000000
 40
0.000000
 40
0.000000
 40
1.215709
 40
2.421357
 40
3.637066
 40
4.852776
 40
6.058424
 40
7.274133
 40
7.274133
 40
7.274133
 40
7.274133
 10
481.981566
 20
-139.678903
 30
0.0
 10
482.012519
 20
-140.085324
 30
0.0
 10
482.074169
 20
-140.894802
 30
0.0
 10
482.561439
 20
-142.027232
 30
0.0
 10
483.302782
 20
-143.001763
 30
0.0
 10
484.277300
 20
-143.743124
 30
0.0
 10
485.409720
 20
-144.230415
 30
0.0
 10
486.219198
 20
-144.292079
 30
0.0
 10
486.625618
 20
-144.323039
 30
0.0
 11
481.981566
 21
-139.678903
 31
0.0
 11
482.140659
 21
-140.884158
 31
0.0
 11
482.602027
 21
-141.998037
 31
0.0
 11
483.341752
 21
-142.962794
 31
0.0
 11
484.306495
 21
-143.702536
 31
0.0
 11
485.420366
 21
-144.163925
 31
0.0
 11
486.625618
 21
-144.323039
 31
0.0
  0
SPLINE
  5
1b6
100
AcDbEntity
  8
Layer_1
 62
1
100
AcDbSpline
 70
0
 71
3
 72
13
 73
9
 74
7
 40
0.000000
 40
0.000000
 40
0.000000
 40
0.000000
 40
1.215723
 40
2.421385
 40
3.637108
 40
4.852832
 40
6.058494
 40
7.274217
 40
7.274217
 40
7.274217
 40
7.274217
 10
885.779506
 20
-144.323039
 30
0.0
 10
886.185931
 20
-144.292086
 30
0.0
 10
886.995419
 20
-144.230435
 30
0.0
 10
888.127859
 20
-143.743154
 30
0.0
 10
889.102397
 20
-143.001794
 30
0.0
 10
889.843756
 20
-142.027257
 30
0.0
 10
890.331037
 20
-140.894817
 30
0.0
 10
890.392688
 20
-140.085329
 30
0.0
 10
890.423642
 20
-139.678903
 30
0.0
 11
885.779506
 21
-144.323039
 31
0.0
 11
886.984774
 21
-144.163943
 31
0.0
 11
888.098664
 21
-143.702565
 31
0.0
 11
889.063426
 21
-142.962824
 31
0.0
 11
889.803167
 21
-141.998062
 31
0.0
 11
890.264546
 21
-140.884171
 31
0.0
 11
890.423642
 21
-139.678903
 31
0.0
  0
LWPOLYLINE
  5
1b7
100
AcDbEntity
  8
Layer_1
 62
1
100
AcDbPolyline
 90
2
 70
0
 10
486.625618
 20
-144.323039
 30
0.0
 10
885.779506
 20
-144.323039
 30
0.0
  0
SPLINE
  5
1b8
100
AcDbEntity
  8
Layer_1
 62
1
100
AcDbSpline
 70
0
 71
3
 72
16
 73
12
 74
10
 40
0.000000
 40
0.000000
 40
0.000000
 40
0.000000
 40
1.624496
 40
3.225639
 40
4.850135
 40
6.474631
 40
8.075775
 40
9.700271
 40
11.324767
 40
12.925910
 40
14.550406
 40
14.550406
 40
14.550406
 40
14.550406
 10
890.423642
 20
-139.678903
 30
0.0
 10
890.477363
 20
-139.134425
 30
0.0
 10
890.584034
 20
-138.053296
 30
0.0
 10
891.437486
 20
-136.622818
 30
0.0
 10
892.690342
 20
-135.558832
 30
0.0
 10
894.243754
 20
-134.994340
 30
0.0
 10
895.891773
 20
-134.994340
 30
0.0
 10
897.445185
 20
-135.558832
 30
0.0
 10
898.698041
 20
-136.622818
 30
0.0
 10
899.551493
 20
-138.053296
 30
0.0
 10
899.658164
 20
-139.134425
 30
0.0
 10
899.711886
 20
-139.678903
 30
0.0
 11
890.423642
 21
-139.678903
 31
0.0
 11
890.701713
 21
-138.078383
 31
0.0
 11
891.498826
 21
-136.689762
 31
0.0
 11
892.740676
 21
-135.642482
 31
0.0
 11
894.267192
 21
-135.086841
 31
0.0
 11
895.868335
 21
-135.086841
 31
0.0
 11
897.394851
 21
-135.642482
 31
0.0
 11
898.636702
 21
-136.689762
 31
0.0
 11
899.433815
 21
-138.078383
 31
0.0
 11
899.711886
 21
-139.678903
 31
0.0
  0
LWPOLYLINE
  5
1b9
100
AcDbEntity
  8
Layer_1
 62
1
100
AcDbPolyline
 90
3
 70
0
 10
899.711886
 20
-139.678903
 30
0.0
 10
899.711886
 20
-162.434679
 30
0.0
 10
992.593251
 20
-162.434679
 30
0.0
  0
SPLINE
  5
1ba
100
AcDbEntity
  8
Layer_1
 62
1
100
AcDbSpline
 70
0
 71
3
 72
22
 73
18
 74
16
 40
0.000000
 40
0.000000
 40
0.000000
 40
0.000000
 40
0.770611
 40
1.530172
 40
2.300784
 40
3.071395
 40
3.830956
 40
4.601567
 40
5.372179
 40
6.131739
 40
6.902351
 40
8.054538
 40
9.172613
 40
10.324801
 40
11.476988
 40
12.595064
 40
13.747251
 40
13.747251
 40
13.747251
 40
13.747251
 10
-603.743691
 20
53.461353
 30
0.0
 10
-603.769676
 20
53.719580
 30
0.0
 10
-603.821271
 20
54.232331
 30
0.0
 10
-604.227020
 20
54.910307
 30
0.0
 10
-604.821806
 20
55.414463
 30
0.0
 10
-605.558705
 20
55.681888
 30
0.0
 10
-606.340745
 20
55.681895
 30
0.0
 10
-607.076595
 20
55.414442
 30
0.0
 10
-607.675571
 20
54.910382
 30
0.0
 10
-608.065748
 20
54.232054
 30
0.0
 10
-608.224720
 20
53.334762
 30
0.0
 10
-607.946916
 20
52.307183
 30
0.0
 10
-607.103950
 20
51.466129
 30
0.0
 10
-605.947640
 20
51.154024
 30
0.0
 10
-604.803208
 20
51.465974
 30
0.0
 10
-603.925310
 20
52.307789
 30
0.0
 10
-603.804834
 20
53.072999
 30
0.0
 10
-603.743691
 20
53.461353
 30
0.0
 11
-603.743691
 21
53.461353
 31
0.0
 11
-603.876998
 21
54.220347
 31
0.0
 11
-604.256050
 21
54.878566
 31
0.0
 11
-604.845605
 21
55.374818
 31
0.0
 11
-605.569859
 21
55.638065
 31
0.0
 11
-606.329419
 21
55.638065
 31
0.0
 11
-607.053673
 21
55.374818
 31
0.0
 11
-607.643228
 21
54.878566
 31
0.0
 11
-608.022280
 21
54.220347
 31
0.0
 11
-608.155587
 21
53.461353
 31
0.0
 11
-607.853193
 21
52.349556
 31
0.0
 11
-607.061938
 21
51.559614
 31
0.0
 11
-605.949639
 21
51.259070
 31
0.0
 11
-604.837340
 21
51.559614
 31
0.0
 11
-604.046085
 21
52.349556
 31
0.0
 11
-603.743691
 21
53.461353
 31
0.0
  0
LWPOLYLINE
  5
1bb
100
AcDbEntity
  8
Layer_1
 62
1
100
AcDbPolyline
 90
2
 70
1
 10
-603.743691
 20
53.461353
 30
0.0
 10
-603.743691
 20
53.461353
 30
0.0
  0
SPLINE
  5
1bc
100
AcDbEntity
  8
Layer_1
 62
1
100
AcDbSpline
 70
0
 71
3
 72
22
 73
18
 74
16
 40
0.000000
 40
0.000000
 40
0.000000
 40
0.000000
 40
0.771426
 40
1.531768
 40
2.303194
 40
3.074620
 40
3.834961
 40
4.606387
 40
5.377813
 40
6.138155
 40
6.909581
 40
8.060533
 40
9.177472
 40
10.328424
 40
11.479376
 40
12.596314
 40
13.747267
 40
13.747267
 40
13.747267
 40
13.747267
 10
-296.519798
 20
-17.204788
 30
0.0
 10
-296.545405
 20
-16.946242
 30
0.0
 10
-296.596251
 20
-16.432865
 30
0.0
 10
-297.001699
 20
-15.753688
 30
0.0
 10
-297.596752
 20
-15.248540
 30
0.0
 10
-298.334358
 20
-14.980548
 30
0.0
 10
-299.117249
 20
-14.980542
 30
0.0
 10
-299.853803
 20
-15.248559
 30
0.0
 10
-300.453056
 20
-15.753619
 30
0.0
 10
-300.842899
 20
-16.433121
 30
0.0
 10
-301.000557
 20
-17.330816
 30
0.0
 10
-300.721488
 20
-18.357360
 30
0.0
 10
-299.878784
 20
-19.196749
 30
0.0
 10
-298.723722
 20
-19.508167
 30
0.0
 10
-297.580513
 20
-19.196891
 30
0.0
 10
-296.702951
 20
-18.356804
 30
0.0
 10
-296.581456
 20
-17.592614
 30
0.0
 10
-296.519798
 20
-17.204788
 30
0.0
 11
-296.519798
 21
-17.204788
 31
0.0
 11
-296.652114
 21
-16.444795
 31
0.0
 11
-297.030818
 21
-15.785474
 31
0.0
 11
-297.620625
 21
-15.288256
 31
0.0
 11
-298.345546
 21
-15.024463
 31
0.0
 11
-299.105888
 21
-15.024463
 31
0.0
 11
-299.830809
 21
-15.288256
 31
0.0
 11
-300.420616
 21
-15.785474
 31
0.0
 11
-300.799320
 21
-16.444795
 31
0.0
 11
-300.931636
 21
-17.204788
 31
0.0
 11
-300.628022
 21
-18.314973
 31
0.0
 11
-299.836909
 21
-19.103447
 31
0.0
 11
-298.725717
 21
-19.403352
 31
0.0
 11
-297.614525
 21
-19.103447
 31
0.0
 11
-296.823412
 21
-18.314973
 31
0.0
 11
-296.519798
 21
-17.204788
 31
0.0
  0
LWPOLYLINE
  5
1bd
100
AcDbEntity
  8
Layer_1
 62
1
100
AcDbPolyline
 90
2
 70
1
 10
-296.519798
 20
-17.204788
 30
0.0
 10
-296.519798
 20
-17.204788
 30
0.0
  0
SPLINE
  5
1be
100
AcDbEntity
  8
Layer_1
 62
1
100
AcDbSpline
 70
0
 71
3
 72
22
 73
18
 74
16
 40
0.000000
 40
0.000000
 40
0.000000
 40
0.000000
 40
0.771530
 40
1.531969
 40
2.303498
 40
3.075028
 40
3.835467
 40
4.606997
 40
5.378527
 40
6.138966
 40
6.910495
 40
8.061052
 40
9.177619
 40
10.328175
 40
11.478731
 40
12.595299
 40
13.745855
 40
13.745855
 40
13.745855
 40
13.745855
 10
-205.078736
 20
435.398071
 30
0.0
 10
-205.104256
 20
435.656663
 30
0.0
 10
-205.154929
 20
436.170128
 30
0.0
 10
-205.560266
 20
436.849505
 30
0.0
 10
-206.155318
 20
437.354824
 30
0.0
 10
-206.893007
 20
437.622915
 30
0.0
 10
-207.676009
 20
437.622921
 30
0.0
 10
-208.412645
 20
437.354805
 30
0.0
 10
-209.011899
 20
436.849573
 30
0.0
 10
-209.401626
 20
436.169877
 30
0.0
 10
-209.558973
 20
435.272184
 30
0.0
 10
-209.279648
 20
434.245977
 30
0.0
 10
-208.437090
 20
433.407050
 30
0.0
 10
-207.282428
 20
433.095818
 30
0.0
 10
-206.139611
 20
433.406910
 30
0.0
 10
-205.262215
 20
434.246523
 30
0.0
 10
-205.140504
 20
435.010405
 30
0.0
 10
-205.078736
 20
435.398071
 30
0.0
 11
-205.078736
 21
435.398071
 31
0.0
 11
-205.210816
 21
436.158212
 31
0.0
 11
-205.589403
 21
436.817711
 31
0.0
 11
-206.179205
 21
437.315095
 31
0.0
 11
-206.904202
 21
437.578985
 31
0.0
 11
-207.664641
 21
437.578985
 31
0.0
 11
-208.389638
 21
437.315095
 31
0.0
 11
-208.979441
 21
436.817711
 31
0.0
 11
-209.358027
 21
436.158212
 31
0.0
 11
-209.490107
 21
435.398071
 31
0.0
 11
-209.186249
 21
434.288364
 31
0.0
 11
-208.395251
 21
433.500301
 31
0.0
 11
-207.284422
 21
433.200570
 31
0.0
 11
-206.173593
 21
433.500301
 31
0.0
 11
-205.382594
 21
434.288364
 31
0.0
 11
-205.078736
 21
435.398071
 31
0.0
  0
LWPOLYLINE
  5
1bf
100
AcDbEntity
  8
Layer_1
 62
1
100
AcDbPolyline
 90
2
 70
1
 10
-205.078736
 20
435.398071
 30
0.0
 10
-205.078736
 20
435.398071
 30
0.0
  0
ENDSEC
  0
SECTION
  2
OBJECTS
  0
DICTIONARY
  5
C
330
0
100
AcDbDictionary
  3
ACAD_GROUP
350
D
  3
ACAD_MLINESTYLE
350
17
  0
DICTIONARY
  5
D
330
C
100
AcDbDictionary
  0
DICTIONARY
  5
1A
330
C
100
AcDbDictionary
  0
DICTIONARY
  5
17
330
C
100
AcDbDictionary
  3
STANDARD
350
18
  0
DICTIONARY
  5
19
330
C
100
AcDbDictionary
  0
ENDSEC
  0
EOF
