<?xml version="1.0" encoding="UTF-8" standalone="no"?>
<!-- Created with Inkscape (http://www.inkscape.org/) -->

<svg
   xmlns:dc="http://purl.org/dc/elements/1.1/"
   xmlns:cc="http://creativecommons.org/ns#"
   xmlns:rdf="http://www.w3.org/1999/02/22-rdf-syntax-ns#"
   xmlns:svg="http://www.w3.org/2000/svg"
   xmlns="http://www.w3.org/2000/svg"
   xmlns:sodipodi="http://sodipodi.sourceforge.net/DTD/sodipodi-0.dtd"
   xmlns:inkscape="http://www.inkscape.org/namespaces/inkscape"
   width="300mm"
   height="600mm"
   viewBox="0 0 1062.9921 2125.9842"
   id="svg2"
   version="1.1"
   inkscape:version="0.91 r13725"
   sodipodi:docname="CiBii recreate_Inkscape_table_v02.svg">
  <defs
     id="defs4" />
  <sodipodi:namedview
     id="base"
     pagecolor="#000000"
     bordercolor="#666666"
     borderopacity="1.0"
     inkscape:pageopacity="0"
     inkscape:pageshadow="2"
     inkscape:zoom="0.35355339"
     inkscape:cx="1385.0693"
     inkscape:cy="565.51693"
     inkscape:document-units="px"
     inkscape:current-layer="layer1"
     showgrid="true"
     inkscape:window-width="1280"
     inkscape:window-height="737"
     inkscape:window-x="0"
     inkscape:window-y="30"
     inkscape:window-maximized="1"
     showguides="true">
    <inkscape:grid
       type="xygrid"
       id="grid5085"
       units="mm"
       spacingx="3.5433072"
       spacingy="3.5433072"
       empspacing="10"
       color="#cf32ff"
       opacity="0.25490196"
       empcolor="#3f3fff"
       empopacity="0.54901961" />
  </sodipodi:namedview>
  <metadata
     id="metadata7">
    <rdf:RDF>
      <cc:Work
         rdf:about="">
        <dc:format>image/svg+xml</dc:format>
        <dc:type
           rdf:resource="http://purl.org/dc/dcmitype/StillImage" />
        <dc:title />
      </cc:Work>
    </rdf:RDF>
  </metadata>
  <g
     inkscape:label="Layer 1"
     inkscape:groupmode="layer"
     id="layer1"
     transform="translate(0,1073.622)">
    <path
       inkscape:connector-curvature="0"
       d="m -2652.9615,-255.27094 0,1471.79874 a 329.10698,329.10698 0 0 0 301.7763,327.9703 l 1766.14944,147.1788 a 329.10698,329.10698 0 0 0 354.62958,-293.5176 L 63.952855,-1398.2523 A 329.10698,329.10698 0 0 0 -426.62868,-1718.4491 L -2487.1372,-541.01566 a 329.10698,329.10698 0 0 0 -165.8243,285.74472"
       style="fill:none;stroke:#ff0000;stroke-width:5;stroke-miterlimit:4;stroke-dasharray:none;stroke-opacity:1"
       id="path3517" />
    <path
       inkscape:connector-curvature="0"
       d="m -2079.8788,-79.064984 43.3921,-86.850066 a 16.455023,16.455023 0 0 0 -29.4356,-14.71781 16.475395,16.475395 0 0 1 -22.08,7.37441 l -206.0846,-102.96407 a 16.535395,16.535395 0 0 1 -7.3972,-22.19131 16.415485,16.415485 0 1 0 -29.4093,-14.59286 l -43.3472,86.76058 a 16.450046,16.450046 0 1 0 29.4267,14.71334 16.375475,16.375475 0 0 1 22.0441,-7.28037 l 206.0846,102.96406 a 16.456009,16.456008 0 0 1 7.3709,22.066276 16.455029,16.455029 0 0 0 29.4355,14.71782"
       style="fill:none;stroke:#ff0000;stroke-width:5;stroke-miterlimit:4;stroke-dasharray:none;stroke-opacity:1"
       id="path3519" />
    <path
       inkscape:connector-curvature="0"
       d="m -550.6668,1421.4465 43.39212,-86.8506 a 16.45502,16.45502 0 0 0 -29.4357,-14.7174 16.475395,16.475395 0 0 1 -22.07982,7.3741 l -206.08506,-102.9637 a 16.535395,16.535395 0 0 1 -7.39698,-22.1913 16.415485,16.415485 0 1 0 -29.40942,-14.5929 l -43.3473,86.7602 a 16.450084,16.450084 0 1 0 29.4267,14.7134 16.375475,16.375475 0 0 1 22.04424,-7.2805 l 206.08482,102.9645 a 16.456009,16.456008 0 0 1 7.371,22.0666 16.455029,16.455029 0 0 0 29.4354,14.7176"
       style="fill:none;stroke:#ff0000;stroke-width:5;stroke-miterlimit:4;stroke-dasharray:none;stroke-opacity:1"
       id="path3521" />
    <path
       inkscape:connector-curvature="0"
       d="m -2381.5972,1223.5615 86.8501,43.3923 a 16.455202,16.455202 0 0 0 14.7179,-29.4358 16.475395,16.475395 0 0 1 -7.3746,-22.0801 l 102.9641,-206.0849 a 16.535395,16.535395 0 0 1 22.1912,-7.3971 16.415485,16.415485 0 1 0 14.5928,-29.40934 l -86.7602,-43.3473 a 16.450109,16.450109 0 0 0 -14.7135,29.42676 16.375475,16.375475 0 0 1 7.2804,22.0443 l -102.964,206.08478 a 16.456009,16.456008 0 0 1 -22.0663,7.3708 16.455034,16.455034 0 1 0 -14.7179,29.4356"
       style="fill:none;stroke:#ff0000;stroke-width:5;stroke-miterlimit:4;stroke-dasharray:none;stroke-opacity:1"
       id="path3523" />
    <path
       inkscape:connector-curvature="0"
       d="m -439.54236,-1188.7365 86.85012,43.3917 a 16.455023,16.455023 0 0 0 14.71764,-29.4354 16.475395,16.475395 0 0 1 -7.3743,-22.08 l 102.96414,-206.0855 a 16.535395,16.535395 0 0 1 22.1913,-7.3965 16.415749,16.415749 0 0 0 14.59284,-29.4101 l -86.76054,-43.3472 a 16.450104,16.450104 0 1 0 -14.7135,29.4268 16.375475,16.375475 0 0 1 7.28046,22.0442 l -102.9642,206.0854 a 16.456009,16.456008 0 0 1 -22.06608,7.3708 16.455108,16.455108 0 0 0 -14.71788,29.4358"
       style="fill:none;stroke:#ff0000;stroke-width:5;stroke-miterlimit:4;stroke-dasharray:none;stroke-opacity:1"
       id="path3525" />
    <path
       inkscape:connector-curvature="0"
       d="m -1962.448,-78.474944 a 7.8163,7.8163 0 1 0 -15.6326,0 7.8163,7.8163 0 0 0 15.6326,0 z"
       style="fill:none;stroke:#ff0000;stroke-width:5;stroke-miterlimit:4;stroke-dasharray:none;stroke-opacity:1"
       id="path3527" />
    <path
       inkscape:connector-curvature="0"
       d="m -1785.5519,804.05978 43.4186,-86.83693 a 16.455487,16.455487 0 0 0 -29.4365,-14.71807 16.455353,16.455353 0 0 1 -22.0771,7.35915 l -192.8073,-96.40366 37.1633,-74.32642 a 16.455353,16.455353 0 0 1 22.0773,-7.35906 16.455358,16.455357 0 1 0 14.7181,-29.43622 l -86.8372,-43.41842 a 16.455353,16.455353 0 0 0 -14.718,29.43621 16.455353,16.455353 0 0 1 7.3592,22.07711 l -103.0268,206.05358 a 16.455353,16.455353 0 0 1 -22.0774,7.35904 16.455353,16.455353 0 1 0 -14.718,29.43618 l 86.8369,43.41851 a 16.455383,16.455383 0 0 0 14.7181,-29.43621 16.455353,16.455353 0 0 1 -7.3591,-22.0772 l 37.1632,-74.3265 192.8075,96.4037 a 16.455353,16.455353 0 0 1 7.3592,22.07709 16.455353,16.455353 0 0 0 29.436,14.71812"
       style="fill:none;stroke:#ff0000;stroke-width:5;stroke-miterlimit:4;stroke-dasharray:none;stroke-opacity:1"
       id="path3529" />
    <path
       inkscape:connector-curvature="0"
       d="m -1911.3917,283.03866 86.8369,43.41846 a 16.455353,16.455353 0 0 0 14.7181,-29.43622 16.455353,16.455353 0 0 1 -7.3591,-22.07712 l 96.4037,-192.80731 74.3265,37.1632 a 16.455353,16.455353 0 0 1 7.3591,22.0772 16.455353,16.455353 0 1 0 29.436,14.71816 l 43.4186,-86.836858 a 16.455376,16.455377 0 1 0 -29.4362,-14.718138 16.455353,16.455353 0 0 1 -22.0773,7.35906 L -1823.819,-41.127674 a 16.455353,16.455353 0 0 1 -7.359,-22.077204 16.455392,16.455392 0 1 0 -29.4363,-14.718138 l -43.4183,86.8368543 a 16.455365,16.455365 0 0 0 29.4362,14.7181497 16.455353,16.455353 0 0 1 22.0771,-7.359096 l 74.3265,37.16331 -96.4036,192.807188 a 16.455353,16.455353 0 0 1 -22.0772,7.35908 16.455353,16.455353 0 0 0 -14.7181,29.43619"
       style="fill:none;stroke:#ff0000;stroke-width:5;stroke-miterlimit:4;stroke-dasharray:none;stroke-opacity:1"
       id="path3531" />
    <path
       inkscape:connector-curvature="0"
       d="m -1264.5308,678.21992 -86.8368,-43.41844 a 16.455353,16.455353 0 0 0 -14.718,29.43622 16.455353,16.455353 0 0 1 7.359,22.07721 l -96.4037,192.80733 -74.3265,-37.1634 a 16.455353,16.455353 0 0 1 -7.3591,-22.077 16.455353,16.455353 0 1 0 -29.436,-14.71818 l -43.4186,86.8368 a 16.455457,16.455457 0 1 0 29.4364,14.71824 16.455353,16.455353 0 0 1 22.077,-7.35912 l 206.0537,103.02682 a 16.455353,16.455353 0 0 1 7.3589,22.0771 16.455437,16.455437 0 1 0 29.4363,14.7182 l 43.4184,-86.8369 a 16.455354,16.455354 0 0 0 -29.4362,-14.71818 16.455353,16.455353 0 0 1 -22.0771,7.35912 l -74.3265,-37.16328 96.4036,-192.80723 a 16.455353,16.455353 0 0 1 22.0772,-7.35909 16.455353,16.455353 0 0 0 14.718,-29.43622"
       style="fill:none;stroke:#ff0000;stroke-width:5;stroke-miterlimit:4;stroke-dasharray:none;stroke-opacity:1"
       id="path3533" />
    <path
       inkscape:connector-curvature="0"
       d="m -1390.3706,157.19885 -43.4184,86.83687 a 16.455387,16.455387 0 1 0 29.4363,14.71807 16.455353,16.455353 0 0 1 22.0771,-7.35899 l 192.8076,96.40362 -37.1637,74.32644 a 16.455353,16.455353 0 0 1 -22.0771,7.35909 16.455369,16.455369 0 1 0 -14.7182,29.4362 l 86.8373,43.41842 a 16.455359,16.455359 0 0 0 14.7181,-29.43619 16.455353,16.455353 0 0 1 -7.3591,-22.07721 l 103.0267,-206.05353 a 16.455353,16.455353 0 0 1 22.0771,-7.35906 16.455353,16.455353 0 1 0 14.7181,-29.43621 l -86.8368,-43.41844 a 16.455353,16.455353 0 0 0 -14.718,29.43621 16.455353,16.455353 0 0 1 7.359,22.07713 l -37.1631,74.32648 -192.8076,-96.40361 a 16.455353,16.455353 0 0 1 -7.3589,-22.07722 16.455428,16.455428 0 1 0 -29.4364,-14.71807"
       style="fill:none;stroke:#ff0000;stroke-width:5;stroke-miterlimit:4;stroke-dasharray:none;stroke-opacity:1"
       id="path3535" />
    <path
       inkscape:connector-curvature="0"
       d="m 1024.5003,912.11102 a 7.8164052,7.8164052 0 1 0 -15.6326,0 7.8164052,7.8164052 0 0 0 15.6326,0 z"
       style="fill:none;stroke:#ff0000;stroke-width:5;stroke-miterlimit:4;stroke-dasharray:none;stroke-opacity:1"
       id="path3537" />
    <path
       inkscape:connector-curvature="0"
       d="m 1353.6071,-351.01636 a 7.8163866,7.8163866 0 1 0 -15.6327,0 7.8163866,7.8163866 0 0 0 15.6327,0 z"
       style="fill:none;stroke:#ff0000;stroke-width:5;stroke-miterlimit:4;stroke-dasharray:none;stroke-opacity:1"
       id="path3539" />
    <path
       inkscape:connector-curvature="0"
       d="m 1740.1901,93.27811 a 7.8162972,7.8162972 0 1 0 -15.6325,0 7.8162972,7.8162972 0 0 0 15.6325,0 z"
       style="fill:none;stroke:#ff0000;stroke-width:5;stroke-miterlimit:4;stroke-dasharray:none;stroke-opacity:1"
       id="path3541" />
    <path
       inkscape:connector-curvature="0"
       d="m 1518.1607,1356.4055 a 7.81632,7.81632 0 1 0 -15.6326,0 7.81632,7.81632 0 0 0 15.6326,0 z"
       style="fill:none;stroke:#ff0000;stroke-width:5;stroke-miterlimit:4;stroke-dasharray:none;stroke-opacity:1"
       id="path3543" />
    <path
       inkscape:connector-curvature="0"
       d="m 326.38206,-622.52956 0,987.32094 164.55336,0 102.23184,-408.927208 A 329.10698,329.10698 0 0 1 912.44802,-293.42262 l 1059.46888,0 0,-115.18747 a 16.455353,16.455353 0 0 0 -16.4553,-16.4554 16.455353,16.455353 0 0 1 0,-32.91059 l 80.6311,0 0,-164.55348 -329.107,0 0,80.63124 a 16.455386,16.455385 0 0 1 -32.9106,0 16.455353,16.455353 0 0 0 -16.4553,-16.45548 l -97.9093,0 a 16.455353,16.455353 0 0 0 -16.4554,16.45548 16.45545,16.45545 0 0 1 -32.9109,0 l 0,-80.63124 -132.4654,0 0,115.1874 a 16.455353,16.455353 0 0 0 16.4554,16.4553 16.45539,16.45539 0 0 1 0,32.91078 l -97.0866,0 a 16.45539,16.45539 0 1 1 0,-32.91078 16.455353,16.455353 0 0 0 16.4552,-16.4553 l 0,-115.1874 -132.4655,0 0,80.63124 a 16.455361,16.455361 0 0 1 -32.9106,0 16.455353,16.455353 0 0 0 -16.4553,-16.45548 l -427.01648,0 a 16.455353,16.455353 0 0 0 -16.45518,16.45548 16.455405,16.455404 0 0 1 -32.91066,0 l 0,-80.63124 -329.10702,0"
       style="fill:none;stroke:#ff0000;stroke-width:5;stroke-miterlimit:4;stroke-dasharray:none;stroke-opacity:1"
       id="path3545" />
    <path
       inkscape:connector-curvature="0"
       d="m 1106.2477,35.684326 730.3621,0 a 329.10698,329.10698 0 0 0 319.2807,-249.286766 l 102.2316,-408.92712 164.5536,0 0,987.32094 -329.1069,0 0,-80.63122 a 16.4554,16.455399 0 1 0 -32.9108,0 16.455353,16.455353 0 0 1 -16.4553,16.45532 l -97.9094,0 a 16.455353,16.455353 0 0 1 -16.4552,-16.45532 16.455455,16.455455 0 1 0 -32.9108,0 l 0,80.63122 -132.4655,0 0,-115.18748 a 16.455353,16.455353 0 0 1 16.4554,-16.45533 16.455361,16.455361 0 0 0 0,-32.91072 l -97.0866,0 a 16.455361,16.455361 0 1 0 0,32.91072 16.455353,16.455353 0 0 1 16.4552,16.45533 l 0,115.18748 -132.4654,0 0,-80.63122 a 16.455389,16.455389 0 1 0 -32.9107,0 16.455353,16.455353 0 0 1 -16.4554,16.45532 l -97.9094,0 a 16.455353,16.455353 0 0 1 -16.4552,-16.45532 16.455427,16.455427 0 1 0 -32.9108,0 l 0,80.63122 -329.1069,0 0,-164.55353 80.6311,0 a 16.45537,16.45537 0 0 0 0,-32.91072 16.455353,16.455353 0 0 1 -16.4554,-16.45532 l 0,-115.187484"
       style="fill:none;stroke:#ff0000;stroke-width:5;stroke-miterlimit:4;stroke-dasharray:none;stroke-opacity:1"
       id="path3547" />
    <path
       inkscape:connector-curvature="0"
       d="m 1642.81,969.70466 -730.36198,0 A 329.10698,329.10698 0 0 0 593.16726,1218.9913 l -102.23184,408.9269 -164.55336,0 0,-987.32048 329.10702,0 0,80.63117 a 16.455405,16.455404 0 0 0 32.91066,0 16.455353,16.455353 0 0 1 16.45518,-16.45542 l 97.9095,0 a 16.455353,16.455353 0 0 1 16.4553,16.45542 16.455376,16.455374 0 0 0 32.91066,0 l 0,-80.63117 132.46554,0 0,115.18739 a 16.455353,16.455353 0 0 1 -16.4553,16.45547 16.455353,16.455353 0 0 0 0,32.9106 l 97.08648,0 a 16.455353,16.455353 0 0 0 0,-32.9106 16.455353,16.455353 0 0 1 -16.4552,-16.45547 l 0,-115.18739 132.4654,0 0,80.63117 a 16.455485,16.455485 0 0 0 32.9108,0 16.455353,16.455353 0 0 1 16.4552,-16.45542 l 97.9096,0 a 16.455353,16.455353 0 0 1 16.4551,16.45542 16.455416,16.455416 0 0 0 32.9108,0 l 0,-80.63117 329.1069,0 0,164.55346 -80.6312,0 a 16.45539,16.45539 0 1 0 0,32.91078 16.455353,16.455353 0 0 1 16.4555,16.4553 l 0,115.1874"
       style="fill:none;stroke:#ff0000;stroke-width:5;stroke-miterlimit:4;stroke-dasharray:none;stroke-opacity:1"
       id="path3549" />
    <path
       inkscape:connector-curvature="0"
       d="m 3517.0627,1627.9182 0,-987.32048 -164.5532,0 -102.2319,408.92708 a 329.10698,329.10698 0 0 1 -319.2694,249.2871 l -2046.78994,0 0,115.1875 a 16.455353,16.455353 0 0 0 16.45548,16.4547 16.455505,16.455505 0 0 1 0,32.9109 l -80.6313,0 0,164.5532 329.10686,0 0,-80.6307 a 16.45545,16.45545 0 1 1 32.9109,0 16.455353,16.455353 0 0 0 16.4552,16.4556 l 97.9095,0 a 16.455353,16.455353 0 0 0 16.4552,-16.4556 16.45543,16.45543 0 1 1 32.9108,0 l 0,80.6307 132.4655,0 0,-115.1868 a 16.455353,16.455353 0 0 0 -16.4555,-16.4555 16.455527,16.455527 0 1 1 0,-32.9109 l 97.0868,0 a 16.455527,16.455527 0 0 1 0,32.9109 16.455353,16.455353 0 0 0 -16.4555,16.4555 l 0,115.1868 132.4657,0 0,-80.6307 a 16.455427,16.455427 0 1 1 32.9108,0 16.455353,16.455353 0 0 0 16.4553,16.4556 l 1414.3248,0 a 16.455353,16.455353 0 0 0 16.4556,-16.4556 16.455665,16.455666 0 1 1 32.9111,0 l 0,80.6307 329.1072,0"
       style="fill:none;stroke:#ff0000;stroke-width:5;stroke-miterlimit:4;stroke-dasharray:none;stroke-opacity:1"
       id="path3551" />
    <path
       inkscape:connector-curvature="0"
       d="m -2139.2493,862.93226 a 7.8163608,7.8163608 0 1 0 -15.6327,0 7.8163608,7.8163608 0 0 0 15.6327,0 z"
       style="fill:none;stroke:#ff0000;stroke-width:5;stroke-miterlimit:4;stroke-dasharray:none;stroke-opacity:1"
       id="path3553" />
    <path
       inkscape:connector-curvature="0"
       d="m -1050.6607,1113.3241 a 7.8162936,7.8162936 0 1 0 -15.6325,0 7.8162936,7.8162936 0 0 0 15.6325,0 z"
       style="fill:none;stroke:#ff0000;stroke-width:5;stroke-miterlimit:4;stroke-dasharray:none;stroke-opacity:1"
       id="path3555" />
    <path
       inkscape:connector-curvature="0"
       d="m -726.65694,-490.38682 a 7.815474,7.815474 0 1 0 -15.63084,0 7.815474,7.815474 0 0 0 15.63084,0 z"
       style="fill:none;stroke:#ff0000;stroke-width:5;stroke-miterlimit:4;stroke-dasharray:none;stroke-opacity:1"
       id="path3557" />
  </g>
</svg>
