  0
SECTION
  2
HEADER
  9
$ACADVER
  1
AC1014
  9
$HANDSEED
  5
FFFF
  9
$MEASUREMENT
 70
     1
  0
ENDSEC
  0
SECTION
  2
TABLES
  0
TABLE
  2
VPORT
  5
8
330
0
100
AcDbSymbolTable
 70
     4
  0
VPORT
  5
2E
330
8
100
AcDbSymbolTableRecord
100
AcDbViewportTableRecord
  2
*ACTIVE
 70
     0
 10
0.0
 20
0.0
 11
1.0
 21
1.0
 12
210.0
 22
148.5
 13
0.0
 23
0.0
 14
10.0
 24
10.0
 15
10.0
 25
10.0
 16
0.0
 26
0.0
 36
1.0
 17
0.0
 27
0.0
 37
0.0
 40
341.0
 41
1.24
 42
50.0
 43
0.0
 44
0.0
 50
0.0
 51
0.0
 71
     0
 72
   100
 73
     1
 74
     3
 75
     0
 76
     0
 77
     0
 78
     0
  0
ENDTAB
  0
TABLE
  2
LTYPE
  5
5
330
0
100
AcDbSymbolTable
 70
     1
  0
LTYPE
  5
14
330
5
100
AcDbSymbolTableRecord
100
AcDbLinetypeTableRecord
  2
BYBLOCK
 70
     0
  3

 72
    65
 73
     0
 40
0.0
  0
LTYPE
  5
15
330
5
100
AcDbSymbolTableRecord
100
AcDbLinetypeTableRecord
  2
BYLAYER
 70
     0
  3

 72
    65
 73
     0
 40
0.0
  0
LTYPE
  5
16
330
5
100
AcDbSymbolTableRecord
100
AcDbLinetypeTableRecord
  2
CONTINUOUS
 70
     0
  3
Solid line
 72
    65
 73
     0
 40
0.0
  0
ENDTAB
  0
TABLE
  2
LAYER
  5
2
100
AcDbSymbolTable
 70
2
  0
LAYER
  5
50
100
AcDbSymbolTableRecord
100
AcDbLayerTableRecord
  2
0
 70
0
  6
CONTINUOUS
  0
LAYER
  5
51
100
AcDbSymbolTableRecord
100
AcDbLayerTableRecord
  2
Layer_1
 70
0
  6
CONTINUOUS
  0
ENDTAB
  0
TABLE
  2
STYLE
  5
3
330
0
100
AcDbSymbolTable
 70
     1
  0
STYLE
  5
11
330
3
100
AcDbSymbolTableRecord
100
AcDbTextStyleTableRecord
  2
STANDARD
 70
     0
 40
0.0
 41
1.0
 50
0.0
 71
     0
 42
2.5
  3
txt
  4

  0
ENDTAB
  0
TABLE
  2
VIEW
  5
6
330
0
100
AcDbSymbolTable
 70
     0
  0
ENDTAB
  0
TABLE
  2
UCS
  5
7
330
0
100
AcDbSymbolTable
 70
     0
  0
ENDTAB
  0
TABLE
  2
APPID
  5
9
330
0
100
AcDbSymbolTable
 70
     2
  0
APPID
  5
12
330
9
100
AcDbSymbolTableRecord
100
AcDbRegAppTableRecord
  2
ACAD
 70
     0
  0
ENDTAB
  0
TABLE
  2
DIMSTYLE
  5
A
330
0
100
AcDbSymbolTable
 70
     1
  0
DIMSTYLE
105
27
330
A
100
AcDbSymbolTableRecord
100
AcDbDimStyleTableRecord
  2
ISO-25
 70
     0
  3

  4

  5

  6

  7

 40
1.0
 41
2.5
 42
0.625
 43
3.75
 44
1.25
 45
0.0
 46
0.0
 47
0.0
 48
0.0
140
2.5
141
2.5
142
0.0
143
0.03937007874016
144
1.0
145
0.0
146
1.0
147
0.625
 71
     0
 72
     0
 73
     0
 74
     0
 75
     0
 76
     0
 77
     1
 78
     8
170
     0
171
     3
172
     1
173
     0
174
     0
175
     0
176
     0
177
     0
178
     0
270
     2
271
     2
272
     2
273
     2
274
     3
340
11
275
     0
280
     0
281
     0
282
     0
283
     0
284
     8
285
     0
286
     0
287
     3
288
     0
  0
ENDTAB
  0
TABLE
  2
BLOCK_RECORD
  5
1
330
0
100
AcDbSymbolTable
 70
     1
  0
BLOCK_RECORD
  5
1F
330
1
100
AcDbSymbolTableRecord
100
AcDbBlockTableRecord
  2
*MODEL_SPACE
  0
BLOCK_RECORD
  5
1B
330
1
100
AcDbSymbolTableRecord
100
AcDbBlockTableRecord
  2
*PAPER_SPACE
  0
ENDTAB
  0
ENDSEC
  0
SECTION
  2
BLOCKS
  0
BLOCK
  5
20
330
1F
100
AcDbEntity
  8
0
100
AcDbBlockBegin
  2
*MODEL_SPACE
 70
     0
 10
0.0
 20
0.0
 30
0.0
  3
*MODEL_SPACE
  1

  0
ENDBLK
  5
21
330
1F
100
AcDbEntity
  8
0
100
AcDbBlockEnd
  0
BLOCK
  5
1C
330
1B
100
AcDbEntity
 67
     1
  8
0
100
AcDbBlockBegin
  2
*PAPER_SPACE
  1

  0
ENDBLK
  5
1D
330
1B
100
AcDbEntity
 67
     1
  8
0
100
AcDbBlockEnd
  0
ENDSEC
  0
SECTION
  2
ENTITIES
  0
LWPOLYLINE
  5
100
100
AcDbEntity
  8
Layer_1
 62
1
100
AcDbPolyline
 90
2
 70
0
 10
-201.688765
 20
573.599706
 30
0.0
 10
-178.326539
 20
573.599706
 30
0.0
  0
SPLINE
  5
101
100
AcDbEntity
  8
Layer_1
 62
1
100
AcDbSpline
 70
0
 71
3
 72
16
 73
12
 74
10
 40
0.000000
 40
0.000000
 40
0.000000
 40
0.000000
 40
2.621067
 40
4.801908
 40
7.422931
 40
10.043998
 40
12.224831
 40
14.845835
 40
17.466904
 40
19.647765
 40
22.268834
 40
22.268834
 40
22.268834
 40
22.268834
 10
-178.326539
 20
573.599706
 30
0.0
 10
-177.430236
 20
573.541261
 30
0.0
 10
-175.788170
 20
573.434189
 30
0.0
 10
-173.865883
 20
571.511408
 30
0.0
 10
-173.700228
 20
568.975424
 30
0.0
 10
-173.534600
 20
566.428376
 30
0.0
 10
-171.612377
 20
564.535059
 30
0.0
 10
-169.074024
 20
564.244663
 30
0.0
 10
-166.535668
 20
564.534934
 30
0.0
 10
-164.613386
 20
566.428782
 30
0.0
 10
-164.506231
 20
568.074948
 30
0.0
 10
-164.447742
 20
568.973485
 30
0.0
 11
-178.326539
 21
573.599706
 31
0.0
 11
-175.756370
 21
573.085681
 31
0.0
 11
-174.214268
 21
571.543608
 31
0.0
 11
-173.700234
 21
568.973485
 31
0.0
 11
-173.186213
 21
566.403316
 31
0.0
 11
-171.644151
 21
564.861214
 31
0.0
 11
-169.074047
 21
564.347180
 31
0.0
 11
-166.503878
 21
564.861214
 31
0.0
 11
-164.961776
 21
566.403316
 31
0.0
 11
-164.447742
 21
568.973485
 31
0.0
  0
LWPOLYLINE
  5
102
100
AcDbEntity
  8
Layer_1
 62
1
100
AcDbPolyline
 90
2
 70
0
 10
-164.447742
 20
568.973485
 30
0.0
 10
-164.447742
 20
596.268091
 30
0.0
  0
SPLINE
  5
103
100
AcDbEntity
  8
Layer_1
 62
1
100
AcDbSpline
 70
0
 71
3
 72
16
 73
12
 74
10
 40
0.000000
 40
0.000000
 40
0.000000
 40
0.000000
 40
2.620958
 40
4.801772
 40
7.422836
 40
10.043836
 40
12.224621
 40
14.845577
 40
17.466551
 40
19.647371
 40
22.268436
 40
22.268436
 40
22.268436
 40
22.268436
 10
-164.447742
 20
596.268091
 30
0.0
 10
-164.506234
 20
597.166593
 30
0.0
 10
-164.613396
 20
598.812708
 30
0.0
 10
-166.535694
 20
600.706458
 30
0.0
 10
-169.074024
 20
600.996700
 30
0.0
 10
-171.612351
 20
600.706333
 30
0.0
 10
-173.534590
 20
598.813114
 30
0.0
 10
-173.700232
 20
596.266130
 30
0.0
 10
-173.865887
 20
593.730206
 30
0.0
 10
-175.788182
 20
591.807470
 30
0.0
 10
-177.430238
 20
591.700402
 30
0.0
 10
-178.326539
 20
591.641961
 30
0.0
 11
-164.447742
 21
596.268091
 31
0.0
 11
-164.961776
 21
598.838148
 31
0.0
 11
-166.503878
 21
600.380182
 31
0.0
 11
-169.074047
 21
600.894193
 31
0.0
 11
-171.644151
 21
600.380182
 31
0.0
 11
-173.186213
 21
598.838148
 31
0.0
 11
-173.700234
 21
596.268091
 31
0.0
 11
-174.214268
 21
593.698019
 31
0.0
 11
-175.756370
 21
592.155975
 31
0.0
 11
-178.326539
 21
591.641961
 31
0.0
  0
LWPOLYLINE
  5
104
100
AcDbEntity
  8
Layer_1
 62
1
100
AcDbPolyline
 90
3
 70
0
 10
-178.326539
 20
591.641961
 30
0.0
 10
-201.688765
 20
591.641961
 30
0.0
 10
-201.688765
 20
615.004147
 30
0.0
  0
SPLINE
  5
105
100
AcDbEntity
  8
Layer_1
 62
1
100
AcDbSpline
 70
0
 71
3
 72
16
 73
12
 74
10
 40
0.000000
 40
0.000000
 40
0.000000
 40
0.000000
 40
2.621066
 40
4.801930
 40
7.423008
 40
10.043908
 40
12.224663
 40
14.845645
 40
17.466704
 40
19.647492
 40
22.268395
 40
22.268395
 40
22.268395
 40
22.268395
 10
-201.688765
 20
615.004147
 30
0.0
 10
-201.630318
 20
615.900451
 30
0.0
 10
-201.523240
 20
617.542526
 30
0.0
 10
-199.600406
 20
619.464804
 30
0.0
 10
-197.064462
 20
619.630438
 30
0.0
 10
-194.517465
 20
619.796094
 30
0.0
 10
-192.624294
 20
621.718326
 30
0.0
 10
-192.333939
 20
624.256633
 30
0.0
 10
-192.624168
 20
626.794942
 30
0.0
 10
-194.517869
 20
628.717246
 30
0.0
 10
-196.163959
 20
628.824411
 30
0.0
 10
-197.062443
 20
628.882904
 30
0.0
 11
-201.688765
 21
615.004147
 31
0.0
 11
-201.174729
 21
617.574313
 31
0.0
 11
-199.632622
 21
619.116413
 31
0.0
 11
-197.062443
 21
619.630446
 31
0.0
 11
-194.492443
 21
620.144464
 31
0.0
 11
-192.950442
 21
621.686517
 31
0.0
 11
-192.436442
 21
624.256605
 31
0.0
 11
-192.950442
 21
626.826771
 31
0.0
 11
-194.492443
 21
628.368871
 31
0.0
 11
-197.062443
 21
628.882904
 31
0.0
  0
LWPOLYLINE
  5
106
100
AcDbEntity
  8
Layer_1
 62
1
100
AcDbPolyline
 90
2
 70
0
 10
-197.062443
 20
628.882904
 30
0.0
 10
-224.357164
 20
628.882904
 30
0.0
  0
SPLINE
  5
107
100
AcDbEntity
  8
Layer_1
 62
1
100
AcDbSpline
 70
0
 71
3
 72
16
 73
12
 74
10
 40
0.000000
 40
0.000000
 40
0.000000
 40
0.000000
 40
2.621069
 40
4.801929
 40
7.422995
 40
10.043984
 40
12.224810
 40
14.845876
 40
17.466871
 40
19.647699
 40
22.268762
 40
22.268762
 40
22.268762
 40
22.268762
 10
-224.357164
 20
628.882904
 30
0.0
 10
-225.255702
 20
628.824415
 30
0.0
 10
-226.901867
 20
628.717261
 30
0.0
 10
-228.795715
 20
626.794982
 30
0.0
 10
-229.085987
 20
624.256633
 30
0.0
 10
-228.795589
 20
621.718287
 30
0.0
 10
-226.902270
 20
619.796077
 30
0.0
 10
-224.355235
 20
619.630455
 30
0.0
 10
-221.819264
 20
619.464795
 30
0.0
 10
-219.896507
 20
617.542507
 30
0.0
 10
-219.789438
 20
615.900448
 30
0.0
 10
-219.730995
 20
615.004147
 30
0.0
 11
-224.357164
 21
628.882904
 31
0.0
 11
-226.927334
 21
628.368871
 31
0.0
 11
-228.469436
 21
626.826771
 31
0.0
 11
-228.983469
 21
624.256605
 31
0.0
 11
-228.469436
 21
621.686517
 31
0.0
 11
-226.927334
 21
620.144464
 31
0.0
 11
-224.357164
 21
619.630446
 31
0.0
 11
-221.787070
 21
619.116413
 31
0.0
 11
-220.245013
 21
617.574313
 31
0.0
 11
-219.730995
 21
615.004147
 31
0.0
  0
LWPOLYLINE
  5
108
100
AcDbEntity
  8
Layer_1
 62
1
100
AcDbPolyline
 90
3
 70
0
 10
-219.730995
 20
615.004147
 30
0.0
 10
-219.730995
 20
591.641961
 30
0.0
 10
-243.093440
 20
591.641961
 30
0.0
  0
SPLINE
  5
109
100
AcDbEntity
  8
Layer_1
 62
1
100
AcDbSpline
 70
0
 71
3
 72
16
 73
12
 74
10
 40
0.000000
 40
0.000000
 40
0.000000
 40
0.000000
 40
2.620871
 40
4.801608
 40
7.422573
 40
10.043532
 40
12.224345
 40
14.845409
 40
17.466409
 40
19.647195
 40
22.268150
 40
22.268150
 40
22.268150
 40
22.268150
 10
-243.093440
 20
591.641961
 30
0.0
 10
-243.989679
 20
591.700408
 30
0.0
 10
-245.631647
 20
591.807486
 30
0.0
 10
-247.553769
 20
593.730253
 30
0.0
 10
-247.719381
 20
596.266128
 30
0.0
 10
-247.885046
 20
598.813131
 30
0.0
 10
-249.807342
 20
600.706337
 30
0.0
 10
-252.345672
 20
600.996700
 30
0.0
 10
-254.883999
 20
600.706453
 30
0.0
 10
-256.806238
 20
598.812693
 30
0.0
 10
-256.913393
 20
597.166590
 30
0.0
 10
-256.971882
 20
596.268091
 30
0.0
 11
-243.093440
 21
591.641961
 31
0.0
 11
-245.663412
 21
592.155975
 31
0.0
 11
-247.205396
 21
593.698019
 31
0.0
 11
-247.719390
 21
596.268091
 31
0.0
 11
-248.233424
 21
598.838148
 31
0.0
 11
-249.775526
 21
600.380182
 31
0.0
 11
-252.345695
 21
600.894193
 31
0.0
 11
-254.915799
 21
600.380182
 31
0.0
 11
-256.457861
 21
598.838148
 31
0.0
 11
-256.971882
 21
596.268091
 31
0.0
  0
LWPOLYLINE
  5
10a
100
AcDbEntity
  8
Layer_1
 62
1
100
AcDbPolyline
 90
2
 70
0
 10
-256.971882
 20
596.268091
 30
0.0
 10
-256.971882
 20
568.973485
 30
0.0
  0
SPLINE
  5
10b
100
AcDbEntity
  8
Layer_1
 62
1
100
AcDbSpline
 70
0
 71
3
 72
16
 73
12
 74
10
 40
0.000000
 40
0.000000
 40
0.000000
 40
0.000000
 40
2.621066
 40
4.801900
 40
7.422904
 40
10.043973
 40
12.224834
 40
14.845903
 40
17.466918
 40
19.647676
 40
22.268549
 40
22.268549
 40
22.268549
 40
22.268549
 10
-256.971882
 20
568.973485
 30
0.0
 10
-256.913396
 20
568.074950
 30
0.0
 10
-256.806247
 20
566.428797
 30
0.0
 10
-254.884025
 20
564.534939
 30
0.0
 10
-252.345672
 20
564.244663
 30
0.0
 10
-249.807316
 20
564.535055
 30
0.0
 10
-247.885036
 20
566.428359
 30
0.0
 10
-247.719385
 20
568.975426
 30
0.0
 10
-247.553772
 20
571.511361
 30
0.0
 10
-245.631659
 20
573.434172
 30
0.0
 10
-243.989681
 20
573.541256
 30
0.0
 10
-243.093440
 20
573.599706
 30
0.0
 11
-256.971882
 21
568.973485
 31
0.0
 11
-256.457861
 21
566.403316
 31
0.0
 11
-254.915799
 21
564.861214
 31
0.0
 11
-252.345695
 21
564.347180
 31
0.0
 11
-249.775526
 21
564.861214
 31
0.0
 11
-248.233424
 21
566.403316
 31
0.0
 11
-247.719390
 21
568.973485
 31
0.0
 11
-247.205396
 21
571.543608
 31
0.0
 11
-245.663412
 21
573.085681
 31
0.0
 11
-243.093440
 21
573.599706
 31
0.0
  0
LWPOLYLINE
  5
10c
100
AcDbEntity
  8
Layer_1
 62
1
100
AcDbPolyline
 90
3
 70
0
 10
-243.093440
 20
573.599706
 30
0.0
 10
-219.730995
 20
573.599706
 30
0.0
 10
-219.730995
 20
550.237463
 30
0.0
  0
SPLINE
  5
10d
100
AcDbEntity
  8
Layer_1
 62
1
100
AcDbSpline
 70
0
 71
3
 72
16
 73
12
 74
10
 40
0.000000
 40
0.000000
 40
0.000000
 40
0.000000
 40
2.620974
 40
4.801763
 40
7.422755
 40
10.043821
 40
12.224650
 40
14.845645
 40
17.466705
 40
19.647562
 40
22.268630
 40
22.268630
 40
22.268630
 40
22.268630
 10
-219.730995
 20
550.237463
 30
0.0
 10
-219.789440
 20
549.341191
 30
0.0
 10
-219.896515
 20
547.699172
 30
0.0
 10
-221.819285
 20
545.776964
 30
0.0
 10
-224.355235
 20
545.611323
 30
0.0
 10
-226.902272
 20
545.445694
 30
0.0
 10
-228.795589
 20
543.523480
 30
0.0
 10
-229.085987
 20
540.985134
 30
0.0
 10
-228.795714
 20
538.446785
 30
0.0
 10
-226.901866
 20
536.524512
 30
0.0
 10
-225.255701
 20
536.417358
 30
0.0
 10
-224.357164
 20
536.358869
 30
0.0
 11
-219.730995
 21
550.237463
 31
0.0
 11
-220.245013
 21
547.667388
 31
0.0
 11
-221.787070
 21
546.125342
 31
0.0
 11
-224.357164
 21
545.611327
 31
0.0
 11
-226.927334
 21
545.097308
 31
0.0
 11
-228.469436
 21
543.555252
 31
0.0
 11
-228.983469
 21
540.985157
 31
0.0
 11
-228.469436
 21
538.414997
 31
0.0
 11
-226.927334
 21
536.872901
 31
0.0
 11
-224.357164
 21
536.358869
 31
0.0
  0
LWPOLYLINE
  5
10e
100
AcDbEntity
  8
Layer_1
 62
1
100
AcDbPolyline
 90
2
 70
0
 10
-224.357164
 20
536.358869
 30
0.0
 10
-197.062443
 20
536.358869
 30
0.0
  0
SPLINE
  5
10f
100
AcDbEntity
  8
Layer_1
 62
1
100
AcDbSpline
 70
0
 71
3
 72
16
 73
12
 74
10
 40
0.000000
 40
0.000000
 40
0.000000
 40
0.000000
 40
2.620903
 40
4.801688
 40
7.422741
 40
10.043729
 40
12.224487
 40
14.845387
 40
17.466461
 40
19.647287
 40
22.268264
 40
22.268264
 40
22.268264
 40
22.268264
 10
-197.062443
 20
536.358869
 30
0.0
 10
-196.163959
 20
536.417362
 30
0.0
 10
-194.517871
 20
536.524526
 30
0.0
 10
-192.624168
 20
538.446825
 30
0.0
 10
-192.333939
 20
540.985134
 30
0.0
 10
-192.624294
 20
543.523441
 30
0.0
 10
-194.517464
 20
545.445678
 30
0.0
 10
-197.064462
 20
545.611339
 30
0.0
 10
-199.600385
 20
545.776955
 30
0.0
 10
-201.523232
 20
547.699153
 30
0.0
 10
-201.630315
 20
549.341188
 30
0.0
 10
-201.688765
 20
550.237463
 30
0.0
 11
-197.062443
 21
536.358869
 31
0.0
 11
-194.492443
 21
536.872901
 31
0.0
 11
-192.950442
 21
538.414997
 31
0.0
 11
-192.436442
 21
540.985157
 31
0.0
 11
-192.950442
 21
543.555252
 31
0.0
 11
-194.492443
 21
545.097308
 31
0.0
 11
-197.062443
 21
545.611327
 31
0.0
 11
-199.632622
 21
546.125342
 31
0.0
 11
-201.174729
 21
547.667388
 31
0.0
 11
-201.688765
 21
550.237463
 31
0.0
  0
SPLINE
  5
110
100
AcDbEntity
  8
Layer_1
 62
1
100
AcDbSpline
 70
0
 71
3
 72
10
 73
6
 74
4
 40
0.000000
 40
0.000000
 40
0.000000
 40
0.000000
 40
2.620954
 40
4.801719
 40
7.422673
 40
7.422673
 40
7.422673
 40
7.422673
 10
261.563479
 20
609.915370
 30
0.0
 10
260.667214
 20
609.856883
 30
0.0
 10
259.025211
 20
609.749733
 30
0.0
 10
257.103015
 20
607.827536
 30
0.0
 10
256.995864
 20
606.185533
 30
0.0
 10
256.937377
 20
605.289268
 30
0.0
 11
261.563479
 21
609.915370
 31
0.0
 11
258.993423
 21
609.401358
 31
0.0
 11
257.451389
 21
607.859324
 31
0.0
 11
256.937377
 21
605.289268
 31
0.0
  0
SPLINE
  5
111
100
AcDbEntity
  8
Layer_1
 62
1
100
AcDbSpline
 70
0
 71
3
 72
10
 73
6
 74
4
 40
0.000000
 40
0.000000
 40
0.000000
 40
0.000000
 40
2.620958
 40
4.801763
 40
7.422809
 40
7.422809
 40
7.422809
 40
7.422809
 10
266.189751
 20
605.289268
 30
0.0
 10
266.131259
 20
606.185536
 30
0.0
 10
266.024100
 20
607.827558
 30
0.0
 10
264.101818
 20
609.749741
 30
0.0
 10
262.459774
 20
609.856886
 30
0.0
 10
261.563479
 20
609.915370
 30
0.0
 11
266.189751
 21
605.289268
 31
0.0
 11
265.675721
 21
607.859324
 31
0.0
 11
264.133630
 21
609.401358
 31
0.0
 11
261.563479
 21
609.915370
 31
0.0
  0
LWPOLYLINE
  5
112
100
AcDbEntity
  8
Layer_1
 62
1
100
AcDbPolyline
 90
2
 70
0
 10
-201.688765
 20
550.237463
 30
0.0
 10
-201.688765
 20
573.599706
 30
0.0
  0
LWPOLYLINE
  5
113
100
AcDbEntity
  8
Layer_1
 62
1
100
AcDbPolyline
 90
2
 70
0
 10
303.199461
 20
600.662940
 30
0.0
 10
270.815988
 20
600.662940
 30
0.0
  0
LWPOLYLINE
  5
114
100
AcDbEntity
  8
Layer_1
 62
1
100
AcDbPolyline
 90
2
 70
0
 10
303.199461
 20
675.145307
 30
0.0
 10
303.199461
 20
600.662940
 30
0.0
  0
LWPOLYLINE
  5
115
100
AcDbEntity
  8
Layer_1
 62
1
100
AcDbPolyline
 90
2
 70
0
 10
219.696558
 20
675.145307
 30
0.0
 10
303.199461
 20
675.145307
 30
0.0
  0
SPLINE
  5
116
100
AcDbEntity
  8
Layer_1
 62
1
100
AcDbSpline
 70
0
 71
3
 72
10
 73
6
 74
4
 40
0.000000
 40
0.000000
 40
0.000000
 40
0.000000
 40
2.621033
 40
4.801883
 40
7.422963
 40
7.422963
 40
7.422963
 40
7.422963
 10
270.815988
 20
600.662940
 30
0.0
 10
269.919695
 20
600.721431
 30
0.0
 10
268.277634
 20
600.828589
 30
0.0
 10
266.355388
 20
602.750888
 30
0.0
 10
266.248238
 20
604.392961
 30
0.0
 10
266.189751
 20
605.289268
 30
0.0
 11
270.815988
 21
600.662940
 31
0.0
 11
268.245856
 21
601.176976
 31
0.0
 11
266.703777
 21
602.719086
 31
0.0
 11
266.189751
 21
605.289268
 31
0.0
  0
SPLINE
  5
117
100
AcDbEntity
  8
Layer_1
 62
1
100
AcDbSpline
 70
0
 71
3
 72
10
 73
6
 74
4
 40
0.000000
 40
0.000000
 40
0.000000
 40
0.000000
 40
2.621041
 40
4.801978
 40
7.423257
 40
7.423257
 40
7.423257
 40
7.423257
 10
224.322795
 20
647.156285
 30
0.0
 10
223.426495
 20
647.214786
 30
0.0
 10
221.784394
 20
647.321965
 30
0.0
 10
219.862178
 20
649.244446
 30
0.0
 10
219.755039
 20
650.886609
 30
0.0
 10
219.696558
 20
651.782980
 30
0.0
 11
224.322795
 21
647.156285
 31
0.0
 11
221.752663
 21
647.670363
 31
0.0
 11
220.210584
 21
649.212594
 31
0.0
 11
219.696558
 21
651.782980
 31
0.0
  0
SPLINE
  5
118
100
AcDbEntity
  8
Layer_1
 62
1
100
AcDbSpline
 70
0
 71
3
 72
10
 73
6
 74
4
 40
0.000000
 40
0.000000
 40
0.000000
 40
0.000000
 40
2.621043
 40
4.801816
 40
7.422700
 40
7.422700
 40
7.422700
 40
7.422700
 10
228.948762
 20
642.530099
 30
0.0
 10
228.890281
 20
643.426391
 30
0.0
 10
228.783144
 20
645.068420
 30
0.0
 10
226.861028
 20
646.990712
 30
0.0
 10
225.219040
 20
647.097877
 30
0.0
 10
224.322795
 20
647.156370
 30
0.0
 11
228.948762
 21
642.530099
 31
0.0
 11
228.434765
 21
645.100249
 31
0.0
 11
226.892777
 21
646.642340
 31
0.0
 11
224.322795
 21
647.156370
 31
0.0
  0
LWPOLYLINE
  5
119
100
AcDbEntity
  8
Layer_1
 62
1
100
AcDbPolyline
 90
2
 70
0
 10
219.696558
 20
651.782980
 30
0.0
 10
219.696558
 20
675.145307
 30
0.0
  0
SPLINE
  5
11a
100
AcDbEntity
  8
Layer_1
 62
1
100
AcDbSpline
 70
0
 71
3
 72
10
 73
6
 74
4
 40
0.000000
 40
0.000000
 40
0.000000
 40
0.000000
 40
2.620882
 40
4.801635
 40
7.422632
 40
7.422632
 40
7.422632
 40
7.422632
 10
224.322795
 20
637.903912
 30
0.0
 10
225.219038
 20
637.962403
 30
0.0
 10
226.861017
 20
638.069563
 30
0.0
 10
228.783140
 20
639.991813
 30
0.0
 10
228.890280
 20
641.633821
 30
0.0
 10
228.948762
 20
642.530099
 30
0.0
 11
224.322795
 21
637.903912
 31
0.0
 11
226.892777
 21
638.417933
 31
0.0
 11
228.434765
 21
639.959995
 31
0.0
 11
228.948762
 21
642.530099
 31
0.0
  0
SPLINE
  5
11b
100
AcDbEntity
  8
Layer_1
 62
1
100
AcDbSpline
 70
0
 71
3
 72
10
 73
6
 74
4
 40
0.000000
 40
0.000000
 40
0.000000
 40
0.000000
 40
2.621002
 40
4.801811
 40
7.422822
 40
7.422822
 40
7.422822
 40
7.422822
 10
192.401836
 20
642.530099
 30
0.0
 10
192.460324
 20
641.633817
 30
0.0
 10
192.567478
 20
639.991782
 30
0.0
 10
194.489718
 20
638.069551
 30
0.0
 10
196.131755
 20
637.962399
 30
0.0
 10
197.028040
 20
637.903912
 30
0.0
 11
192.401836
 21
642.530099
 31
0.0
 11
192.915859
 21
639.959995
 31
0.0
 11
194.457927
 21
638.417933
 31
0.0
 11
197.028040
 21
637.903912
 31
0.0
  0
SPLINE
  5
11c
100
AcDbEntity
  8
Layer_1
 62
1
100
AcDbSpline
 70
0
 71
3
 72
10
 73
6
 74
4
 40
0.000000
 40
0.000000
 40
0.000000
 40
0.000000
 40
2.621013
 40
4.801842
 40
7.422890
 40
7.422890
 40
7.422890
 40
7.422890
 10
197.028040
 20
647.156370
 30
0.0
 10
196.131754
 20
647.097880
 30
0.0
 10
194.489707
 20
646.990724
 30
0.0
 10
192.567474
 20
645.068451
 30
0.0
 10
192.460323
 20
643.426395
 30
0.0
 10
192.401836
 20
642.530099
 30
0.0
 11
197.028040
 21
647.156370
 31
0.0
 11
194.457927
 21
646.642340
 31
0.0
 11
192.915859
 21
645.100249
 31
0.0
 11
192.401836
 21
642.530099
 31
0.0
  0
LWPOLYLINE
  5
11d
100
AcDbEntity
  8
Layer_1
 62
1
100
AcDbPolyline
 90
2
 70
0
 10
197.028040
 20
637.903912
 30
0.0
 10
224.322795
 20
637.903912
 30
0.0
  0
LWPOLYLINE
  5
11e
100
AcDbEntity
  8
Layer_1
 62
1
100
AcDbPolyline
 90
2
 70
0
 10
201.654328
 20
675.145307
 30
0.0
 10
201.654328
 20
651.782980
 30
0.0
  0
LWPOLYLINE
  5
11f
100
AcDbEntity
  8
Layer_1
 62
1
100
AcDbPolyline
 90
2
 70
0
 10
118.151473
 20
675.145307
 30
0.0
 10
201.654328
 20
675.145307
 30
0.0
  0
LWPOLYLINE
  5
120
100
AcDbEntity
  8
Layer_1
 62
1
100
AcDbPolyline
 90
2
 70
0
 10
118.151473
 20
600.662940
 30
0.0
 10
118.151473
 20
675.145307
 30
0.0
  0
SPLINE
  5
121
100
AcDbEntity
  8
Layer_1
 62
1
100
AcDbSpline
 70
0
 71
3
 72
10
 73
6
 74
4
 40
0.000000
 40
0.000000
 40
0.000000
 40
0.000000
 40
2.621281
 40
4.802230
 40
7.423298
 40
7.423298
 40
7.423298
 40
7.423298
 10
201.654328
 20
651.782980
 30
0.0
 10
201.595845
 20
650.886608
 30
0.0
 10
201.488703
 20
649.244439
 30
0.0
 10
199.566463
 20
647.321963
 30
0.0
 10
197.924349
 20
647.214786
 30
0.0
 10
197.028040
 20
647.156285
 30
0.0
 11
201.654328
 21
651.782980
 31
0.0
 11
201.140296
 21
649.212594
 31
0.0
 11
199.598200
 21
647.670363
 31
0.0
 11
197.028040
 21
647.156285
 31
0.0
  0
SPLINE
  5
122
100
AcDbEntity
  8
Layer_1
 62
1
100
AcDbSpline
 70
0
 71
3
 72
10
 73
6
 74
4
 40
0.000000
 40
0.000000
 40
0.000000
 40
0.000000
 40
2.621081
 40
4.801943
 40
7.423004
 40
7.423004
 40
7.423004
 40
7.423004
 10
155.160898
 20
605.289268
 30
0.0
 10
155.102410
 20
604.392960
 30
0.0
 10
154.995256
 20
602.750881
 30
0.0
 10
153.072985
 20
600.828587
 30
0.0
 10
151.430912
 20
600.721430
 30
0.0
 10
150.534610
 20
600.662940
 30
0.0
 11
155.160898
 21
605.289268
 31
0.0
 11
154.646866
 21
602.719086
 31
0.0
 11
153.104770
 21
601.176976
 31
0.0
 11
150.534610
 21
600.662940
 31
0.0
  0
SPLINE
  5
123
100
AcDbEntity
  8
Layer_1
 62
1
100
AcDbSpline
 70
0
 71
3
 72
10
 73
6
 74
4
 40
0.000000
 40
0.000000
 40
0.000000
 40
0.000000
 40
2.620898
 40
4.801640
 40
7.422592
 40
7.422592
 40
7.422592
 40
7.422592
 10
159.786899
 20
609.915370
 30
0.0
 10
158.890651
 20
609.856882
 30
0.0
 10
157.248673
 20
609.749728
 30
0.0
 10
155.326527
 20
607.827523
 30
0.0
 10
155.219382
 20
606.185531
 30
0.0
 10
155.160898
 20
605.289268
 30
0.0
 11
159.786899
 21
609.915370
 31
0.0
 11
157.216898
 21
609.401358
 31
0.0
 11
155.674898
 21
607.859324
 31
0.0
 11
155.160898
 21
605.289268
 31
0.0
  0
LWPOLYLINE
  5
124
100
AcDbEntity
  8
Layer_1
 62
1
100
AcDbPolyline
 90
2
 70
0
 10
150.534610
 20
600.662940
 30
0.0
 10
118.151473
 20
600.662940
 30
0.0
  0
LWPOLYLINE
  5
125
100
AcDbEntity
  8
Layer_1
 62
1
100
AcDbPolyline
 90
2
 70
0
 10
164.413356
 20
582.620671
 30
0.0
 10
164.413356
 20
605.289268
 30
0.0
  0
LWPOLYLINE
  5
126
100
AcDbEntity
  8
Layer_1
 62
1
100
AcDbPolyline
 90
2
 70
0
 10
256.937377
 20
582.620671
 30
0.0
 10
164.413356
 20
582.620671
 30
0.0
  0
SPLINE
  5
127
100
AcDbEntity
  8
Layer_1
 62
1
100
AcDbSpline
 70
0
 71
3
 72
10
 73
6
 74
4
 40
0.000000
 40
0.000000
 40
0.000000
 40
0.000000
 40
2.620962
 40
4.801811
 40
7.422958
 40
7.422958
 40
7.422958
 40
7.422958
 10
164.413356
 20
605.289268
 30
0.0
 10
164.354860
 20
606.185540
 30
0.0
 10
164.247690
 20
607.827582
 30
0.0
 10
162.325316
 20
609.749749
 30
0.0
 10
160.683226
 20
609.856888
 30
0.0
 10
159.786899
 20
609.915370
 30
0.0
 11
164.413356
 21
605.289268
 31
0.0
 11
163.899305
 21
607.859324
 31
0.0
 11
162.357153
 21
609.401358
 31
0.0
 11
159.786899
 21
609.915370
 31
0.0
  0
SPLINE
  5
128
100
AcDbEntity
  8
Layer_1
 62
1
100
AcDbSpline
 70
0
 71
3
 72
10
 73
6
 74
4
 40
0.000000
 40
0.000000
 40
0.000000
 40
0.000000
 40
2.621031
 40
4.801829
 40
7.422786
 40
7.422786
 40
7.422786
 40
7.422786
 10
483.698381
 20
609.915370
 30
0.0
 10
484.594670
 20
609.856885
 30
0.0
 10
486.236708
 20
609.749739
 30
0.0
 10
488.158975
 20
607.827554
 30
0.0
 10
488.266133
 20
606.185536
 30
0.0
 10
488.324624
 20
605.289268
 30
0.0
 11
483.698381
 21
609.915370
 31
0.0
 11
486.268516
 21
609.401358
 31
0.0
 11
487.810597
 21
607.859324
 31
0.0
 11
488.324624
 21
605.289268
 31
0.0
  0
LWPOLYLINE
  5
129
100
AcDbEntity
  8
Layer_1
 62
1
100
AcDbPolyline
 90
2
 70
0
 10
256.937377
 20
605.289268
 30
0.0
 10
256.937377
 20
582.620671
 30
0.0
  0
LWPOLYLINE
  5
12a
100
AcDbEntity
  8
Layer_1
 62
1
100
AcDbPolyline
 90
2
 70
0
 10
479.072392
 20
582.620671
 30
0.0
 10
479.072392
 20
605.289268
 30
0.0
  0
LWPOLYLINE
  5
12b
100
AcDbEntity
  8
Layer_1
 62
1
100
AcDbPolyline
 90
2
 70
0
 10
441.831504
 20
582.620671
 30
0.0
 10
479.072392
 20
582.620671
 30
0.0
  0
SPLINE
  5
12c
100
AcDbEntity
  8
Layer_1
 62
1
100
AcDbSpline
 70
0
 71
3
 72
10
 73
6
 74
4
 40
0.000000
 40
0.000000
 40
0.000000
 40
0.000000
 40
2.620951
 40
4.801690
 40
7.422582
 40
7.422582
 40
7.422582
 40
7.422582
 10
479.072392
 20
605.289268
 30
0.0
 10
479.130875
 20
606.185531
 30
0.0
 10
479.238019
 20
607.827521
 30
0.0
 10
481.160160
 20
609.749727
 30
0.0
 10
482.802135
 20
609.856881
 30
0.0
 10
483.698381
 20
609.915370
 30
0.0
 11
479.072392
 21
605.289268
 31
0.0
 11
479.586390
 21
607.859324
 31
0.0
 11
481.128387
 21
609.401358
 31
0.0
 11
483.698381
 21
609.915370
 31
0.0
  0
SPLINE
  5
12d
100
AcDbEntity
  8
Layer_1
 62
1
100
AcDbSpline
 70
0
 71
3
 72
10
 73
6
 74
4
 40
0.000000
 40
0.000000
 40
0.000000
 40
0.000000
 40
2.620981
 40
4.801727
 40
7.422605
 40
7.422605
 40
7.422605
 40
7.422605
 10
446.457663
 20
628.651398
 30
0.0
 10
445.561390
 20
628.592916
 30
0.0
 10
443.919389
 20
628.485775
 30
0.0
 10
441.997153
 20
626.563653
 30
0.0
 10
441.889995
 20
624.921678
 30
0.0
 10
441.831504
 20
624.025437
 30
0.0
 11
446.457663
 21
628.651398
 31
0.0
 11
443.887575
 21
628.137402
 31
0.0
 11
442.345522
 21
626.595415
 31
0.0
 11
441.831504
 21
624.025437
 31
0.0
  0
SPLINE
  5
12e
100
AcDbEntity
  8
Layer_1
 62
1
100
AcDbSpline
 70
0
 71
3
 72
10
 73
6
 74
4
 40
0.000000
 40
0.000000
 40
0.000000
 40
0.000000
 40
2.620999
 40
4.801771
 40
7.422696
 40
7.422696
 40
7.422696
 40
7.422696
 10
451.083708
 20
633.277584
 30
0.0
 10
451.025224
 20
632.381305
 30
0.0
 10
450.918080
 20
630.739288
 30
0.0
 10
448.995918
 20
628.817044
 30
0.0
 10
447.353920
 20
628.709887
 30
0.0
 10
446.457663
 20
628.651398
 30
0.0
 11
451.083708
 21
633.277584
 31
0.0
 11
450.569703
 21
630.707481
 31
0.0
 11
449.027688
 21
629.165418
 31
0.0
 11
446.457663
 21
628.651398
 31
0.0
  0
LWPOLYLINE
  5
12f
100
AcDbEntity
  8
Layer_1
 62
1
100
AcDbPolyline
 90
2
 70
0
 10
441.831504
 20
624.025437
 30
0.0
 10
441.831504
 20
582.620671
 30
0.0
  0
SPLINE
  5
130
100
AcDbEntity
  8
Layer_1
 62
1
100
AcDbSpline
 70
0
 71
3
 72
10
 73
6
 74
4
 40
0.000000
 40
0.000000
 40
0.000000
 40
0.000000
 40
2.620928
 40
4.801733
 40
7.422809
 40
7.422809
 40
7.422809
 40
7.422809
 10
446.457663
 20
637.903912
 30
0.0
 10
447.353922
 20
637.845418
 30
0.0
 10
448.995936
 20
637.738254
 30
0.0
 10
450.918086
 20
635.815940
 30
0.0
 10
451.025226
 20
634.173888
 30
0.0
 10
451.083708
 20
633.277584
 30
0.0
 11
446.457663
 21
637.903912
 31
0.0
 11
449.027688
 21
637.389876
 31
0.0
 11
450.569703
 21
635.847766
 31
0.0
 11
451.083708
 21
633.277584
 31
0.0
  0
SPLINE
  5
131
100
AcDbEntity
  8
Layer_1
 62
1
100
AcDbSpline
 70
0
 71
3
 72
10
 73
6
 74
4
 40
0.000000
 40
0.000000
 40
0.000000
 40
0.000000
 40
2.621079
 40
4.801917
 40
7.422922
 40
7.422922
 40
7.422922
 40
7.422922
 10
414.536749
 20
633.277584
 30
0.0
 10
414.595235
 20
634.173890
 30
0.0
 10
414.702382
 20
635.815958
 30
0.0
 10
416.624603
 20
637.738260
 30
0.0
 10
418.266651
 20
637.845420
 30
0.0
 10
419.162936
 20
637.903912
 30
0.0
 11
414.536749
 21
633.277584
 31
0.0
 11
415.050770
 21
635.847766
 31
0.0
 11
416.592832
 21
637.389876
 31
0.0
 11
419.162936
 21
637.903912
 31
0.0
  0
SPLINE
  5
132
100
AcDbEntity
  8
Layer_1
 62
1
100
AcDbSpline
 70
0
 71
3
 72
10
 73
6
 74
4
 40
0.000000
 40
0.000000
 40
0.000000
 40
0.000000
 40
2.621002
 40
4.801807
 40
7.422809
 40
7.422809
 40
7.422809
 40
7.422809
 10
419.162936
 20
628.651398
 30
0.0
 10
418.266654
 20
628.709885
 30
0.0
 10
416.624621
 20
628.817038
 30
0.0
 10
414.702389
 20
630.739270
 30
0.0
 10
414.595237
 20
632.381303
 30
0.0
 10
414.536749
 20
633.277584
 30
0.0
 11
419.162936
 21
628.651398
 31
0.0
 11
416.592832
 21
629.165418
 31
0.0
 11
415.050770
 21
630.707481
 31
0.0
 11
414.536749
 21
633.277584
 31
0.0
  0
LWPOLYLINE
  5
133
100
AcDbEntity
  8
Layer_1
 62
1
100
AcDbPolyline
 90
2
 70
0
 10
419.162936
 20
637.903912
 30
0.0
 10
446.457663
 20
637.903912
 30
0.0
  0
LWPOLYLINE
  5
134
100
AcDbEntity
  8
Layer_1
 62
1
100
AcDbPolyline
 90
2
 70
0
 10
423.789292
 20
582.620671
 30
0.0
 10
423.789292
 20
624.025437
 30
0.0
  0
LWPOLYLINE
  5
135
100
AcDbEntity
  8
Layer_1
 62
1
100
AcDbPolyline
 90
2
 70
0
 10
386.548263
 20
582.620671
 30
0.0
 10
423.789292
 20
582.620671
 30
0.0
  0
SPLINE
  5
136
100
AcDbEntity
  8
Layer_1
 62
1
100
AcDbSpline
 70
0
 71
3
 72
10
 73
6
 74
4
 40
0.000000
 40
0.000000
 40
0.000000
 40
0.000000
 40
2.620882
 40
4.801674
 40
7.422764
 40
7.422764
 40
7.422764
 40
7.422764
 10
423.789292
 20
624.025437
 30
0.0
 10
423.730796
 20
624.921682
 30
0.0
 10
423.623627
 20
626.563678
 30
0.0
 10
421.701292
 20
628.485784
 30
0.0
 10
420.059242
 20
628.592919
 30
0.0
 10
419.162936
 20
628.651398
 30
0.0
 11
423.789292
 21
624.025437
 31
0.0
 11
423.275252
 21
626.595415
 31
0.0
 11
421.733133
 21
628.137402
 31
0.0
 11
419.162936
 21
628.651398
 31
0.0
  0
SPLINE
  5
137
100
AcDbEntity
  8
Layer_1
 62
1
100
AcDbSpline
 70
0
 71
3
 72
10
 73
6
 74
4
 40
0.000000
 40
0.000000
 40
0.000000
 40
0.000000
 40
2.621077
 40
4.801895
 40
7.422854
 40
7.422854
 40
7.422854
 40
7.422854
 10
381.921935
 20
609.915370
 30
0.0
 10
382.818240
 20
609.856886
 30
0.0
 10
384.460298
 20
609.749743
 30
0.0
 10
386.382607
 20
607.827565
 30
0.0
 10
386.489770
 20
606.185537
 30
0.0
 10
386.548263
 20
605.289268
 30
0.0
 11
381.921935
 21
609.915370
 31
0.0
 11
384.492117
 21
609.401358
 31
0.0
 11
386.034227
 21
607.859324
 31
0.0
 11
386.548263
 21
605.289268
 31
0.0
  0
SPLINE
  5
138
100
AcDbEntity
  8
Layer_1
 62
1
100
AcDbSpline
 70
0
 71
3
 72
10
 73
6
 74
4
 40
0.000000
 40
0.000000
 40
0.000000
 40
0.000000
 40
2.620954
 40
4.801726
 40
7.422696
 40
7.422696
 40
7.422696
 40
7.422696
 10
377.295805
 20
605.289268
 30
0.0
 10
377.354293
 20
606.185533
 30
0.0
 10
377.461445
 20
607.827539
 30
0.0
 10
379.383656
 20
609.749734
 30
0.0
 10
381.025665
 20
609.856884
 30
0.0
 10
381.921935
 20
609.915370
 30
0.0
 11
377.295805
 21
605.289268
 31
0.0
 11
377.809820
 21
607.859324
 31
0.0
 11
379.351863
 21
609.401358
 31
0.0
 11
381.921935
 21
609.915370
 31
0.0
  0
LWPOLYLINE
  5
139
100
AcDbEntity
  8
Layer_1
 62
1
100
AcDbPolyline
 90
2
 70
0
 10
386.548263
 20
605.289268
 30
0.0
 10
386.548263
 20
582.620671
 30
0.0
  0
LWPOLYLINE
  5
13a
100
AcDbEntity
  8
Layer_1
 62
1
100
AcDbPolyline
 90
2
 70
0
 10
340.286340
 20
600.662940
 30
0.0
 10
372.669590
 20
600.662940
 30
0.0
  0
LWPOLYLINE
  5
13b
100
AcDbEntity
  8
Layer_1
 62
1
100
AcDbPolyline
 90
2
 70
0
 10
340.286340
 20
675.145307
 30
0.0
 10
340.286340
 20
600.662940
 30
0.0
  0
LWPOLYLINE
  5
13c
100
AcDbEntity
  8
Layer_1
 62
1
100
AcDbPolyline
 90
2
 70
0
 10
525.334399
 20
675.145307
 30
0.0
 10
340.286340
 20
675.145307
 30
0.0
  0
LWPOLYLINE
  5
13d
100
AcDbEntity
  8
Layer_1
 62
1
100
AcDbPolyline
 90
2
 70
0
 10
525.334399
 20
600.662940
 30
0.0
 10
525.334399
 20
675.145307
 30
0.0
  0
SPLINE
  5
13e
100
AcDbEntity
  8
Layer_1
 62
1
100
AcDbSpline
 70
0
 71
3
 72
10
 73
6
 74
4
 40
0.000000
 40
0.000000
 40
0.000000
 40
0.000000
 40
2.621020
 40
4.801865
 40
7.422945
 40
7.422945
 40
7.422945
 40
7.422945
 10
372.669590
 20
600.662940
 30
0.0
 10
373.565879
 20
600.721431
 30
0.0
 10
375.207935
 20
600.828591
 30
0.0
 10
377.130169
 20
602.750891
 30
0.0
 10
377.237319
 20
604.392961
 30
0.0
 10
377.295805
 20
605.289268
 30
0.0
 11
372.669590
 21
600.662940
 31
0.0
 11
375.239710
 21
601.176976
 31
0.0
 11
376.781781
 21
602.719086
 31
0.0
 11
377.295805
 21
605.289268
 31
0.0
  0
SPLINE
  5
13f
100
AcDbEntity
  8
Layer_1
 62
1
100
AcDbSpline
 70
0
 71
3
 72
10
 73
6
 74
4
 40
0.000000
 40
0.000000
 40
0.000000
 40
0.000000
 40
2.621080
 40
4.801932
 40
7.422967
 40
7.422967
 40
7.422967
 40
7.422967
 10
488.324624
 20
605.289268
 30
0.0
 10
488.383111
 20
604.392961
 30
0.0
 10
488.490262
 20
602.750887
 30
0.0
 10
490.412511
 20
600.828589
 30
0.0
 10
492.054573
 20
600.721431
 30
0.0
 10
492.950867
 20
600.662940
 30
0.0
 11
488.324624
 21
605.289268
 31
0.0
 11
488.838651
 21
602.719086
 31
0.0
 11
490.380732
 21
601.176976
 31
0.0
 11
492.950867
 21
600.662940
 31
0.0
  0
SPLINE
  5
140
100
AcDbEntity
  8
Layer_1
 62
1
100
AcDbSpline
 70
0
 71
3
 72
10
 73
6
 74
4
 40
0.000000
 40
0.000000
 40
0.000000
 40
0.000000
 40
2.621060
 40
4.801917
 40
7.422985
 40
7.422985
 40
7.422985
 40
7.422985
 10
42.574738
 20
540.985157
 30
0.0
 10
42.633227
 20
540.088856
 30
0.0
 10
42.740383
 20
538.446785
 30
0.0
 10
44.662666
 20
536.524512
 30
0.0
 10
46.304739
 20
536.417358
 30
0.0
 10
47.201043
 20
536.358869
 30
0.0
 11
42.574738
 21
540.985157
 31
0.0
 11
43.088772
 21
538.414997
 31
0.0
 11
44.630873
 21
536.872901
 31
0.0
 11
47.201043
 21
536.358869
 31
0.0
  0
SPLINE
  5
141
100
AcDbEntity
  8
Layer_1
 62
1
100
AcDbSpline
 70
0
 71
3
 72
10
 73
6
 74
4
 40
0.000000
 40
0.000000
 40
0.000000
 40
0.000000
 40
2.621066
 40
4.801895
 40
7.422890
 40
7.422890
 40
7.422890
 40
7.422890
 10
47.201043
 20
545.611327
 30
0.0
 10
46.304741
 20
545.552842
 30
0.0
 10
44.662681
 20
545.445694
 30
0.0
 10
42.740389
 20
543.523480
 30
0.0
 10
42.633229
 20
541.881438
 30
0.0
 10
42.574738
 20
540.985157
 30
0.0
 11
47.201043
 21
545.611327
 31
0.0
 11
44.630873
 21
545.097308
 31
0.0
 11
43.088772
 21
543.555252
 31
0.0
 11
42.574738
 21
540.985157
 31
0.0
  0
LWPOLYLINE
  5
142
100
AcDbEntity
  8
Layer_1
 62
1
100
AcDbPolyline
 90
2
 70
0
 10
492.950867
 20
600.662940
 30
0.0
 10
525.334399
 20
600.662940
 30
0.0
  0
LWPOLYLINE
  5
143
100
AcDbEntity
  8
Layer_1
 62
1
100
AcDbPolyline
 90
2
 70
0
 10
51.827230
 20
573.599706
 30
0.0
 10
51.827230
 20
550.237463
 30
0.0
  0
SPLINE
  5
144
100
AcDbEntity
  8
Layer_1
 62
1
100
AcDbSpline
 70
0
 71
3
 72
10
 73
6
 74
4
 40
0.000000
 40
0.000000
 40
0.000000
 40
0.000000
 40
2.620974
 40
4.801767
 40
7.422768
 40
7.422768
 40
7.422768
 40
7.422768
 10
51.827230
 20
550.237463
 30
0.0
 10
51.768741
 20
549.341190
 30
0.0
 10
51.661587
 20
547.699170
 30
0.0
 10
49.739351
 20
545.776963
 30
0.0
 10
48.097324
 20
545.669813
 30
0.0
 10
47.201043
 20
545.611327
 30
0.0
 11
51.827230
 21
550.237463
 31
0.0
 11
51.313209
 21
547.667388
 31
0.0
 11
49.771147
 21
546.125342
 31
0.0
 11
47.201043
 21
545.611327
 31
0.0
  0
SPLINE
  5
145
100
AcDbEntity
  8
Layer_1
 62
1
100
AcDbSpline
 70
0
 71
3
 72
10
 73
6
 74
4
 40
0.000000
 40
0.000000
 40
0.000000
 40
0.000000
 40
2.621016
 40
4.801781
 40
7.422673
 40
7.422673
 40
7.422673
 40
7.422673
 10
23.838834
 20
568.973485
 30
0.0
 10
23.897316
 20
569.869769
 30
0.0
 10
24.004456
 20
571.511787
 30
0.0
 10
25.926584
 20
573.434053
 30
0.0
 10
27.568571
 20
573.541214
 30
0.0
 10
28.464818
 20
573.599706
 30
0.0
 11
23.838834
 21
568.973485
 31
0.0
 11
24.352832
 21
571.543608
 31
0.0
 11
25.894827
 21
573.085681
 31
0.0
 11
28.464818
 21
573.599706
 31
0.0
  0
SPLINE
  5
146
100
AcDbEntity
  8
Layer_1
 62
1
100
AcDbSpline
 70
0
 71
3
 72
10
 73
6
 74
4
 40
0.000000
 40
0.000000
 40
0.000000
 40
0.000000
 40
2.621060
 40
4.801917
 40
7.422985
 40
7.422985
 40
7.422985
 40
7.422985
 10
19.212546
 20
564.347180
 30
0.0
 10
20.108847
 20
564.405669
 30
0.0
 10
21.750918
 20
564.512825
 30
0.0
 10
23.673191
 20
566.435108
 30
0.0
 10
23.780345
 20
568.077181
 30
0.0
 10
23.838834
 20
568.973485
 30
0.0
 11
19.212546
 21
564.347180
 31
0.0
 11
21.782706
 21
564.861214
 31
0.0
 11
23.324802
 21
566.403316
 31
0.0
 11
23.838834
 21
568.973485
 31
0.0
  0
LWPOLYLINE
  5
147
100
AcDbEntity
  8
Layer_1
 62
1
100
AcDbPolyline
 90
2
 70
0
 10
28.464818
 20
573.599706
 30
0.0
 10
51.827230
 20
573.599706
 30
0.0
  0
SPLINE
  5
148
100
AcDbEntity
  8
Layer_1
 62
1
100
AcDbSpline
 70
0
 71
3
 72
10
 73
6
 74
4
 40
0.000000
 40
0.000000
 40
0.000000
 40
0.000000
 40
2.621065
 40
4.801878
 40
7.422836
 40
7.422836
 40
7.422836
 40
7.422836
 10
14.586444
 20
568.973485
 30
0.0
 10
14.644928
 20
568.077185
 30
0.0
 10
14.752071
 20
566.435132
 30
0.0
 10
16.674252
 20
564.512834
 30
0.0
 10
18.316277
 20
564.405672
 30
0.0
 10
19.212546
 20
564.347180
 30
0.0
 11
14.586444
 21
568.973485
 31
0.0
 11
15.100455
 21
566.403316
 31
0.0
 11
16.642489
 21
564.861214
 31
0.0
 11
19.212546
 21
564.347180
 31
0.0
  0
SPLINE
  5
149
100
AcDbEntity
  8
Layer_1
 62
1
100
AcDbSpline
 70
0
 71
3
 72
10
 73
6
 74
4
 40
0.000000
 40
0.000000
 40
0.000000
 40
0.000000
 40
2.620954
 40
4.801719
 40
7.422673
 40
7.422673
 40
7.422673
 40
7.422673
 10
19.212546
 20
600.894193
 30
0.0
 10
18.316281
 20
600.835706
 30
0.0
 10
16.674278
 20
600.728556
 30
0.0
 10
14.752081
 20
598.806359
 30
0.0
 10
14.644931
 20
597.164356
 30
0.0
 10
14.586444
 20
596.268091
 30
0.0
 11
19.212546
 21
600.894193
 31
0.0
 11
16.642489
 21
600.380182
 31
0.0
 11
15.100455
 21
598.838148
 31
0.0
 11
14.586444
 21
596.268091
 31
0.0
  0
SPLINE
  5
14a
100
AcDbEntity
  8
Layer_1
 62
1
100
AcDbSpline
 70
0
 71
3
 72
10
 73
6
 74
4
 40
0.000000
 40
0.000000
 40
0.000000
 40
0.000000
 40
2.620958
 40
4.801767
 40
7.422822
 40
7.422822
 40
7.422822
 40
7.422822
 10
23.838834
 20
596.268091
 30
0.0
 10
23.780342
 20
597.164360
 30
0.0
 10
23.673182
 20
598.806383
 30
0.0
 10
21.750892
 20
600.728564
 30
0.0
 10
20.108844
 20
600.835709
 30
0.0
 10
19.212546
 20
600.894193
 30
0.0
 11
23.838834
 21
596.268091
 31
0.0
 11
23.324802
 21
598.838148
 31
0.0
 11
21.782706
 21
600.380182
 31
0.0
 11
19.212546
 21
600.894193
 31
0.0
  0
LWPOLYLINE
  5
14b
100
AcDbEntity
  8
Layer_1
 62
1
100
AcDbPolyline
 90
2
 70
0
 10
14.586444
 20
596.268091
 30
0.0
 10
14.586444
 20
568.973485
 30
0.0
  0
LWPOLYLINE
  5
14c
100
AcDbEntity
  8
Layer_1
 62
1
100
AcDbPolyline
 90
2
 70
0
 10
51.827230
 20
591.641961
 30
0.0
 10
28.464818
 20
591.641961
 30
0.0
  0
SPLINE
  5
14d
100
AcDbEntity
  8
Layer_1
 62
1
100
AcDbSpline
 70
0
 71
3
 72
10
 73
6
 74
4
 40
0.000000
 40
0.000000
 40
0.000000
 40
0.000000
 40
2.620890
 40
4.801634
 40
7.422601
 40
7.422601
 40
7.422601
 40
7.422601
 10
28.464818
 20
591.641961
 30
0.0
 10
27.568573
 20
591.700450
 30
0.0
 10
25.926596
 20
591.807606
 30
0.0
 10
24.004460
 20
593.729826
 30
0.0
 10
23.897317
 20
595.371823
 30
0.0
 10
23.838834
 20
596.268091
 30
0.0
 11
28.464818
 21
591.641961
 31
0.0
 11
25.894827
 21
592.155975
 31
0.0
 11
24.352832
 21
593.698019
 31
0.0
 11
23.838834
 21
596.268091
 31
0.0
  0
SPLINE
  5
14e
100
AcDbEntity
  8
Layer_1
 62
1
100
AcDbSpline
 70
0
 71
3
 72
10
 73
6
 74
4
 40
0.000000
 40
0.000000
 40
0.000000
 40
0.000000
 40
2.621004
 40
4.801836
 40
7.422899
 40
7.422899
 40
7.422899
 40
7.422899
 10
47.201043
 20
619.630446
 30
0.0
 10
48.097327
 20
619.571956
 30
0.0
 10
49.739372
 20
619.464797
 30
0.0
 10
51.661595
 20
617.542509
 30
0.0
 10
51.768744
 20
615.900448
 30
0.0
 10
51.827230
 20
615.004147
 30
0.0
 11
47.201043
 21
619.630446
 31
0.0
 11
49.771147
 21
619.116413
 31
0.0
 11
51.313209
 21
617.574313
 31
0.0
 11
51.827230
 21
615.004147
 31
0.0
  0
SPLINE
  5
14f
100
AcDbEntity
  8
Layer_1
 62
1
100
AcDbSpline
 70
0
 71
3
 72
10
 73
6
 74
4
 40
0.000000
 40
0.000000
 40
0.000000
 40
0.000000
 40
2.620989
 40
4.801816
 40
7.422881
 40
7.422881
 40
7.422881
 40
7.422881
 10
42.574738
 20
624.256605
 30
0.0
 10
42.633229
 20
623.360326
 30
0.0
 10
42.740389
 20
621.718287
 30
0.0
 10
44.662682
 20
619.796079
 30
0.0
 10
46.304741
 20
619.688932
 30
0.0
 10
47.201043
 20
619.630446
 30
0.0
 11
42.574738
 21
624.256605
 31
0.0
 11
43.088772
 21
621.686517
 31
0.0
 11
44.630873
 21
620.144464
 31
0.0
 11
47.201043
 21
619.630446
 31
0.0
  0
LWPOLYLINE
  5
150
100
AcDbEntity
  8
Layer_1
 62
1
100
AcDbPolyline
 90
2
 70
0
 10
51.827230
 20
615.004147
 30
0.0
 10
51.827230
 20
591.641961
 30
0.0
  0
LWPOLYLINE
  5
151
100
AcDbEntity
  8
Layer_1
 62
1
100
AcDbPolyline
 90
2
 70
0
 10
69.869425
 20
628.882904
 30
0.0
 10
47.201043
 20
628.882904
 30
0.0
  0
LWPOLYLINE
  5
152
100
AcDbEntity
  8
Layer_1
 62
1
100
AcDbPolyline
 90
2
 70
0
 10
69.869425
 20
675.145307
 30
0.0
 10
69.869425
 20
628.882904
 30
0.0
  0
LWPOLYLINE
  5
153
100
AcDbEntity
  8
Layer_1
 62
1
100
AcDbPolyline
 90
2
 70
0
 10
-303.233836
 20
675.145307
 30
0.0
 10
69.869425
 20
675.145307
 30
0.0
  0
LWPOLYLINE
  5
154
100
AcDbEntity
  8
Layer_1
 62
1
100
AcDbPolyline
 90
2
 70
0
 10
-303.233836
 20
490.096833
 30
0.0
 10
-303.233836
 20
675.145307
 30
0.0
  0
LWPOLYLINE
  5
155
100
AcDbEntity
  8
Layer_1
 62
1
100
AcDbPolyline
 90
2
 70
0
 10
69.869425
 20
490.096833
 30
0.0
 10
-303.233836
 20
490.096833
 30
0.0
  0
LWPOLYLINE
  5
156
100
AcDbEntity
  8
Layer_1
 62
1
100
AcDbPolyline
 90
2
 70
0
 10
69.869425
 20
536.358869
 30
0.0
 10
69.869425
 20
490.096833
 30
0.0
  0
LWPOLYLINE
  5
157
100
AcDbEntity
  8
Layer_1
 62
1
100
AcDbPolyline
 90
2
 70
0
 10
47.201043
 20
536.358869
 30
0.0
 10
69.869425
 20
536.358869
 30
0.0
  0
SPLINE
  5
158
100
AcDbEntity
  8
Layer_1
 62
1
100
AcDbSpline
 70
0
 71
3
 72
10
 73
6
 74
4
 40
0.000000
 40
0.000000
 40
0.000000
 40
0.000000
 40
2.621069
 40
4.801929
 40
7.422995
 40
7.422995
 40
7.422995
 40
7.422995
 10
47.201043
 20
628.882904
 30
0.0
 10
46.304739
 20
628.824415
 30
0.0
 10
44.662664
 20
628.717260
 30
0.0
 10
42.740382
 20
626.794982
 30
0.0
 10
42.633227
 20
625.152908
 30
0.0
 10
42.574738
 20
624.256605
 30
0.0
 11
47.201043
 21
628.882904
 31
0.0
 11
44.630873
 21
628.368871
 31
0.0
 11
43.088772
 21
626.826771
 31
0.0
 11
42.574738
 21
624.256605
 31
0.0
  0
LWPOLYLINE
  5
159
100
AcDbEntity
  8
Layer_1
 62
1
100
AcDbPolyline
 90
3
 70
0
 10
118.151473
 20
516.286418
 30
0.0
 10
118.151473
 20
441.804406
 30
0.0
 10
473.212499
 20
441.804406
 30
0.0
  0
SPLINE
  5
15a
100
AcDbEntity
  8
Layer_1
 62
1
100
AcDbSpline
 70
0
 71
3
 72
22
 73
18
 74
16
 40
0.000000
 40
0.000000
 40
0.000000
 40
0.000000
 40
6.056922
 40
17.305490
 40
23.362412
 40
25.781227
 40
28.128303
 40
30.547118
 40
32.213430
 40
33.854545
 40
35.520858
 40
37.187170
 40
38.828285
 40
40.494597
 40
42.160909
 40
43.802024
 40
45.468336
 40
45.468336
 40
45.468336
 40
45.468336
 10
473.212499
 20
441.804406
 30
0.0
 10
473.220622
 20
443.823041
 30
0.0
 10
473.243831
 20
449.590572
 30
0.0
 10
473.006601
 20
457.387919
 30
0.0
 10
473.503976
 20
463.941981
 30
0.0
 10
472.818683
 20
467.578115
 30
0.0
 10
470.998525
 20
469.403720
 30
0.0
 10
468.837759
 20
469.790746
 30
0.0
 10
466.919621
 20
469.963088
 30
0.0
 10
465.466505
 20
470.873424
 30
0.0
 10
464.410380
 20
472.187306
 30
0.0
 10
463.890754
 20
473.803271
 30
0.0
 10
463.970114
 20
475.493098
 30
0.0
 10
464.638818
 20
477.052802
 30
0.0
 10
465.813649
 20
478.263763
 30
0.0
 10
467.344819
 20
479.027139
 30
0.0
 10
468.459324
 20
479.039470
 30
0.0
 10
469.020821
 20
479.045683
 30
0.0
 11
473.212499
 21
441.804406
 31
0.0
 11
473.212499
 21
447.861327
 31
0.0
 11
473.212499
 21
459.109896
 31
0.0
 11
473.212499
 21
465.166818
 31
0.0
 11
472.580871
 21
467.501708
 31
0.0
 11
470.921234
 21
469.161338
 31
0.0
 11
468.586340
 21
469.792954
 31
0.0
 11
466.947125
 21
470.092233
 31
0.0
 11
465.538863
 21
470.934882
 31
0.0
 11
464.500250
 21
472.237909
 31
0.0
 11
463.989223
 21
473.823925
 31
0.0
 11
464.066200
 21
475.463233
 31
0.0
 11
464.723600
 21
476.994384
 31
0.0
 11
465.879746
 21
478.194351
 31
0.0
 11
467.360774
 21
478.901327
 31
0.0
 11
469.020821
 21
479.045683
 31
0.0
  0
SPLINE
  5
15b
100
AcDbEntity
  8
Layer_1
 62
1
100
AcDbSpline
 70
0
 71
3
 72
13
 73
9
 74
7
 40
0.000000
 40
0.000000
 40
0.000000
 40
0.000000
 40
2.416054
 40
4.760592
 40
7.176646
 40
9.592700
 40
11.937238
 40
14.353292
 40
14.353292
 40
14.353292
 40
14.353292
 10
435.971583
 20
511.660169
 30
0.0
 10
435.843142
 20
510.845846
 30
0.0
 10
435.590063
 20
509.241305
 30
0.0
 10
433.750390
 20
507.476242
 30
0.0
 10
431.345326
 20
506.822302
 30
0.0
 10
428.940261
 20
507.476242
 30
0.0
 10
427.100589
 20
509.241305
 30
0.0
 10
426.847509
 20
510.845846
 30
0.0
 10
426.719069
 20
511.660169
 30
0.0
 11
435.971583
 21
511.660169
 31
0.0
 11
435.337126
 21
509.328907
 31
0.0
 11
433.677757
 21
507.672601
 31
0.0
 11
431.345326
 21
507.042454
 31
0.0
 11
429.012895
 21
507.672601
 31
0.0
 11
427.353525
 21
509.328907
 31
0.0
 11
426.719069
 21
511.660169
 31
0.0
  0
LWPOLYLINE
  5
15c
100
AcDbEntity
  8
Layer_1
 62
1
100
AcDbPolyline
 90
5
 70
0
 10
469.020821
 20
479.045683
 30
0.0
 10
491.254796
 20
479.045400
 30
0.0
 10
491.254796
 20
534.328500
 30
0.0
 10
435.971583
 20
534.328500
 30
0.0
 10
435.971583
 20
511.660169
 30
0.0
  0
SPLINE
  5
15d
100
AcDbEntity
  8
Layer_1
 62
1
100
AcDbSpline
 70
0
 71
3
 72
13
 73
9
 74
7
 40
0.000000
 40
0.000000
 40
0.000000
 40
0.000000
 40
1.211050
 40
2.412078
 40
3.623128
 40
4.834178
 40
6.035206
 40
7.246256
 40
7.246256
 40
7.246256
 40
7.246256
 10
426.719069
 20
511.660169
 30
0.0
 10
426.688238
 20
512.065032
 30
0.0
 10
426.626832
 20
512.871409
 30
0.0
 10
426.141435
 20
513.999501
 30
0.0
 10
425.402934
 20
514.970299
 30
0.0
 10
424.432148
 20
515.708817
 30
0.0
 10
423.304064
 20
516.194234
 30
0.0
 10
422.497689
 20
516.255654
 30
0.0
 10
422.092826
 20
516.286491
 30
0.0
 11
426.719069
 21
511.660169
 31
0.0
 11
426.560596
 21
512.860806
 31
0.0
 11
426.101001
 21
513.970418
 31
0.0
 11
425.364113
 21
514.931479
 31
0.0
 11
424.403065
 21
515.668384
 31
0.0
 11
423.293460
 21
516.127998
 31
0.0
 11
422.092826
 21
516.286491
 31
0.0
  0
SPLINE
  5
15e
100
AcDbEntity
  8
Layer_1
 62
1
100
AcDbSpline
 70
0
 71
3
 72
13
 73
9
 74
7
 40
0.000000
 40
0.000000
 40
0.000000
 40
0.000000
 40
1.211049
 40
2.412076
 40
3.623125
 40
4.834175
 40
6.035201
 40
7.246251
 40
7.246251
 40
7.246251
 40
7.246251
 10
270.815988
 20
516.286491
 30
0.0
 10
270.411125
 20
516.255653
 30
0.0
 10
269.604750
 20
516.194233
 30
0.0
 10
268.476668
 20
515.708815
 30
0.0
 10
267.505884
 20
514.970297
 30
0.0
 10
266.767383
 20
513.999500
 30
0.0
 10
266.281987
 20
512.871408
 30
0.0
 10
266.220581
 20
512.065032
 30
0.0
 10
266.189751
 20
511.660169
 30
0.0
 11
270.815988
 21
516.286491
 31
0.0
 11
269.615355
 21
516.127997
 31
0.0
 11
268.505751
 21
515.668382
 31
0.0
 11
267.544705
 21
514.931477
 31
0.0
 11
266.807817
 21
513.970417
 31
0.0
 11
266.348223
 21
512.860805
 31
0.0
 11
266.189751
 21
511.660169
 31
0.0
  0
LWPOLYLINE
  5
15f
100
AcDbEntity
  8
Layer_1
 62
1
100
AcDbPolyline
 90
2
 70
0
 10
422.092826
 20
516.286491
 30
0.0
 10
270.815988
 20
516.286491
 30
0.0
  0
SPLINE
  5
160
100
AcDbEntity
  8
Layer_1
 62
1
100
AcDbSpline
 70
0
 71
3
 72
16
 73
12
 74
10
 40
0.000000
 40
0.000000
 40
0.000000
 40
0.000000
 40
1.617248
 40
3.211274
 40
4.828522
 40
6.445770
 40
8.039795
 40
9.657043
 40
11.274291
 40
12.868317
 40
14.485565
 40
14.485565
 40
14.485565
 40
14.485565
 10
266.189751
 20
511.660169
 30
0.0
 10
266.135792
 20
511.118174
 30
0.0
 10
266.028648
 20
510.041967
 30
0.0
 10
265.178142
 20
508.618443
 30
0.0
 10
263.930449
 20
507.559745
 30
0.0
 10
262.383883
 20
506.998107
 30
0.0
 10
260.743245
 20
506.998107
 30
0.0
 10
259.196679
 20
507.559745
 30
0.0
 10
257.948986
 20
508.618443
 30
0.0
 10
257.098480
 20
510.041967
 30
0.0
 10
256.991336
 20
511.118174
 30
0.0
 10
256.937377
 20
511.660169
 30
0.0
 11
266.189751
 21
511.660169
 31
0.0
 11
265.911585
 21
510.067022
 31
0.0
 11
265.117146
 21
508.685073
 31
0.0
 11
263.880397
 21
507.642987
 31
0.0
 11
262.360577
 21
507.090142
 31
0.0
 11
260.766551
 21
507.090142
 31
0.0
 11
259.246731
 21
507.642987
 31
0.0
 11
258.009982
 21
508.685073
 31
0.0
 11
257.215543
 21
510.067022
 31
0.0
 11
256.937377
 21
511.660169
 31
0.0
  0
SPLINE
  5
161
100
AcDbEntity
  8
Layer_1
 62
1
100
AcDbSpline
 70
0
 71
3
 72
16
 73
12
 74
10
 40
0.000000
 40
0.000000
 40
0.000000
 40
0.000000
 40
10.734488
 40
30.669967
 40
41.404455
 40
42.615485
 40
43.816492
 40
45.027522
 40
46.238551
 40
47.439559
 40
48.650589
 40
48.650589
 40
48.650589
 40
48.650589
 10
219.696558
 20
534.328500
 30
0.0
 10
219.687864
 20
530.750670
 30
0.0
 10
219.663026
 20
520.528298
 30
0.0
 10
219.916909
 20
506.717103
 30
0.0
 10
219.431454
 20
496.108670
 30
0.0
 10
219.790207
 20
491.712775
 30
0.0
 10
220.273858
 20
490.584779
 30
0.0
 10
221.012835
 20
489.613990
 30
0.0
 10
221.983484
 20
488.875499
 30
0.0
 10
223.111584
 20
488.390096
 30
0.0
 10
223.917941
 20
488.328678
 30
0.0
 10
224.322795
 20
488.297841
 30
0.0
 11
219.696558
 21
534.328500
 31
0.0
 11
219.696558
 21
523.594012
 31
0.0
 11
219.696558
 21
503.658533
 31
0.0
 11
219.696558
 21
492.924045
 31
0.0
 11
219.855056
 21
491.723432
 31
0.0
 11
220.314664
 21
490.613847
 31
0.0
 11
221.051554
 21
489.652813
 31
0.0
 11
222.012593
 21
488.915930
 31
0.0
 11
223.122181
 21
488.456331
 31
0.0
 11
224.322795
 21
488.297841
 31
0.0
  0
SPLINE
  5
162
100
AcDbEntity
  8
Layer_1
 62
1
100
AcDbSpline
 70
0
 71
3
 72
25
 73
21
 74
19
 40
0.000000
 40
0.000000
 40
0.000000
 40
0.000000
 40
2.416190
 40
4.760852
 40
7.177043
 40
9.593233
 40
11.937895
 40
14.354086
 40
21.430504
 40
34.572423
 40
41.648841
 40
43.265022
 40
44.858024
 40
46.474204
 40
48.090384
 40
49.683386
 40
51.299567
 40
52.915747
 40
54.508749
 40
56.124929
 40
56.124929
 40
56.124929
 40
56.124929
 10
224.322795
 20
488.297841
 30
0.0
 10
225.137180
 20
488.169490
 30
0.0
 10
226.741840
 20
487.916588
 30
0.0
 10
228.507083
 20
486.076554
 30
0.0
 10
229.161197
 20
483.672658
 30
0.0
 10
228.506826
 20
481.262600
 30
0.0
 10
226.742844
 20
479.440688
 30
0.0
 10
222.744967
 20
478.699750
 30
0.0
 10
215.243986
 20
479.268541
 30
0.0
 10
206.113894
 20
479.175095
 30
0.0
 10
198.860026
 20
478.821914
 30
0.0
 10
195.410830
 20
479.212264
 30
0.0
 10
193.989194
 20
480.057717
 30
0.0
 10
192.931711
 20
481.306533
 30
0.0
 10
192.370837
 20
482.851777
 30
0.0
 10
192.370831
 20
484.491405
 30
0.0
 10
192.931729
 20
486.037016
 30
0.0
 10
193.989127
 20
487.284366
 30
0.0
 10
195.411077
 20
488.135264
 30
0.0
 10
196.486463
 20
488.243389
 30
0.0
 10
197.028040
 20
488.297841
 30
0.0
 11
224.322795
 21
488.297841
 31
0.0
 11
226.654242
 21
487.663546
 31
0.0
 11
228.310720
 21
486.004172
 31
0.0
 11
228.940943
 21
483.671621
 31
0.0
 11
228.310720
 21
481.339070
 31
0.0
 11
226.654242
 21
479.679696
 31
0.0
 11
224.322795
 21
479.045400
 31
0.0
 11
217.246377
 21
479.045400
 31
0.0
 11
204.104458
 21
479.045400
 31
0.0
 11
197.028040
 21
479.045400
 31
0.0
 11
195.436205
 21
479.324862
 31
0.0
 11
194.055698
 21
480.119757
 31
0.0
 11
193.014877
 21
481.356175
 31
0.0
 11
192.462749
 21
482.875120
 31
0.0
 11
192.462749
 21
484.468122
 31
0.0
 11
193.014877
 21
485.987067
 31
0.0
 11
194.055698
 21
487.223485
 31
0.0
 11
195.436205
 21
488.018379
 31
0.0
 11
197.028040
 21
488.297841
 31
0.0
  0
LWPOLYLINE
  5
163
100
AcDbEntity
  8
Layer_1
 62
1
100
AcDbPolyline
 90
3
 70
0
 10
256.937377
 20
511.660169
 30
0.0
 10
256.937377
 20
534.328500
 30
0.0
 10
219.696558
 20
534.328500
 30
0.0
  0
SPLINE
  5
164
100
AcDbEntity
  8
Layer_1
 62
1
100
AcDbSpline
 70
0
 71
3
 72
13
 73
9
 74
7
 40
0.000000
 40
0.000000
 40
0.000000
 40
0.000000
 40
1.211038
 40
2.412054
 40
3.623092
 40
4.834130
 40
6.035146
 40
7.246184
 40
7.246184
 40
7.246184
 40
7.246184
 10
197.028040
 20
488.297841
 30
0.0
 10
197.432899
 20
488.328674
 30
0.0
 10
198.239267
 20
488.390085
 30
0.0
 10
199.367346
 20
488.875481
 30
0.0
 10
200.338134
 20
489.613975
 30
0.0
 10
201.076646
 20
490.584749
 30
0.0
 10
201.562063
 20
491.712819
 30
0.0
 10
201.623488
 20
492.519186
 30
0.0
 10
201.654328
 20
492.924045
 30
0.0
 11
197.028040
 21
488.297841
 31
0.0
 11
198.228664
 21
488.456320
 31
0.0
 11
199.338264
 21
488.915913
 31
0.0
 11
200.299314
 21
489.652796
 31
0.0
 11
201.036214
 21
490.613832
 31
0.0
 11
201.495828
 21
491.723424
 31
0.0
 11
201.654328
 21
492.924045
 31
0.0
  0
SPLINE
  5
165
100
AcDbEntity
  8
Layer_1
 62
1
100
AcDbSpline
 70
0
 71
3
 72
16
 73
12
 74
10
 40
0.000000
 40
0.000000
 40
0.000000
 40
0.000000
 40
5.876975
 40
16.791357
 40
22.668332
 40
25.083385
 40
27.427001
 40
29.842054
 40
32.257107
 40
34.600723
 40
37.015776
 40
37.015776
 40
37.015776
 40
37.015776
 10
164.413356
 20
534.328500
 30
0.0
 10
164.421286
 20
532.370055
 30
0.0
 10
164.443942
 20
526.774497
 30
0.0
 10
164.212363
 20
519.202433
 30
0.0
 10
164.699619
 20
512.833864
 30
0.0
 10
164.014243
 20
509.241433
 30
0.0
 10
162.195670
 20
507.479203
 30
0.0
 10
159.785913
 20
506.825414
 30
0.0
 10
157.383371
 20
507.478917
 30
0.0
 10
155.543578
 20
509.242554
 30
0.0
 10
155.289728
 20
510.846272
 30
0.0
 10
155.160898
 20
511.660169
 30
0.0
 11
164.413356
 21
534.328500
 31
0.0
 11
164.413356
 21
528.451526
 31
0.0
 11
164.413356
 21
517.537144
 31
0.0
 11
164.413356
 21
511.660169
 31
0.0
 11
163.777913
 21
509.330213
 31
0.0
 11
162.118661
 21
507.675094
 31
0.0
 11
159.787127
 21
507.045465
 31
0.0
 11
157.455594
 21
507.675094
 31
0.0
 11
155.796341
 21
509.330213
 31
0.0
 11
155.160898
 21
511.660169
 31
0.0
  0
LWPOLYLINE
  5
166
100
AcDbEntity
  8
Layer_1
 62
1
100
AcDbPolyline
 90
3
 70
0
 10
201.654328
 20
492.924045
 30
0.0
 10
201.654328
 20
534.328500
 30
0.0
 10
164.413356
 20
534.328500
 30
0.0
  0
SPLINE
  5
167
100
AcDbEntity
  8
Layer_1
 62
1
100
AcDbSpline
 70
0
 71
3
 72
13
 73
9
 74
7
 40
0.000000
 40
0.000000
 40
0.000000
 40
0.000000
 40
1.211058
 40
2.412093
 40
3.623151
 40
4.834208
 40
6.035243
 40
7.246301
 40
7.246301
 40
7.246301
 40
7.246301
 10
155.160898
 20
511.660169
 30
0.0
 10
155.130067
 20
512.065035
 30
0.0
 10
155.068661
 20
512.871417
 30
0.0
 10
154.583258
 20
513.999515
 30
0.0
 10
153.844748
 20
514.970316
 30
0.0
 10
152.873952
 20
515.708833
 30
0.0
 10
151.745857
 20
516.194245
 30
0.0
 10
150.939476
 20
516.255657
 30
0.0
 10
150.534610
 20
516.286491
 30
0.0
 11
155.160898
 21
511.660169
 31
0.0
 11
155.002424
 21
512.860813
 31
0.0
 11
154.542823
 21
513.970431
 31
0.0
 11
153.805926
 21
514.931495
 31
0.0
 11
152.844868
 21
515.668399
 31
0.0
 11
151.735253
 21
516.128008
 31
0.0
 11
150.534610
 21
516.286491
 31
0.0
  0
LWPOLYLINE
  5
168
100
AcDbEntity
  8
Layer_1
 62
1
100
AcDbPolyline
 90
2
 70
0
 10
150.534610
 20
516.286491
 30
0.0
 10
118.151473
 20
516.286491
 30
0.0
  0
ENDSEC
  0
SECTION
  2
OBJECTS
  0
DICTIONARY
  5
C
330
0
100
AcDbDictionary
  3
ACAD_GROUP
350
D
  3
ACAD_MLINESTYLE
350
17
  0
DICTIONARY
  5
D
330
C
100
AcDbDictionary
  0
DICTIONARY
  5
1A
330
C
100
AcDbDictionary
  0
DICTIONARY
  5
17
330
C
100
AcDbDictionary
  3
STANDARD
350
18
  0
DICTIONARY
  5
19
330
C
100
AcDbDictionary
  0
ENDSEC
  0
EOF
