<?xml version="1.0" encoding="UTF-8" standalone="no"?>
<!-- Created with Inkscape (http://www.inkscape.org/) -->

<svg
   xmlns:dc="http://purl.org/dc/elements/1.1/"
   xmlns:cc="http://creativecommons.org/ns#"
   xmlns:rdf="http://www.w3.org/1999/02/22-rdf-syntax-ns#"
   xmlns:svg="http://www.w3.org/2000/svg"
   xmlns="http://www.w3.org/2000/svg"
   xmlns:sodipodi="http://sodipodi.sourceforge.net/DTD/sodipodi-0.dtd"
   xmlns:inkscape="http://www.inkscape.org/namespaces/inkscape"
   width="300mm"
   height="600mm"
   viewBox="0 0 1062.9921 2125.9842"
   id="svg2"
   version="1.1"
   inkscape:version="0.91 r13725"
   sodipodi:docname="salontafel compleet.svg">
  <defs
     id="defs4" />
  <sodipodi:namedview
     id="base"
     pagecolor="#000000"
     bordercolor="#666666"
     borderopacity="1.0"
     inkscape:pageopacity="0"
     inkscape:pageshadow="2"
     inkscape:zoom="0.5"
     inkscape:cx="457.11101"
     inkscape:cy="1007.8152"
     inkscape:document-units="px"
     inkscape:current-layer="layer1"
     showgrid="true"
     inkscape:window-width="1280"
     inkscape:window-height="737"
     inkscape:window-x="0"
     inkscape:window-y="30"
     inkscape:window-maximized="1"
     showguides="true">
    <inkscape:grid
       type="xygrid"
       id="grid5085"
       units="mm"
       spacingx="3.5433072"
       spacingy="3.5433072"
       empspacing="10"
       color="#cf32ff"
       opacity="0.25490196"
       empcolor="#3f3fff"
       empopacity="0.54901961" />
  </sodipodi:namedview>
  <metadata
     id="metadata7">
    <rdf:RDF>
      <cc:Work
         rdf:about="">
        <dc:format>image/svg+xml</dc:format>
        <dc:type
           rdf:resource="http://purl.org/dc/dcmitype/StillImage" />
        <dc:title></dc:title>
      </cc:Work>
    </rdf:RDF>
  </metadata>
  <g
     inkscape:label="Layer 1"
     inkscape:groupmode="layer"
     id="layer1"
     transform="translate(0,1073.622)">
    <path
       inkscape:connector-curvature="0"
       d="m -256.46457,-84.249972 0,326.300422 a 72.963607,72.963607 0 0 0 66.90431,72.7116 l 391.55851,32.62982 a 72.963607,72.963607 0 0 0 78.62201,-65.0734 l 65.25993,-619.96946 a 72.963607,72.963607 0 0 0 -108.76281,-70.98818 l -456.81842,261.03908 a 72.963607,72.963607 0 0 0 -36.76353,63.350118"
       style="fill:none;stroke:#ff0000;stroke-width:0.9;stroke-miterlimit:4;stroke-dasharray:none;stroke-opacity:1"
       id="path3517" />
    <path
       inkscape:connector-curvature="0"
       d="m -129.41113,-45.184795 9.62011,-19.254816 a 3.648108,3.648108 0 0 0 -6.52592,-3.262966 3.6526246,3.6526246 0 0 1 -4.89518,1.634921 l -45.68934,-22.827318 a 3.6659268,3.6659268 0 0 1 -1.63995,-4.919853 3.6393423,3.6393423 0 1 0 -6.52011,-3.235262 l -9.61016,19.234976 a 3.6470047,3.6470047 0 1 0 6.52396,3.261972 3.6304722,3.6304722 0 0 1 4.88722,-1.614071 l 45.68933,22.827318 a 3.6483265,3.6483262 0 0 1 1.63414,4.892132 3.6481093,3.6481093 0 0 0 6.5259,3.262967"
       style="fill:none;stroke:#ff0000;stroke-width:0.9;stroke-miterlimit:4;stroke-dasharray:none;stroke-opacity:1"
       id="path3519" />
    <path
       inkscape:connector-curvature="0"
       d="m 209.6179,287.48127 9.62013,-19.25493 a 3.6481074,3.6481074 0 0 0 -6.52595,-3.26286 3.6526246,3.6526246 0 0 1 -4.89516,1.63485 l -45.6894,-22.82725 a 3.6659268,3.6659268 0 0 1 -1.63994,-4.91984 3.6393423,3.6393423 0 1 0 -6.52011,-3.23528 l -9.61018,19.2349 a 3.6470121,3.6470121 0 1 0 6.52396,3.262 3.6304722,3.6304722 0 0 1 4.88724,-1.6141 l 45.68937,22.8274 a 3.6483265,3.6483262 0 0 1 1.63416,4.89222 3.6481093,3.6481093 0 0 0 6.52588,3.26289"
       style="fill:none;stroke:#ff0000;stroke-width:0.9;stroke-miterlimit:4;stroke-dasharray:none;stroke-opacity:1"
       id="path3521" />
    <path
       inkscape:connector-curvature="0"
       d="m -196.30264,243.60982 19.25483,9.62017 a 3.6481477,3.6481477 0 0 0 3.26297,-6.52599 3.6526246,3.6526246 0 0 1 -1.63495,-4.89518 l 22.82732,-45.68939 a 3.6659268,3.6659268 0 0 1 4.91983,-1.63995 3.6393423,3.6393423 0 1 0 3.23525,-6.52011 l -19.2349,-9.61018 a 3.6470157,3.6470157 0 0 0 -3.26201,6.52397 3.6304722,3.6304722 0 0 1 1.61408,4.88725 l -22.8273,45.68938 a 3.6483265,3.6483262 0 0 1 -4.89214,1.63412 3.6481103,3.6481104 0 1 0 -3.26298,6.52591"
       style="fill:none;stroke:#ff0000;stroke-width:0.9;stroke-miterlimit:4;stroke-dasharray:none;stroke-opacity:1"
       id="path3523" />
    <path
       inkscape:connector-curvature="0"
       d="m 234.25439,-291.20098 19.25481,9.62004 a 3.648108,3.648108 0 0 0 3.26296,-6.5259 3.6526246,3.6526246 0 0 1 -1.63491,-4.89516 l 22.82734,-45.6895 a 3.6659268,3.6659268 0 0 1 4.91984,-1.63983 3.6393944,3.6393943 0 0 0 3.23527,-6.52026 l -19.23497,-9.61016 a 3.647009,3.647009 0 1 0 -3.262,6.52396 3.6304722,3.6304722 0 0 1 1.61409,4.88725 l -22.82737,45.6895 a 3.6483265,3.6483262 0 0 1 -4.89208,1.63412 3.6481236,3.6481237 0 1 0 -3.26298,6.52594"
       style="fill:none;stroke:#ff0000;stroke-width:0.9;stroke-miterlimit:4;stroke-dasharray:none;stroke-opacity:1"
       id="path3525" />
    <path
       inkscape:connector-curvature="0"
       d="m -103.37652,-45.053981 a 1.7328861,1.7328861 0 1 0 -3.46577,0 1.7328861,1.7328861 0 0 0 3.46577,0 z"
       style="fill:none;stroke:#ff0000;stroke-width:0.9;stroke-miterlimit:4;stroke-dasharray:none;stroke-opacity:1"
       id="path3527" />
    <path
       inkscape:connector-curvature="0"
       d="m -64.158323,150.60556 9.625976,-19.25191 a 3.6482107,3.6482107 0 0 0 -6.526131,-3.26302 3.6481811,3.6481811 0 0 1 -4.894522,1.63152 l -42.74574,-21.37285 8.23918,-16.478307 a 3.6481811,3.6481811 0 0 1 4.894568,-1.631518 3.6481822,3.6481821 0 1 0 3.263033,-6.526061 l -19.251951,-9.625942 a 3.6481814,3.6481814 0 0 0 -3.26301,6.526059 3.6481811,3.6481811 0 0 1 1.63154,4.894537 l -22.84122,45.682442 a 3.6481811,3.6481811 0 0 1 -4.89459,1.63152 3.6481811,3.6481811 0 1 0 -3.26301,6.52606 l 19.25188,9.62595 a 3.6481829,3.6481829 0 1 0 3.26303,-6.52607 3.6481811,3.6481811 0 0 1 -1.63153,-4.89455 l 8.23917,-16.47831 42.745755,21.37286 a 3.6481811,3.6481811 0 0 1 1.631541,4.89454 3.6481811,3.6481811 0 0 0 6.526031,3.26305"
       style="fill:none;stroke:#ff0000;stroke-width:0.9;stroke-miterlimit:4;stroke-dasharray:none;stroke-opacity:1"
       id="path3529" />
    <path
       inkscape:connector-curvature="0"
       d="m -92.057229,35.094231 19.251886,9.62595 a 3.6481811,3.6481811 0 0 0 3.263033,-6.526062 3.6481811,3.6481811 0 0 1 -1.631524,-4.89454 l 21.372857,-42.7457232 16.478321,8.2391477 a 3.6481811,3.6481811 0 0 1 1.631522,4.8945552 3.6481811,3.6481811 0 1 0 6.526026,3.2630421 l 9.625973,-19.2518868 a 3.6481865,3.6481866 0 1 0 -6.526059,-3.263038 3.6481811,3.6481811 0 0 1 -4.894577,1.631518 l -45.682448,-22.841218 a 3.6481811,3.6481811 0 0 1 -1.631495,-4.894557 3.64819,3.64819 0 1 0 -6.526079,-3.263039 l -9.625927,19.251888 a 3.6481827,3.6481827 0 0 0 6.526065,3.263038 3.6481811,3.6481811 0 0 1 4.894541,-1.631523 l 16.478299,8.239171 -21.37284,42.745699 a 3.6481811,3.6481811 0 0 1 -4.894556,1.63152 3.6481811,3.6481811 0 0 0 -3.263018,6.526058"
       style="fill:none;stroke:#ff0000;stroke-width:0.9;stroke-miterlimit:4;stroke-dasharray:none;stroke-opacity:1"
       id="path3531" />
    <path
       inkscape:connector-curvature="0"
       d="m 51.352985,122.70662 -19.25189,-9.62594 a 3.6481811,3.6481811 0 0 0 -3.262986,6.52606 3.6481811,3.6481811 0 0 1 1.631475,4.89455 L 9.096742,167.24702 -7.3815869,159.00785 a 3.6481811,3.6481811 0 0 1 -1.6315244,-4.89453 3.6481811,3.6481811 0 1 0 -6.5260237,-3.26305 l -9.625973,19.25188 a 3.6482022,3.6482022 0 0 0 6.526102,3.26305 3.6481811,3.6481811 0 0 1 4.894516,-1.63152 l 45.682458,22.84123 a 3.6481811,3.6481811 0 0 1 1.631487,4.89453 3.6481998,3.6481998 0 1 0 6.52608,3.26304 l 9.625939,-19.25189 a 3.6481811,3.6481811 0 0 0 -6.526055,-3.26303 3.6481811,3.6481811 0 0 1 -4.894545,1.63152 l -16.478315,-8.23916 21.37286,-42.74572 a 3.6481811,3.6481811 0 0 1 4.894532,-1.63152 3.6481811,3.6481811 0 0 0 3.263034,-6.52606"
       style="fill:none;stroke:#ff0000;stroke-width:0.9;stroke-miterlimit:4;stroke-dasharray:none;stroke-opacity:1"
       id="path3533" />
    <path
       inkscape:connector-curvature="0"
       d="M 23.45407,7.1953202 13.828142,26.44721 a 3.6481888,3.6481888 0 1 0 6.526083,3.26302 3.6481811,3.6481811 0 0 1 4.894507,-1.6315 L 67.994525,49.451583 59.75528,65.929892 a 3.6481811,3.6481811 0 0 1 -4.894534,1.631521 3.6481834,3.6481834 0 0 0 -3.263046,6.526059 l 19.251959,9.625942 A 3.6481825,3.6481826 0 0 0 74.112703,77.187357 3.6481811,3.6481811 0 0 1 72.48117,72.292798 L 95.322401,26.610365 a 3.6481811,3.6481811 0 0 1 4.894519,-1.63152 3.6481811,3.6481811 0 1 0 3.26301,-6.526058 L 84.228088,8.8268407 a 3.6481811,3.6481811 0 0 0 -3.263033,6.5260603 3.6481811,3.6481811 0 0 1 1.631511,4.894539 L 74.35742,36.725752 31.611641,15.352901 A 3.6481811,3.6481811 0 0 1 29.980167,10.458343 3.6481954,3.6481954 0 1 0 23.45407,7.1953202"
       style="fill:none;stroke:#ff0000;stroke-width:0.9;stroke-miterlimit:4;stroke-dasharray:none;stroke-opacity:1"
       id="path3535" />
    <path
       inkscape:connector-curvature="0"
       d="m 558.83527,174.56069 a 1.732911,1.732911 0 1 0 -3.4658,0 1.732911,1.732911 0 0 0 3.4658,0 z"
       style="fill:none;stroke:#ff0000;stroke-width:0.9;stroke-miterlimit:4;stroke-dasharray:none;stroke-opacity:1"
       id="path3537" />
    <path
       inkscape:connector-curvature="0"
       d="m 631.79885,-105.4769 a 1.732895,1.732895 0 1 0 -3.46579,0 1.732895,1.732895 0 0 0 3.46579,0 z"
       style="fill:none;stroke:#ff0000;stroke-width:0.9;stroke-miterlimit:4;stroke-dasharray:none;stroke-opacity:1"
       id="path3539" />
    <path
       inkscape:connector-curvature="0"
       d="m 717.50497,-6.9760232 a 1.7328871,1.7328871 0 1 0 -3.46575,0 1.7328871,1.7328871 0 0 0 3.46575,0 z"
       style="fill:none;stroke:#ff0000;stroke-width:0.9;stroke-miterlimit:4;stroke-dasharray:none;stroke-opacity:1"
       id="path3541" />
    <path
       inkscape:connector-curvature="0"
       d="m 668.28066,273.06159 a 1.7328861,1.7328861 0 1 0 -3.46577,0 1.7328861,1.7328861 0 0 0 3.46577,0 z"
       style="fill:none;stroke:#ff0000;stroke-width:0.9;stroke-miterlimit:4;stroke-dasharray:none;stroke-opacity:1"
       id="path3543" />
    <path
       inkscape:connector-curvature="0"
       d="m 404.0612,-165.67186 0,218.890815 36.48177,0 22.665,-90.659893 a 72.963607,72.963607 0 0 1 70.7851,-55.267327 l 234.88614,0 0,-25.537265 a 3.6481811,3.6481811 0 0 0 -3.64814,-3.64819 3.6481811,3.6481811 0 0 1 0,-7.29635 l 17.87605,0 0,-36.48179 -72.9636,0 0,17.87608 a 3.6481885,3.6481883 0 0 1 -7.29635,0 3.6481811,3.6481811 0 0 0 -3.64817,-3.64821 l -21.70667,0 a 3.6481811,3.6481811 0 0 0 -3.64819,3.64821 3.6481902,3.6481902 0 0 1 -7.29638,0 l 0,-17.87608 -29.36785,0 0,25.53724 a 3.6481811,3.6481811 0 0 0 3.64819,3.64819 3.6481847,3.6481847 0 0 1 0,7.29636 l -21.52426,0 a 3.6481847,3.6481847 0 1 1 0,-7.29636 3.6481811,3.6481811 0 0 0 3.64816,-3.64819 l 0,-25.53724 -29.36787,0 0,17.87608 a 3.6481831,3.6481831 0 0 1 -7.29633,0 3.6481811,3.6481811 0 0 0 -3.64817,-3.64821 l -94.6703,0 a 3.6481811,3.6481811 0 0 0 -3.64815,3.64821 3.6481898,3.6481897 0 0 1 -7.29637,0 l 0,-17.87608 -72.96361,0"
       style="fill:none;stroke:#ff0000;stroke-width:0.9;stroke-miterlimit:4;stroke-dasharray:none;stroke-opacity:1"
       id="path3545" />
    <path
       inkscape:connector-curvature="0"
       d="m 576.95883,-19.744668 161.92255,0 a 72.963607,72.963607 0 0 0 70.78512,-55.267325 l 22.66495,-90.659867 36.48181,0 0,218.890815 -72.9636,0 0,-17.876085 a 3.6481885,3.6481883 0 1 0 -7.29637,0 3.6481811,3.6481811 0 0 1 -3.64817,3.648175 l -21.70668,0 a 3.6481811,3.6481811 0 0 1 -3.64814,-3.648175 3.648195,3.648195 0 1 0 -7.29639,0 l 0,17.876085 -29.36784,0 0,-25.537271 a 3.6481811,3.6481811 0 0 1 3.64816,-3.648175 3.6481829,3.6481829 0 0 0 0,-7.296365 l -21.52425,0 a 3.6481829,3.6481829 0 1 0 0,7.296365 3.6481811,3.6481811 0 0 1 3.64815,3.648175 l 0,25.537271 -29.36783,0 0,-17.876085 a 3.6481893,3.6481893 0 1 0 -7.29637,0 3.6481811,3.6481811 0 0 1 -3.64818,3.648175 l -21.70667,0 a 3.6481811,3.6481811 0 0 1 -3.64816,-3.648175 3.6481902,3.6481902 0 1 0 -7.29638,0 l 0,17.876085 -72.9636,0 0,-36.481811 17.87609,0 a 3.6481848,3.6481848 0 0 0 0,-7.2963667 3.6481811,3.6481811 0 0 1 -3.6482,-3.6481749 l 0,-25.5372704"
       style="fill:none;stroke:#ff0000;stroke-width:0.9;stroke-miterlimit:4;stroke-dasharray:none;stroke-opacity:1"
       id="path3547" />
    <path
       inkscape:connector-curvature="0"
       d="m 695.91564,187.32931 -161.92257,0 a 72.963607,72.963607 0 0 0 -70.7851,55.26731 l -22.665,90.65981 -36.48177,0 0,-218.89072 72.96361,0 0,17.87607 a 3.6481898,3.6481897 0 0 0 7.29637,0 3.6481811,3.6481811 0 0 1 3.64815,-3.64818 l 21.7067,0 a 3.6481811,3.6481811 0 0 1 3.64817,3.64818 3.6481864,3.648186 0 0 0 7.29635,0 l 0,-17.87607 29.36786,0 0,25.53725 a 3.6481811,3.6481811 0 0 1 -3.64818,3.6482 3.6481811,3.6481811 0 0 0 0,7.29635 l 21.52423,0 a 3.6481811,3.6481811 0 0 0 0,-7.29635 3.6481811,3.6481811 0 0 1 -3.64815,-3.6482 l 0,-25.53725 29.36782,0 0,17.87607 a 3.6482103,3.6482104 0 0 0 7.29642,0 3.6481811,3.6481811 0 0 1 3.64813,-3.64818 l 21.7067,0 a 3.6481811,3.6481811 0 0 1 3.64816,3.64818 3.6481953,3.6481953 0 0 0 7.29637,0 l 0,-17.87607 72.96361,0 0,36.4818 -17.8761,0 a 3.6481835,3.6481835 0 1 0 0,7.29636 3.6481811,3.6481811 0 0 1 3.64822,3.64818 l 0,25.53726"
       style="fill:none;stroke:#ff0000;stroke-width:0.9;stroke-miterlimit:4;stroke-dasharray:none;stroke-opacity:1"
       id="path3549" />
    <path
       inkscape:connector-curvature="0"
       d="m 1111.4408,333.25643 0,-218.89072 -36.4817,0 -22.6651,90.65987 a 72.963607,72.963607 0 0 1 -70.78251,55.26737 l -453.77699,0 0,25.53729 a 3.6481811,3.6481811 0 0 0 3.6482,3.64802 3.6482151,3.6482151 0 0 1 0,7.29643 l -17.87611,0 0,36.48174 72.9636,0 0,-17.87595 a 3.648197,3.6481971 0 1 1 7.29639,0 3.6481811,3.6481811 0 0 0 3.64816,3.64821 l 21.70669,0 a 3.6481811,3.6481811 0 0 0 3.64817,-3.64821 3.6481981,3.6481982 0 1 1 7.29639,0 l 0,17.87595 29.36783,0 0,-25.53712 a 3.6481811,3.6481811 0 0 0 -3.64822,-3.64819 3.6482197,3.6482197 0 1 1 0,-7.29643 l 21.52431,0 a 3.6482197,3.6482197 0 0 1 0,7.29643 3.6481811,3.6481811 0 0 0 -3.64819,3.64819 l 0,25.53712 29.36786,0 0,-17.87595 a 3.6481893,3.6481893 0 1 1 7.29637,0 3.6481811,3.6481811 0 0 0 3.64817,3.64821 l 313.55838,0 a 3.6481811,3.6481811 0 0 0 3.6482,-3.64821 3.6482505,3.6482506 0 1 1 7.2965,0 l 0,17.87595 72.9636,0"
       style="fill:none;stroke:#ff0000;stroke-width:0.9;stroke-miterlimit:4;stroke-dasharray:none;stroke-opacity:1"
       id="path3551" />
    <path
       inkscape:connector-curvature="0"
       d="m -142.57368,163.65767 a 1.7329,1.7329 0 1 0 -3.4658,0 1.7329,1.7329 0 0 0 3.4658,0 z"
       style="fill:none;stroke:#ff0000;stroke-width:0.9;stroke-miterlimit:4;stroke-dasharray:none;stroke-opacity:1"
       id="path3553" />
    <path
       inkscape:connector-curvature="0"
       d="m 98.76835,219.17001 a 1.7328861,1.7328861 0 1 0 -3.465748,0 1.7328861,1.7328861 0 0 0 3.465748,0 z"
       style="fill:none;stroke:#ff0000;stroke-width:0.9;stroke-miterlimit:4;stroke-dasharray:none;stroke-opacity:1"
       id="path3555" />
    <path
       inkscape:connector-curvature="0"
       d="m 170.60059,-136.37559 a 1.7327028,1.7327028 0 1 0 -3.4654,0 1.7327028,1.7327028 0 0 0 3.4654,0 z"
       style="fill:none;stroke:#ff0000;stroke-width:0.9;stroke-miterlimit:4;stroke-dasharray:none;stroke-opacity:1"
       id="path3557" />
  </g>
</svg>
